<svg xmlns="http://www.w3.org/2000/svg" xmlns:xlink="http://www.w3.org/1999/xlink" width="750.895" height="579.012" viewBox="0 0 750.895 579.012"><defs><style>.a{fill:url(#a);}.b{fill:url(#b);}.bj,.c{fill:#03c1b7;}.d{fill:url(#c);}.e{fill:#28b4f2;}.f{fill:url(#d);}.g{fill:#9c83e9;}.h{fill:url(#e);}.i{fill:#5282f0;}.j{fill:url(#f);}.k{opacity:0.44;fill:url(#g);}.ac,.ak,.ao,.as,.at,.bb,.be,.bi,.bj,.bn,.bo,.bq,.br,.bv,.l,.o,.p,.r,.s,.v,.w{opacity:0.5;}.l{fill:url(#j);}.m{fill:#312a91;}.n,.o,.v{fill:#1d5ef2;}.p{fill:#5cfff3;}.q{fill:url(#k);}.r,.t{fill:#b7ccfe;}.s{fill:url(#l);}.u{fill:url(#m);}.v{stroke:rgba(0,0,0,0);stroke-miterlimit:10;}.w{fill:url(#n);}.x{fill:url(#o);}.y{fill:url(#p);}.bs,.z{opacity:0.2;}.z{fill:url(#q);}.aa,.bt{opacity:0.6;}.aa{fill:url(#r);}.ab{fill:url(#s);}.ac{fill:url(#t);}.ad{fill:url(#u);}.ae{fill:url(#aa);}.af{fill:url(#ac);}.ag{fill:url(#ad);}.ah{fill:#1b85b4;}.ai{fill:url(#ae);}.aj{fill:url(#af);}.ak{fill:url(#ag);}.al{fill:url(#ao);}.am{fill:url(#at);}.an{fill:#764fef;}.ao{fill:url(#av);}.ap,.as{fill:#cbc0ef;}.aq{fill:url(#aw);}.ar{fill:url(#ax);}.at{fill:url(#ay);}.au{fill:url(#az);}.av{fill:url(#ba);}.aw{fill:#8968eb;}.ax{fill:url(#bb);}.ay{fill:url(#bc);}.az{fill:url(#bd);}.ba{fill:url(#be);}.bb{fill:url(#bf);}.bc{fill:url(#bg);}.bd{fill:#00958d;}.be{fill:url(#bh);}.bf{fill:url(#bi);}.bg{fill:#9dece8;}.bh{fill:url(#bj);}.bi{fill:url(#bk);}.bk{fill:url(#bl);}.bl{fill:url(#bm);}.bm{fill:url(#bn);}.bn{fill:url(#br);}.bo{fill:url(#bs);}.bp{fill:url(#bt);}.bq{fill:url(#bu);}.br{fill:url(#bv);}.bs,.bt,.bu{fill:url(#bw);}.bv{fill:url(#bz);}.bw{filter:url(#y);}.bx{filter:url(#h);}</style><linearGradient id="a" x1="0.5" x2="0.5" y2="1" gradientUnits="objectBoundingBox"><stop offset="0" stop-color="#03c1b7"/><stop offset="0.321" stop-color="#28b4f2"/><stop offset="0.706" stop-color="#5282f0"/><stop offset="1" stop-color="#9c83e9"/></linearGradient><radialGradient id="b" cx="0.5" cy="0.5" r="0.563" gradientTransform="translate(0.285 1.174) rotate(-117.269)" gradientUnits="objectBoundingBox"><stop offset="0" stop-color="#03c1b7"/><stop offset="1" stop-color="#fff" stop-opacity="0"/></radialGradient><radialGradient id="c" cx="0.5" cy="0.5" r="0.458" gradientTransform="translate(0 0)" gradientUnits="objectBoundingBox"><stop offset="0" stop-color="#28b4f2"/><stop offset="1" stop-color="#fff" stop-opacity="0"/></radialGradient><radialGradient id="d" cx="0.5" cy="0.5" r="0.577" gradientTransform="translate(0.141 -0.109) rotate(14.445)" gradientUnits="objectBoundingBox"><stop offset="0" stop-color="#9c83e9"/><stop offset="1" stop-color="#fff" stop-opacity="0"/></radialGradient><radialGradient id="e" cx="0.5" cy="0.5" r="0.54" gradientTransform="translate(0 0)" gradientUnits="objectBoundingBox"><stop offset="0" stop-color="#5282f0"/><stop offset="1" stop-color="#fff" stop-opacity="0"/></radialGradient><radialGradient id="f" r="0.5" gradientTransform="matrix(1, 0, 0, 1, 0, 0)" xlink:href="#c"/><linearGradient id="g" x1="0.599" y1="1.112" x2="0.603" y2="0.451" gradientUnits="objectBoundingBox"><stop offset="0" stop-color="#1d5ef2"/><stop offset="1" stop-color="#5282f0" stop-opacity="0.188"/></linearGradient><filter id="h" x="223.946" y="152" width="269.713" height="165.633" filterUnits="userSpaceOnUse"><feOffset dy="3" input="SourceAlpha"/><feGaussianBlur stdDeviation="3" result="i"/><feFlood flood-opacity="0.161"/><feComposite operator="in" in2="i"/><feComposite in="SourceGraphic"/></filter><linearGradient id="j" y1="0.5" x2="1" y2="0.5" gradientUnits="objectBoundingBox"><stop offset="0" stop-color="#b7ccfe"/><stop offset="1" stop-color="#5282f0"/></linearGradient><linearGradient id="k" y1="0.5" x2="1" y2="0.5" gradientUnits="objectBoundingBox"><stop offset="0" stop-color="#2b237c"/><stop offset="1" stop-color="#180d5b"/></linearGradient><linearGradient id="l" x1="0.581" y1="1.228" x2="0.384" y2="0.039" xlink:href="#j"/><linearGradient id="m" x1="0.579" y1="1.628" x2="0.576" y2="-0.242" xlink:href="#j"/><linearGradient id="n" x1="0.242" y1="-0.133" x2="0.637" y2="0.938" gradientUnits="objectBoundingBox"><stop offset="0" stop-color="#b7ccfe"/><stop offset="1" stop-color="#5282f0" stop-opacity="0"/></linearGradient><linearGradient id="o" x1="0.632" y1="1.086" x2="0.615" y2="0.223" xlink:href="#j"/><linearGradient id="p" x1="0.5" x2="0.5" y2="1" gradientUnits="objectBoundingBox"><stop offset="0" stop-color="#1d5ef2"/><stop offset="1" stop-color="#5282f0"/></linearGradient><linearGradient id="q" x1="1" y1="0.166" x2="0" y2="1" xlink:href="#j"/><linearGradient id="r" x1="0.812" y1="0" x2="0.151" y2="1" xlink:href="#j"/><linearGradient id="s" x1="0.365" y1="0.898" x2="0.084" y2="0.763" xlink:href="#p"/><linearGradient id="t" x1="-0.023" y1="0.137" x2="1.051" y2="0.35" xlink:href="#j"/><linearGradient id="u" x1="0.784" y1="1.982" y2="-1.127" xlink:href="#p"/><filter id="y" x="223.946" y="123.762" width="269.713" height="165.633" filterUnits="userSpaceOnUse"><feOffset dy="3" input="SourceAlpha"/><feGaussianBlur stdDeviation="3" result="z"/><feFlood flood-opacity="0.161"/><feComposite operator="in" in2="z"/><feComposite in="SourceGraphic"/></filter><linearGradient id="aa" x1="0.5" y1="0.519" x2="0.602" y2="1.115" gradientUnits="objectBoundingBox"><stop offset="0" stop-color="#fff" stop-opacity="0"/><stop offset="1" stop-color="#28b4f2"/></linearGradient><linearGradient id="ac" x1="0.592" y1="1.148" x2="0.435" gradientUnits="objectBoundingBox"><stop offset="0" stop-color="#b5e6fc"/><stop offset="1" stop-color="#28b4f2"/></linearGradient><linearGradient id="ad" x1="0.459" x2="0.688" y2="1.97" gradientUnits="objectBoundingBox"><stop offset="0" stop-color="#1b85b4"/><stop offset="1" stop-color="#28b4f2"/></linearGradient><linearGradient id="ae" x1="0" y1="0.5" x2="1" y2="0.5" xlink:href="#ac"/><linearGradient id="af" x1="-0.143" y1="0.5" x2="2.235" y2="0.5" xlink:href="#ac"/><linearGradient id="ag" x1="0.5" y1="0" x2="0.5" y2="1" xlink:href="#ac"/><linearGradient id="ao" x1="0.387" y1="-0.904" x2="1.243" y2="0.72" xlink:href="#ad"/><linearGradient id="at" x1="0.628" y1="1.193" x2="0.5" y2="0.423" gradientUnits="objectBoundingBox"><stop offset="0" stop-color="#764fef"/><stop offset="1" stop-color="#fff" stop-opacity="0"/></linearGradient><linearGradient id="av" x1="0.702" y1="1" x2="0.109" y2="0.932" gradientUnits="objectBoundingBox"><stop offset="0" stop-color="#764fef"/><stop offset="0.827" stop-color="#7952ef"/><stop offset="1" stop-color="#9c83e9"/></linearGradient><linearGradient id="aw" x1="0.591" y1="1.23" x2="0.5" y2="0.646" gradientUnits="objectBoundingBox"><stop offset="0" stop-color="#cbc0ef"/><stop offset="1" stop-color="#9c83e9"/></linearGradient><linearGradient id="ax" x1="0.5" y1="0.663" x2="0.486" y2="1.547" gradientUnits="objectBoundingBox"><stop offset="0" stop-color="#764fef"/><stop offset="1" stop-color="#9c83e9"/></linearGradient><linearGradient id="ay" x1="0.5" y1="0" y2="1" xlink:href="#aw"/><linearGradient id="az" x1="0.545" y1="1" x2="0.587" y2="0.048" xlink:href="#aw"/><linearGradient id="ba" x1="0.048" y1="-0.06" x2="0.99" y2="1.13" xlink:href="#aw"/><linearGradient id="bb" x1="1" y1="0.852" x2="0.401" y2="0.879" gradientUnits="objectBoundingBox"><stop offset="0" stop-color="#764fef"/><stop offset="0.808" stop-color="#7851ef" stop-opacity="0.992"/><stop offset="1" stop-color="#9c83e9" stop-opacity="0.812"/></linearGradient><linearGradient id="bc" x1="0.515" y1="0.698" y2="-0.115" xlink:href="#aw"/><linearGradient id="bd" x1="0.477" y1="-0.302" x2="0.511" y2="0.605" xlink:href="#aw"/><linearGradient id="be" x1="0.389" y1="0.308" x2="0.91" y2="1.055" xlink:href="#ax"/><linearGradient id="bf" x1="1.163" y1="0.543" x2="0.558" y2="0.058" xlink:href="#ax"/><linearGradient id="bg" x1="0.5" y1="1.364" x2="0.484" y2="0.623" gradientUnits="objectBoundingBox"><stop offset="0" stop-color="#00958d"/><stop offset="1" stop-color="#03c1b7" stop-opacity="0"/></linearGradient><linearGradient id="bh" x1="0.198" y1="0.55" x2="0.546" y2="0.561" gradientUnits="objectBoundingBox"><stop offset="0" stop-color="#00958d"/><stop offset="1" stop-color="#004b47"/></linearGradient><linearGradient id="bi" x1="0.527" y1="1.141" x2="0.492" y2="0.222" gradientUnits="objectBoundingBox"><stop offset="0" stop-color="#9dece8"/><stop offset="1" stop-color="#03c1b7"/></linearGradient><linearGradient id="bj" x1="0.5" y1="0.663" x2="0.486" y2="1.547" gradientUnits="objectBoundingBox"><stop offset="0" stop-color="#00958d"/><stop offset="1" stop-color="#03c1b7"/></linearGradient><linearGradient id="bk" y1="0" x2="0.5" y2="1" xlink:href="#bj"/><linearGradient id="bl" x1="0.545" y1="1" x2="0.587" y2="0.048" xlink:href="#bi"/><linearGradient id="bm" x1="0.048" y1="-0.06" x2="0.99" y2="1.13" xlink:href="#bi"/><linearGradient id="bn" x1="1.225" y1="-0.738" x2="-1.132" y2="0.215" xlink:href="#bj"/><linearGradient id="br" x1="0.043" y1="0.527" x2="0.587" y2="0.567" gradientUnits="objectBoundingBox"><stop offset="0" stop-color="#00958d"/><stop offset="0.735" stop-color="#00615c"/><stop offset="1" stop-color="#004b47"/></linearGradient><linearGradient id="bs" x1="0.136" y1="0.839" x2="0.973" y2="-0.924" xlink:href="#bi"/><linearGradient id="bt" x1="0.5" y1="0" x2="0.5" y2="1" xlink:href="#bi"/><linearGradient id="bu" x1="0.475" y1="0.679" x2="0.517" y2="0.015" xlink:href="#bi"/><linearGradient id="bv" x1="0" y1="0.5" x2="1" y2="0.5" xlink:href="#bj"/><linearGradient id="bw" x1="2.951" y1="0.5" x2="3.906" y2="-2.125" gradientUnits="objectBoundingBox"><stop offset="0" stop-color="#00958d"/><stop offset="0.782" stop-color="#019f96"/><stop offset="1" stop-color="#03c1b7"/></linearGradient><linearGradient id="bz" x1="0.514" y1="0.511" x2="0.459" y2="-0.156" xlink:href="#bj"/></defs><g transform="translate(0 0)"><g transform="translate(0 145)"><path class="a" d="M139.8,1305.2c-10.7,0-20.924-2.157-28.545-6.558l-333.4-192.487c-7.461-4.308-11.565-10.288-11.565-16.845,0-7.887,5.915-15.824,16.232-21.781L106.574,880.446c19.385-11.2,48.834-12.4,65.65-2.7l333.4,192.489c7.459,4.3,11.565,10.288,11.565,16.845,0,7.882-5.915,15.821-16.233,21.781L176.9,1295.95C166.31,1302.068,152.7,1305.2,139.8,1305.2Zm-27.921-7.64c16.471,9.506,45.358,8.3,64.4-2.7l324.049-187.087c9.921-5.727,15.609-13.269,15.609-20.7,0-6.1-3.884-11.694-10.94-15.764L171.6,878.832c-16.471-9.511-45.358-8.3-64.4,2.7l-324.047,187.091c-9.921,5.727-15.609,13.275-15.609,20.7,0,6.089,3.883,11.687,10.94,15.761Z" transform="translate(233.706 -871.192)"/><circle class="b" cx="25.164" cy="25.164" r="25.164" transform="translate(267.753 12.062)"/><circle class="c" cx="7.174" cy="7.174" r="7.174" transform="translate(285.744 30.052)"/><circle class="d" cx="25.164" cy="25.164" r="25.164" transform="translate(14.034 158.839)"/><path class="e" d="M-200.447,982.8a7.173,7.173,0,0,1-7.174,7.171,7.173,7.173,0,0,1-7.173-7.175,7.174,7.174,0,0,1,7.174-7.171h0a7.171,7.171,0,0,1,7.173,7.171Z" transform="translate(246.817 -798.792)"/><circle class="f" cx="25.164" cy="25.164" r="25.164" transform="translate(564.753 295.352)"/><circle class="g" cx="7.174" cy="7.174" r="7.174" transform="translate(582.743 313.341)"/><circle class="h" cx="25.164" cy="25.164" r="25.164" transform="translate(611.401 267.864)"/><circle class="i" cx="7.174" cy="7.174" r="7.174" transform="translate(629.391 285.854)"/><circle class="j" cx="25.164" cy="25.164" r="25.164" transform="translate(658.048 240.792)"/><path class="e" d="M179.888,1031.192a7.174,7.174,0,1,1-7.176-7.171h0A7.175,7.175,0,0,1,179.888,1031.192Z" transform="translate(510.497 -765.238)"/></g><g transform="translate(-368.222 -297)"><g transform="translate(601.119 297)"><g transform="translate(0.049 158)"><g class="bx" transform="matrix(1, 0, 0, 1, -232.95, -158)"><path class="k" d="M161.5-90.485-90.11-96.437-90.136-77v11.514c0,.219-.013.438,0,.654v10.343c0,.219-.013.438,0,.657v21.981h.029a8.009,8.009,0,0,0,.166,1.2,10.1,10.1,0,0,0,3.6,5.536,17.336,17.336,0,0,0,2.751,1.867L-27.43,7.9,28.727,39.036,44.121,47.57c4.159,2.308,9.644,3.5,15.441,3.616a48.276,48.276,0,0,0,17.29-2.811L104.3,31.73l27.454-16.641.525-.319.525-.316c20.626-12.506,30.067-29.363,28.582-46.3h.182v-7.746h-.034c0-.356-.032-.715-.045-1.073.016-.728.011-1.453-.013-2.181h.092v-8.078h-.034c-.005-.53,0-1.058-.032-1.588,0-1.042-.024-2.083-.116-3.128h.182v-6.285h-.034c-.011-.76-.037-1.519-.092-2.279h.127v-7.743h-.095a39.39,39.39,0,0,0-.087-5.05h.182V-89.57l-.034,6.287C161.534-83.575,161.515-90.179,161.5-90.485Zm-.029,18.537c-.016.359-.011.717-.037,1.073-.021-.359-.018-.715-.05-1.073Z" transform="translate(323.09 254.44)"/></g></g><g transform="translate(-2329.572 -1803.6)"><path class="l" d="M-83.582-54.385,28.731,7.893l15.4,8.537c8.315,4.61,21.945,4.76,32.728.8l54.9-33.285,1.05-.636C153-28.928,162.444-45.34,161.445-61.915c-1.018,14.821-10.5,29.181-28.635,40.176l-1.05.636-54.9,33.285c-10.784,3.959-24.413,3.808-32.728-.8l-15.4-8.537L-83.582-59.436c-4.175-2.316-6.316-5.377-6.522-8.605h-.026v5.05h.026C-89.9-59.763-87.756-56.7-83.582-54.385Z" transform="translate(2419.759 2020.046)"/><path class="m" d="M128.468-75.787C92.14-97.938,37.908-102.039-2.033-87.5a105.67,105.67,0,0,0-18.651,8.814l-1.05.636L-50.258-60.76-80.863-43.79A21.7,21.7,0,0,0-87.9-37.94a10.74,10.74,0,0,0-2.163,4.99c-.477,3.787,1.643,7.471,6.482,10.153L28.73,39.484l15.4,8.534c8.315,4.613,21.945,4.763,32.728.8l54.9-33.285,1.05-.636C172.8-9.339,170.854-49.942,128.468-75.787Z" transform="translate(2419.759 1974.204)"/><g transform="translate(2329.629 1940.053)"><path class="n" d="M161.574-66.906h-.079a39.488,39.488,0,0,1-1.727,10.678,43.447,43.447,0,0,1-3.624,8.4c-4.7,8.392-12.453,16.2-23.334,22.8l-1.05.638L76.855,8.894c-10.784,3.959-24.413,3.808-32.728-.8L28.731-.447-56.716-47.828-79.961-60.716l-3.621-2.01c-4.707-2.611-6.82-6.169-6.5-9.847h-.053v24.745h.026c.206,3.231,2.347,6.29,6.522,8.605L28.731,23.056l15.4,8.537c8.315,4.61,21.945,4.76,32.728.8L131.76-.89l1.05-.636c20.629-12.5,30.067-29.363,28.585-46.3h.179v-7.743h-.092c-.016.359-.013.717-.037,1.076-.021-.359-.018-.717-.05-1.076h.087a39.39,39.39,0,0,0-.087-5.05h.179Z" transform="translate(90.13 72.573)"/><path class="o" d="M132.81-19.824l-1.05.636L76.855,14.1c-10.784,3.959-24.413,3.808-32.728-.8l-15.4-8.537L-83.582-57.521C-87.756-59.836-89.9-62.9-90.1-66.126h-.026v7.743h.026c.206,3.231,2.347,6.29,6.522,8.605L28.731,12.5l15.4,8.537c8.315,4.61,21.945,4.76,32.728.8l54.9-33.285,1.05-.636c20.629-12.5,30.067-29.363,28.585-46.3h.179v-7.743h-.092c-.016.359-.013.717-.037,1.076C162.444-48.475,153-32.063,132.81-19.824Z" transform="translate(90.13 83.128)"/></g><path class="p" d="M128.457-75.787C92.129-97.938,37.9-102.039-2.044-87.5a105.669,105.669,0,0,0-18.651,8.814l-1.05.636L-50.269-60.76-80.874-43.79a21.7,21.7,0,0,0-7.039,5.849,10.74,10.74,0,0,0-2.163,4.99c-.477,3.787,1.643,7.471,6.482,10.153L28.719,39.484l15.4,8.534c8.315,4.613,21.945,4.763,32.728.8l54.9-33.285,1.05-.636C172.787-9.339,170.843-49.942,128.457-75.787Z" transform="translate(2419.741 1974.204)"/><path class="p" d="M38.8,22.779a31.919,31.919,0,0,1-15.241-3.486L-70.53-32.957c-1.6-1.205-5.351-4.024-5.7-8.946-.235-3.349,1.195-6.6,4.254-9.647.506-.506,1.857-1.854,18.993-12.756l21.736-13.178a84.394,84.394,0,0,1,14.787-7c31.747-11.554,73.3-7.8,101.062,9.127,17.4,10.612,27.375,25.418,27.354,40.624-.018,14.36-8.613,27.472-24.2,36.919l-1.145.675L52.954,20.3A41.475,41.475,0,0,1,38.8,22.779ZM-61.534-42.976,29.957,7.759c4.209,2.331,11.912,2.447,18.081.3L80.93-9.087c11.493-6.968,17.83-16.079,17.844-25.66.013-10.491-7.653-21.188-21.035-29.347h0c-24.178-14.745-61.9-18.1-89.682-8A70.662,70.662,0,0,0-24.41-66.2l-21.612,13.1C-51.8-49.432-58.554-45.033-61.534-42.976Z" transform="translate(2442.482 1982.225)"/><path class="q" d="M128.457-75.787C92.129-97.938,37.9-102.039-2.044-87.5a105.669,105.669,0,0,0-18.651,8.814l-1.05.636L-50.269-60.76-80.874-43.79a21.7,21.7,0,0,0-7.039,5.849,10.74,10.74,0,0,0-2.163,4.99c-.477,3.787,1.643,7.471,6.482,10.153L28.719,39.484l15.4,8.534c8.315,4.613,21.945,4.763,32.728.8l54.9-33.285,1.05-.636C172.787-9.339,170.843-49.942,128.457-75.787Z" transform="translate(2419.741 1974.204)"/><path class="r" d="M-83.582-54.385,28.731,7.893l15.4,8.537c8.315,4.61,21.945,4.76,32.728.8l54.9-33.285,1.05-.636C153-28.928,162.444-45.34,161.445-61.915c-1.018,14.821-10.5,29.181-28.635,40.176l-1.05.636-54.9,33.285c-10.784,3.959-24.413,3.808-32.728-.8l-15.4-8.537L-83.582-59.436c-4.175-2.316-6.316-5.377-6.522-8.605h-.026v5.05h.026C-89.9-59.763-87.756-56.7-83.582-54.385Z" transform="translate(2419.759 2020.046)"/><path class="n" d="M128.468-75.787C92.14-97.938,37.908-102.039-2.033-87.5a105.67,105.67,0,0,0-18.651,8.814l-1.05.636L-50.258-60.76-80.863-43.79A21.736,21.736,0,0,0-87.9-37.94a10.74,10.74,0,0,0-2.163,4.99c-.477,3.787,1.643,7.471,6.482,10.153L28.733,39.484l15.394,8.534c8.315,4.613,21.945,4.763,32.728.8l54.907-33.285,1.047-.636C172.8-9.339,170.854-49.942,128.468-75.787Zm-17.954,86-1.142.675L75.705,28.323A41.475,41.475,0,0,1,61.556,30.8a31.919,31.919,0,0,1-15.241-3.486L-47.779-24.936c-1.6-1.205-5.351-4.024-5.694-8.946-.235-3.349,1.195-6.6,4.251-9.647.506-.506,1.857-1.857,18.993-12.756L-8.492-69.463a84.332,84.332,0,0,1,14.79-7c31.745-11.554,73.3-7.8,101.059,9.127,17.4,10.612,27.375,25.418,27.354,40.624C134.692-12.349,126.1.764,110.514,10.21Z" transform="translate(2419.759 1974.204)"/><path class="s" d="M128.468-75.787C92.14-97.938,37.908-102.039-2.033-87.5a105.67,105.67,0,0,0-18.651,8.814l-1.05.636L-50.258-60.76-80.863-43.79A21.736,21.736,0,0,0-87.9-37.94a10.74,10.74,0,0,0-2.163,4.99c-.477,3.787,1.643,7.471,6.482,10.153L28.733,39.484l15.394,8.534c8.315,4.613,21.945,4.763,32.728.8l54.907-33.285,1.047-.636C172.8-9.339,170.854-49.942,128.468-75.787Zm-17.954,86-1.142.675L75.705,28.323A41.475,41.475,0,0,1,61.556,30.8a31.919,31.919,0,0,1-15.241-3.486L-47.779-24.936c-1.6-1.205-5.351-4.024-5.694-8.946-.235-3.349,1.195-6.6,4.251-9.647.506-.506,1.857-1.857,18.993-12.756L-8.492-69.463a84.332,84.332,0,0,1,14.79-7c31.745-11.554,73.3-7.8,101.059,9.127,17.4,10.612,27.375,25.418,27.354,40.624C134.692-12.349,126.1.764,110.514,10.21Z" transform="translate(2419.759 1974.204)"/><g transform="translate(2366.262 1891.083)"><path class="t" d="M84.615-75.353C56.856-92.284,15.3-96.035-16.444-84.481a84.332,84.332,0,0,0-14.79,7L-52.97-64.306c-17.137,10.9-18.487,12.25-18.993,12.756-3.057,3.051-4.486,6.3-4.251,9.647.343,4.921,4.093,7.74,5.694,8.946L23.574,19.292a31.919,31.919,0,0,0,15.241,3.486A41.475,41.475,0,0,0,52.963,20.3L86.63,2.865l1.142-.675c15.583-9.447,24.178-22.559,24.2-36.919C111.99-49.936,102.018-64.741,84.615-75.353Z" transform="translate(76.239 91.142)"/><path class="u" d="M-75.637-39.273a14.891,14.891,0,0,1,3.674-5.543c.506-.506,1.857-1.854,18.993-12.756l21.736-13.178a84.334,84.334,0,0,1,14.79-7C15.3-89.3,56.856-85.549,84.615-68.62c16.1,9.821,25.827,23.234,27.174,37.23.105-1.1.177-2.215.179-3.339.021-15.206-9.95-30.012-27.354-40.624C56.856-92.284,15.3-96.035-16.444-84.481a84.332,84.332,0,0,0-14.79,7L-52.97-64.306c-17.137,10.9-18.487,12.25-18.993,12.756-3.057,3.051-4.486,6.3-4.251,9.647A9.788,9.788,0,0,0-75.637-39.273Z" transform="translate(76.239 91.142)"/></g><g transform="translate(2397.473 1905.884)"><path class="o" d="M45.973-74.133h0C28.359-84.874-6.74-89.22-26.841-81.9a54.317,54.317,0,0,0-9.576,4.533l-13.184,8c-3.188,2.028-7.579,4.874-9.684,6.327A11.862,11.862,0,0,0-64.39-52.7c.2,4.1,11.274,9.763,14.864,11.754L10.429-7.5A23.11,23.11,0,0,0,21.5-4.913,28.9,28.9,0,0,0,30.936-6.5a11.912,11.912,0,0,0,1.577-.683L52.25-17.466c.227-.116.448-.243.665-.374C63.49-24.249,69.324-33.316,69.337-43.369,69.35-53.908,57.622-67.031,45.973-74.133Z" transform="translate(64.405 85.529)"/><path class="v" d="M85.907,52.208a23.234,23.234,0,0,1-11.075-2.587L14.878,16.174c-.308-.171-.671-.369-1.077-.59C9.385,13.177.2,8.169.015,4.42A11.818,11.818,0,0,1,.637,0c2.174,3.454,9.6,7.5,13.167,9.447.405.221.767.418,1.074.588L74.833,43.483A23.258,23.258,0,0,0,85.907,46.07a28.979,28.979,0,0,0,9.432-1.583,11.805,11.805,0,0,0,1.578-.684l19.736-10.287c.217-.111.435-.234.665-.375,9.389-5.689,14.986-13.325,16.186-22.083a15.921,15.921,0,0,1,.236,2.694c-.012,10.053-5.844,19.12-16.422,25.53-.18.109-.419.25-.665.373L96.918,49.944a12.1,12.1,0,0,1-1.578.684A29.038,29.038,0,0,1,85.907,52.208Z" transform="translate(0 28.408)"/></g><g transform="translate(2503.536 1996.124)"><path class="t" d="M-18.348-47.433c1.337.77,1.337,2.02,0,2.793a5.352,5.352,0,0,1-4.837,0c-1.337-.773-1.337-2.023,0-2.793A5.336,5.336,0,0,1-18.348-47.433Z" transform="translate(24.187 56.713)"/><path class="t" d="M-15.491-49.084c1.337.773,1.337,2.023,0,2.793a5.336,5.336,0,0,1-4.837,0c-1.337-.77-1.337-2.02,0-2.793A5.352,5.352,0,0,1-15.491-49.084Z" transform="translate(28.865 54.013)"/><path class="t" d="M-12.633-50.732c1.334.77,1.334,2.02,0,2.793a5.357,5.357,0,0,1-4.839,0c-1.334-.773-1.334-2.023,0-2.793A5.341,5.341,0,0,1-12.633-50.732Z" transform="translate(33.542 51.312)"/></g><path class="w" d="M161.574-66.906H161.5a39.6,39.6,0,0,1-1.73,10.678,43.447,43.447,0,0,1-3.624,8.4c-4.7,8.392-12.453,16.2-23.334,22.8l-1.05.638L76.855,8.894c-10.784,3.959-24.413,3.808-32.728-.8L28.733-.447-56.716-47.828-79.961-60.716l-3.621-2.01c-4.707-2.611-6.82-6.169-6.5-9.847h-.053v24.745h.026c.206,3.231,2.347,6.29,6.522,8.605L28.733,23.056l15.394,8.537c8.315,4.61,21.945,4.76,32.728.8L131.76-.89l1.05-.636c20.629-12.5,30.067-29.363,28.585-46.3h.179v-7.743h-.092c-.016.359-.011.717-.037,1.076-.021-.359-.018-.717-.05-1.076h.087a39.39,39.39,0,0,0-.087-5.05h.179Z" transform="translate(2419.702 2012.626)"/><path class="i" d="M128.462-100.667c-36.328-22.15-90.56-26.254-130.5-11.715a105.607,105.607,0,0,0-18.653,8.814l-1.05.636L-50.264-85.64-80.869-68.669a21.731,21.731,0,0,0-7.039,5.849,10.756,10.756,0,0,0-2.163,4.99c-.475,3.787,1.646,7.471,6.485,10.153L28.727,14.6,44.12,23.139c8.318,4.613,21.947,4.763,32.731.8l54.9-33.285,1.05-.638C172.794-34.221,170.85-74.822,128.462-100.667Z" transform="translate(2419.724 1947.011)"/><path class="x" d="M128.468-109.195c-36.328-22.15-90.56-26.254-130.5-11.715A105.849,105.849,0,0,0-20.684-112.1l-1.05.638L-50.258-94.168-80.863-77.2A21.7,21.7,0,0,0-87.9-71.348a10.729,10.729,0,0,0-2.163,4.99c-.477,3.787,1.643,7.471,6.482,10.153L28.733,6.074l15.394,8.537c8.315,4.613,21.945,4.763,32.728.8L131.762-17.87l1.047-.638C172.8-42.749,170.854-83.35,128.468-109.195Z" transform="translate(2419.733 1933.049)"/><path class="y" d="M42.41-12.072a28.91,28.91,0,0,1-13.743-3.062L-73.5-71.784c-2.081-1.548-3.885-3.217-4.053-5.591-.132-1.912.831-3.866,2.941-5.973,1.5-1.5,16.747-11.227,19.79-13.162l23.685-14.357a86.033,86.033,0,0,1,15.154-7.163c33.177-12.076,76.572-8.175,105.54,9.486h0c17.5,10.673,27.135,24.674,27.114,39.424-.016,13.582-8.413,26.146-23.648,35.381l-.833.506L56.1-14.474A40.133,40.133,0,0,1,42.41-12.072ZM25.888-122.38a120.816,120.816,0,0,0-40.97,6.828,83.238,83.238,0,0,0-14.687,6.939L-53.432-94.269c-6.923,4.4-18.316,11.788-19.315,12.785-1.516,1.516-2.25,2.835-2.173,3.922.095,1.324,1.427,2.5,2.853,3.571L29.944-17.441c6.145,3.41,16.7,3.642,25.088.559L91.656-35.994c14.413-8.74,22.361-20.5,22.377-33.129.018-13.793-9.162-26.995-25.853-37.172h0C70.866-116.852,48.26-122.38,25.888-122.38Z" transform="translate(2440.306 1940.332)"/><path class="z" d="M-34.908-104.111c2.542,1.466,2.542,3.848,0,5.314a10.163,10.163,0,0,1-9.2,0c-2.542-1.466-2.542-3.848,0-5.314A10.163,10.163,0,0,1-34.908-104.111Z" transform="translate(2491.954 1972.73)"/><path class="aa" d="M-29.47-107.251c2.542,1.469,2.542,3.848,0,5.317a10.184,10.184,0,0,1-9.207,0c-2.542-1.469-2.542-3.848,0-5.317A10.184,10.184,0,0,1-29.47-107.251Z" transform="translate(2500.854 1967.592)"/><path class="t" d="M-24.034-110.388c2.542,1.466,2.542,3.848,0,5.314a10.168,10.168,0,0,1-9.207,0c-2.542-1.466-2.542-3.848,0-5.314A10.168,10.168,0,0,1-24.034-110.388Z" transform="translate(2509.754 1962.453)"/><path class="ab" d="M161.562-100.091h-.079a39.631,39.631,0,0,1-1.73,10.681,43.484,43.484,0,0,1-3.621,8.4c-4.7,8.392-12.453,16.2-23.334,22.8l-1.05.636-54.9,33.285c-10.784,3.958-24.413,3.808-32.731-.8L28.719-33.632-56.728-81.013-79.973-93.9l-3.621-2.01c-4.708-2.611-6.823-6.169-6.5-9.847h-.053v24.745h.026c.206,3.231,2.347,6.29,6.522,8.605L28.719-10.129,44.112-1.592c8.318,4.613,21.947,4.76,32.731.8l54.9-33.285,1.05-.636c20.626-12.5,30.067-29.36,28.582-46.3h.182v-7.743h-.095c-.013.359-.011.717-.034,1.076-.024-.359-.021-.717-.053-1.076h.087a38.916,38.916,0,0,0-.087-5.05h.182Z" transform="translate(2419.714 1971.837)"/><path class="ac" d="M-83.594-87.57,28.719-25.292l15.394,8.537c8.318,4.61,21.947,4.76,32.731.8l54.9-33.285,1.05-.636C152.988-62.113,162.43-78.525,161.433-95.1c-1.021,14.821-10.5,29.181-28.635,40.176l-1.05.636L76.843-21c-10.784,3.958-24.413,3.808-32.731-.8L28.719-30.342-83.594-92.621c-4.175-2.315-6.316-5.375-6.522-8.605h-.026v5.05h.026C-89.91-92.948-87.768-89.886-83.594-87.57Z" transform="translate(2419.714 1979.257)"/><path class="ad" d="M-33.459-103.967c2.874,1.658,2.874,4.35,0,6.007a11.488,11.488,0,0,1-10.4,0c-2.874-1.658-2.874-4.35,0-6.007A11.488,11.488,0,0,1-33.459-103.967Z" transform="translate(2490.725 1972.319)"/><path class="ad" d="M-28.02-107.108c2.874,1.661,2.874,4.35,0,6.01a11.512,11.512,0,0,1-10.407,0c-2.874-1.66-2.874-4.35,0-6.01A11.512,11.512,0,0,1-28.02-107.108Z" transform="translate(2500.003 1966.961)"/><path class="ad" d="M-22.584-110.244c2.874,1.658,2.874,4.349,0,6.007a11.494,11.494,0,0,1-10.407,0c-2.874-1.658-2.874-4.349,0-6.007A11.494,11.494,0,0,1-22.584-110.244Z" transform="translate(2509.285 1961.883)"/></g><g transform="translate(0.049 129.762)"><g class="bw" transform="matrix(1, 0, 0, 1, -232.95, -129.76)"><path class="k" d="M161.5-90.485-90.11-96.437-90.136-77v11.514c0,.219-.013.438,0,.654v10.343c0,.219-.013.438,0,.657v21.981h.029a8.009,8.009,0,0,0,.166,1.2,10.1,10.1,0,0,0,3.6,5.536,17.336,17.336,0,0,0,2.751,1.867L-27.43,7.9,28.727,39.036,44.121,47.57c4.159,2.308,9.644,3.5,15.441,3.616a48.276,48.276,0,0,0,17.29-2.811L104.3,31.73l27.454-16.641.525-.319.525-.316c20.626-12.506,30.067-29.363,28.582-46.3h.182v-7.746h-.034c0-.356-.032-.715-.045-1.073.016-.728.011-1.453-.013-2.181h.092v-8.078h-.034c-.005-.53,0-1.058-.032-1.588,0-1.042-.024-2.083-.116-3.128h.182v-6.285h-.034c-.011-.76-.037-1.519-.092-2.279h.127v-7.743h-.095a39.39,39.39,0,0,0-.087-5.05h.182V-89.57l-.034,6.287C161.534-83.575,161.515-90.179,161.5-90.485Zm-.029,18.537c-.016.359-.011.717-.037,1.073-.021-.359-.018-.715-.05-1.073Z" transform="translate(323.09 226.2)"/></g></g></g><g transform="translate(795 442)"><g transform="translate(0 110.13)"><path class="ae" d="M2202.852-235.258v71.746l.024,0a3.572,3.572,0,0,0,1.767,3.059l.06.034.683.4,27.815,16.058,93.91,54.219c9.3,5.372,25.55,4.7,36.288-1.5l61.314-35.4,55.88-32.261q1.2-.692,2.234-1.432a6.7,6.7,0,0,0,.683-.625,6.8,6.8,0,0,0,1.843-3.049h.37v-71.245Z" transform="translate(-2202.852 235.258)"/></g><g transform="translate(0 141.94)"><path class="ae" d="M2202.852-235.258v71.746l.024,0a3.572,3.572,0,0,0,1.767,3.059l.06.034.683.4,27.815,16.058,93.91,54.219c9.3,5.372,25.55,4.7,36.288-1.5l61.314-35.4,55.88-32.261q1.2-.692,2.234-1.432a6.7,6.7,0,0,0,.683-.625,6.8,6.8,0,0,0,1.843-3.049h.37v-71.245Z" transform="translate(-2202.852 235.258)"/></g><g transform="translate(0.001)"><g transform="translate(0 87.739)"><path class="af" d="M358.006-60.969c-15.549-11.577-35.658-21.219-58.4-28.134a279.2,279.2,0,0,0-80.447-11.746C182.6-100.854,138-84.284,108.093-70.758,95.426-65.03,85.381-59.842,79.729-56.7a3.6,3.6,0,0,0-.541.4,3.84,3.84,0,0,0-1.421,3.1,3.57,3.57,0,0,0,1.77,3.054l.058.037,3.02,1.741,4.536,2.619,8.524,4.921,12.419,7.171L202,20.564c9.3,5.369,25.547,4.7,36.288-1.506l61.313-35.4,47.837-27.62,7.437-4.293.607-.351q1.195-.692,2.234-1.432a6.4,6.4,0,0,0,.7-.636,6.787,6.787,0,0,0,1.514-2.057,6.972,6.972,0,0,0,.63-3.355A6.426,6.426,0,0,0,358.006-60.969Z" transform="translate(-77.743 100.849)"/><path class="e" d="M290.467-67.555c-10.887-8.1-24.962-14.853-40.88-19.695a195.49,195.49,0,0,0-56.313-8.22c-25.594-.005-56.817,11.6-77.746,21.064-8.866,4.009-15.9,7.64-19.856,9.84a2.726,2.726,0,0,0-.38.282,2.7,2.7,0,0,0-.994,2.168,2.5,2.5,0,0,0,1.24,2.139l.042.024,2.11,1.221,3.178,1.833,5.965,3.444,8.7,5.021,65.736,37.953c6.511,3.758,17.886,3.289,25.4-1.052l42.921-24.78,33.485-19.334,5.206-3.006.425-.245c.559-.322,1.079-.657,1.564-1a4.6,4.6,0,0,0,.488-.443,4.812,4.812,0,0,0,1.06-1.44,4.9,4.9,0,0,0,.44-2.35A4.5,4.5,0,0,0,290.467-67.555Z" transform="translate(-50.676 109.656)"/><path class="ag" d="M95.538-59.978l.04.024,2.112,1.221,1.205.7c4.085-2.16,9.808-5.013,16.633-8.1C136.458-75.606,167.68-87.2,193.274-87.2a195.4,195.4,0,0,1,56.313,8.22c15.657,4.763,29.516,11.377,40.326,19.3.113-.076.243-.148.353-.224a4.921,4.921,0,0,0,.488-.446,4.812,4.812,0,0,0,1.06-1.44,4.9,4.9,0,0,0,.44-2.35,4.5,4.5,0,0,0-1.788-3.421c-10.887-8.1-24.962-14.853-40.88-19.695a195.49,195.49,0,0,0-56.313-8.22c-25.594-.005-56.817,11.6-77.746,21.064-8.866,4.009-15.9,7.64-19.856,9.84a2.726,2.726,0,0,0-.38.282,2.7,2.7,0,0,0-.994,2.168A2.5,2.5,0,0,0,95.538-59.978Z" transform="translate(-50.676 109.656)"/><path class="e" d="M360.6-80.006a6.933,6.933,0,0,1-.477,2.6,6.8,6.8,0,0,1-1.654,2.49,6.572,6.572,0,0,1-.733.67c-.691.491-1.437.971-2.234,1.429l-.05.029L299.62-40.556l-61.313,35.4c-10.741,6.2-26.987,6.873-36.288,1.5L108.106-57.872,86.513-70.341l-6.124-3.534-.781-.451-.058-.034a3.61,3.61,0,0,1-.839-.675,3.7,3.7,0,0,1-.849-3.27h-.105v5.554l.018,0a3.6,3.6,0,0,0,1.775,3.394l.058.034,2.381,1.374,26.117,15.08L202.019,1.353c9.3,5.372,25.547,4.7,36.288-1.5l61.313-35.4L355.5-67.812q1.195-.692,2.234-1.432a6.956,6.956,0,0,0,1.076-.981,6.947,6.947,0,0,0,1.788-4.27l.029.005v-5.52Z" transform="translate(-77.757 134.969)"/><g transform="translate(0 44.767)"><path class="ah" d="M358.811-73.648a6.956,6.956,0,0,1-1.076.981q-1.036.74-2.234,1.432L299.62-38.974l-61.313,35.4c-10.741,6.2-26.987,6.875-36.288,1.5L108.106-56.29,81.99-71.37l-2.381-1.374-.058-.034a3.6,3.6,0,0,1-1.775-3.394l-.018,0v9.528l.024,0a3.57,3.57,0,0,0,1.77,3.059l.058.034.686.4L108.106-47.1,202.019,7.123c9.3,5.372,25.547,4.7,36.288-1.5l61.313-35.4L355.5-62.042q1.195-.692,2.234-1.432a6.689,6.689,0,0,0,.683-.622,6.907,6.907,0,0,0,2.163-5.38l.047.011v-8.447l-.029-.005A6.947,6.947,0,0,1,358.811-73.648Z" transform="translate(-77.757 93.625)"/><path class="ah" d="M360.575-83.874a6.973,6.973,0,0,1-.63,3.355,6.82,6.82,0,0,1-1.514,2.057,6.4,6.4,0,0,1-.7.636q-1.036.74-2.234,1.432l-.607.348-7.437,4.3L299.62-44.133l-61.313,35.4c-10.741,6.2-26.987,6.875-36.288,1.506L108.106-61.45,95.688-68.62l-8.524-4.921L82.628-76.16,79.608-77.9l-.058-.037a3.57,3.57,0,0,1-1.77-3.054l-.024,0v9.011h.105a3.7,3.7,0,0,0,.849,3.27,3.61,3.61,0,0,0,.839.675l.058.034.781.451,6.124,3.534,21.594,12.469L202.019,2.675c9.3,5.369,25.547,4.7,36.288-1.5l61.313-35.4,55.831-32.235.05-.029c.8-.459,1.543-.939,2.234-1.429a6.572,6.572,0,0,0,.733-.67,6.8,6.8,0,0,0,1.654-2.49,6.933,6.933,0,0,0,.477-2.6l.029,0V-83.874Z" transform="translate(-77.757 83.874)"/></g><path class="ai" d="M489.978-90.075c-15.552-11.58-35.658-21.219-58.4-28.137a279.288,279.288,0,0,0-80.444-11.744c-36.565-.008-81.166,16.565-111.068,30.088C227.4-94.136,217.35-88.948,211.7-85.808a3.95,3.95,0,0,0-.541.4,3.854,3.854,0,0,0-1.419,3.1,3.564,3.564,0,0,0,1.767,3.054l.061.034,3.017,1.743,4.536,2.619,8.524,4.921,12.421,7.171,93.91,54.219c9.3,5.369,25.55,4.7,36.288-1.5l61.313-35.4,47.837-27.617,7.44-4.3.6-.348q1.2-.692,2.234-1.432a6.689,6.689,0,0,0,.7-.636,6.834,6.834,0,0,0,1.511-2.06,6.964,6.964,0,0,0,.633-3.352A6.434,6.434,0,0,0,489.978-90.075Zm-2.3,8.671a6.62,6.62,0,0,1-1.466,2,6.59,6.59,0,0,1-.678.617q-1,.716-2.165,1.387l-.588.34L475.565-72.9l-46.4,26.789L369.69-11.77c-10.42,6.016-26.177,6.667-35.2,1.458L243.4-62.9,231.349-69.86l-8.268-4.773-4.4-2.54-2.927-1.69L215.7-78.9a3.454,3.454,0,0,1-1.714-2.962,3.72,3.72,0,0,1,1.377-3,3.562,3.562,0,0,1,.522-.393c5.483-3.046,15.23-8.078,27.514-13.637,29.007-13.118,72.268-29.192,107.737-29.186a270.835,270.835,0,0,1,78.031,11.393c22.06,6.709,41.566,16.061,56.651,27.29a6.256,6.256,0,0,1,2.479,4.742A6.777,6.777,0,0,1,487.678-81.4Z" transform="translate(-209.737 129.955)"/><g transform="translate(86.042 30.265)"><path class="ah" d="M224.593-61.361a2.748,2.748,0,0,1-.237,1.092,2.694,2.694,0,0,1-.607.825,2.548,2.548,0,0,1-.277.253c-.042.029-.092.058-.135.087-.243.166-.488.33-.76.485l-.243.14-.071.042-2.9,1.677-4.23,2.439-14.906,8.608L175.7-31.552c-4.3,2.479-10.794,2.748-14.515.6L123.62-52.64l-2.648-1.53-2.321-1.337-3.323-1.92-.087-.05-1.756-1.015-.058-.032-1.205-.7-.024-.016a1.416,1.416,0,0,1-.707-1.221.205.205,0,0,1,.011-.055h-.013v6.142l.011,0a1.419,1.419,0,0,0,.7,1.189l.024.013,1.205.7,1.814,1.047,3.41,1.97,2.321,1.34,2.648,1.527L161.185-24.9c3.721,2.149,10.219,1.88,14.515-.6l24.524-14.159,14.906-8.605,4.23-2.442,2.975-1.719.243-.137c.319-.185.617-.377.894-.575a2.3,2.3,0,0,0,.277-.253,2.683,2.683,0,0,0,.607-.823,2.766,2.766,0,0,0,.24-1.123l.018,0v-6.029Z" transform="translate(-111.489 79.516)"/><path class="aj" d="M223.584-52.292a60.876,60.876,0,0,0-6.633-4.251,85.176,85.176,0,0,0-16.728-7,111.747,111.747,0,0,0-32.177-4.7c-14.626,0-32.467,6.625-44.427,12.036-.923.417-1.8.823-2.648,1.224-3.813,1.793-6.849,3.37-8.7,4.4a1.486,1.486,0,0,0-.216.161,1.523,1.523,0,0,0-.556,1.184.205.205,0,0,0-.011.055,1.416,1.416,0,0,0,.707,1.221l.024.016,1.205.7.058.032,1.756,1.015.087.05,3.323,1.92,2.321,1.337,2.648,1.53L161.184-19.68c3.721,2.147,10.219,1.878,14.515-.6l24.524-14.159,14.906-8.608,4.23-2.439,2.9-1.677.071-.042.243-.14c.272-.156.517-.319.76-.485.042-.029.092-.058.135-.087a2.548,2.548,0,0,0,.277-.253,2.694,2.694,0,0,0,.607-.825,2.748,2.748,0,0,0,.237-1.092c0-.084.021-.166.016-.248A2.57,2.57,0,0,0,223.584-52.292Z" transform="translate(-111.488 68.245)"/></g></g><path class="ak" d="M115.641-88.242h.092v-5.05h-.179A39.39,39.39,0,0,1,115.641-88.242Z" transform="translate(-15.874 350.574)"/><path class="ak" d="M115.641-88.242h.092v-5.05h-.179A39.39,39.39,0,0,1,115.641-88.242Z" transform="translate(-15.874 350.574)"/><g transform="translate(0 0)"><path class="ak" d="M115.641-88.242h.092v-5.05h-.179A39.39,39.39,0,0,1,115.641-88.242Z" transform="translate(-15.874 113.222)"/><path class="ak" d="M115.641-88.242h.092v-5.05h-.179A39.39,39.39,0,0,1,115.641-88.242Z" transform="translate(-15.874 113.222)"/><path class="ak" d="M115.554-91.377c.032.359.029.717.05,1.076.024-.359.021-.717.037-1.076Z" transform="translate(-15.874 116.357)"/><path class="ak" d="M115.554-91.377c.032.359.029.717.05,1.076.024-.359.021-.717.037-1.076Z" transform="translate(-15.874 116.357)"/><path class="af" d="M358.006-60.969c-15.549-11.577-35.658-21.219-58.4-28.134a279.2,279.2,0,0,0-80.447-11.746C182.6-100.854,138-84.284,108.093-70.758,95.426-65.03,85.381-59.842,79.729-56.7a3.6,3.6,0,0,0-.541.4,3.84,3.84,0,0,0-1.421,3.1,3.57,3.57,0,0,0,1.77,3.054l.058.037,3.02,1.741,4.536,2.619,8.524,4.921,12.419,7.171L202,20.564c9.3,5.369,25.547,4.7,36.288-1.506l61.313-35.4,47.837-27.62,7.437-4.293.607-.351q1.195-.692,2.234-1.432a6.4,6.4,0,0,0,.7-.636,6.787,6.787,0,0,0,1.514-2.057,6.972,6.972,0,0,0,.63-3.355A6.426,6.426,0,0,0,358.006-60.969Z" transform="translate(-77.743 100.849)"/><path class="e" d="M290.467-67.555c-10.887-8.1-24.962-14.853-40.88-19.695a195.49,195.49,0,0,0-56.313-8.22c-25.594-.005-56.817,11.6-77.746,21.064-8.866,4.009-15.9,7.64-19.856,9.84a2.726,2.726,0,0,0-.38.282,2.7,2.7,0,0,0-.994,2.168,2.5,2.5,0,0,0,1.24,2.139l.042.024,2.11,1.221,3.178,1.833,5.965,3.444,8.7,5.021,65.736,37.953c6.511,3.758,17.886,3.289,25.4-1.052l42.921-24.78,33.485-19.334,5.206-3.006.425-.245c.559-.322,1.079-.657,1.564-1a4.6,4.6,0,0,0,.488-.443,4.812,4.812,0,0,0,1.06-1.44,4.9,4.9,0,0,0,.44-2.35A4.5,4.5,0,0,0,290.467-67.555Z" transform="translate(-50.676 109.656)"/><path class="ag" d="M95.538-59.978l.04.024,2.112,1.221,1.205.7c4.085-2.16,9.808-5.013,16.633-8.1C136.458-75.606,167.68-87.2,193.274-87.2a195.4,195.4,0,0,1,56.313,8.22c15.657,4.763,29.516,11.377,40.326,19.3.113-.076.243-.148.353-.224a4.921,4.921,0,0,0,.488-.446,4.812,4.812,0,0,0,1.06-1.44,4.9,4.9,0,0,0,.44-2.35,4.5,4.5,0,0,0-1.788-3.421c-10.887-8.1-24.962-14.853-40.88-19.695a195.49,195.49,0,0,0-56.313-8.22c-25.594-.005-56.817,11.6-77.746,21.064-8.866,4.009-15.9,7.64-19.856,9.84a2.726,2.726,0,0,0-.38.282,2.7,2.7,0,0,0-.994,2.168A2.5,2.5,0,0,0,95.538-59.978Z" transform="translate(-50.676 109.656)"/><path class="e" d="M360.6-80.006a6.933,6.933,0,0,1-.477,2.6,6.8,6.8,0,0,1-1.654,2.49,6.572,6.572,0,0,1-.733.67c-.691.491-1.437.971-2.234,1.429l-.05.029L299.62-40.556l-61.313,35.4c-10.741,6.2-26.987,6.873-36.288,1.5L108.106-57.872,86.513-70.341l-6.124-3.534-.781-.451-.058-.034a3.61,3.61,0,0,1-.839-.675,3.7,3.7,0,0,1-.849-3.27h-.105v5.554l.018,0a3.6,3.6,0,0,0,1.775,3.394l.058.034,2.381,1.374,26.117,15.08L202.019,1.353c9.3,5.372,25.547,4.7,36.288-1.5l61.313-35.4L355.5-67.812q1.195-.692,2.234-1.432a6.956,6.956,0,0,0,1.076-.981,6.947,6.947,0,0,0,1.788-4.27l.029.005v-5.52Z" transform="translate(-77.757 134.969)"/><g transform="translate(0 44.767)"><path class="ah" d="M358.811-73.648a6.956,6.956,0,0,1-1.076.981q-1.036.74-2.234,1.432L299.62-38.974l-61.313,35.4c-10.741,6.2-26.987,6.875-36.288,1.5L108.106-56.29,81.99-71.37l-2.381-1.374-.058-.034a3.6,3.6,0,0,1-1.775-3.394l-.018,0v9.528l.024,0a3.57,3.57,0,0,0,1.77,3.059l.058.034.686.4L108.106-47.1,202.019,7.123c9.3,5.372,25.547,4.7,36.288-1.5l61.313-35.4L355.5-62.042q1.195-.692,2.234-1.432a6.689,6.689,0,0,0,.683-.622,6.907,6.907,0,0,0,2.163-5.38l.047.011v-8.447l-.029-.005A6.947,6.947,0,0,1,358.811-73.648Z" transform="translate(-77.757 93.625)"/><path class="ah" d="M360.575-83.874a6.973,6.973,0,0,1-.63,3.355,6.82,6.82,0,0,1-1.514,2.057,6.4,6.4,0,0,1-.7.636q-1.036.74-2.234,1.432l-.607.348-7.437,4.3L299.62-44.133l-61.313,35.4c-10.741,6.2-26.987,6.875-36.288,1.506L108.106-61.45,95.688-68.62l-8.524-4.921L82.628-76.16,79.608-77.9l-.058-.037a3.57,3.57,0,0,1-1.77-3.054l-.024,0v9.011h.105a3.7,3.7,0,0,0,.849,3.27,3.61,3.61,0,0,0,.839.675l.058.034.781.451,6.124,3.534,21.594,12.469L202.019,2.675c9.3,5.369,25.547,4.7,36.288-1.5l61.313-35.4,55.831-32.235.05-.029c.8-.459,1.543-.939,2.234-1.429a6.572,6.572,0,0,0,.733-.67,6.8,6.8,0,0,0,1.654-2.49,6.933,6.933,0,0,0,.477-2.6l.029,0V-83.874Z" transform="translate(-77.757 83.874)"/></g><g transform="translate(115.564 56.959)"><path class="al" d="M121.577-71.865l36.5,21.543,7.87-4.544-36.5-21.543Z" transform="translate(-121.577 83.904)"/><path class="al" d="M126.5-74.707,163-53.164l7.87-4.544-36.5-21.543Z" transform="translate(-113.518 79.251)"/><path class="al" d="M161.063-68.915l-13.228-7.807-7.87,4.544,13.229,7.807Z" transform="translate(-91.473 83.392)"/><path class="al" d="M151.657-74.583l-7.326-4.323-8.015,4.459,7.471,4.409Z" transform="translate(-97.446 79.815)"/></g><path class="ai" d="M489.978-90.075c-15.552-11.58-35.658-21.219-58.4-28.137a279.288,279.288,0,0,0-80.444-11.744c-36.565-.008-81.166,16.565-111.068,30.088C227.4-94.136,217.35-88.948,211.7-85.808a3.95,3.95,0,0,0-.541.4,3.854,3.854,0,0,0-1.419,3.1,3.564,3.564,0,0,0,1.767,3.054l.061.034,3.017,1.743,4.536,2.619,8.524,4.921,12.421,7.171,93.91,54.219c9.3,5.369,25.55,4.7,36.288-1.5l61.313-35.4,47.837-27.617,7.44-4.3.6-.348q1.2-.692,2.234-1.432a6.689,6.689,0,0,0,.7-.636,6.834,6.834,0,0,0,1.511-2.06,6.964,6.964,0,0,0,.633-3.352A6.434,6.434,0,0,0,489.978-90.075Zm-2.3,8.671a6.62,6.62,0,0,1-1.466,2,6.59,6.59,0,0,1-.678.617q-1,.716-2.165,1.387l-.588.34L475.565-72.9l-46.4,26.789L369.69-11.77c-10.42,6.016-26.177,6.667-35.2,1.458L243.4-62.9,231.349-69.86l-8.268-4.773-4.4-2.54-2.927-1.69L215.7-78.9a3.454,3.454,0,0,1-1.714-2.962,3.72,3.72,0,0,1,1.377-3,3.562,3.562,0,0,1,.522-.393c5.483-3.046,15.23-8.078,27.514-13.637,29.007-13.118,72.268-29.192,107.737-29.186a270.835,270.835,0,0,1,78.031,11.393c22.06,6.709,41.566,16.061,56.651,27.29a6.256,6.256,0,0,1,2.479,4.742A6.777,6.777,0,0,1,487.678-81.4Z" transform="translate(-209.737 129.955)"/></g></g></g><g transform="translate(411 385.554)"><g transform="translate(0 93.079)"><path class="am" d="M1365.194-262.106V-116.68h.048c-.264,3.634,1.764,7.142,6.232,9.721l122.408,70.678c9.31,5.364,25.55,4.7,36.289-1.493l117.194-67.672c5.583-3.223,8.555-7.3,8.84-11.235h.047V-262.106Z" transform="translate(-1365.194 262.106)"/></g><g transform="translate(0 64.079)"><path class="am" d="M1365.194-262.106V-116.68h.048c-.264,3.634,1.764,7.142,6.232,9.721l122.408,70.678c9.31,5.364,25.55,4.7,36.289-1.493l117.194-67.672c5.583-3.223,8.555-7.3,8.84-11.235h.047V-262.106Z" transform="translate(-1365.194 262.106)"/></g><g transform="translate(0 84.833)"><path class="an" d="M1402.583,498.92V476.071h-58.948l-69.695-40.239c-9.3-5.369-25.547-4.7-36.289,1.506l-67.086,38.733h-58.992v24.144h.05c-.266,3.634,1.762,7.142,6.232,9.721l122.407,70.673c9.3,5.372,25.55,4.7,36.289-1.5l117.194-67.661C1399.941,507.865,1402.931,503.234,1402.583,498.92Z" transform="translate(-1111.571 -392.042)"/><path class="ao" d="M1402.583,498.92V476.071h-58.948l-69.695-40.239c-9.3-5.369-25.547-4.7-36.289,1.506l-67.086,38.733h-58.992v24.144h.05c-.266,3.634,1.762,7.142,6.232,9.721l122.407,70.673c9.3,5.372,25.55,4.7,36.289-1.5l117.194-67.661C1399.941,507.865,1402.931,503.234,1402.583,498.92Z" transform="translate(-1111.574 -392.042)"/><path class="ap" d="M1240.262,581.395l-122.407-70.673c-9.3-5.369-8.136-14.75,2.6-20.95l117.194-67.661c10.742-6.2,26.987-6.875,36.289-1.506l122.41,70.673c9.3,5.372,8.136,14.75-2.606,20.953l-117.194,67.661C1265.812,586.092,1249.564,586.764,1240.262,581.395Z" transform="translate(-1111.57 -416.973)"/><path class="aq" d="M1240.262,581.395l-122.407-70.673c-9.3-5.369-8.136-14.75,2.6-20.95l117.194-67.661c10.742-6.2,26.987-6.875,36.289-1.506l122.41,70.673c9.3,5.372,8.136,14.75-2.606,20.953l-117.194,67.661C1265.812,586.092,1249.564,586.764,1240.262,581.395Z" transform="translate(-1111.57 -416.98)"/><path class="ap" d="M1225.982,555.639,1127.354,498.7c-7.492-4.328-6.553-11.883,2.1-16.881l94.424-54.515c8.655-5,21.744-5.538,29.239-1.213l98.625,56.943c7.5,4.325,6.554,11.884-2.1,16.878l-94.424,54.517C1246.565,559.424,1233.474,559.967,1225.982,555.639Z" transform="translate(-1094.016 -406.838)"/><path class="ar" d="M1129.451,489.2l94.424-54.517c8.655-4.995,21.744-5.538,29.239-1.21l98.625,56.941a10.967,10.967,0,0,1,4.014,3.711c2.176-4,.92-8.247-4.014-11.095l-98.625-56.943c-7.5-4.325-20.584-3.785-29.239,1.213l-94.424,54.515c-6.517,3.763-8.653,8.977-6.113,13.17A15.673,15.673,0,0,1,1129.451,489.2Z" transform="translate(-1094.014 -406.838)"/><path class="as" d="M1244.374,581.383l-122.41-70.673c-9.3-5.369-11.525-13.257,2.605-20.95L1241.763,422.1a41.486,41.486,0,0,1,18.361-5.069c-7.69-.348-16.058,1.366-22.472,5.069L1120.458,489.76c-10.739,6.2-11.9,15.581-2.6,20.95l122.407,70.673c4.729,2.73,11.248,3.89,17.928,3.566A30.8,30.8,0,0,1,1244.374,581.383Z" transform="translate(-1111.57 -416.961)"/><path class="at" d="M1393.746,464.74,1276.552,532.4c-10.739,6.2-26.987,6.873-36.289,1.5l-122.407-70.673c-4.47-2.579-6.5-6.087-6.232-9.721h-.05v5h.05c-.266,3.634,1.762,7.142,6.232,9.721l122.407,70.673c9.3,5.372,25.55,4.7,36.289-1.5l117.194-67.661c6.195-3.579,9.186-8.21,8.838-12.524v-5C1402.931,456.53,1399.941,461.164,1393.746,464.74Z" transform="translate(-1111.571 -359.279)"/><g transform="translate(68.028 40.164)"><path class="au" d="M1200.395,516.3l-65.17-37.627c-4.952-2.859-4.332-7.853,1.386-11.155L1199,431.5c5.718-3.3,14.369-3.659,19.321-.8l65.17,37.627c4.952,2.859,4.33,7.851-1.388,11.152L1219.714,515.5C1214,518.805,1205.346,519.163,1200.395,516.3Z" transform="translate(-1131.875 -428.769)"/><path class="av" d="M1080.12-138.665a5.749,5.749,0,0,1-1.535,3.906,11.93,11.93,0,0,1-3.19,2.584l-4.152,2.4L1013-96.153c-5.725,3.306-14.374,3.657-19.326.8l-59.623-34.423-5.547-3.2a8.322,8.322,0,0,1-1.8-1.386,4.765,4.765,0,0,1-1.448-4.3h-.091v8.886h.089a6.147,6.147,0,0,0,3.255,3.983l65.17,37.627c4.952,2.859,13.6,2.508,19.326-.8l62.393-36.023a9.3,9.3,0,0,0,4.465-4.79h.264v-8.886Z" transform="translate(-925.162 180.312)"/></g><g transform="translate(22.568 92.939)"><path class="aw" d="M1014.73,84.807a1.474,1.474,0,0,1,0,2.793,5.352,5.352,0,0,1-4.837,0,1.474,1.474,0,0,1,0-2.793A5.335,5.335,0,0,1,1014.73,84.807Z" transform="translate(-993.823 -75.524)"/><path class="aw" d="M1011.873,83.156a1.475,1.475,0,0,1,0,2.793,5.336,5.336,0,0,1-4.837,0,1.474,1.474,0,0,1,0-2.793A5.352,5.352,0,0,1,1011.873,83.156Z" transform="translate(-998.501 -78.225)"/><path class="aw" d="M1009.019,81.507a1.474,1.474,0,0,1,0,2.793,5.357,5.357,0,0,1-4.839,0,1.475,1.475,0,0,1,0-2.793A5.341,5.341,0,0,1,1009.019,81.507Z" transform="translate(-1003.178 -80.927)"/></g></g><path class="an" d="M1402.583,465.563V442.714h-58.948l-69.695-40.239c-9.3-5.37-25.547-4.7-36.289,1.506l-67.086,38.733h-58.992v24.144h.05c-.266,3.634,1.762,7.142,6.232,9.721l122.407,70.673c9.3,5.372,25.55,4.7,36.289-1.5l117.194-67.661C1399.941,474.508,1402.931,469.877,1402.583,465.563Z" transform="translate(-1111.574 -358.692)"/><path class="ax" d="M1402.583,465.563V442.714h-58.948l-69.695-40.239c-9.3-5.37-25.547-4.7-36.289,1.506l-67.086,38.733h-58.992v24.144h.05c-.266,3.634,1.762,7.142,6.232,9.721l122.407,70.673c9.3,5.372,25.55,4.7,36.289-1.5l117.194-67.661C1399.941,474.508,1402.931,469.877,1402.583,465.563Z" transform="translate(-1111.574 -358.692)"/><path class="g" d="M1393.746,431.383l-117.194,67.664c-10.739,6.2-26.987,6.873-36.289,1.5l-122.407-70.673c-4.47-2.579-6.5-6.087-6.232-9.721h-.05v5h.05c-.266,3.634,1.762,7.142,6.232,9.721l122.407,70.673c9.3,5.372,25.55,4.7,36.289-1.5l117.194-67.661c6.195-3.579,9.186-8.21,8.838-12.524v-5C1402.931,423.173,1399.941,427.807,1393.746,431.383Z" transform="translate(-1111.574 -325.928)"/><path class="ay" d="M1240.262,548.038l-122.407-70.673c-9.3-5.37-8.136-14.75,2.6-20.95l117.194-67.661c10.742-6.2,26.987-6.875,36.289-1.506l122.41,70.673c9.3,5.372,8.136,14.75-2.606,20.953l-117.194,67.661C1265.812,552.735,1249.564,553.407,1240.262,548.038Z" transform="translate(-1111.573 -383.622)"/><path class="az" d="M1225.982,522.282l-98.628-56.941c-7.492-4.328-6.553-11.883,2.1-16.881l94.424-54.514c8.655-5,21.744-5.538,29.239-1.213l98.625,56.943c7.5,4.325,6.554,11.883-2.1,16.878l-94.424,54.517C1246.565,526.067,1233.474,526.61,1225.982,522.282Z" transform="translate(-1094.019 -373.488)"/><path class="ba" d="M1129.451,455.848l94.424-54.517c8.655-4.995,21.744-5.538,29.239-1.21l98.625,56.941a10.967,10.967,0,0,1,4.014,3.711c2.176-4,.92-8.247-4.014-11.095l-98.625-56.943c-7.5-4.325-20.584-3.785-29.239,1.213l-94.424,54.514c-6.517,3.763-8.653,8.977-6.113,13.17A15.674,15.674,0,0,1,1129.451,455.848Z" transform="translate(-1094.017 -373.488)"/><g transform="translate(70.308 43.229)"><path class="an" d="M1243.818,450.613l-81.771-47.21,5.869-3.389,81.77,47.21Z" transform="translate(-1099.244 -400.014)"/><path class="an" d="M1239.055,453.363l-81.77-47.21,5.868-3.388,81.771,47.21Z" transform="translate(-1107.042 -395.512)"/><path class="an" d="M1234.292,456.113l-81.771-47.21,5.869-3.388,81.77,47.21Z" transform="translate(-1114.84 -391.01)"/><path class="an" d="M1229.529,458.862l-81.77-47.21,5.869-3.388,81.771,47.21Z" transform="translate(-1122.638 -386.508)"/><path class="an" d="M1224.766,461.612,1143,414.4l5.869-3.388,81.77,47.21Z" transform="translate(-1130.436 -382.006)"/><path class="an" d="M1220,464.362l-81.77-47.21,5.869-3.388,81.771,47.21Z" transform="translate(-1138.234 -377.504)"/></g><path class="bb" d="M1244.374,548.026l-122.41-70.673c-9.3-5.37-11.525-13.257,2.605-20.95l117.194-67.661a41.486,41.486,0,0,1,18.361-5.069c-7.69-.348-16.058,1.366-22.472,5.069L1120.458,456.4c-10.739,6.2-11.9,15.581-2.6,20.95l122.407,70.673c4.729,2.73,11.248,3.89,17.928,3.566A30.8,30.8,0,0,1,1244.374,548.026Z" transform="translate(-1111.573 -383.611)"/><g transform="translate(246.734 92.933)"><path class="g" d="M901.375,30.76a1.474,1.474,0,0,1,0,2.793,5.352,5.352,0,0,1-4.837,0,1.475,1.475,0,0,1,0-2.793A5.335,5.335,0,0,1,901.375,30.76Z" transform="translate(-895.537 -21.48)"/><path class="g" d="M904.232,29.109a1.474,1.474,0,0,1,0,2.793,5.335,5.335,0,0,1-4.837,0,1.475,1.475,0,0,1,0-2.793A5.352,5.352,0,0,1,904.232,29.109Z" transform="translate(-890.86 -24.18)"/><path class="g" d="M907.091,27.461a1.475,1.475,0,0,1,0,2.793,5.358,5.358,0,0,1-4.84,0,1.475,1.475,0,0,1,0-2.793A5.342,5.342,0,0,1,907.091,27.461Z" transform="translate(-886.184 -26.881)"/></g></g><g transform="translate(598.119 508)"><g transform="translate(0.043 93.079)"><path class="bc" d="M1365.194-262.106V-116.68h.048c-.264,3.634,1.764,7.142,6.232,9.721l122.408,70.678c9.31,5.364,25.55,4.7,36.289-1.493l117.194-67.672c5.583-3.223,8.555-7.3,8.84-11.235h.047V-262.106Z" transform="translate(-1365.194 262.106)"/></g><g transform="translate(0 81.44)"><g transform="translate(0 0)"><path class="bd" d="M1402.583,498.92V476.071h-58.948l-69.695-40.239c-9.3-5.369-25.547-4.7-36.289,1.506l-67.086,38.733h-58.992v24.144h.05c-.266,3.634,1.762,7.142,6.232,9.721l122.407,70.673c9.3,5.372,25.55,4.7,36.289-1.5l117.194-67.661C1399.941,507.865,1402.931,503.234,1402.583,498.92Z" transform="translate(-1111.547 -392.042)"/><path class="be" d="M1402.583,498.92V476.071h-58.948l-69.695-40.239c-9.3-5.369-25.547-4.7-36.289,1.506l-67.086,38.733h-58.992v24.144h.05c-.266,3.634,1.762,7.142,6.232,9.721l122.407,70.673c9.3,5.372,25.55,4.7,36.289-1.5l117.194-67.661C1399.941,507.865,1402.931,503.234,1402.583,498.92Z" transform="translate(-1111.574 -392.042)"/><path class="ap" d="M1240.262,581.395l-122.407-70.673c-9.3-5.369-8.136-14.75,2.6-20.95l117.194-67.661c10.742-6.2,26.987-6.875,36.289-1.506l122.41,70.673c9.3,5.372,8.136,14.75-2.606,20.953l-117.194,67.661C1265.812,586.092,1249.564,586.764,1240.262,581.395Z" transform="translate(-1111.545 -416.973)"/><path class="bf" d="M1240.262,581.395l-122.407-70.673c-9.3-5.369-8.136-14.75,2.6-20.95l117.194-67.661c10.742-6.2,26.987-6.875,36.289-1.506l122.41,70.673c9.3,5.372,8.136,14.75-2.606,20.953l-117.194,67.661C1265.812,586.092,1249.564,586.764,1240.262,581.395Z" transform="translate(-1111.545 -416.98)"/><path class="bg" d="M1225.982,555.639,1127.354,498.7c-7.492-4.328-6.553-11.883,2.1-16.881l94.424-54.515c8.655-5,21.744-5.538,29.239-1.213l98.625,56.943c7.5,4.325,6.554,11.884-2.1,16.878l-94.424,54.517C1246.565,559.424,1233.474,559.967,1225.982,555.639Z" transform="translate(-1093.992 -406.838)"/><path class="bh" d="M1129.451,489.2l94.424-54.517c8.655-4.995,21.744-5.538,29.239-1.21l98.625,56.941a10.967,10.967,0,0,1,4.014,3.711c2.176-4,.92-8.247-4.014-11.095l-98.625-56.943c-7.5-4.325-20.584-3.785-29.239,1.213l-94.424,54.515c-6.517,3.763-8.653,8.977-6.113,13.17A15.673,15.673,0,0,1,1129.451,489.2Z" transform="translate(-1093.989 -406.838)"/><path class="bi" d="M1244.374,581.383l-122.41-70.673c-9.3-5.369-11.525-13.257,2.605-20.95L1241.763,422.1a41.486,41.486,0,0,1,18.361-5.069c-7.69-.348-16.058,1.366-22.472,5.069L1120.458,489.76c-10.739,6.2-11.9,15.581-2.6,20.95l122.407,70.673c4.729,2.73,11.248,3.89,17.928,3.566A30.8,30.8,0,0,1,1244.374,581.383Z" transform="translate(-1111.545 -416.961)"/><path class="bj" d="M1393.746,464.74,1276.552,532.4c-10.739,6.2-26.987,6.873-36.289,1.5l-122.407-70.673c-4.47-2.579-6.5-6.087-6.232-9.721h-.05v5h.05c-.266,3.634,1.762,7.142,6.232,9.721l122.407,70.673c9.3,5.372,25.55,4.7,36.289-1.5l117.194-67.661c6.195-3.579,9.186-8.21,8.838-12.524v-5C1402.931,456.53,1399.941,461.164,1393.746,464.74Z" transform="translate(-1111.547 -359.279)"/><g transform="translate(68.053 40.164)"><path class="bk" d="M1200.395,516.3l-65.17-37.627c-4.952-2.859-4.332-7.853,1.386-11.155L1199,431.5c5.718-3.3,14.369-3.659,19.321-.8l65.17,37.627c4.952,2.859,4.33,7.851-1.388,11.152L1219.714,515.5C1214,518.805,1205.346,519.163,1200.395,516.3Z" transform="translate(-1131.875 -428.769)"/><path class="bl" d="M1080.12-138.665a5.749,5.749,0,0,1-1.535,3.906,11.93,11.93,0,0,1-3.19,2.584l-4.152,2.4L1013-96.153c-5.725,3.306-14.374,3.657-19.326.8l-59.623-34.423-5.547-3.2a8.322,8.322,0,0,1-1.8-1.386,4.765,4.765,0,0,1-1.448-4.3h-.091v8.886h.089a6.147,6.147,0,0,0,3.255,3.983l65.17,37.627c4.952,2.859,13.6,2.508,19.326-.8l62.393-36.023a9.3,9.3,0,0,0,4.465-4.79h.264v-8.886Z" transform="translate(-925.162 180.312)"/></g><g transform="translate(22.593 92.939)"><path class="bm" d="M1014.73,84.807a1.474,1.474,0,0,1,0,2.793,5.352,5.352,0,0,1-4.837,0,1.474,1.474,0,0,1,0-2.793A5.335,5.335,0,0,1,1014.73,84.807Z" transform="translate(-993.823 -75.524)"/><path class="bm" d="M1011.873,83.156a1.475,1.475,0,0,1,0,2.793,5.336,5.336,0,0,1-4.837,0,1.474,1.474,0,0,1,0-2.793A5.352,5.352,0,0,1,1011.873,83.156Z" transform="translate(-998.501 -78.225)"/><path class="bm" d="M1009.019,81.507a1.474,1.474,0,0,1,0,2.793,5.357,5.357,0,0,1-4.839,0,1.475,1.475,0,0,1,0-2.793A5.341,5.341,0,0,1,1009.019,81.507Z" transform="translate(-1003.178 -80.927)"/></g></g></g><g transform="translate(0 0)"><path class="bd" d="M1873.978,348.733V325.884h-58.945l-69.695-40.239c-9.3-5.369-25.547-4.7-36.289,1.506l-67.088,38.733h-58.99v24.144h.048c-.264,3.634,1.764,7.142,6.232,9.721l122.41,70.673c9.3,5.372,25.547,4.7,36.289-1.5l117.194-67.661C1871.337,357.678,1874.326,353.047,1873.978,348.733Z" transform="translate(-1582.927 -242.454)"/><path class="bi" d="M1873.978,348.733V325.884h-58.945l-69.695-40.239c-9.3-5.369-25.547-4.7-36.289,1.506l-67.088,38.733h-58.99v24.144h.048c-.264,3.634,1.764,7.142,6.232,9.721l122.41,70.673c9.3,5.372,25.547,4.7,36.289-1.5l117.194-67.661C1871.337,357.678,1874.326,353.047,1873.978,348.733Z" transform="translate(-1582.949 -242.439)"/><path class="bn" d="M1402.583,498.92V476.071h-58.948l-69.695-40.239c-9.3-5.369-25.547-4.7-36.289,1.506l-67.086,38.733h-58.992v24.144h.05c-.266,3.634,1.762,7.142,6.232,9.721l122.407,70.673c9.3,5.372,25.55,4.7,36.289-1.5l117.194-67.661C1399.941,507.865,1402.931,503.234,1402.583,498.92Z" transform="translate(-1111.51 -392.641)"/><path class="bo" d="M1865.143,314.553l-117.194,67.664c-10.741,6.2-26.987,6.873-36.289,1.5l-122.41-70.673c-4.468-2.579-6.5-6.087-6.232-9.721h-.048v5h.048c-.264,3.634,1.764,7.142,6.232,9.721l122.41,70.673c9.3,5.372,25.547,4.7,36.289-1.5l117.194-67.661c6.195-3.579,9.183-8.21,8.835-12.524v-5C1874.326,306.343,1871.337,310.977,1865.143,314.553Z" transform="translate(-1582.927 -209.69)"/><path class="bp" d="M1711.66,431.208l-122.41-70.673c-9.3-5.369-8.134-14.75,2.6-20.95l117.194-67.661c10.742-6.2,26.987-6.875,36.289-1.506l122.411,70.673c9.3,5.37,8.133,14.75-2.606,20.953L1747.948,429.7C1737.207,435.9,1720.962,436.577,1711.66,431.208Z" transform="translate(-1582.927 -266.792)"/><path class="bq" d="M1711.66,431.208l-122.41-70.673c-9.3-5.369-8.134-14.75,2.6-20.95l117.194-67.661c10.742-6.2,26.987-6.875,36.289-1.506l122.411,70.673c9.3,5.37,8.133,14.75-2.606,20.953L1747.948,429.7C1737.207,435.9,1720.962,436.577,1711.66,431.208Z" transform="translate(-1582.971 -266.792)"/><path class="br" d="M1715.769,431.2l-122.408-70.673c-9.3-5.369-11.525-13.257,2.605-20.95l117.194-67.661a41.51,41.51,0,0,1,18.358-5.071c-7.687-.348-16.056,1.369-22.47,5.071l-117.194,67.661c-10.739,6.2-11.907,15.581-2.6,20.95L1711.66,431.2c4.727,2.73,11.248,3.89,17.928,3.566A30.8,30.8,0,0,1,1715.769,431.2Z" transform="translate(-1582.927 -266.776)"/><g transform="translate(124.725 71.488)"><path class="bs" d="M1641.361,301.274c2.542,1.469,2.542,3.848,0,5.317a10.184,10.184,0,0,1-9.207,0c-2.542-1.469-2.542-3.848,0-5.317A10.184,10.184,0,0,1,1641.361,301.274Z" transform="translate(-1630.248 -283.62)"/><path class="bt" d="M1646.8,298.137c2.542,1.466,2.542,3.848,0,5.314a10.162,10.162,0,0,1-9.2,0c-2.542-1.469-2.542-3.848,0-5.314A10.162,10.162,0,0,1,1646.8,298.137Z" transform="translate(-1621.346 -288.759)"/><path class="bu" d="M1652.232,295c2.542,1.469,2.542,3.848,0,5.314a10.168,10.168,0,0,1-9.207,0c-2.542-1.466-2.542-3.845,0-5.314A10.179,10.179,0,0,1,1652.232,295Z" transform="translate(-1612.446 -293.897)"/></g><path class="bv" d="M1704.723,400.808a24.669,24.669,0,0,1-12.107-2.782l-90.51-52.257c-3.292-1.9-5.1-4.573-5.1-7.527,0-3.5,2.561-6.983,7.031-9.56l86.652-50.031c8.184-4.729,20.637-5.224,27.752-1.113l90.513,52.257c3.291,1.9,5.1,4.573,5.1,7.527,0,3.5-2.561,6.983-7.031,9.56l-86.652,50.031A32.154,32.154,0,0,1,1704.723,400.808Zm-11.187-4.38c6.612,3.811,18.231,3.318,25.911-1.113l86.654-50.029c3.879-2.242,6.105-5.145,6.105-7.965,0-2.265-1.482-4.373-4.18-5.931l-90.51-52.254c-6.62-3.816-18.236-3.315-25.908,1.113l-86.655,50.029c-3.879,2.242-6.1,5.143-6.1,7.964,0,2.265,1.482,4.373,4.18,5.931Z" transform="translate(-1559.955 -253.755)"/></g><g transform="translate(0.043 64.712)"><path class="bc" d="M1365.194-262.106V-116.68h.048c-.264,3.634,1.764,7.142,6.232,9.721l122.408,70.678c9.31,5.364,25.55,4.7,36.289-1.493l117.194-67.672c5.583-3.223,8.555-7.3,8.84-11.235h.047V-262.106Z" transform="translate(-1365.194 262.106)"/></g></g></g></g></svg>