<svg xmlns="http://www.w3.org/2000/svg" xmlns:xlink="http://www.w3.org/1999/xlink" width="252.6" height="248.6" viewBox="0 0 252.6 248.6"><defs><style>.a{fill:#03c1b7;}.b{fill:#5282f0;}.c{fill:#d1dbe1;}.d{fill:#e7ecf0;}.e{fill:none;}.f{fill:#1d5ef2;}.g{filter:url(#c);}.h{filter:url(#a);}</style><filter id="a" x="0" y="0" width="242.6" height="242.6" filterUnits="userSpaceOnUse"><feOffset dx="-5" dy="-3" input="SourceAlpha"/><feGaussianBlur stdDeviation="3" result="b"/><feFlood flood-color="#fff" flood-opacity="0.451"/><feComposite operator="in" in2="b"/><feComposite in="SourceGraphic"/></filter><filter id="c" x="10" y="6" width="242.6" height="242.6" filterUnits="userSpaceOnUse"><feOffset dx="5" dy="3" input="SourceAlpha"/><feGaussianBlur stdDeviation="3" result="d"/><feFlood flood-opacity="0.161"/><feComposite operator="in" in2="d"/><feComposite in="SourceGraphic"/></filter></defs><g transform="translate(-154.274 -512)"><path class="a" d="M-410.99,179.9v-.48h0A3.852,3.852,0,0,1-410.99,179.9Z" transform="translate(651.323 451.46)"/><path class="a" d="M-406.9,179.9v-.48h0A3.84,3.84,0,0,0-406.9,179.9Z" transform="translate(651.323 451.46)"/><g transform="translate(-563.726 -40)"><path class="b" d="M-885.8,541.359l.192-.274-.192.274Z" transform="translate(1646.298 115.411)"/><path class="b" d="M-891.367,549.306l5.568-7.946h0Z" transform="translate(1646.298 115.411)"/><g class="h" transform="matrix(1, 0, 0, 1, 718, 552)"><circle class="c" cx="112.3" cy="112.3" r="112.3" transform="translate(14 12)"/></g><g class="g" transform="matrix(1, 0, 0, 1, 718, 552)"><circle class="d" cx="112.3" cy="112.3" r="112.3" transform="translate(14 12)"/></g><circle class="e" cx="112.3" cy="112.3" r="112.3" transform="translate(732 564)"/><circle class="e" cx="112.3" cy="112.3" r="112.3" transform="translate(732 564)"/><g transform="translate(-4 -24.395)"><g transform="translate(128.371 277)"><g transform="translate(1543.298 -54.441)"><path class="f" d="M-890.2,556.281h0a5,5,0,0,1-1.164-6.974l5.569-7.947.191-.273-1.834-1.31-5.926,8.53a5,5,0,0,0,1.164,6.974h0l.036.025,9.28,6.5a4.985,4.985,0,0,0,1.657.759l-8.937-6.259Z"/><path class="f" d="M-882.78,537.05l3.358-4.792.188-.268-1.722-1.207-3.546,5.061,17.509,12.269h0l-.089-.062Z"/><path class="f" d="M-850.013,490.206l.025-.036a4.954,4.954,0,0,1,2.064-1.655,62.028,62.028,0,0,1-17.907-40.075h0a62.281,62.281,0,0,1,58.452-65.886c1.57-.094,3.128-.122,4.675-.1a62.1,62.1,0,0,1,14.921,1.6,62.13,62.13,0,0,0-21.6-2.5,62.281,62.281,0,0,0-58.452,65.886h0a62.028,62.028,0,0,0,17.907,40.075,4.954,4.954,0,0,0-2.064,1.655l-.025.036-26.209,37.513,17.506,12.251h0l-15.707-10.964Z"/><path class="b" d="M-885.8,541.359l15.671,11.037-5.76,8.21-.026.036a4.989,4.989,0,0,1-5.317,1.923l.343.241a5,5,0,0,0,6.974-1.164l.026-.036,5.76-8.21-17.48-12.31Z"/><path class="b" d="M-885.8,541.359l.192-.274-.192.274Z"/><path class="b" d="M-875.913,560.642l.026-.036,5.76-8.21L-885.8,541.359l-5.569,7.947a5,5,0,0,0,1.164,6.974h0l.036.025,8.937,6.259A4.989,4.989,0,0,0-875.913,560.642Z"/><path class="b" d="M-891.367,549.306l5.568-7.946h0Z"/><rect class="b" width="0.327" height="0.109" transform="translate(-867.082 548.05) rotate(-54.983)"/><rect class="b" width="0.327" height="0.109" transform="translate(-879.422 532.258) rotate(-54.983)"/><path class="b" d="M-879.233,531.989h0l.089.062-.188.268-3.17,4.524,15.609,10.938.089.062-.188.268,1.722,1.207,3.547-5.061Z"/><path class="b" d="M-882.78,537.05l15.7,11,.188-.268L-882.5,536.844l3.17-4.524-.089-.062Z"/><path class="f" d="M-803.158,393.357a51.337,51.337,0,0,1,13.95,2.126,51.4,51.4,0,0,1,7.3,2.79,51.4,51.4,0,0,0-8.939-3.674A51.106,51.106,0,0,0-803.158,393.357Z"/><path class="f" d="M-752.831,459.346h-1.8a51.366,51.366,0,0,1-48.061,36.7A51.361,51.361,0,0,0-752.831,459.346Z"/><path class="b" d="M-802.7,382.455a61.93,61.93,0,0,1,26.159,6.207,62.011,62.011,0,0,0-11.238-4.608A62.1,62.1,0,0,0-802.7,382.455Z"/><path class="b" d="M-790.851,394.6c-.12-.037-.236-.08-.357-.116a51.35,51.35,0,0,0-63.863,34.571,51.362,51.362,0,0,0,27.338,61.107,51.362,51.362,0,0,1-25.338-60.107,51.362,51.362,0,0,1,49.913-36.7A51.106,51.106,0,0,1-790.851,394.6Z"/><path class="f" d="M-787.4,395.483c-1.148-.342-2.3-.626-3.449-.884a51.4,51.4,0,0,1,8.939,3.674A51.338,51.338,0,0,1-752.854,439h1.82A51.337,51.337,0,0,0-787.4,395.483Z"/><path class="b" d="M-745.381,459.346h-7.45a51.361,51.361,0,0,1-49.858,36.7,51.324,51.324,0,0,1-15.8-2.123l-.01,0a51.667,51.667,0,0,1-9.232-3.756,51.362,51.362,0,0,1-27.338-61.107,51.35,51.35,0,0,1,63.863-34.571c.121.036.237.079.357.116,1.151.258,2.3.542,3.449.884A51.337,51.337,0,0,1-751.034,439h11.181a62.3,62.3,0,0,0-47.93-54.946,62.011,62.011,0,0,1,11.238,4.608,61.93,61.93,0,0,0-26.159-6.207c-1.547-.023-3.105.005-4.675.1a62.281,62.281,0,0,0-58.452,65.886h0a62.028,62.028,0,0,0,17.907,40.075,4.954,4.954,0,0,0-2.064,1.655l-.025.036-26.41,37.8,15.707,10.964,1.813,1.266,18.857-26.932,7.553-10.788a4.93,4.93,0,0,0,.853-2.159c.535.27,1.075.528,1.617.782a61.949,61.949,0,0,0,27.215,5.853c1.544.022,3.1-.007,4.665-.1a62.282,62.282,0,0,0,56.822-47.546h-4.06Z"/><path class="b" d="M-752.728,440.006h0Z"/><path class="b" d="M-752.728,440.006h0C-752.733,439.922-752.74,439.838-752.728,440.006Z"/></g></g><g transform="translate(1671.696 220.013)"><path class="f" d="M-777.043,468.748a3.965,3.965,0,0,1-.658-.054,4,4,0,0,1-3.126-2.649l-12.289-35.851-10.116,30.1a4,4,0,0,1-3.654,2.723,4.008,4.008,0,0,1-3.833-2.467l-7.769-18.766-4.625,10.154a4,4,0,0,1-3.64,2.341h-8.84a4,4,0,0,1-4-4,4,4,0,0,1,4-4h6.267l7.373-16.188a4,4,0,0,1,3.71-2.341,4,4,0,0,1,3.626,2.469l7.205,17.4,10.468-31.147a4,4,0,0,1,3.779-2.725h.012a4,4,0,0,1,3.784,2.7l13.709,39.995,6.458-8.313a4,4,0,0,1,3.105-1.545l22.19-.3h.055a4,4,0,0,1,4,3.946,4,4,0,0,1-3.945,4.053l-20.266.274-9.819,12.64A4,4,0,0,1-777.043,468.748Z"/><path class="b" d="M-776.069,469.659a3.959,3.959,0,0,1-.658-.055,4,4,0,0,1-3.126-2.648L-792.142,431.1l-10.116,30.1a4,4,0,0,1-3.655,2.723,4.009,4.009,0,0,1-3.833-2.467l-7.769-18.766-4.625,10.153a4,4,0,0,1-3.64,2.342h-8.84a4,4,0,0,1-4-4,4,4,0,0,1,4-4h6.267L-820.98,431a4,4,0,0,1,3.71-2.341,4,4,0,0,1,3.626,2.469l7.2,17.4,10.468-31.147a4,4,0,0,1,3.779-2.726h.012a4,4,0,0,1,3.784,2.7l13.71,39.995,6.458-8.313a4,4,0,0,1,3.1-1.545l22.19-.3h.055a4,4,0,0,1,4,3.946,4,4,0,0,1-3.946,4.054l-20.266.274-9.819,12.64A4,4,0,0,1-776.069,469.659Z"/></g></g></g></g></svg>