<svg xmlns="http://www.w3.org/2000/svg" xmlns:xlink="http://www.w3.org/1999/xlink" width="970.045" height="904.866" viewBox="0 0 970.045 904.866"><defs><style>.a{opacity:0.25;}.b{fill:url(#a);}</style><linearGradient id="a" x1="0.5" x2="0.5" y2="1" gradientUnits="objectBoundingBox"><stop offset="0" stop-color="#fff"/><stop offset="0.137" stop-color="#03c1b7"/><stop offset="0.268" stop-color="#28b4f2"/><stop offset="0.418" stop-color="#5282f0"/><stop offset="0.546" stop-color="#9c83e9"/><stop offset="0.676" stop-color="#5282f0"/><stop offset="0.833" stop-color="#28b4f2"/><stop offset="0.924" stop-color="#03c1b7"/><stop offset="1" stop-color="#fff"/></linearGradient></defs><g class="a" transform="translate(970.516 160.533)"><path class="b" d="M-146.042-49.949a2.873,2.873,0,0,0-.545,3.276l-89.042,89.042-27.454-5.489L-427.9,201.7H-493l7.7-7.7a4.331,4.331,0,0,0,4.933-.833,4.347,4.347,0,0,0,0-6.141,4.343,4.343,0,0,0-6.141,0,4.328,4.328,0,0,0-.831,4.933l-9.738,9.738h-22.342l-55.354,55.354h-24.937L-736.348,393.69v24.938l-83.847,83.845-.006,76.034a2.884,2.884,0,0,0-1.932,2.717,2.9,2.9,0,0,0,2.895,2.895,2.9,2.9,0,0,0,2.895-2.895,2.888,2.888,0,0,0-1.932-2.717l.006-75.237,81.923-81.921V431.5a4.329,4.329,0,0,0-2.9,4.076,4.342,4.342,0,0,0,4.342,4.342,4.342,4.342,0,0,0,4.342-4.342,4.329,4.329,0,0,0-2.9-4.076V418.463l18.749-18.751a4.312,4.312,0,0,0,1.247,2.821,4.343,4.343,0,0,0,6.141,0,4.332,4.332,0,0,0,.833-4.933l113.437-113.437a4.325,4.325,0,0,0,4.931-.833,4.341,4.341,0,0,0,0-6.139,4.293,4.293,0,0,0-2.821-1.247l16-16h23.7l56.316-56.316h67.816L-262.448,38.969l27.454,5.489,89.769-89.771a2.875,2.875,0,0,0,3.276-.543,2.9,2.9,0,0,0,0-4.094A2.894,2.894,0,0,0-146.042-49.949ZM-595.095,282.122-708.532,395.561a4.308,4.308,0,0,0-1.647-.379l114.671-114.673A4.282,4.282,0,0,0-595.095,282.122Zm-138.366,133.62V394.886l134.942-134.942h20.854Zm181.026-158.686h-19.621l53.43-53.43h19.621Z" transform="translate(137.189 101.458)"/><path class="b" d="M-95.039-70.436a2.869,2.869,0,0,0-.543,3.276l-99.727,99.727h-47.458l-150.3,150.3-38.709,0,6.53-6.532,14.59,2.918,44.209-44.209a4.328,4.328,0,0,0,4.933-.831,4.347,4.347,0,0,0,0-6.141,4.343,4.343,0,0,0-6.141,0,4.331,4.331,0,0,0-.833,4.933L-411.6,176.113l-14.59-2.916-9.663,9.663-24.553,0,19.055-19.055h25.219l49.719-49.719a4.334,4.334,0,0,0,4.933-.833,4.343,4.343,0,0,0,0-6.141,4.341,4.341,0,0,0-6.139,0,4.328,4.328,0,0,0-.833,4.933l-48.874,48.874h-25.219l-21.942,21.942-17.854,0-57.931,57.931-29.592,0-178.9,178.9,0,25.529-30.475,30.475v4.067l-38.712,38.711v48.039L-875.3,623.854l0,32.352a2.886,2.886,0,0,0-1.93,2.718,2.894,2.894,0,0,0,2.893,2.895,2.9,2.9,0,0,0,2.895-2.895,2.885,2.885,0,0,0-1.932-2.718l0-31.555,57.348-57.348V519.264l36.788-36.786v5.354a4.33,4.33,0,0,0-2.9,4.078,4.344,4.344,0,0,0,4.342,4.342,4.341,4.341,0,0,0,4.34-4.342,4.328,4.328,0,0,0-2.9-4.076v-8.243l53.474-53.474,0,30.493a4.327,4.327,0,0,0-2.9,4.076,4.342,4.342,0,0,0,4.34,4.342,4.344,4.344,0,0,0,4.344-4.342,4.327,4.327,0,0,0-2.9-4.076l0-33.38,159.475-159.475h47.856l78.969-78.97,41.43,0,150.3-150.3h47.458L-94.221-65.8a2.873,2.873,0,0,0,3.276-.545,2.9,2.9,0,0,0,0-4.094A2.894,2.894,0,0,0-95.039-70.436ZM-481.546,184.781h15.131l-56.007,56.008-15.133,0ZM-745.882,446.392l0-25.512,177.208-177.207,25.51,0-17.194,17.194H-562.5L-722.884,421.252V423.4Zm232.019-185.523h-43.772l17.194-17.194,19.215,0,58.893-58.893,24.553,0Z" transform="translate(86.242 82.515)"/><path class="b" d="M-764.063,576.167-497.186,309.29l0-42.209L-442,211.89h1.632V223.44a2.886,2.886,0,0,0-1.93,2.717,2.894,2.894,0,0,0,2.893,2.895,2.9,2.9,0,0,0,2.895-2.895,2.885,2.885,0,0,0-1.932-2.717V211.89h18.064l71.336-71.336a4.332,4.332,0,0,0,4.933-.833,4.341,4.341,0,0,0,0-6.139,4.341,4.341,0,0,0-6.139,0,4.328,4.328,0,0,0-.835,4.931L-421.572,209h-16.869V190.268l15.666,0,64.938-64.937a4.328,4.328,0,0,0,4.931-.833,4.343,4.343,0,0,0,0-6.141,4.344,4.344,0,0,0-6.139,0,4.331,4.331,0,0,0-.833,4.933l-64.092,64.092-14.471,0V171.438l6.792-6.792h8.075l59.328-59.328a4.328,4.328,0,0,0,4.933-.833,4.341,4.341,0,0,0,0-6.139,4.334,4.334,0,0,0-5.562-.472l45.652-45.652h40.683L-137.573-88.747a2.869,2.869,0,0,0,3.276-.543,2.893,2.893,0,0,0,0-4.092,2.892,2.892,0,0,0-4.093,0,2.872,2.872,0,0,0-.543,3.274l-140.4,140.4h-40.683l-59.644,59.642a4.339,4.339,0,0,0-.953-4.7,4.341,4.341,0,0,0-6.139,0,4.328,4.328,0,0,0-.833,4.933l-35.664,35.662h-39.634l-34.307,34.307v-7.213l161.4-161.4,52.75.008,128.924-128.924a2.876,2.876,0,0,0,3.276-.543,2.9,2.9,0,0,0,0-4.094,2.9,2.9,0,0,0-4.094,0,2.873,2.873,0,0,0-.543,3.276L-283.845,9.612-336.6,9.6-499.119,172.127v9.935L-526.952,209.9V149.213L-341.06-36.68h56.509l118.37-118.37a2.869,2.869,0,0,0,3.276-.543,2.9,2.9,0,0,0,0-4.094,2.9,2.9,0,0,0-4.093,0,2.869,2.869,0,0,0-.543,3.276L-285.348-38.6h-56.509L-528.876,148.416v63.4l-33.636,33.634.008-105.883L-356.278-66.655H-281.7l75.431-75.431a2.869,2.869,0,0,0,3.276-.543,2.892,2.892,0,0,0,0-4.094,2.893,2.893,0,0,0-4.092,0,2.873,2.873,0,0,0-.545,3.276L-282.5-68.579h-74.578L-564.429,138.774l-.008,108.6-9.19,9.19,0,23.607L-793.834,500.382h-65.739a2.885,2.885,0,0,0-2.717-1.932,2.894,2.894,0,0,0-2.895,2.895,2.9,2.9,0,0,0,2.895,2.895,2.888,2.888,0,0,0,2.717-1.932h66.536L-573.628,282.9l0,43.934L-694.992,448.191h-29.113a4.332,4.332,0,0,0-4.078-2.9,4.343,4.343,0,0,0-4.342,4.342,4.342,4.342,0,0,0,4.342,4.342,4.327,4.327,0,0,0,4.076-2.9h30.31l123.054-123.052,0-48.016,8.229-8.227V249.539l33.636-33.635v19.935l-25.856,25.856v56.08l-146.95,146.95h-12.546l-52.1,52.1h-13.757a4.327,4.327,0,0,0-4.076-2.9,4.343,4.343,0,0,0-4.342,4.342,4.343,4.343,0,0,0,4.342,4.342,4.331,4.331,0,0,0,4.078-2.9h14.95l52.1-52.1h8.464l-63.88,63.878h-61.584l-98.031,98.033H-964.9a2.888,2.888,0,0,0-2.719-1.932,2.894,2.894,0,0,0-2.893,2.895,2.893,2.893,0,0,0,2.893,2.895,2.888,2.888,0,0,0,2.719-1.932h37.637l98.031-98.033h61.584l65.8-65.8h21.542l128.46-128.46V317.608l12.929-12.929,0,42.084-140.68,140.679-14.009,0a4.333,4.333,0,0,0-4.076-2.9,4.345,4.345,0,0,0-4.344,4.342,4.342,4.342,0,0,0,4.342,4.342,4.328,4.328,0,0,0,4.076-2.9l12.658,0-83.913,83.913-37.317-.008a2.886,2.886,0,0,0-2.718-1.932,2.894,2.894,0,0,0-2.895,2.893,2.9,2.9,0,0,0,2.893,2.9,2.888,2.888,0,0,0,2.719-1.932Zm199.627-305.181-6.3,6.3V257.764l6.3-6.3ZM-440.366,209h-2.827l-54,54,0-26.349,46.384-46.384,10.441,0Zm0-38.362v16.74l-11.636,0-45.189,45.189,0-24.332,43.587-43.589h19.234Zm-58.749,63.851-27.837,27.837V238l27.835-27.835Zm132.829-131.214-58.483,58.482h-3.994l63.031-63.031A4.31,4.31,0,0,0-366.286,103.278Zm-95.406,45.439h39.634l36.509-36.509a4.336,4.336,0,0,0,3.564.052l-49.5,49.5H-454.8l-42.392,42.394,0-19.935Zm-65.26,65.262,27.833-27.835,0,19.935-27.835,27.835Zm-27.781,123.974L-681.5,464.723h-17.46L-554.733,320.5Zm2.887-23.066v-52l22.97-22.97v24.334l-10.042,10.04,0,27.664Zm15.814-39.4,7.156-7.154v23.582l-7.154,7.154Zm0,26.3,9.078-9.078v-26.3l27.837-27.837,0,26.349-8.582,8.582v23.008a4.329,4.329,0,0,0-2.9,4.076,4.342,4.342,0,0,0,4.342,4.342,4.342,4.342,0,0,0,4.342-4.342,4.329,4.329,0,0,0-2.9-4.076V274.7l5.695-5.695,0,39.488-36.917,36.915Z" transform="translate(0 0)"/><path class="b" d="M-532.471-29.6l-33.162.008a2.885,2.885,0,0,0-2.718-1.932,2.9,2.9,0,0,0-2.894,2.895,2.9,2.9,0,0,0,2.894,2.895,2.884,2.884,0,0,0,2.718-1.932l33.959-.008,68.651-68.651a2.869,2.869,0,0,0,3.276-.543,2.9,2.9,0,0,0,0-4.094,2.9,2.9,0,0,0-4.094,0,2.876,2.876,0,0,0-.543,3.276Z" transform="translate(369.149 54.289)"/><path class="b" d="M-307.72,26.227a2.873,2.873,0,0,0-.543,3.276L-438.507,159.745h-88.965L-783.55,415.825v80.649a2.885,2.885,0,0,0-1.932,2.717,2.9,2.9,0,0,0,2.895,2.895,2.9,2.9,0,0,0,2.895-2.895,2.888,2.888,0,0,0-1.932-2.717V416.622l254.95-254.952h88.964L-306.9,30.863a2.872,2.872,0,0,0,3.276-.543,2.9,2.9,0,0,0,0-4.094A2.9,2.9,0,0,0-307.72,26.227Z" transform="translate(171.075 171.887)"/><path class="b" d="M-530.84,114.379a2.869,2.869,0,0,0-.543,3.276L-759.332,345.6a2.868,2.868,0,0,0-3.276.543,2.892,2.892,0,0,0,0,4.094,2.9,2.9,0,0,0,4.094,0,2.876,2.876,0,0,0,.543-3.276l227.948-227.948a2.873,2.873,0,0,0,3.276-.543,2.9,2.9,0,0,0,0-4.094A2.9,2.9,0,0,0-530.84,114.379Z" transform="translate(191.439 253.389)"/><path class="b" d="M-255.092-86.29a2.9,2.9,0,0,0-4.094,0,2.869,2.869,0,0,0-.543,3.276L-366.237,23.493l-81.359-.008-81.1,81.1a4.337,4.337,0,0,0-4.657.968,4.339,4.339,0,0,0-.966,4.657L-567.1,142.986a2.869,2.869,0,0,0-3.276.543,2.854,2.854,0,0,0-.379,3.52l-15.914,15.914-43.237-.006-59.929,59.931a4.325,4.325,0,0,0-4.931.833,4.341,4.341,0,0,0,0,6.139,4.341,4.341,0,0,0,6.139,0,4.331,4.331,0,0,0,.833-4.933l59.082-59.084,43.237.006,17.437-17.436a2.842,2.842,0,0,0,1.755-.791,2.832,2.832,0,0,0,.791-1.755l33.341-33.341a4.331,4.331,0,0,0,4.933-.833,4.332,4.332,0,0,0,.123-5.989L-446.8,25.409l81.359.008L-258.368-81.654a2.869,2.869,0,0,0,3.276-.543A2.9,2.9,0,0,0-255.092-86.29Z" transform="translate(253.774 67.859)"/><path class="b" d="M-360.449-9.547h-99.44l-139.07,139.07h-1.532a4.327,4.327,0,0,0-4.076-2.9,4.34,4.34,0,0,0-4.34,4.342,4.331,4.331,0,0,0,4.178,4.324l-11.043,11.043h-8.945l-92.159,92.157a4.328,4.328,0,0,0-4.931.833,4.341,4.341,0,0,0,0,6.139,4.341,4.341,0,0,0,6.139,0,4.328,4.328,0,0,0,.833-4.931l91.313-91.313h4.863L-640.038,170.6a2.866,2.866,0,0,0-3.274.543,2.892,2.892,0,0,0,0,4.094,2.894,2.894,0,0,0,4.092,0,2.869,2.869,0,0,0,.543-3.276l22.739-22.739h45.26l36.907-36.907a4.332,4.332,0,0,0,4.933-.833,4.343,4.343,0,0,0,0-6.141,4.341,4.341,0,0,0-6.139,0,4.328,4.328,0,0,0-.833,4.933l-36.062,36.062h-41.178l13.926-13.926,11.632,0,32.9-32.906a4.328,4.328,0,0,0,4.933-.833,4.341,4.341,0,0,0,0-6.139,4.341,4.341,0,0,0-6.139,0,4.328,4.328,0,0,0-.833,4.933l-32.059,32.059-7.55,0L-459.093-7.622h99.44L-283.471-83.8a2.869,2.869,0,0,0,3.276-.543,2.9,2.9,0,0,0,0-4.094,2.9,2.9,0,0,0-4.094,0,2.876,2.876,0,0,0-.543,3.276Z" transform="translate(228.769 65.871)"/></g></svg>