<svg id="레이어_1" data-name="레이어 1" xmlns="http://www.w3.org/2000/svg" xmlns:xlink="http://www.w3.org/1999/xlink" viewBox="0 0 224.59 239.72"><defs><style>.cls-1,.cls-5{fill:none;}.cls-2{clip-path:url(#clip-path);}.cls-3{fill:#a7bbc7;}.cls-4{fill:#fff;}.cls-5{stroke:#fff;stroke-miterlimit:10;stroke-width:5px;}</style><clipPath id="clip-path"><circle class="cls-1" cx="112.3" cy="112.3" r="112.3"/></clipPath></defs><g class="cls-2"><circle class="cls-3" cx="112.3" cy="112.3" r="112.3"/><path class="cls-4" d="M139.36,97.94A2.74,2.74,0,0,1,137,96.6L121,69.82,110.8,82.18a2.73,2.73,0,0,1-2.23,1A2.76,2.76,0,0,1,106.42,82l-9-12.77-9.72,9.3a2.75,2.75,0,1,1-3.8-4l12-11.51a2.75,2.75,0,0,1,4.15.4l8.75,12.43,10.34-12.59a2.75,2.75,0,0,1,2.33-1,2.79,2.79,0,0,1,2.16,1.33l15.08,25.18,10.06-27.71A2.75,2.75,0,1,1,154,63l-12,33.14a2.73,2.73,0,0,1-2.32,1.8Z"/><circle class="cls-4" cx="151.99" cy="60.38" r="5.53"/><path class="cls-1" d="M154.89,66.1v0Z"/><path class="cls-5" d="M118,132.88c-6.93-1.66-6.2-2-13.15-3.56a4.79,4.79,0,0,1-2.33-1.25c-1.76-1.67-7.68-7.33-12.06-11.52A15.41,15.41,0,0,0,79.5,112.3c-5,.1-12.25.2-18.67.13-5.37-.05-10.74-.07-16.11,0-5.13.09-9.15,6.58-9.15,10.34q0,21.57,0,43.14a2.51,2.51,0,0,1-.13,1.33,3.42,3.42,0,0,0,.21,1.48,6.76,6.76,0,0,0,7.16,4.77,6.6,6.6,0,0,0,5.89-6.7c0-11.8,0-14.7,0-26.5,0-.45,0-.9,0-1.35.06-.68.39-1.16,1.14-1.12s.94.5.95,1.13,0,1,0,1.51V228a5,5,0,0,0,.19,2.08,1.08,1.08,0,0,0,.24-.67,1.72,1.72,0,0,1-.2.88,6,6,0,0,0,.14,1A8.05,8.05,0,0,0,67,229.09q0-26.43,0-52.86c0-1-.42-2.55,1.23-2.57s1.32,1.58,1.32,2.65q0,25.51,0,51c0,.6.08,1.2.12,1.79a1,1,0,0,0,.19-.42,4.91,4.91,0,0,1,0,1.27,1.89,1.89,0,0,0,0,.75,8,8,0,0,0,15.88-1.94q0-45,0-90A2.42,2.42,0,0,1,89.85,137c1.5,1.4,2.92,2.73,4.17,3.95a9.62,9.62,0,0,0,4.41,2.41c7.68,1.83,8.5,2.54,16.59,4.35a7.34,7.34,0,0,0,8-3.63A7.54,7.54,0,0,0,118,132.88Z"/><path class="cls-4" d="M117,134.28a1.76,1.76,0,0,1-.39-.06,1.83,1.83,0,0,1-1.48-2.23L125.29,96.7a2.05,2.05,0,0,1,2.5-1.28,1.83,1.83,0,0,1,1.48,2.23l-10.18,35.29A2,2,0,0,1,117,134.28Z"/><circle class="cls-5" cx="66.04" cy="91.12" r="14.28"/><path class="cls-4" d="M166.65,34.64H77.73A19.44,19.44,0,0,0,58.28,54.09v21a1.78,1.78,0,0,0,1.78,1.78h2.71a1.79,1.79,0,0,0,1.79-1.78v-21A13.17,13.17,0,0,1,77.73,40.92h88.92a13.17,13.17,0,0,1,13.17,13.17v48.77A13.17,13.17,0,0,1,166.65,116H94.13a1.86,1.86,0,0,0-1.87,1.86v2.61A1.8,1.8,0,0,0,94,122.31h72.63a19.45,19.45,0,0,0,19.45-19.45V54.09A19.45,19.45,0,0,0,166.65,34.64Z"/></g></svg>