<svg xmlns="http://www.w3.org/2000/svg" xmlns:xlink="http://www.w3.org/1999/xlink" width="252.6" height="248.6" viewBox="0 0 252.6 248.6"><defs><style>.a{fill:#5282f0;}.b{fill:#d1dbe1;}.c{fill:#e7ecf0;}.d{fill:none;}.e{fill:#764fef;}.f{fill:#9c83e9;}.g{filter:url(#c);}.h{filter:url(#a);}</style><filter id="a" x="0" y="0" width="242.6" height="242.6" filterUnits="userSpaceOnUse"><feOffset dx="-5" dy="-3" input="SourceAlpha"/><feGaussianBlur stdDeviation="3" result="b"/><feFlood flood-color="#fff" flood-opacity="0.451"/><feComposite operator="in" in2="b"/><feComposite in="SourceGraphic"/></filter><filter id="c" x="10" y="6" width="242.6" height="242.6" filterUnits="userSpaceOnUse"><feOffset dx="5" dy="3" input="SourceAlpha"/><feGaussianBlur stdDeviation="3" result="d"/><feFlood flood-opacity="0.161"/><feComposite operator="in" in2="d"/><feComposite in="SourceGraphic"/></filter></defs><g transform="translate(-176.014 -196.355)"><g transform="translate(-3740.113 -2246.4)"><path class="a" d="M-885.8,541.359l.192-.274-.192.274Z" transform="translate(4844.425 2006.166)"/><path class="a" d="M-891.367,549.306l5.568-7.946h0Z" transform="translate(4844.425 2006.166)"/><g class="h" transform="matrix(1, 0, 0, 1, 3916.13, 2442.75)"><circle class="b" cx="112.3" cy="112.3" r="112.3" transform="translate(14 12)"/></g><g class="g" transform="matrix(1, 0, 0, 1, 3916.13, 2442.75)"><circle class="c" cx="112.3" cy="112.3" r="112.3" transform="translate(14 12)"/></g><circle class="d" cx="112.3" cy="112.3" r="112.3" transform="translate(3930.127 2454.755)"/><circle class="d" cx="112.3" cy="112.3" r="112.3" transform="translate(3930.127 2454.755)"/></g><path class="e" d="M866.366,311.077l8.176,11.6a2.753,2.753,0,0,0,.842.775l-8.842-12.545Z" transform="translate(-575.806 -25.923)"/><path class="e" d="M853.021,316.208l12-11.53a2.755,2.755,0,0,1,3.32-.36l-.169-.24c-.082-.111-.168-.218-.26-.32a2.762,2.762,0,0,0-3.891-.08l-12,11.53a2.762,2.762,0,0,0-.1,3.777,2.726,2.726,0,0,0,.668.533A2.762,2.762,0,0,1,853.021,316.208Z" transform="translate(-575.806 -25.923)"/><path class="e" d="M888.261,304.918a2.752,2.752,0,0,1,2.331-1,2.8,2.8,0,0,1,1.194.387l-.034-.057a2.811,2.811,0,0,0-2.16-1.33,2.752,2.752,0,0,0-2.331,1l-10.179,12.4.84,1.194Z" transform="translate(-575.806 -25.923)"/><path class="e" d="M916.851,305.583a5.5,5.5,0,0,1-1.27-3.525h0a5.531,5.531,0,0,1,5.531-5.529h0a5.5,5.5,0,0,1,3.373,1.156,5.516,5.516,0,0,0-4.373-2.156h0a5.531,5.531,0,0,0-5.531,5.529h0a5.5,5.5,0,0,0,1.27,3.525l-8.868,24.428.848,1.417Z" transform="translate(-575.806 -25.923)"/><path class="e" d="M889.889,311.781l15.233,25.5a2.731,2.731,0,0,0,.98.966L890.122,311.5Z" transform="translate(-575.806 -25.923)"/><path class="e" d="M802.028,408.721l.029-.358.129-.336-.038-.213V364.452c0-4.971,4.984-12.724,11.606-12.84,5.958-.077,11.778-.041,16.178,0,6.455.071,13.677-.029,18.6-.129a17.74,17.74,0,0,1,12.775,4.939l1.406,1.346a1.856,1.856,0,0,1,.538-.086h25.588l5.573-19.3a2,2,0,0,1,2.5-1.28,1.848,1.848,0,0,1,.39.114,1.834,1.834,0,0,0-1.39-1.114,2,2,0,0,0-2.5,1.28l-5.573,19.3H862.251a1.856,1.856,0,0,0-.538.086l-1.406-1.346a17.74,17.74,0,0,0-12.775-4.939c-4.923.1-12.145.2-18.6.129-4.4-.041-10.22-.077-16.178,0-6.622.116-11.606,7.869-11.606,12.84v43.362l.038.213-.129.336-.029.358a5.929,5.929,0,0,0,.332,2.481,9.246,9.246,0,0,0,2.811,4.255,9.253,9.253,0,0,1-1.811-3.255A5.929,5.929,0,0,1,802.028,408.721Z" transform="translate(-575.806 -25.923)"/><path class="e" d="M935.771,357.682a13.169,13.169,0,0,0,13.17-13.14V295.77a13.121,13.121,0,0,0-4.38-9.787,13.1,13.1,0,0,1,3.38,8.787v48.772a13.169,13.169,0,0,1-13.17,13.14H893.417l-.289,1Z" transform="translate(-575.806 -25.923)"/><path class="e" d="M880.52,369.422c-1.678-.527-3.263-1.025-7.03-1.871a2.263,2.263,0,0,1-1.128-.618c-.608-.577-1.721-1.638-3.09-2.946h-.048c1.847,1.764,3.38,3.227,4.138,3.946a2.263,2.263,0,0,0,1.128.618c3.767.846,5.352,1.344,7.03,1.871.943.3,1.917.6,3.353.988l2.144-7.423h-1.288l-1.856,6.423C882.437,370.024,881.463,369.719,880.52,369.422Z" transform="translate(-575.806 -25.923)"/><path class="e" d="M835.162,316.018a16.721,16.721,0,0,1,11.335,4.445,16.738,16.738,0,0,0-12.335-5.445c-.162,0-.319.019-.48.025v1.05C834.17,316.05,834.662,316.018,835.162,316.018Z" transform="translate(-575.806 -25.923)"/><path class="e" d="M834.162,343.578a11.728,11.728,0,0,1-7.8-2.978,11.763,11.763,0,1,0,16.6-16.6,11.76,11.76,0,0,1-8.8,19.582Z" transform="translate(-575.806 -25.923)"/><path class="e" d="M827.732,317.775a1.772,1.772,0,0,1-.33-1.027v-21a19.44,19.44,0,0,1,19.45-19.428h88.919a19.364,19.364,0,0,1,13.214,5.222,19.375,19.375,0,0,0-14.214-6.222H845.852a19.44,19.44,0,0,0-19.45,19.428v21a1.772,1.772,0,0,0,.33,1.027,16.724,16.724,0,0,0-3.906,27.359,16.718,16.718,0,0,1,4.906-26.359Z" transform="translate(-575.806 -25.923)"/><path class="e" d="M833.608,417.535a4.492,4.492,0,0,1,.95-3.56,3.705,3.705,0,0,1,2.768-1.142,3.808,3.808,0,0,1,2.125.568,4.429,4.429,0,0,0-.325-.483,3.815,3.815,0,0,0-2.8-1.085,3.705,3.705,0,0,0-2.768,1.142,4.492,4.492,0,0,0-.95,3.56c.008.128.018.253.018.368v32.022q.5.221,1,.437V417.9C833.626,417.788,833.616,417.663,833.608,417.535Z" transform="translate(-575.806 -25.923)"/><path class="e" d="M857.281,375.513h.016a4.9,4.9,0,0,1,3.4,1.36c1.491,1.394,2.929,2.738,4.191,3.97a7.1,7.1,0,0,0,3.248,1.768c3.614.861,5.73,1.473,7.777,2.073,2.319.676,4.51,1.314,8.775,2.269a4.854,4.854,0,0,0,5.262-2.4h0a5.056,5.056,0,0,0-1.259-6.579,5.072,5.072,0,0,1,.259,5.579h0a4.854,4.854,0,0,1-5.262,2.4c-4.265-.955-6.456-1.593-8.775-2.269-2.047-.6-4.163-1.212-7.777-2.073a7.1,7.1,0,0,1-3.248-1.768c-1.262-1.232-2.7-2.576-4.191-3.97a4.9,4.9,0,0,0-3.4-1.36h-.016a4.928,4.928,0,0,0-4.9,4.929v75.873c.334.081.666.166,1,.244V380.442A4.928,4.928,0,0,1,857.281,375.513Z" transform="translate(-575.806 -25.923)"/><path class="e" d="M890.711,373.283a10.107,10.107,0,0,1,1.49,1.079,10.032,10.032,0,0,0-2.49-2.079c-.224-.13-.456-.244-.69-.356l-.151.523A9.839,9.839,0,0,1,890.711,373.283Z" transform="translate(-575.806 -25.923)"/><path class="e" d="M818.166,376l-.108,0a3.5,3.5,0,0,0-3.755,3.225c0,.058-.007.117-.009.175l-.01.109v28.01a4.082,4.082,0,0,1-3.644,4.164,4.248,4.248,0,0,1-2.9-.781,4.262,4.262,0,0,0,3.9,1.781,4.082,4.082,0,0,0,3.644-4.164V380.5l.01-.109c0-.058.005-.117.009-.175a3.5,3.5,0,0,1,3.755-3.225l.108,0a3.377,3.377,0,0,1,1.666.561A3.391,3.391,0,0,0,818.166,376Z" transform="translate(-575.806 -25.923)"/><path class="e" d="M817.368,415.3a8.9,8.9,0,0,1-1,.791v23.941c.333.22.665.442,1,.659Z" transform="translate(-575.806 -25.923)"/><path class="f" d="M877.082,316.314l-7.91-11.236c-.082-.111-.168-.218-.26-.32a2.749,2.749,0,0,0-.571-.44l8.581,12.19Z" transform="translate(-575.806 -25.923)"/><path class="f" d="M878.922,322.858a2.7,2.7,0,0,1-2.231,1,2.731,2.731,0,0,1-1.307-.4l.158.225a2.756,2.756,0,0,0,2.149,1.18,2.7,2.7,0,0,0,2.231-1l9.967-12.077-.767-1.283Z" transform="translate(-575.806 -25.923)"/><path class="f" d="M921.1,306.495l-10.98,30.323a2.731,2.731,0,0,1-2.32,1.8h-.32a2.732,2.732,0,0,1-1.38-.374l.02.034a2.738,2.738,0,0,0,2.36,1.34h.32a2.731,2.731,0,0,0,2.32-1.8l10.98-30.323a5.522,5.522,0,0,0,2.384-9.811,5.52,5.52,0,0,1-3.384,8.811Z" transform="translate(-575.806 -25.923)"/><path class="f" d="M906.983,329.011l-14.231-23.763a2.794,2.794,0,0,0-.966-.943l15.045,25.123Z" transform="translate(-575.806 -25.923)"/><path class="f" d="M855.821,319.208l0,0a2.751,2.751,0,0,1-3.229.307,2.8,2.8,0,0,0,.332.467,2.76,2.76,0,0,0,3.9.226l0,0,9.545-9.131-.824-1.169Z" transform="translate(-575.806 -25.923)"/><path class="f" d="M865.021,304.678l-12,11.53a2.1,2.1,0,1,0,2.8,3l0,0,9.721-9.3.824,1.169.176-.169,8.842,12.545a2.731,2.731,0,0,0,1.307.4,2.7,2.7,0,0,0,2.231-1l10.2-12.36.767,1.283.233-.283,15.98,26.746a2.732,2.732,0,0,0,1.38.374h.32a2.731,2.731,0,0,0,2.32-1.8l10.98-30.323a4.987,4.987,0,1,0,.011-9.967h0a5.531,5.531,0,0,0-5.531,5.529h0a5.5,5.5,0,0,0,1.27,3.525l-9.02,24.845-.848-1.417-.152.417L891.786,304.3a2.8,2.8,0,0,0-1.194-.387,2.752,2.752,0,0,0-2.331,1l-10.339,12.59-.84-1.194-.16.194-8.581-12.19A2.755,2.755,0,0,0,865.021,304.678Z" transform="translate(-575.806 -25.923)"/><path class="f" d="M822.374,382.132v-1.551a3.386,3.386,0,0,0-1.542-3.021,3.371,3.371,0,0,1,.542,2.021v63.571c.334.195.665.394,1,.586Z" transform="translate(-575.806 -25.923)"/><path class="f" d="M807.071,409.509a.9.9,0,0,1-.05-.2,4.97,4.97,0,0,0,.132-1.9V364.448c0-2.543,3.1-7.778,6.683-7.84,5.9-.077,11.677-.04,16.05,0,6.512.07,13.789-.032,18.758-.131a12.878,12.878,0,0,1,9.212,3.558c4.382,4.192,10.306,9.855,12.037,11.5a7.183,7.183,0,0,0,3.533,1.9c3.534.793,5.021,1.261,6.6,1.756,1.539.484,3.13.984,6.519,1.8l.1.021a4.935,4.935,0,0,1,1.539.583,5.024,5.024,0,0,1,.507.375,5.059,5.059,0,0,0-1.507-1.375,4.935,4.935,0,0,0-1.539-.583l-.1-.021c-3.389-.816-4.98-1.316-6.519-1.8-1.579-.5-3.066-.963-6.6-1.756a7.183,7.183,0,0,1-3.533-1.9c-1.731-1.645-7.655-7.308-12.037-11.5a12.878,12.878,0,0,0-9.212-3.558c-4.969.1-12.246.2-18.758.131-4.373-.04-10.15-.077-16.05,0-3.583.062-6.683,5.3-6.683,7.84v42.961a4.97,4.97,0,0,1-.132,1.9.9.9,0,0,0,.05.2l.056.163a4.247,4.247,0,0,0,1.611,2.225,4.247,4.247,0,0,1-.611-1.225Z" transform="translate(-575.806 -25.923)"/><path class="f" d="M841.171,417.988c0-.117.006-.242.011-.37a4.709,4.709,0,0,0-1.056-3.7,3.731,3.731,0,0,0-.675-.517,4.684,4.684,0,0,1,.731,3.217c-.005.128-.011.253-.011.37v34.96q.5.178,1,.352Z" transform="translate(-575.806 -25.923)"/><path class="f" d="M822.381,331.8a11.754,11.754,0,0,0,3.979,8.8,11.76,11.76,0,0,1,16.6-16.6,11.764,11.764,0,0,0-20.582,7.8Z" transform="translate(-575.806 -25.923)"/><path class="f" d="M897.422,338.212v.12l-5.294,18.35h1.289l5.005-17.35v-.12a1.838,1.838,0,0,0-1.12-2A1.82,1.82,0,0,1,897.422,338.212Z" transform="translate(-575.806 -25.923)"/><path class="f" d="M934.771,281.6H845.852a13.171,13.171,0,0,0-13.17,13.146v20.345c.33-.029.666-.038,1-.05v-19.3a13.171,13.171,0,0,1,13.17-13.146h88.919a13.11,13.11,0,0,1,8.79,3.381A13.125,13.125,0,0,0,934.771,281.6Z" transform="translate(-575.806 -25.923)"/><path class="f" d="M811.16,416.658a9.263,9.263,0,0,1-6.989-2.2,9.27,9.27,0,0,0,7.989,3.2,9.1,9.1,0,0,0,4.208-1.564V414.3A9.12,9.12,0,0,1,811.16,416.658Z" transform="translate(-575.806 -25.923)"/><path class="f" d="M885.729,363.987l.288-1H868.224l1.048,1Z" transform="translate(-575.806 -25.923)"/><path class="f" d="M954.2,343.538a19.449,19.449,0,0,1-19.449,19.45H890.311l-2.441,8.462a9.887,9.887,0,0,1,1.151.477l2.29-7.939h44.444a19.449,19.449,0,0,0,19.449-19.45v-48.77a19.375,19.375,0,0,0-6.219-14.228,19.362,19.362,0,0,1,5.219,13.228Z" transform="translate(-575.806 -25.923)"/><path class="f" d="M861.411,384.433a12.125,12.125,0,0,0,5.56,3.036c3.5.834,5.554,1.433,7.543,2.012,2.4.7,4.662,1.358,9.089,2.349a9.855,9.855,0,0,0,10.7-4.811,10.059,10.059,0,0,0-2.1-12.657,10.059,10.059,0,0,1,1.1,11.657,9.855,9.855,0,0,1-10.7,4.811c-4.427-.991-6.689-1.649-9.089-2.349-1.989-.579-4.043-1.178-7.543-2.012a12.125,12.125,0,0,1-5.56-3.036c-1.222-1.193-2.588-2.474-4.031-3.819v76.8q.5.1,1,.192V380.614C858.823,381.959,860.189,383.24,861.411,384.433Z" transform="translate(-575.806 -25.923)"/><path class="f" d="M834.162,348.578a16.718,16.718,0,0,1-11.336-4.444A16.754,16.754,0,1,0,846.5,320.463a16.751,16.751,0,0,1-12.335,28.115Z" transform="translate(-575.806 -25.923)"/><path class="f" d="M840.182,416.618a4.684,4.684,0,0,0-.731-3.217,3.808,3.808,0,0,0-2.125-.568,3.705,3.705,0,0,0-2.768,1.142,4.492,4.492,0,0,0-.95,3.56c.008.128.018.253.018.368v31.459q3.222,1.392,6.545,2.586v-34.96C840.171,416.871,840.177,416.746,840.182,416.618Z" transform="translate(-575.806 -25.923)"/><path class="f" d="M817.368,440.694q1.974,1.27,4.006,2.458V379.581A2.04,2.04,0,0,0,819.166,377l-.108,0a3.5,3.5,0,0,0-3.755,3.225c0,.058-.007.117-.009.175l-.01.109v28.01a4.082,4.082,0,0,1-3.644,4.164,6.907,6.907,0,0,1-5.513-4.006l-.056-.163a.9.9,0,0,1-.05-.2,4.97,4.97,0,0,0,.132-1.9V363.448c0-2.543,3.1-7.778,6.683-7.84,5.9-.077,11.677-.04,16.05,0,6.512.07,13.789-.032,18.758-.131a12.878,12.878,0,0,1,9.212,3.558c4.382,4.192,10.306,9.855,12.037,11.5a7.183,7.183,0,0,0,3.533,1.9c3.534.793,5.021,1.261,6.6,1.756,1.539.484,3.13.984,6.519,1.8l.1.021a4.935,4.935,0,0,1,1.539.583,7.031,7.031,0,0,1,2.766,7.954h0a4.854,4.854,0,0,1-5.262,2.4c-4.265-.955-6.456-1.593-8.775-2.269-2.047-.6-4.163-1.212-7.777-2.073a7.1,7.1,0,0,1-3.248-1.768c-1.262-1.232-2.7-2.576-4.191-3.97a4.9,4.9,0,0,0-3.4-1.36h-.016a4.928,4.928,0,0,0-4.9,4.929v75.117q1.986.465,4,.856v-76.8c1.443,1.345,2.809,2.626,4.031,3.819a12.125,12.125,0,0,0,5.56,3.036c3.5.834,5.554,1.433,7.543,2.012,2.4.7,4.662,1.358,9.089,2.349a9.855,9.855,0,0,0,10.7-4.811,8.652,8.652,0,0,0-2.592-12.736,9.839,9.839,0,0,0-1.841-.833l.151-.523a9.887,9.887,0,0,0-1.151-.477l2.441-8.462h44.444a19.449,19.449,0,0,0,19.449-19.45v-48.77a17.858,17.858,0,0,0-18.433-18.45H846.852a19.44,19.44,0,0,0-19.45,19.428v21a1.772,1.772,0,0,0,.33,1.027,16.642,16.642,0,1,0,7.43-1.757c-.5,0-.992.032-1.48.075v-1.05c-.334.012-.67.021-1,.05V294.748a13.171,13.171,0,0,1,13.17-13.146h88.919a15.037,15.037,0,0,1,14.17,14.168v48.772a13.169,13.169,0,0,1-13.17,13.14H893.128l.289-1h-1.289l5.294-18.35v-.12a1.82,1.82,0,0,0-.12-1,1.848,1.848,0,0,0-.39-.114,2,2,0,0,0-2.5,1.28l-5.573,19.3H863.251a1.856,1.856,0,0,0-.538.086l-1.406-1.346a17.74,17.74,0,0,0-12.775-4.939c-4.923.1-12.145.2-18.6.129-4.4-.041-10.22-.077-16.178,0-6.622.116-11.606,7.869-11.606,12.84v43.362l.038.213-.129.336-.029.358a5.929,5.929,0,0,0,.332,2.481,7.531,7.531,0,0,0,8.8,5.456,9.12,9.12,0,0,0,5.208-2.355v1.791a8.9,8.9,0,0,0,1-.791Zm16.794-120.676a11.763,11.763,0,1,1-11.781,11.78A11.749,11.749,0,0,1,834.162,320.018Zm51.855,42.969-.288,1h1.288l-2.144,7.423c-1.436-.386-2.41-.691-3.353-.988-1.678-.527-3.263-1.025-7.03-1.871a2.263,2.263,0,0,1-1.128-.618c-.758-.719-2.291-2.182-4.138-3.946h.048l-1.048-1Z" transform="translate(-575.806 -25.923)"/></g></svg>