<?xml version="1.0" encoding="utf-8"?>
<!-- Generator: Adobe Illustrator 25.2.3, SVG Export Plug-In . SVG Version: 6.00 Build 0)  -->
<svg version="1.1" id="레이어_1" xmlns="http://www.w3.org/2000/svg" xmlns:xlink="http://www.w3.org/1999/xlink" x="0px"
	 y="0px" viewBox="0 0 580.74 530.45" style="enable-background:new 0 0 580.74 530.45;" xml:space="preserve">
<style type="text/css">
	.st0{fill:#EBEBEB;}
	.st1{fill:#F0F0F0;}
	.st2{fill:#F5F5F5;}
	.st3{fill:#E0E0E0;}
	.st4{fill:#FAFAFA;}
	.st5{opacity:0.6;fill:#FAFAFA;enable-background:new    ;}
	.st6{fill:#E6E6E6;}
	.st7{fill:#263238;}
	.st8{opacity:0.4;}
	.st9{fill:#FFFFFF;}
	.st10{fill:#407BFF;}
	.st11{opacity:0.2;fill:#FFFFFF;enable-background:new    ;}
	.st12{opacity:0.9;fill:#FFFFFF;enable-background:new    ;}
	.st13{opacity:0.6;fill:#FFFFFF;enable-background:new    ;}
	.st14{opacity:0.5;fill:#FFFFFF;enable-background:new    ;}
	.st15{opacity:0.7;fill:#FFFFFF;enable-background:new    ;}
	.st16{opacity:0.8;}
	.st17{opacity:0.3;fill:#FFFFFF;enable-background:new    ;}
	.st18{opacity:0.2;enable-background:new    ;}
	.st19{opacity:0.8;fill:#FFFFFF;enable-background:new    ;}
	.st20{opacity:0.5;enable-background:new    ;}
	.st21{opacity:0.9;fill:#FAFAFA;enable-background:new    ;}
	.st22{opacity:0.4;enable-background:new    ;}
	.st23{opacity:0.1;enable-background:new    ;}
	.st24{opacity:0.4;fill:#FFFFFF;enable-background:new    ;}
	.st25{opacity:0.7;}
	.st26{opacity:0.1;fill:#FFFFFF;enable-background:new    ;}
	.st27{opacity:0.3;fill:#FAFAFA;enable-background:new    ;}
	.st28{fill:#CE7A63;}
	.st29{fill:#BA4D3C;}
</style>
<g id="그룹_5515" transform="translate(0 -54.953)">
	<g id="Background_Complete">
		<g id="그룹_1492">
			<rect id="사각형_126" x="447.91" y="425.09" class="st0" width="33.12" height="0.25"/>
			<rect id="사각형_127" x="353.66" y="427.8" class="st0" width="8.69" height="0.25"/>
			<rect id="사각형_128" x="427.71" y="415.8" class="st0" width="19.19" height="0.25"/>
			<rect id="사각형_129" x="83.59" y="417.48" class="st0" width="43.19" height="0.25"/>
			<rect id="사각형_130" x="135.68" y="417.48" class="st0" width="6.33" height="0.25"/>
			<rect id="사각형_131" x="162.6" y="421.71" class="st0" width="93.68" height="0.25"/>
			<path id="패스_1348" class="st0" d="M268.14,364.4H75.04c-3.15,0-5.7-2.56-5.71-5.71V87.26c0-3.15,2.56-5.7,5.71-5.71h193.1
				c3.15,0,5.7,2.56,5.71,5.71v271.43C273.85,361.84,271.29,364.39,268.14,364.4z M75.04,81.8c-3.01,0-5.45,2.44-5.46,5.46v271.43
				c0,3.01,2.44,5.45,5.46,5.46h193.1c3.01,0,5.45-2.45,5.46-5.46V87.26c0-3.01-2.44-5.45-5.46-5.46L75.04,81.8z"/>
			<path id="패스_1349" class="st0" d="M484.44,364.4h-193.1c-3.15,0-5.7-2.56-5.71-5.71V87.26c0-3.15,2.56-5.7,5.71-5.71h193.1
				c3.15,0,5.7,2.56,5.71,5.71v271.43C490.14,361.84,487.59,364.39,484.44,364.4z M291.34,81.8c-3.01,0-5.45,2.44-5.46,5.46v271.43
				c0,3.01,2.44,5.45,5.46,5.46h193.1c3.01,0,5.45-2.45,5.46-5.46V87.26c0-3.01-2.45-5.45-5.46-5.46L291.34,81.8z"/>
			<rect id="사각형_132" x="31.13" y="408.99" class="st0" width="500" height="0.25"/>
		</g>
		<g id="그룹_1509">
			<g id="그룹_1493">
				<rect id="사각형_133" x="295.24" y="96.55" class="st1" width="28.99" height="38.91"/>
				<rect id="사각형_134" x="292.84" y="97.35" class="st2" width="28.99" height="38.91"/>
				<rect id="사각형_135" x="320.05" y="99.78" class="st3" width="9.19" height="43.44"/>
				<path id="패스_1350" class="st0" d="M312.68,99.78l-20.86,29.47v13.96h28.23V99.78H312.68z"/>
				<path id="패스_1351" class="st4" d="M327.47,136.26c0,1.56-1.26,2.82-2.82,2.82c-1.56,0-2.82-1.26-2.82-2.82
					s1.26-2.82,2.82-2.82c0,0,0,0,0,0C326.21,133.43,327.47,134.7,327.47,136.26z"/>
				<rect id="사각형_136" x="321.83" y="109.98" class="st1" width="5.64" height="18.34"/>
				<rect id="사각형_137" x="321.83" y="109.98" class="st5" width="5.64" height="2.59"/>
			</g>
			<g id="그룹_1500">
				<g id="그룹_1495">
					<path id="패스_1352" class="st0" d="M284.03,132.47v-7.07c0.37-0.01,0.67-0.33,0.65-0.7c-0.01-0.35-0.3-0.64-0.65-0.65
						c-2.7,0-5.39-0.02-8.09-0.03v9.82h8.09c0.37,0,0.68-0.3,0.68-0.68C284.71,132.77,284.4,132.47,284.03,132.47L284.03,132.47z"/>
					<rect id="사각형_138" x="277.74" y="125.39" class="st2" width="6.28" height="7.06"/>
					<path id="패스_1353" class="st4" d="M279.06,133.14h-21.79c-1.5,0-2.71-1.89-2.71-4.21s1.21-4.21,2.71-4.21h21.79V133.14z"/>
					<g id="그룹_1494">
						<path id="패스_1354" class="st6" d="M279.06,124.04c-7.13,0-14.28-0.13-21.41,0c-4.88,0.09-5.15,9.45-0.36,9.78
							c3.34,0.23,6.78,0,10.12,0h11.64c0.37,0,0.68-0.3,0.68-0.68c0-0.37-0.3-0.67-0.68-0.68h-20.28c-1.57,0-2.68-0.02-3.29-1.86
							c-0.52-1.6-0.36-4.86,1.78-5.21c0.24-0.02,0.49-0.02,0.73,0h21.05c0.37-0.01,0.67-0.33,0.65-0.7
							C279.7,124.34,279.41,124.05,279.06,124.04L279.06,124.04z"/>
					</g>
				</g>
				<g id="그룹_1497">
					<path id="패스_1355" class="st0" d="M284.1,122.92v-6.29c0.33,0,0.6-0.27,0.6-0.6c0-0.33-0.27-0.6-0.6-0.6
						c-2.4,0-4.79-0.02-7.19-0.03v8.72h7.19c0.33,0,0.6-0.27,0.6-0.6S284.43,122.92,284.1,122.92z"/>
					<rect id="사각형_139" x="278.51" y="116.63" class="st2" width="5.59" height="6.28"/>
					<path id="패스_1356" class="st4" d="M279.68,123.52h-19.36c-1.33,0-2.41-1.68-2.41-3.74s1.08-3.74,2.41-3.74h19.36
						L279.68,123.52z"/>
					<g id="그룹_1496">
						<path id="패스_1357" class="st6" d="M279.68,115.43c-6.34,0-12.69-0.11-19.02,0c-4.34,0.08-4.58,8.4-0.32,8.69
							c2.97,0.2,6.02,0,9,0h10.35c0.33,0,0.6-0.27,0.6-0.6c0-0.33-0.27-0.6-0.6-0.6h-18.03c-1.39,0-2.38-0.02-2.92-1.66
							c-0.46-1.42-0.32-4.32,1.59-4.63c0.22-0.02,0.43-0.02,0.65,0h18.71c0.33,0,0.6-0.27,0.6-0.6
							C280.28,115.7,280.01,115.43,279.68,115.43L279.68,115.43z"/>
					</g>
				</g>
				<g id="그룹_1499">
					<path id="패스_1358" class="st0" d="M284.03,142.08v-7.07c0.37-0.01,0.67-0.33,0.65-0.7c-0.01-0.35-0.3-0.64-0.65-0.65
						c-2.7,0-5.39-0.02-8.09-0.03v9.82h8.09c0.37,0,0.68-0.3,0.68-0.68S284.4,142.08,284.03,142.08z"/>
					<rect id="사각형_140" x="277.74" y="135.01" class="st2" width="6.28" height="7.06"/>
					<path id="패스_1359" class="st4" d="M279.06,142.76h-21.79c-1.5,0-2.71-1.89-2.71-4.21s1.21-4.21,2.71-4.21h21.79V142.76z"/>
					<g id="그룹_1498">
						<path id="패스_1360" class="st6" d="M279.06,133.65c-7.13,0-14.28-0.13-21.41,0c-4.88,0.09-5.15,9.45-0.36,9.78
							c3.34,0.23,6.78,0,10.12,0h11.64c0.37,0,0.68-0.3,0.68-0.68c0-0.37-0.3-0.67-0.68-0.68h-20.28c-1.57,0-2.68-0.02-3.29-1.86
							c-0.52-1.6-0.36-4.86,1.78-5.21c0.24-0.02,0.49-0.02,0.73,0h21.05c0.37-0.01,0.67-0.33,0.65-0.7
							C279.7,133.95,279.41,133.66,279.06,133.65L279.06,133.65z"/>
					</g>
				</g>
			</g>
			<g id="그룹_1503">
				<rect id="사각형_141" x="159.39" y="142.86" class="st2" width="243.48" height="7.05"/>
				<g id="그룹_1501">
					<path id="패스_1361" class="st3" d="M389.75,167.04v-17.13h8.56L389.75,167.04z"/>
					<path id="패스_1362" class="st2" d="M394.03,167.04l8.56-17.13h-4.28l-8.56,17.13H394.03z"/>
				</g>
				<g id="그룹_1502">
					<path id="패스_1363" class="st3" d="M172.24,167.04v-17.13h-8.56L172.24,167.04z"/>
					<path id="패스_1364" class="st2" d="M167.95,167.04l-8.56-17.13h4.28l8.56,17.13H167.95z"/>
				</g>
			</g>
			<g id="그룹_1504">
				<path id="패스_1365" class="st1" d="M375.68,124.33v-0.65c0.08-10.29-8.21-18.69-18.5-18.77
					c-10.29-0.08-18.69,8.21-18.77,18.5c0,0.09,0,0.18,0,0.27v19.28h37.26V124.33z"/>
				<path id="패스_1366" class="st4" d="M342.5,123.68c0,8.04,6.52,14.56,14.56,14.56s14.56-6.52,14.55-14.56
					c0-8.04-6.52-14.55-14.55-14.56C349.01,109.12,342.5,115.64,342.5,123.68C342.5,123.68,342.5,123.68,342.5,123.68z"/>
				<path id="패스_1367" class="st6" d="M357.05,111.42c-7.59,0-13.9,5.84-14.5,13.41c-0.03-0.38-0.06-0.76-0.06-1.15
					c0-8.04,6.52-14.56,14.56-14.56c8.04,0,14.56,6.52,14.56,14.56c0,0.39-0.03,0.77-0.06,1.15
					C370.96,117.26,364.64,111.43,357.05,111.42z"/>
				<path id="패스_1368" class="st3" d="M347.86,123.67h7.65v-7.65c0-0.85,0.69-1.54,1.54-1.54s1.54,0.69,1.54,1.54v9.19
					c0,0.85-0.69,1.54-1.54,1.54h-9.19c-0.85,0-1.54-0.69-1.54-1.54S347.01,123.67,347.86,123.67L347.86,123.67z"/>
				<path id="패스_1369" class="st2" d="M347.86,125.22c-0.85,0-1.54-0.69-1.54-1.54s0.69-1.54,1.54-1.54h9.19
					c0.85,0,1.54,0.69,1.54,1.54s-0.69,1.54-1.54,1.54H347.86z"/>
				<path id="패스_1370" class="st0" d="M355.51,114.49c0-0.85,0.69-1.54,1.54-1.54s1.54,0.69,1.54,1.54v9.19
					c0,0.85-0.69,1.54-1.54,1.54s-1.54-0.69-1.54-1.54V114.49z"/>
			</g>
			<g id="그룹_1508">
				<g id="그룹_1506">
					<g id="그룹_1505">
						<path id="패스_1371" class="st0" d="M242.09,143.03h-27.46l3.05-34.82h27.46L242.09,143.03z"/>
						<path id="패스_1372" class="st3" d="M242.09,143.03h1.31l3.05-34.82h-1.31L242.09,143.03z"/>
						<path id="패스_1373" class="st3" d="M239.6,139.48h-21.86l2.43-27.72h21.86L239.6,139.48z"/>
						<path id="패스_1374" class="st4" d="M238,137.2h-18.26l2.03-23.16h18.26L238,137.2z"/>
					</g>
					<path id="패스_1375" class="st6" d="M229.61,130.4c3.47,0,6.29-2.82,6.28-6.29c0-3.47-2.81-6.28-6.28-6.28
						C226.14,117.82,226.14,130.4,229.61,130.4z"/>
				</g>
				<g id="그룹_1507">
					<path id="패스_1376" class="st1" d="M218.28,143.03l1.89-21.55h-27.33l-1.89,21.55H218.28z"/>
					<path id="패스_1377" class="st3" d="M218.28,143.03l1.89-21.55h1.47l-1.89,21.55H218.28z"/>
					<path id="패스_1378" class="st4" d="M215.68,140.83l1.5-17.16h-21.76l-1.5,17.16H215.68z"/>
					<path id="패스_1379" class="st0" d="M214.01,139.42l1.25-14.33h-18.18l-1.25,14.33H214.01z"/>
					<path id="패스_1380" class="st2" d="M205.57,135.46c2.24,0,4.06-1.82,4.06-4.07c0-2.24-1.82-4.06-4.06-4.06
						C203.33,127.33,203.33,135.46,205.57,135.46z"/>
				</g>
			</g>
		</g>
		<g id="그룹_1511">
			<path id="패스_1381" class="st2" d="M109.61,366.9c-0.08-0.07-0.13-0.17-0.13-0.28c-0.09-1.96-1.27-21.23-13.07-34.42
				c-9.98-11.16,0.26-3.2,4.7,0.39c0.18,0.14,0.44,0.12,0.58-0.06c0.11-0.13,0.12-0.32,0.03-0.47c-3.13-5.29-10.99-19.29-8.26-22.01
				c2.57-2.58,7.89,10.2,10.27,16.4c0.08,0.21,0.32,0.32,0.53,0.23c0.17-0.07,0.28-0.24,0.26-0.42c-0.68-6.56-1.68-20.28,2.01-19.8
				c3.66,0.48,2.64,18.6,1.92,27.47c-0.01,0.23,0.16,0.42,0.39,0.43c0.18,0.01,0.35-0.1,0.41-0.28c1.65-5.46,4.79-13.52,8.48-11.39
				c5.46,3.16-8.04,14.27-7.19,26.33C111.36,360.84,111.58,368.6,109.61,366.9z"/>
			<g id="그룹_1510">
				<path id="패스_1382" class="st2" d="M115.23,370.3c-0.02-0.03,0.07-0.19,0.18-0.27c13.59-9.4,10.24-30.11,6.11-42.95
					c-1.06-2.86-1.74-5.84-2.02-8.87c2.89,3.46,4.63,8.02,6.56,12.13c0.25,0.54,0.89,0.35,0.79-0.24
					c-1.03-6.62-1.44-27.43,4.57-27.06c2.72,0.17-0.31,18.27-0.42,21.96c-0.02,0.6,0.72,0.82,0.87,0.27
					c1.78-6.42,14.05-19.69,16.28-17.04c0.95,1.13-4.79,7.36-6.74,10.29c-3.67,5.49-6.18,11.62-8.51,17.76
					c-0.21,0.54,0.46,1.11,0.75,0.65c2.18-3.43,10.29-11.68,13.04-7.59c1.99,2.96-3.32,7.26-5.94,9.8
					c-4.64,4.51-9.07,9.49-11.32,15.49C127.89,358.72,116.87,372.5,115.23,370.3z"/>
			</g>
			<path id="패스_1383" class="st6" d="M116.89,368.32c0.09-0.09,0.14-0.22,0.14-0.35c-0.02-2.39,0.15-25.86,13.6-42.65
				c11.38-14.21-0.52-3.86-5.68,0.79c-0.2,0.19-0.52,0.17-0.71-0.03c-0.14-0.15-0.17-0.38-0.07-0.57
				c3.45-6.63,12.07-24.14,8.58-27.27c-3.3-2.96-8.91,12.91-11.39,20.59c-0.09,0.26-0.37,0.41-0.63,0.32
				c-0.21-0.07-0.36-0.27-0.35-0.5c0.4-8.01,0.7-24.73-3.75-23.9c-4.41,0.82-1.98,22.76-0.51,33.48c0.03,0.27-0.16,0.52-0.43,0.56
				c-0.23,0.03-0.45-0.1-0.53-0.32c-2.36-6.52-6.71-16.11-11.05-13.27c-6.42,4.2,10.7,16.8,10.47,31.49
				C114.36,361.1,114.6,370.52,116.89,368.32z"/>
			<path id="패스_1384" class="st6" d="M125.98,404.28c4.08-15.2,6.76-36.62,6.76-41.89h-30.42c0,5.27,2.69,26.69,6.76,41.89
				c0.75,2.79,3.29,4.73,6.18,4.73h4.52C122.69,409.01,125.23,407.07,125.98,404.28z"/>
		</g>
		<g id="그룹_1512">
			<path id="패스_1385" class="st6" d="M458.79,408.03h-27.38c-3.33,0-6.07-2.6-6.25-5.92l-3.35-62.79h46.57l-3.35,62.79
				C464.86,405.43,462.11,408.03,458.79,408.03z"/>
			<rect id="사각형_142" x="438.79" y="343.17" class="st4" width="12.62" height="12.62"/>
			<rect id="사각형_143" x="438.79" y="358.9" class="st4" width="12.62" height="12.62"/>
			<rect id="사각형_144" x="438.79" y="374.62" class="st4" width="12.62" height="12.62"/>
			<rect id="사각형_145" x="438.79" y="390.35" class="st4" width="12.62" height="12.62"/>
			<path id="사각형_146" class="st2" d="M420.39,334.74h49.41c0.69,0,1.25,0.56,1.25,1.25v2.08c0,0.69-0.56,1.25-1.25,1.25
				h-49.41c-0.69,0-1.25-0.56-1.25-1.25v-2.08C419.14,335.3,419.7,334.74,420.39,334.74z"/>
			<path id="패스_1386" class="st4" d="M461.99,390.35h-7.34v12.62h6.41c0.18-0.33,0.29-0.69,0.31-1.06L461.99,390.35z"/>
			<path id="패스_1387" class="st4" d="M435.54,390.35h-7.34l0.62,11.56c0.02,0.37,0.13,0.73,0.31,1.06h6.41V390.35z"/>
			<path id="패스_1388" class="st4" d="M435.54,374.62h-8.17l0.67,12.62h7.5L435.54,374.62z"/>
			<path id="패스_1389" class="st4" d="M435.54,358.9h-9.01l0.67,12.62h8.34L435.54,358.9z"/>
			<path id="패스_1390" class="st4" d="M435.54,343.17h-9.85l0.67,12.62h9.18L435.54,343.17z"/>
			<path id="패스_1391" class="st4" d="M454.66,374.62v12.62h7.5l0.67-12.62H454.66z"/>
			<path id="패스_1392" class="st4" d="M454.66,358.9v12.62H463l0.67-12.62H454.66z"/>
			<path id="패스_1393" class="st4" d="M454.66,343.17v12.62h9.18l0.67-12.62H454.66z"/>
		</g>
	</g>
	<g id="Shadow">
		<ellipse id="_Path_" class="st2" cx="276.31" cy="438.99" rx="193.89" ry="11.32"/>
	</g>
	<g id="Extraction">
		<g id="그룹_1516">
			<g id="그룹_1514">
				<path id="패스_1396" class="st7" d="M427.63,268.07c-7.08,0-15.44-12.93-22.82-24.35c-4.84-7.49-9.54-14.75-14.54-20h16.55v-8
					h-20.3c3.63-4.13,7.07-9.45,10.59-14.9c5.54-8.57,12.44-19.24,17.71-19.24h15.52v-8h-15.52c-9.63,0-16.82,11.12-24.43,22.9
					c-5.54,8.57-12.44,19.24-17.71,19.24H195.55c-5.27,0-12.17-10.67-17.71-19.24c-7.61-11.78-14.8-22.9-24.43-22.9h-15.52v8h15.52
					c5.27,0,12.17,10.67,17.71,19.24c3.53,5.46,6.96,10.77,10.59,14.9h-71.9v8h80.66c-5,5.26-9.7,12.52-14.54,20
					c-7.38,11.41-15.74,24.35-22.82,24.35h-29.42v8h29.42c11.43,0,20.23-13.6,29.54-28c7.38-11.41,15.74-24.35,22.82-24.35h169.82
					c7.08,0,15.44,12.93,22.82,24.35c9.31,14.4,18.1,28,29.53,28h29.42v-8L427.63,268.07z"/>
			</g>
			<g id="그룹_1515" class="st8">
				<path id="패스_1397" class="st9" d="M382.85,221.8l-0.42,0.62c5.89,4.07,11.47,12.26,17.62,21.76l0.63-0.41
					C394.48,234.21,388.86,225.95,382.85,221.8z"/>
				<path id="패스_1398" class="st9" d="M408.47,255.56l-0.61,0.43c2.63,3.95,5.66,7.62,9.04,10.96l0.51-0.55
					C414.06,263.1,411.07,259.47,408.47,255.56z"/>
				<path id="패스_1399" class="st9" d="M401.96,247.14c1.29,2,2.59,3.99,3.89,5.92l0.62-0.42c-1.3-1.93-2.59-3.91-3.88-5.91
					L401.96,247.14z"/>
				<path id="패스_1400" class="st9" d="M420.08,268.63l-0.44,0.61c2.28,1.83,5.08,2.87,7.99,2.98h19.84v-0.75h-19.84
					C424.88,271.36,422.23,270.36,420.08,268.63z"/>
				<rect id="사각형_147" x="451.05" y="271.47" class="st9" width="6" height="0.75"/>
				<rect id="사각형_148" x="109.81" y="219.12" class="st9" width="6" height="0.75"/>
				<rect id="사각형_149" x="121.62" y="219.12" class="st9" width="23.27" height="0.75"/>
				<path id="패스_1401" class="st9" d="M150.71,219.12v0.75h46.53v-0.75h-1.69c-1.94-0.06-3.82-0.7-5.4-1.83l-0.41,0.63
					c0.71,0.47,1.46,0.87,2.24,1.21H150.71z"/>
				<rect id="사각형_150" x="319.39" y="219.12" class="st9" width="23.27" height="0.75"/>
				<path id="패스_1402" class="st9" d="M395.01,219.87v-0.75h-18.74c0.78-0.33,1.53-0.73,2.24-1.21l-0.41-0.63
					c-1.58,1.13-3.46,1.77-5.4,1.83h-24.22v0.75h26.81c1.42,0.02,2.82,0.31,4.13,0.88l0.29-0.69c-0.17-0.07-0.33-0.12-0.5-0.18
					H395.01z"/>
				<rect id="사각형_151" x="301.94" y="219.12" class="st9" width="11.63" height="0.75"/>
				<rect id="사각형_152" x="249.59" y="219.12" class="st9" width="46.53" height="0.75"/>
				<rect id="사각형_153" x="400.83" y="219.12" class="st9" width="6" height="0.75"/>
				<path id="패스_1403" class="st9" d="M392.4,201.22l-0.63-0.41c-3.12,4.79-6.75,10.19-10.4,13.77l0.52,0.54
					C385.61,211.48,389.27,206.03,392.4,201.22z"/>
				<path id="패스_1404" class="st9" d="M414.84,177.73h5.18v-0.75h-5.18c-7.64,0-14.58,10.72-20.7,20.18l0.63,0.41
					C400.79,188.27,407.61,177.73,414.84,177.73z"/>
				<rect id="사각형_154" x="424.36" y="176.98" class="st9" width="6" height="0.75"/>
				<path id="패스_1405" class="st9" d="M186.86,214.58c-3.65-3.59-7.28-8.99-10.4-13.77l-0.63,0.41
					c3.14,4.82,6.8,10.26,10.5,13.9L186.86,214.58z"/>
				<path id="패스_1406" class="st9" d="M173.47,197.57l0.63-0.41c-6.12-9.46-13.06-20.18-20.7-20.18h-5.18v0.75h5.18
					C160.63,177.73,167.46,188.27,173.47,197.57z"/>
				<rect id="사각형_155" x="137.88" y="176.98" class="st9" width="6" height="0.75"/>
				<path id="패스_1407" class="st9" d="M220.51,219.12h-1.77v0.75h25.04v-0.75H220.51z"/>
				<path id="패스_1408" class="st9" d="M180.06,243.77l0.63,0.41c6.15-9.5,11.73-17.69,17.62-21.76l-0.43-0.62
					C191.88,225.95,186.26,234.21,180.06,243.77z"/>
				<path id="패스_1409" class="st9" d="M205.46,219.12h-2.4v0.29c-0.69,0.16-1.36,0.37-2.01,0.64l0.29,0.69
					c1.3-0.56,2.71-0.86,4.13-0.88h9.74v-0.75H205.46L205.46,219.12z"/>
				<path id="패스_1410" class="st9" d="M153.11,271.47h-19.84v0.75h19.84c2.92-0.11,5.72-1.16,7.99-2.98l-0.44-0.61
					C158.51,270.36,155.87,271.36,153.11,271.47z"/>
				<path id="패스_1411" class="st9" d="M174.27,252.64l0.62,0.42c1.3-1.93,2.59-3.92,3.89-5.92l-0.63-0.41
					C176.86,248.73,175.57,250.72,174.27,252.64z"/>
				<path id="패스_1412" class="st9" d="M163.34,266.4l0.51,0.55c3.38-3.34,6.41-7.01,9.04-10.96l-0.61-0.43
					C169.68,259.46,166.68,263.09,163.34,266.4z"/>
				<rect id="사각형_156" x="123.69" y="271.47" class="st9" width="6" height="0.75"/>
			</g>
		</g>
	</g>
	<g id="Folders">
		<g id="그룹_1520">
			<g id="그룹_1517">
				<path id="패스_1413" class="st10" d="M153.45,252.74h-7.33c-1.72,0-3.34,0.86-4.29,2.3l-1.07,1.62
					c-0.87,1.32-2.35,2.11-3.93,2.11h-18.92c-1.7,0-3.07,1.38-3.07,3.07l0,0v29.54h42.65v-32.6l-0.38-2.84
					C156.87,254.11,155.3,252.74,153.45,252.74z"/>
				<path id="패스_1414" class="st11" d="M153.45,252.74h-7.33c-1.72,0-3.34,0.86-4.29,2.3l-1.07,1.62
					c-0.87,1.32-2.35,2.11-3.93,2.11h-18.92c-1.7,0-3.07,1.38-3.07,3.07l0,0v29.54h42.65v-32.6l-0.38-2.84
					C156.87,254.11,155.3,252.74,153.45,252.74z"/>
			</g>
			<g id="그룹_1518">
				<rect id="사각형_157" x="118.04" y="262.51" class="st7" width="36.25" height="24.79"/>
				<rect id="사각형_158" x="118.04" y="262.51" class="st12" width="36.25" height="24.79"/>
			</g>
			<g id="그룹_1519">
				<path id="패스_1415" class="st10" d="M157.48,291.39h-42.65l-6.25-22.78c-0.4-1.44,0.45-2.94,1.9-3.33
					c0.23-0.06,0.48-0.1,0.72-0.1h34.95c2.45,0,4.59,1.63,5.24,3.99L157.48,291.39z"/>
				<path id="패스_1416" class="st13" d="M157.48,291.39h-42.65l-6.25-22.78c-0.4-1.44,0.45-2.94,1.9-3.33
					c0.23-0.06,0.48-0.1,0.72-0.1h34.95c2.45,0,4.59,1.63,5.24,3.99L157.48,291.39z"/>
			</g>
		</g>
		<g id="그룹_1528">
			<g id="그룹_1521">
				<path id="패스_1417" class="st10" d="M106.33,144.16h7.91c1.86,0,3.6,0.93,4.63,2.49l1.16,1.75c0.94,1.42,2.54,2.28,4.24,2.28
					h20.41c1.83,0,3.31,1.48,3.31,3.31v0v29.16c0,1.5-1.21,2.71-2.71,2.71l0,0h-40.6c-1.5,0-2.71-1.21-2.71-2.71l0,0v-32.47
					l0.4-3.06C102.64,145.64,104.33,144.16,106.33,144.16z"/>
				<path id="패스_1418" class="st13" d="M106.33,144.16h7.91c1.86,0,3.6,0.93,4.63,2.49l1.16,1.75c0.94,1.42,2.54,2.28,4.24,2.28
					h20.41c1.83,0,3.31,1.48,3.31,3.31v0v29.16c0,1.5-1.21,2.71-2.71,2.71l0,0h-40.6c-1.5,0-2.71-1.21-2.71-2.71l0,0v-32.47
					l0.4-3.06C102.64,145.64,104.33,144.16,106.33,144.16z"/>
			</g>
			<g id="그룹_1522">
				<rect id="사각형_159" x="135.63" y="150.68" class="st7" width="4.09" height="28.33"/>
				<rect id="사각형_160" x="135.63" y="150.68" class="st14" width="4.09" height="28.33"/>
			</g>
			<rect id="사각형_161" x="134.66" y="152.02" class="st7" width="3.14" height="2.33"/>
			<rect id="사각형_162" x="134.66" y="157.1" class="st7" width="3.14" height="2.33"/>
			<rect id="사각형_163" x="134.66" y="162.18" class="st7" width="3.14" height="2.33"/>
			<rect id="사각형_164" x="134.66" y="167.26" class="st7" width="3.14" height="2.33"/>
			<rect id="사각형_165" x="134.66" y="172.34" class="st7" width="3.14" height="2.33"/>
			<g id="그룹_1523">
				<rect id="사각형_166" x="134.66" y="152.02" class="st15" width="3.14" height="2.33"/>
				<rect id="사각형_167" x="134.66" y="157.1" class="st15" width="3.14" height="2.33"/>
				<rect id="사각형_168" x="134.66" y="162.18" class="st15" width="3.14" height="2.33"/>
				<rect id="사각형_169" x="134.66" y="167.26" class="st15" width="3.14" height="2.33"/>
				<rect id="사각형_170" x="134.66" y="172.34" class="st15" width="3.14" height="2.33"/>
			</g>
			<g id="그룹_1526">
				<g id="그룹_1524">
					<rect id="사각형_171" x="137.7" y="154.35" class="st7" width="3.14" height="2.33"/>
					<rect id="사각형_172" x="137.7" y="159.44" class="st7" width="3.14" height="2.33"/>
					<rect id="사각형_173" x="137.7" y="164.52" class="st7" width="3.14" height="2.33"/>
					<rect id="사각형_174" x="137.7" y="169.6" class="st7" width="3.14" height="2.33"/>
					<rect id="사각형_175" x="137.7" y="174.68" class="st7" width="3.14" height="2.33"/>
				</g>
				<g id="그룹_1525" class="st16">
					<rect id="사각형_176" x="137.7" y="154.35" class="st9" width="3.14" height="2.33"/>
					<rect id="사각형_177" x="137.7" y="159.44" class="st9" width="3.14" height="2.33"/>
					<rect id="사각형_178" x="137.7" y="164.52" class="st9" width="3.14" height="2.33"/>
					<rect id="사각형_179" x="137.7" y="169.6" class="st9" width="3.14" height="2.33"/>
					<rect id="사각형_180" x="137.7" y="174.68" class="st9" width="3.14" height="2.33"/>
				</g>
			</g>
			<g id="그룹_1527">
				<path id="패스_1419" class="st7" d="M133.3,177.01v9.29h8.99v-9.29H133.3z M140.84,184.62h-5.96v-5.92h5.96V184.62z"/>
				<path id="패스_1420" class="st15" d="M133.3,177.01v9.29h8.99v-9.29H133.3z M140.84,184.62h-5.96v-5.92h5.96V184.62z"/>
			</g>
		</g>
		<g id="그룹_1538">
			<g id="그룹_1529">
				<path id="패스_1421" class="st10" d="M135.83,197.74H94.14v9.29l9.28,9.28h41.69v-9.29L135.83,197.74z"/>
				<path id="패스_1422" class="st17" d="M135.83,197.74H94.14v9.29l9.28,9.28h41.69v-9.29L135.83,197.74z"/>
			</g>
			<g id="그룹_1530">
				<rect id="사각형_181" x="103.42" y="216.31" class="st10" width="41.69" height="9.29"/>
				<rect id="사각형_182" x="103.42" y="216.31" class="st17" width="41.69" height="9.29"/>
			</g>
			<g id="그룹_1531">
				<rect id="사각형_183" x="103.42" y="225.59" class="st10" width="41.69" height="9.29"/>
				<rect id="사각형_184" x="103.42" y="225.59" class="st13" width="41.69" height="9.29"/>
			</g>
			<g id="그룹_1532">
				<rect id="사각형_185" x="103.42" y="207.02" class="st10" width="41.69" height="9.29"/>
			</g>
			<g id="그룹_1533">
				<path id="패스_1423" class="st10" d="M119.14,234.89h9.36v-27.86l-9.28-9.28h-9.36l9.28,9.28L119.14,234.89z"/>
				<path id="패스_1424" class="st18" d="M119.14,234.89h9.36v-27.86l-9.28-9.28h-9.36l9.28,9.28L119.14,234.89z"/>
			</g>
			<g id="그룹_1534">
				<path id="패스_1425" class="st7" d="M116.65,213.66v14.59h14.12v-14.59H116.65z M128.5,225.6h-9.36v-9.29h9.36V225.6z"/>
				<path id="패스_1426" class="st14" d="M116.65,213.66v14.59h14.12v-14.59H116.65z M128.5,225.6h-9.36v-9.29h9.36V225.6z"/>
			</g>
			<g id="그룹_1535">
				<path id="패스_1427" class="st7" d="M94.14,197.74v9.29l9.28,9.28v-9.29L94.14,197.74z"/>
				<path id="패스_1428" class="st14" d="M94.14,197.74v9.29l9.28,9.28v-9.29L94.14,197.74z"/>
			</g>
			<g id="그룹_1536">
				<path id="패스_1429" class="st7" d="M94.14,207.03v9.29l9.28,9.27v-9.29L94.14,207.03z"/>
				<path id="패스_1430" class="st13" d="M94.14,207.03v9.29l9.28,9.27v-9.29L94.14,207.03z"/>
			</g>
			<g id="그룹_1537">
				<path id="패스_1431" class="st7" d="M94.14,216.31v9.29l9.28,9.28v-9.29L94.14,216.31z"/>
				<path id="패스_1432" class="st19" d="M94.14,216.31v9.29l9.28,9.28v-9.29L94.14,216.31z"/>
			</g>
		</g>
	</g>
	<g id="Documents">
		<g id="그룹_1551">
			<g id="그룹_1539">
				<rect id="사각형_186" x="419.6" y="240.48" class="st10" width="45.46" height="61.18"/>
				<rect id="사각형_187" x="419.6" y="240.48" class="st15" width="45.46" height="61.18"/>
			</g>
			<rect id="사각형_188" x="422.57" y="243.45" class="st15" width="39.52" height="15.93"/>
			<rect id="사각형_189" x="422.57" y="263.11" class="st15" width="39.52" height="15.93"/>
			<path id="패스_1433" class="st10" d="M462.1,252.05l-3.69-4.5l-4.55,5.55l-4.55-6.54l-4.83,4.83l-4.74-2.66l-4.31,7.16
				l-4.31-7.16l-4.89,2.76l-3.64-2.06v1.71l3.64,2.06l4.37-2.47l4.84,8.04l4.84-8.04l4.46,2.51l4.37-4.37l4.66,6.7l4.65-5.67
				l3.69,4.49L462.1,252.05z"/>
			<path id="패스_1434" class="st14" d="M462.1,252.05l-3.69-4.5l-4.55,5.55l-4.55-6.54l-4.83,4.83l-4.74-2.66l-4.31,7.16
				l-4.31-7.16l-4.89,2.76l-3.64-2.06v1.71l3.64,2.06l4.37-2.47l4.84,8.04l4.84-8.04l4.46,2.51l4.37-4.37l4.66,6.7l4.65-5.67
				l3.69,4.49L462.1,252.05z"/>
			<path id="패스_1435" class="st10" d="M462.1,267.95l-3.71,2.1l-4.89-2.76l-4.31,7.16l-4.31-7.16l-4.74,2.66l-4.83-4.83
				l-4.55,6.54l-4.55-5.55l-3.62,4.41v2.34l3.62-4.41l4.65,5.67l4.66-6.69l4.37,4.37l4.47-2.51l4.84,8.04l4.84-8.04l4.37,2.46
				l3.71-2.1L462.1,267.95z"/>
			<path id="패스_1436" class="st14" d="M462.1,267.95l-3.71,2.1l-4.89-2.76l-4.31,7.16l-4.31-7.16l-4.74,2.66l-4.83-4.83
				l-4.55,6.54l-4.55-5.55l-3.62,4.41v2.34l3.62-4.41l4.65,5.67l4.66-6.69l4.37,4.37l4.47-2.51l4.84,8.04l4.84-8.04l4.37,2.46
				l3.71-2.1L462.1,267.95z"/>
			<g id="그룹_1550">
				<g id="그룹_1544">
					<g id="그룹_1540">
						<path id="패스_1437" class="st7" d="M438.9,283.51h22.65c0.41-0.02,0.73-0.36,0.72-0.77c-0.01-0.39-0.33-0.7-0.72-0.72
							H438.9c-0.41,0.02-0.73,0.36-0.72,0.77C438.2,283.18,438.51,283.49,438.9,283.51z"/>
					</g>
					<g id="그룹_1541">
						<path id="패스_1438" class="st7" d="M438.9,287.55h19.68c0.41-0.02,0.73-0.36,0.72-0.77c-0.01-0.39-0.33-0.7-0.72-0.72
							H438.9c-0.41,0.02-0.73,0.36-0.72,0.77C438.2,287.22,438.51,287.54,438.9,287.55z"/>
					</g>
					<g id="그룹_1542">
						<path id="패스_1439" class="st7" d="M438.9,291.6h19.68c0.41-0.02,0.73-0.36,0.72-0.77c-0.01-0.39-0.33-0.7-0.72-0.72H438.9
							c-0.41,0.02-0.73,0.36-0.72,0.77C438.2,291.27,438.51,291.58,438.9,291.6z"/>
					</g>
					<g id="그룹_1543">
						<path id="패스_1440" class="st7" d="M438.9,295.64h20.67c0.41-0.02,0.73-0.36,0.72-0.77c-0.01-0.39-0.33-0.7-0.72-0.72
							H438.9c-0.41,0.02-0.73,0.36-0.72,0.77C438.2,295.31,438.51,295.62,438.9,295.64z"/>
					</g>
				</g>
				<g id="그룹_1549" class="st8">
					<g id="그룹_1545">
						<path id="패스_1441" class="st9" d="M438.9,283.51h22.65c0.41-0.02,0.73-0.36,0.72-0.77c-0.01-0.39-0.33-0.7-0.72-0.72
							H438.9c-0.41,0.02-0.73,0.36-0.72,0.77C438.2,283.18,438.51,283.49,438.9,283.51z"/>
					</g>
					<g id="그룹_1546">
						<path id="패스_1442" class="st9" d="M438.9,287.55h19.68c0.41-0.02,0.73-0.36,0.72-0.77c-0.01-0.39-0.33-0.7-0.72-0.72
							H438.9c-0.41,0.02-0.73,0.36-0.72,0.77C438.2,287.22,438.51,287.54,438.9,287.55z"/>
					</g>
					<g id="그룹_1547">
						<path id="패스_1443" class="st9" d="M438.9,291.6h19.68c0.41-0.02,0.73-0.36,0.72-0.77c-0.01-0.39-0.33-0.7-0.72-0.72H438.9
							c-0.41,0.02-0.73,0.36-0.72,0.77C438.2,291.27,438.51,291.58,438.9,291.6z"/>
					</g>
					<g id="그룹_1548">
						<path id="패스_1444" class="st9" d="M438.9,295.64h20.67c0.41-0.02,0.73-0.36,0.72-0.77c-0.01-0.39-0.33-0.7-0.72-0.72
							H438.9c-0.41,0.02-0.73,0.36-0.72,0.77C438.2,295.31,438.51,295.62,438.9,295.64z"/>
					</g>
				</g>
			</g>
		</g>
		<g id="그룹_1574">
			<g id="그룹_1552">
				<rect id="사각형_190" x="421.41" y="146.38" class="st10" width="41.33" height="55.62"/>
				<rect id="사각형_191" x="421.41" y="146.38" class="st13" width="41.33" height="55.62"/>
			</g>
			<rect id="사각형_192" x="424.11" y="149.08" class="st15" width="35.93" height="14.48"/>
			<g id="그룹_1571">
				<g id="그룹_1553">
					<path id="패스_1445" class="st7" d="M439.06,167.91h20.59c0.37,0,0.68-0.3,0.68-0.68s-0.3-0.68-0.68-0.68h-20.59
						c-0.37,0-0.67,0.3-0.67,0.68S438.69,167.91,439.06,167.91z"/>
				</g>
				<g id="그룹_1554">
					<path id="패스_1446" class="st7" d="M439.06,171.58h17.89c0.37,0,0.68-0.3,0.68-0.68s-0.3-0.68-0.68-0.68h-17.89
						c-0.37,0-0.67,0.3-0.67,0.68S438.69,171.58,439.06,171.58z"/>
				</g>
				<g id="그룹_1555">
					<path id="패스_1447" class="st7" d="M439.06,175.26h17.89c0.37,0,0.68-0.3,0.68-0.68s-0.3-0.68-0.68-0.68h-17.89
						c-0.37,0-0.67,0.3-0.67,0.68S438.69,175.26,439.06,175.26z"/>
				</g>
				<g id="그룹_1556">
					<path id="패스_1448" class="st7" d="M439.06,178.93h18.79c0.37,0,0.67-0.3,0.67-0.68s-0.3-0.68-0.67-0.68h-18.79
						c-0.37,0-0.67,0.3-0.67,0.68S438.69,178.93,439.06,178.93z"/>
				</g>
				<g id="그룹_1557">
					<path id="패스_1449" class="st7" d="M439.06,182.61h15.19c0.37,0,0.67-0.3,0.67-0.68s-0.3-0.68-0.67-0.68h-15.19
						c-0.37,0-0.67,0.3-0.67,0.68S438.69,182.61,439.06,182.61z"/>
				</g>
				<g id="그룹_1558">
					<path id="패스_1450" class="st7" d="M439.06,186.28h20.59c0.37,0,0.68-0.3,0.68-0.68s-0.3-0.68-0.68-0.68h-20.59
						c-0.37,0-0.67,0.3-0.67,0.68S438.69,186.28,439.06,186.28z"/>
				</g>
				<g id="그룹_1559">
					<path id="패스_1451" class="st7" d="M439.06,189.96h17.89c0.37,0,0.68-0.3,0.68-0.68s-0.3-0.68-0.68-0.68h-17.89
						c-0.37,0-0.67,0.3-0.67,0.68S438.69,189.96,439.06,189.96z"/>
				</g>
				<g id="그룹_1560">
					<path id="패스_1452" class="st7" d="M439.06,193.63h17.89c0.37,0,0.68-0.3,0.68-0.68s-0.3-0.68-0.68-0.68h-17.89
						c-0.37,0-0.67,0.3-0.67,0.68S438.69,193.63,439.06,193.63z"/>
				</g>
				<g id="그룹_1561">
					<path id="패스_1453" class="st7" d="M439.06,197.31h18.79c0.37,0,0.67-0.3,0.67-0.68s-0.3-0.68-0.67-0.68h-18.79
						c-0.37,0-0.67,0.3-0.67,0.68S438.69,197.31,439.06,197.31z"/>
				</g>
				<g id="그룹_1562" class="st8">
					<path id="패스_1454" class="st9" d="M439.06,167.91h20.59c0.37,0,0.68-0.3,0.68-0.68s-0.3-0.68-0.68-0.68h-20.59
						c-0.37,0-0.67,0.3-0.67,0.68S438.69,167.91,439.06,167.91z"/>
				</g>
				<g id="그룹_1563" class="st8">
					<path id="패스_1455" class="st9" d="M439.06,171.58h17.89c0.37,0,0.68-0.3,0.68-0.68s-0.3-0.68-0.68-0.68h-17.89
						c-0.37,0-0.67,0.3-0.67,0.68S438.69,171.58,439.06,171.58z"/>
				</g>
				<g id="그룹_1564" class="st8">
					<path id="패스_1456" class="st9" d="M439.06,175.26h17.89c0.37,0,0.68-0.3,0.68-0.68s-0.3-0.68-0.68-0.68h-17.89
						c-0.37,0-0.67,0.3-0.67,0.68S438.69,175.26,439.06,175.26z"/>
				</g>
				<g id="그룹_1565" class="st8">
					<path id="패스_1457" class="st9" d="M439.06,178.93h18.79c0.37,0,0.67-0.3,0.67-0.68s-0.3-0.68-0.67-0.68h-18.79
						c-0.37,0-0.67,0.3-0.67,0.68S438.69,178.93,439.06,178.93z"/>
				</g>
				<g id="그룹_1566" class="st8">
					<path id="패스_1458" class="st9" d="M439.06,182.61h15.19c0.37,0,0.67-0.3,0.67-0.68s-0.3-0.68-0.67-0.68h-15.19
						c-0.37,0-0.67,0.3-0.67,0.68S438.69,182.61,439.06,182.61z"/>
				</g>
				<g id="그룹_1567" class="st8">
					<path id="패스_1459" class="st9" d="M439.06,186.28h20.59c0.37,0,0.68-0.3,0.68-0.68s-0.3-0.68-0.68-0.68h-20.59
						c-0.37,0-0.67,0.3-0.67,0.68S438.69,186.28,439.06,186.28z"/>
				</g>
				<g id="그룹_1568" class="st8">
					<path id="패스_1460" class="st9" d="M439.06,189.96h17.89c0.37,0,0.68-0.3,0.68-0.68s-0.3-0.68-0.68-0.68h-17.89
						c-0.37,0-0.67,0.3-0.67,0.68S438.69,189.96,439.06,189.96z"/>
				</g>
				<g id="그룹_1569" class="st8">
					<path id="패스_1461" class="st9" d="M439.06,193.63h17.89c0.37,0,0.68-0.3,0.68-0.68s-0.3-0.68-0.68-0.68h-17.89
						c-0.37,0-0.67,0.3-0.67,0.68S438.69,193.63,439.06,193.63z"/>
				</g>
				<g id="그룹_1570" class="st8">
					<path id="패스_1462" class="st9" d="M439.06,197.31h18.79c0.37,0,0.67-0.3,0.67-0.68s-0.3-0.68-0.67-0.68h-18.79
						c-0.37,0-0.67,0.3-0.67,0.68S438.69,197.31,439.06,197.31z"/>
				</g>
			</g>
			<g id="그룹_1572">
				<rect id="사각형_193" x="424.11" y="167.23" class="st10" width="10.13" height="10.13"/>
				<rect id="사각형_194" x="424.11" y="167.23" class="st17" width="10.13" height="10.13"/>
			</g>
			<g id="그룹_1573">
				<rect id="사각형_195" x="432.48" y="156.76" class="st10" width="2.74" height="5.48"/>
				<rect id="사각형_196" x="437.96" y="154.02" class="st10" width="2.74" height="8.23"/>
				<rect id="사각형_197" x="443.45" y="155.39" class="st10" width="2.74" height="6.85"/>
				<rect id="사각형_198" x="448.93" y="151.28" class="st10" width="2.74" height="10.97"/>
			</g>
		</g>
		<g id="그룹_1609">
			<g id="그룹_1575">
				<rect id="사각형_199" x="401.17" y="192.59" class="st10" width="41.33" height="55.62"/>
				<rect id="사각형_200" x="401.17" y="192.59" class="st19" width="41.33" height="55.62"/>
			</g>
			<g id="그룹_1604">
				<g id="그룹_1589">
					<g id="그룹_1576">
						<path id="패스_1463" class="st7" d="M418.82,198.55h20.59c0.37,0,0.67-0.3,0.67-0.68s-0.3-0.68-0.67-0.68h-20.59
							c-0.37,0-0.67,0.3-0.67,0.68S418.45,198.55,418.82,198.55z"/>
					</g>
					<g id="그룹_1577">
						<path id="패스_1464" class="st7" d="M418.82,202.22h17.89c0.37,0,0.68-0.3,0.68-0.68s-0.3-0.68-0.68-0.68l0,0h-17.89
							c-0.37,0-0.67,0.3-0.67,0.68S418.45,202.22,418.82,202.22z"/>
					</g>
					<g id="그룹_1578">
						<path id="패스_1465" class="st7" d="M418.82,205.9h17.89c0.37,0,0.68-0.3,0.68-0.68s-0.3-0.68-0.68-0.68l0,0h-17.89
							c-0.37,0-0.67,0.3-0.67,0.68S418.45,205.9,418.82,205.9z"/>
					</g>
					<g id="그룹_1579">
						<path id="패스_1466" class="st7" d="M418.82,209.57h18.79c0.37,0,0.67-0.3,0.67-0.68s-0.3-0.68-0.67-0.68h-18.79
							c-0.37,0-0.67,0.3-0.67,0.68S418.45,209.57,418.82,209.57z"/>
					</g>
					<g id="그룹_1580">
						<path id="패스_1467" class="st7" d="M418.82,213.25h15.19c0.37,0,0.67-0.3,0.67-0.68s-0.3-0.68-0.67-0.68h-15.19
							c-0.37,0-0.67,0.3-0.67,0.68S418.45,213.25,418.82,213.25z"/>
					</g>
					<g id="그룹_1581">
						<path id="패스_1468" class="st7" d="M418.82,216.92h20.59c0.37,0,0.67-0.3,0.67-0.68s-0.3-0.68-0.67-0.68h-20.59
							c-0.37,0-0.67,0.3-0.67,0.68S418.45,216.92,418.82,216.92z"/>
					</g>
					<g id="그룹_1582">
						<path id="패스_1469" class="st7" d="M418.82,220.6h17.89c0.37,0,0.68-0.3,0.68-0.68s-0.3-0.68-0.68-0.68l0,0h-17.89
							c-0.37,0-0.67,0.3-0.67,0.68S418.45,220.6,418.82,220.6z"/>
					</g>
					<g id="그룹_1583">
						<path id="패스_1470" class="st7" d="M418.82,224.27h17.89c0.37,0,0.68-0.3,0.68-0.68s-0.3-0.68-0.68-0.68l0,0h-17.89
							c-0.37,0-0.67,0.3-0.67,0.68S418.45,224.27,418.82,224.27z"/>
					</g>
					<g id="그룹_1584">
						<path id="패스_1471" class="st7" d="M418.82,231.63h15.19c0.37,0,0.67-0.3,0.67-0.68s-0.3-0.68-0.67-0.68h-15.19
							c-0.37,0-0.67,0.3-0.67,0.68S418.45,231.63,418.82,231.63z"/>
					</g>
					<g id="그룹_1585">
						<path id="패스_1472" class="st7" d="M418.82,235.3h20.59c0.37,0,0.67-0.3,0.67-0.68s-0.3-0.68-0.67-0.68h-20.59
							c-0.37,0-0.67,0.3-0.67,0.68S418.45,235.3,418.82,235.3z"/>
					</g>
					<g id="그룹_1586">
						<path id="패스_1473" class="st7" d="M418.82,238.98h17.89c0.37,0,0.68-0.3,0.68-0.68s-0.3-0.68-0.68-0.68l0,0h-17.89
							c-0.37,0-0.67,0.3-0.67,0.68S418.45,238.98,418.82,238.98z"/>
					</g>
					<g id="그룹_1587">
						<path id="패스_1474" class="st7" d="M418.82,242.65h17.89c0.37,0,0.68-0.3,0.68-0.68s-0.3-0.68-0.68-0.68l0,0h-17.89
							c-0.37,0-0.67,0.3-0.67,0.68S418.45,242.65,418.82,242.65z"/>
					</g>
					<g id="그룹_1588">
						<path id="패스_1475" class="st7" d="M418.82,227.95h18.79c0.37,0,0.67-0.3,0.67-0.68s-0.3-0.68-0.67-0.68h-18.79
							c-0.37,0-0.67,0.3-0.67,0.68S418.45,227.95,418.82,227.95z"/>
					</g>
				</g>
				<g id="그룹_1603" class="st8">
					<g id="그룹_1590">
						<path id="패스_1476" class="st9" d="M418.82,198.55h20.59c0.37,0,0.67-0.3,0.67-0.68s-0.3-0.68-0.67-0.68h-20.59
							c-0.37,0-0.67,0.3-0.67,0.68S418.45,198.55,418.82,198.55z"/>
					</g>
					<g id="그룹_1591">
						<path id="패스_1477" class="st9" d="M418.82,202.22h17.89c0.37,0,0.68-0.3,0.68-0.68s-0.3-0.68-0.68-0.68l0,0h-17.89
							c-0.37,0-0.67,0.3-0.67,0.68S418.45,202.22,418.82,202.22z"/>
					</g>
					<g id="그룹_1592">
						<path id="패스_1478" class="st9" d="M418.82,205.9h17.89c0.37,0,0.68-0.3,0.68-0.68s-0.3-0.68-0.68-0.68l0,0h-17.89
							c-0.37,0-0.67,0.3-0.67,0.68S418.45,205.9,418.82,205.9z"/>
					</g>
					<g id="그룹_1593">
						<path id="패스_1479" class="st9" d="M418.82,209.57h18.79c0.37,0,0.67-0.3,0.67-0.68s-0.3-0.68-0.67-0.68h-18.79
							c-0.37,0-0.67,0.3-0.67,0.68S418.45,209.57,418.82,209.57z"/>
					</g>
					<g id="그룹_1594">
						<path id="패스_1480" class="st9" d="M418.82,213.25h15.19c0.37,0,0.67-0.3,0.67-0.68s-0.3-0.68-0.67-0.68h-15.19
							c-0.37,0-0.67,0.3-0.67,0.68S418.45,213.25,418.82,213.25z"/>
					</g>
					<g id="그룹_1595">
						<path id="패스_1481" class="st9" d="M418.82,216.92h20.59c0.37,0,0.67-0.3,0.67-0.68s-0.3-0.68-0.67-0.68h-20.59
							c-0.37,0-0.67,0.3-0.67,0.68S418.45,216.92,418.82,216.92z"/>
					</g>
					<g id="그룹_1596">
						<path id="패스_1482" class="st9" d="M418.82,220.6h17.89c0.37,0,0.68-0.3,0.68-0.68s-0.3-0.68-0.68-0.68l0,0h-17.89
							c-0.37,0-0.67,0.3-0.67,0.68S418.45,220.6,418.82,220.6z"/>
					</g>
					<g id="그룹_1597">
						<path id="패스_1483" class="st9" d="M418.82,224.27h17.89c0.37,0,0.68-0.3,0.68-0.68s-0.3-0.68-0.68-0.68l0,0h-17.89
							c-0.37,0-0.67,0.3-0.67,0.68S418.45,224.27,418.82,224.27z"/>
					</g>
					<g id="그룹_1598">
						<path id="패스_1484" class="st9" d="M418.82,231.63h15.19c0.37,0,0.67-0.3,0.67-0.68s-0.3-0.68-0.67-0.68h-15.19
							c-0.37,0-0.67,0.3-0.67,0.68S418.45,231.63,418.82,231.63z"/>
					</g>
					<g id="그룹_1599">
						<path id="패스_1485" class="st9" d="M418.82,235.3h20.59c0.37,0,0.67-0.3,0.67-0.68s-0.3-0.68-0.67-0.68h-20.59
							c-0.37,0-0.67,0.3-0.67,0.68S418.45,235.3,418.82,235.3z"/>
					</g>
					<g id="그룹_1600">
						<path id="패스_1486" class="st9" d="M418.82,238.98h17.89c0.37,0,0.68-0.3,0.68-0.68s-0.3-0.68-0.68-0.68l0,0h-17.89
							c-0.37,0-0.67,0.3-0.67,0.68S418.45,238.98,418.82,238.98z"/>
					</g>
					<g id="그룹_1601">
						<path id="패스_1487" class="st9" d="M418.82,242.65h17.89c0.37,0,0.68-0.3,0.68-0.68s-0.3-0.68-0.68-0.68l0,0h-17.89
							c-0.37,0-0.67,0.3-0.67,0.68S418.45,242.65,418.82,242.65z"/>
					</g>
					<g id="그룹_1602">
						<path id="패스_1488" class="st9" d="M418.82,227.95h18.79c0.37,0,0.67-0.3,0.67-0.68s-0.3-0.68-0.67-0.68h-18.79
							c-0.37,0-0.67,0.3-0.67,0.68S418.45,227.95,418.82,227.95z"/>
					</g>
				</g>
			</g>
			<g id="그룹_1605">
				<path id="패스_1489" class="st10" d="M407.52,217.17l-1.63-1.63c-1.17,1.16-1.82,2.74-1.82,4.39h2.31
					C406.37,218.89,406.78,217.9,407.52,217.17z"/>
				<path id="패스_1490" class="st10" d="M410.27,223.82c-2.15,0-3.9-1.75-3.9-3.9h-2.31c0,3.43,2.78,6.21,6.21,6.21l0,0V223.82z"
					/>
				<path id="패스_1491" class="st17" d="M410.27,223.82c-2.15,0-3.9-1.75-3.9-3.9h-2.31c0,3.43,2.78,6.21,6.21,6.21l0,0V223.82z"
					/>
				<path id="패스_1492" class="st10" d="M407.52,217.17c0.73-0.73,1.72-1.14,2.76-1.14v-2.31c-1.65,0-3.23,0.65-4.39,1.82
					L407.52,217.17z"/>
				<path id="패스_1493" class="st20" d="M407.52,217.17c0.73-0.73,1.72-1.14,2.76-1.14v-2.31c-1.65,0-3.23,0.65-4.39,1.82
					L407.52,217.17z"/>
				<path id="패스_1494" class="st10" d="M414.17,219.92c0,2.15-1.75,3.9-3.9,3.9v2.31c3.43,0,6.21-2.78,6.21-6.21
					s-2.78-6.21-6.21-6.21l0,0v2.31C412.43,216.02,414.17,217.77,414.17,219.92z"/>
				<path id="패스_1495" class="st18" d="M413.03,222.68l1.63,1.63c1.17-1.16,1.82-2.74,1.82-4.39h-2.31
					C414.17,220.96,413.76,221.95,413.03,222.68z"/>
			</g>
			<g id="그룹_1608">
				<g id="그룹_1606">
					<path id="패스_1496" class="st10" d="M407.52,205.45l-1.63,1.63c1.16,1.17,2.74,1.82,4.39,1.82v-2.31
						C409.24,206.59,408.25,206.18,407.52,205.45z"/>
					<path id="패스_1497" class="st10" d="M414.17,202.7c0,2.15-1.75,3.9-3.9,3.9v2.3c3.43,0,6.21-2.78,6.21-6.21L414.17,202.7z"
						/>
					<path id="패스_1498" class="st17" d="M414.17,202.7c0,2.15-1.75,3.9-3.9,3.9v2.3c3.43,0,6.21-2.78,6.21-6.21L414.17,202.7z"
						/>
					<path id="패스_1499" class="st10" d="M407.52,205.45c-0.73-0.73-1.14-1.72-1.14-2.76h-2.31c0,1.65,0.65,3.23,1.82,4.39
						L407.52,205.45z"/>
					<path id="패스_1500" class="st20" d="M407.52,205.45c-0.73-0.73-1.14-1.72-1.14-2.76h-2.31c0,1.65,0.65,3.23,1.82,4.39
						L407.52,205.45z"/>
					<path id="패스_1501" class="st10" d="M410.27,198.8c2.15,0,3.9,1.75,3.9,3.9h2.31c-0.04-3.43-2.86-6.17-6.29-6.13
						c-3.37,0.04-6.08,2.76-6.13,6.13h2.31C406.37,200.54,408.12,198.8,410.27,198.8z"/>
					<path id="패스_1502" class="st18" d="M413.03,199.93l1.63-1.63c-1.16-1.17-2.74-1.82-4.39-1.82v2.31
						C411.31,198.79,412.3,199.2,413.03,199.93z"/>
				</g>
				<g id="그룹_1607">
					<path id="패스_1503" class="st10" d="M413.03,234.4l1.63-1.63c1.17,1.16,1.82,2.74,1.82,4.39h-2.31
						C414.17,236.12,413.76,235.13,413.03,234.4z"/>
					<path id="패스_1504" class="st10" d="M410.27,241.05c2.15,0,3.9-1.75,3.9-3.9h2.31c0,3.43-2.78,6.21-6.21,6.21L410.27,241.05
						z"/>
					<path id="패스_1505" class="st17" d="M410.27,241.05c2.15,0,3.9-1.75,3.9-3.9h2.31c0,3.43-2.78,6.21-6.21,6.21L410.27,241.05
						z"/>
					<path id="패스_1506" class="st10" d="M413.03,234.4c-0.73-0.73-1.72-1.14-2.76-1.14v-2.31c1.65,0,3.23,0.65,4.39,1.82
						L413.03,234.4z"/>
					<path id="패스_1507" class="st20" d="M413.03,234.4c-0.73-0.73-1.72-1.14-2.76-1.14v-2.31c1.65,0,3.23,0.65,4.39,1.82
						L413.03,234.4z"/>
					<path id="패스_1508" class="st10" d="M406.37,237.15c0,2.15,1.75,3.9,3.9,3.9v2.31c-3.43,0-6.21-2.78-6.21-6.21
						s2.78-6.21,6.21-6.21v2.31C408.12,233.26,406.37,235,406.37,237.15z"/>
					<path id="패스_1509" class="st18" d="M407.52,239.91l-1.63,1.63c-1.17-1.16-1.82-2.74-1.82-4.39h2.31
						C406.37,238.19,406.78,239.18,407.52,239.91z"/>
				</g>
			</g>
		</g>
	</g>
	<g id="Device">
		<g id="그룹_1632">
			<g id="그룹_1628">
				<g id="그룹_1611">
					<path id="사각형_201" class="st7" d="M293.57,303.33h24.19c1.46,0,2.65,1.19,2.65,2.65c0,0,0,0,0,0v1.47
						c0,1.46-1.19,2.65-2.65,2.65l0,0h-24.19l0,0V303.33L293.57,303.33z"/>
					<path id="사각형_202" d="M246.28,303.33h51.47c1.36,0,2.46,1.1,2.46,2.46v1.84c0,1.36-1.1,2.46-2.46,2.46h-51.47
						c-1.36,0-2.46-1.1-2.46-2.46v-1.84C243.82,304.43,244.92,303.33,246.28,303.33z"/>
					<path id="사각형_203" class="st14" d="M246.28,303.33h51.47c1.36,0,2.46,1.1,2.46,2.46v1.84c0,1.36-1.1,2.46-2.46,2.46
						h-51.47c-1.36,0-2.46-1.1-2.46-2.46v-1.84C243.82,304.43,244.92,303.33,246.28,303.33z"/>
					<g id="그룹_1610">
						<path id="패스_1510" class="st7" d="M286.44,303.33h13.04l-8.35-31.19h-4.69V303.33z"/>
						<path id="패스_1511" d="M297.59,303.33h-26.62l-2.65-31.19h20.92L297.59,303.33z"/>
						<path id="패스_1512" class="st17" d="M297.59,303.33h-26.62l-2.65-31.19h20.92L297.59,303.33z"/>
					</g>
				</g>
				<path id="패스_1513" class="st7" d="M364.64,182.48h-12.1l-9.37,107.07h12.1c2.58-0.05,4.73-2.02,4.99-4.59l8.57-97.9
					c0.25-2.27-1.39-4.31-3.66-4.56C364.99,182.49,364.81,182.48,364.64,182.48z"/>
				<g id="그룹_1612">
					<path id="패스_1514" class="st7" d="M352.48,289.55H206c-2.28,0.04-4.17-1.78-4.21-4.06c0-0.18,0-0.35,0.02-0.53l8.57-97.9
						c0.26-2.57,2.4-4.54,4.99-4.59h146.48c2.28-0.04,4.17,1.78,4.21,4.06c0,0.18,0,0.35-0.02,0.53l-8.57,97.9
						C357.21,287.54,355.06,289.51,352.48,289.55z"/>
				</g>
				<path id="패스_1515" class="st15" d="M352.48,289.55H206c-2.28,0.04-4.17-1.78-4.21-4.06c0-0.18,0-0.35,0.02-0.53l8.57-97.9
					c0.26-2.57,2.4-4.54,4.99-4.59h146.48c2.28-0.04,4.17,1.78,4.21,4.06c0,0.18,0,0.35-0.02,0.53l-8.57,97.9
					C357.21,287.54,355.06,289.51,352.48,289.55z"/>
				<path id="패스_1516" class="st21" d="M348.57,277.06H212.1c-1.98,0.04-3.62-1.54-3.65-3.52c0-0.15,0-0.31,0.02-0.46
					l7.12-81.34c0.23-2.23,2.09-3.94,4.33-3.98h136.47c1.98-0.04,3.62,1.54,3.65,3.52c0,0.15,0,0.31-0.02,0.46l-7.12,81.34
					C352.67,275.31,350.81,277.01,348.57,277.06z"/>
				<g id="그룹_1613">
					<path id="패스_1517" class="st10" d="M312.84,216.48h-4.77l0.83-9.55h4.77L312.84,216.48z"/>
					<path id="패스_1518" class="st18" d="M312.84,216.48h-4.77l0.83-9.55h4.77L312.84,216.48z"/>
					<path id="패스_1519" class="st10" d="M322.39,216.48h-4.77l1.25-14.32h4.77L322.39,216.48z"/>
					<path id="패스_1520" class="st10" d="M331.94,216.48h-4.77l1.04-11.93h4.77L331.94,216.48z"/>
					<path id="패스_1521" class="st10" d="M341.49,216.48h-4.77l1.67-19.1h4.77L341.49,216.48z"/>
					<path id="패스_1522" class="st22" d="M341.49,216.48h-4.77l1.67-19.1h4.77L341.49,216.48z"/>
					<path id="패스_1523" class="st10" d="M346.26,215.6h-42.01c0.53-6.07,1.06-12.14,1.59-18.21c0.1-1.13-1.67-1.12-1.76,0
						l-1.67,19.1c0,0.49,0.4,0.88,0.88,0.88h42.97c0.49,0,0.88-0.4,0.88-0.88C347.14,215.99,346.75,215.6,346.26,215.6z"/>
					<path id="패스_1524" class="st14" d="M346.26,215.6h-42.01c0.53-6.07,1.06-12.14,1.59-18.21c0.1-1.13-1.67-1.12-1.76,0
						l-1.67,19.1c0,0.49,0.4,0.88,0.88,0.88h42.97c0.49,0,0.88-0.4,0.88-0.88C347.14,215.99,346.75,215.6,346.26,215.6z"/>
				</g>
				<g id="그룹_1615">
					<path id="패스_1525" class="st10" d="M234.08,211.31l-3.11,2.86c1.91,2.07,4.61,3.23,7.42,3.19l0.35-4.05
						C236.98,213.34,235.28,212.61,234.08,211.31z"/>
					<path id="패스_1526" class="st20" d="M234.08,211.31l-3.11,2.86c1.91,2.07,4.61,3.23,7.42,3.19l0.35-4.05
						C236.98,213.34,235.28,212.61,234.08,211.31z"/>
					<path id="패스_1527" class="st10" d="M246.18,206.47c-0.39,3.83-3.58,6.77-7.44,6.84l-0.35,4.05
						c6.13-0.11,11.22-4.78,11.84-10.89H246.18z"/>
					<path id="패스_1528" class="st23" d="M246.18,206.47c-0.39,3.83-3.58,6.77-7.44,6.84l-0.35,4.05
						c6.13-0.11,11.22-4.78,11.84-10.89H246.18z"/>
					<path id="패스_1529" class="st10" d="M234.08,211.31c-1.18-1.32-1.76-3.07-1.58-4.84h-4.05c-0.28,2.81,0.63,5.6,2.51,7.7
						L234.08,211.31z"/>
					<path id="패스_1530" class="st10" d="M239.94,199.63c3.41-0.06,6.22,2.65,6.28,6.06c0,0.26-0.01,0.52-0.04,0.78h4.05
						c0.59-5.39-3.3-10.24-8.69-10.83c-0.41-0.05-0.83-0.06-1.25-0.06c-6.13,0.11-11.22,4.78-11.84,10.89h4.05
						C232.89,202.64,236.09,199.7,239.94,199.63z"/>
					<g id="그룹_1614">
						<path id="패스_1531" class="st11" d="M239.94,199.63c3.41-0.06,6.22,2.65,6.28,6.06c0,0.26-0.01,0.52-0.04,0.78h4.05
							c0.59-5.39-3.3-10.24-8.69-10.83c-0.41-0.05-0.83-0.06-1.25-0.06c-6.13,0.11-11.22,4.78-11.84,10.89h4.05
							C232.89,202.64,236.09,199.7,239.94,199.63z"/>
					</g>
					<path id="패스_1532" class="st13" d="M244.6,201.64l3.11-2.86c-1.91-2.07-4.61-3.23-7.42-3.19l-0.35,4.05
						C241.71,199.61,243.4,200.34,244.6,201.64z"/>
				</g>
				<g id="그룹_1617">
					<path id="패스_1533" class="st10" d="M264.4,211.31l-3.11,2.86c1.91,2.07,4.61,3.23,7.42,3.19l0.35-4.05
						C267.3,213.34,265.6,212.61,264.4,211.31z"/>
					<path id="패스_1534" class="st20" d="M264.4,211.31l-3.11,2.86c1.91,2.07,4.61,3.23,7.42,3.19l0.35-4.05
						C267.3,213.34,265.6,212.61,264.4,211.31z"/>
					<path id="패스_1535" class="st10" d="M276.5,206.47c-0.39,3.83-3.59,6.77-7.44,6.84l-0.35,4.05
						c6.13-0.11,11.22-4.78,11.84-10.89H276.5z"/>
					<path id="패스_1536" class="st23" d="M276.5,206.47c-0.39,3.83-3.59,6.77-7.44,6.84l-0.35,4.05
						c6.13-0.11,11.22-4.78,11.84-10.89H276.5z"/>
					<path id="패스_1537" class="st10" d="M264.4,211.31c-1.19-1.32-1.76-3.07-1.58-4.84h-4.05c-0.29,2.81,0.63,5.6,2.51,7.7
						L264.4,211.31z"/>
					<path id="패스_1538" class="st10" d="M270.26,199.63c3.41-0.06,6.22,2.65,6.28,6.06c0,0.26-0.01,0.52-0.04,0.78h4.05
						c0.59-5.39-3.3-10.24-8.69-10.83c-0.41-0.05-0.83-0.06-1.25-0.06c-6.13,0.11-11.21,4.78-11.84,10.89h4.05
						C263.21,202.64,266.41,199.7,270.26,199.63z"/>
					<g id="그룹_1616">
						<path id="패스_1539" class="st11" d="M270.26,199.63c3.41-0.06,6.22,2.65,6.28,6.06c0,0.26-0.01,0.52-0.04,0.78h4.05
							c0.59-5.39-3.3-10.24-8.69-10.83c-0.41-0.05-0.83-0.06-1.25-0.06c-6.13,0.11-11.21,4.78-11.84,10.89h4.05
							C263.21,202.64,266.41,199.7,270.26,199.63z"/>
					</g>
					<path id="패스_1540" class="st13" d="M274.92,201.64l3.11-2.86c-1.91-2.07-4.61-3.22-7.42-3.19l-0.35,4.05
						C272.03,199.61,273.72,200.34,274.92,201.64z"/>
				</g>
				<g id="그룹_1625">
					<g id="그룹_1621">
						<g id="그룹_1618">
							<path id="패스_1541" class="st10" d="M309.96,251.9h-5.7l0.5-5.7h5.7L309.96,251.9z M305.6,250.66h3.23l0.28-3.23h-3.22
								L305.6,250.66z"/>
						</g>
						<g id="그룹_1619">
							<path id="패스_1542" class="st10" d="M309.2,260.57h-5.7l0.5-5.7h5.7L309.2,260.57z M304.84,259.34h3.22l0.28-3.23h-3.22
								L304.84,259.34z"/>
						</g>
						<g id="그룹_1620">
							<path id="패스_1543" class="st10" d="M308.44,269.25h-5.7l0.5-5.7h5.7L308.44,269.25z M304.08,268.01h3.22l0.28-3.23h-3.22
								L304.08,268.01z"/>
						</g>
					</g>
					<g id="그룹_1622">
						<path id="패스_1544" class="st10" d="M313.91,250.57c-0.69,0.01-1.26-0.54-1.28-1.23c0-0.05,0-0.11,0.01-0.16
							c0.08-0.78,0.73-1.38,1.51-1.39h19.07c0.69-0.01,1.26,0.54,1.28,1.23c0,0.05,0,0.11-0.01,0.16c-0.08,0.78-0.73,1.38-1.51,1.39
							H313.91z"/>
						<path id="패스_1545" class="st15" d="M313.91,250.57c-0.69,0.01-1.26-0.54-1.28-1.23c0-0.05,0-0.11,0.01-0.16
							c0.08-0.78,0.73-1.38,1.51-1.39h19.07c0.69-0.01,1.26,0.54,1.28,1.23c0,0.05,0,0.11-0.01,0.16c-0.08,0.78-0.73,1.38-1.51,1.39
							H313.91z"/>
					</g>
					<g id="그룹_1623">
						<path id="패스_1546" class="st10" d="M312.4,267.8c-0.69,0.01-1.27-0.53-1.28-1.23c0-0.06,0-0.11,0.01-0.17
							c0.08-0.78,0.73-1.38,1.51-1.39h15.98c0.69-0.01,1.26,0.54,1.28,1.23c0,0.05,0,0.11-0.01,0.16c-0.08,0.78-0.73,1.38-1.51,1.39
							L312.4,267.8z"/>
						<path id="패스_1547" class="st24" d="M312.4,267.8c-0.69,0.01-1.27-0.53-1.28-1.23c0-0.06,0-0.11,0.01-0.17
							c0.08-0.78,0.73-1.38,1.51-1.39h15.98c0.69-0.01,1.26,0.54,1.28,1.23c0,0.05,0,0.11-0.01,0.16c-0.08,0.78-0.73,1.38-1.51,1.39
							L312.4,267.8z"/>
					</g>
					<g id="그룹_1624">
						<path id="패스_1548" class="st10" d="M313.16,259.11c-0.69,0.01-1.26-0.54-1.28-1.23c0-0.05,0-0.11,0.01-0.16
							c0.08-0.78,0.73-1.38,1.51-1.39h14.74c0.69-0.01,1.26,0.54,1.28,1.23c0,0.05,0,0.11-0.01,0.16c-0.08,0.78-0.73,1.38-1.51,1.39
							H313.16z"/>
						<path id="패스_1549" class="st11" d="M313.16,259.11c-0.69,0.01-1.26-0.54-1.28-1.23c0-0.05,0-0.11,0.01-0.16
							c0.08-0.78,0.73-1.38,1.51-1.39h14.74c0.69-0.01,1.26,0.54,1.28,1.23c0,0.05,0,0.11-0.01,0.16c-0.08,0.78-0.73,1.38-1.51,1.39
							H313.16z"/>
					</g>
				</g>
				<g id="그룹_1627">
					<path id="패스_1550" class="st10" d="M294.66,260.15c-1.44-1.96-2.88-3.92-4.31-5.88c-0.26-0.43-0.81-0.56-1.23-0.31
						c-0.06,0.04-0.12,0.08-0.17,0.13l-4.57,5.03l-3.59-5.91c-0.26-0.43-0.81-0.56-1.24-0.31c-0.06,0.04-0.12,0.08-0.16,0.13
						c-1.58,1.45-3.12,2.95-4.73,4.36c-0.48-0.26-0.95-0.56-1.42-0.84l-2.61-1.54c-0.43-0.24-0.96-0.1-1.22,0.32l-4.62,6.69
						l-3.45-6.69c-0.25-0.42-0.79-0.56-1.22-0.32l-2.2,1.19c-0.82,0.4-1.61,0.85-2.39,1.33c-0.61-0.42-1.25-0.8-1.92-1.15
						l-2.31-1.37c-0.43-0.24-0.97-0.09-1.21,0.34c-0.23,0.42-0.1,0.95,0.31,1.2c1.28,0.76,3.56,2.87,5.07,2.87
						c1.37,0,3.3-1.45,4.74-2.38l3.69,7.16c0.26,0.43,0.81,0.56,1.24,0.3c0.12-0.08,0.23-0.18,0.3-0.3l4.99-7.23l3.88,2.29
						c0.35,0.2,0.79,0.14,1.08-0.14l4.42-4.07l3.65,6c0.26,0.43,0.81,0.56,1.24,0.31c0.06-0.04,0.12-0.08,0.16-0.13l4.64-5.11
						l3.61,4.93C293.79,261.97,295.34,261.08,294.66,260.15z"/>
					<g id="그룹_1626">
						<path id="패스_1551" class="st10" d="M293.21,267.47h-42.49l1.61-18.42c0.1-1.14-1.68-1.14-1.78,0l-1.69,19.31
							c0,0.49,0.4,0.89,0.89,0.89h43.45c0.49-0.02,0.87-0.44,0.85-0.93C294.04,267.86,293.67,267.49,293.21,267.47z"/>
						<path id="패스_1552" class="st14" d="M293.21,267.47h-42.49l1.61-18.42c0.1-1.14-1.68-1.14-1.78,0l-1.69,19.31
							c0,0.49,0.4,0.89,0.89,0.89h43.45c0.49-0.02,0.87-0.44,0.85-0.93C294.04,267.86,293.67,267.49,293.21,267.47z"/>
					</g>
				</g>
			</g>
			<g id="그룹_1631">
				<g id="그룹_1629">
					<path id="패스_1553" class="st10" d="M339.48,241.29h-75.83l1.69-19.35h75.83L339.48,241.29z"/>
					<path id="패스_1554" class="st12" d="M339.48,241.29h-75.83l1.69-19.35h75.83L339.48,241.29z"/>
					<path id="패스_1555" class="st7" d="M340.82,242.76h-78.78l1.95-22.29h78.77L340.82,242.76z M265.25,239.81h72.88l1.43-16.4
						h-72.88L265.25,239.81z"/>
				</g>
				<g id="그룹_1630">
					<path id="패스_1556" class="st10" d="M280.77,234.21l-0.13,1.53h-6.39l0.72-8.26h6.24l-0.13,1.53h-4.34l-0.16,1.79h3.83
						l-0.13,1.49h-3.83l-0.17,1.91L280.77,234.21z"/>
					<path id="패스_1557" class="st10" d="M287.28,235.74l-1.74-2.87l-2.21,2.87h-2.19l3.42-4.2l-2.55-4.06h2.17l1.66,2.68
						l2.1-2.68h2.06l-3.23,3.99l2.7,4.27L287.28,235.74z"/>
					<path id="패스_1558" class="st10" d="M292.44,229.04h-2.64l0.14-1.56h7.19l-0.14,1.56h-2.64l-0.59,6.7h-1.91L292.44,229.04z"
						/>
					<path id="패스_1559" class="st10" d="M302.7,235.74l-1.39-2.3h-1.76l-0.2,2.3h-1.91l0.72-8.26h3.57
						c0.64-0.02,1.28,0.11,1.87,0.37c0.49,0.22,0.89,0.58,1.15,1.04c0.26,0.49,0.36,1.04,0.3,1.59c-0.04,0.57-0.24,1.12-0.58,1.59
						c-0.35,0.46-0.81,0.81-1.35,1.02l1.62,2.65H302.7z M302.77,229.41c-0.37-0.28-0.82-0.41-1.28-0.37h-1.56l-0.25,2.88h1.56
						c0.48,0.03,0.95-0.1,1.34-0.38c0.33-0.26,0.52-0.65,0.54-1.06C303.18,230.09,303.05,229.69,302.77,229.41z"/>
					<path id="패스_1560" class="st10" d="M311.7,233.97h-3.83l-0.89,1.77h-1.96l4.4-8.26h1.89l2.97,8.26h-2.01L311.7,233.97z
						 M311.22,232.52l-1.03-3.16l-1.59,3.16H311.22z"/>
					<path id="패스_1561" class="st10" d="M316.73,235.33c-0.63-0.35-1.14-0.88-1.47-1.52c-0.34-0.68-0.47-1.44-0.39-2.2
						c0.06-0.79,0.33-1.55,0.78-2.2c0.44-0.64,1.04-1.17,1.74-1.52c0.73-0.37,1.53-0.56,2.34-0.55c0.66-0.01,1.31,0.12,1.91,0.38
						c0.54,0.24,1.01,0.61,1.36,1.09l-1.33,1.13c-0.47-0.63-1.21-0.99-1.99-0.97c-0.49-0.01-0.97,0.11-1.4,0.34
						c-0.42,0.22-0.77,0.54-1.02,0.94c-0.26,0.41-0.42,0.88-0.45,1.37c-0.05,0.47,0.02,0.94,0.22,1.37
						c0.18,0.39,0.48,0.72,0.86,0.94c0.41,0.23,0.87,0.35,1.34,0.34c0.83,0,1.61-0.36,2.16-0.98l1.13,1.13
						c-0.43,0.48-0.96,0.85-1.56,1.1c-0.63,0.26-1.3,0.38-1.98,0.38C318.18,235.9,317.41,235.71,316.73,235.33z"/>
					<path id="패스_1562" class="st10" d="M325.88,229.04h-2.64l0.14-1.56h7.2l-0.14,1.56h-2.64l-0.59,6.7h-1.91L325.88,229.04z"
						/>
				</g>
			</g>
		</g>
	</g>
	<g id="Desk">
		<g id="그룹_1648">
			<g id="그룹_1633">
				<rect id="사각형_204" x="187.89" y="316.92" class="st10" width="205.63" height="114.97"/>
			</g>
			<g id="그룹_1634">
				<rect id="사각형_205" x="172.71" y="316.92" class="st10" width="19.18" height="114.97"/>
				<rect id="사각형_206" x="172.71" y="316.92" class="st17" width="19.18" height="114.97"/>
			</g>
			<g id="그룹_1635">
				<rect id="사각형_207" x="168.68" y="316.92" class="st10" width="210.56" height="10.18"/>
				<rect id="사각형_208" x="168.68" y="316.92" class="st13" width="210.56" height="10.18"/>
			</g>
			<g id="그룹_1636">
				<rect id="사각형_209" x="164.66" y="316.92" class="st10" width="8.05" height="114.97"/>
				<rect id="사각형_210" x="164.66" y="316.92" class="st14" width="8.05" height="114.97"/>
			</g>
			<g id="그룹_1637">
				<rect id="사각형_211" x="384.86" y="316.92" class="st10" width="19.18" height="114.97"/>
				<rect id="사각형_212" x="384.86" y="316.92" class="st17" width="19.18" height="114.97"/>
			</g>
			<g id="그룹_1638">
				<rect id="사각형_213" x="391.47" y="310.29" class="st10" width="17.4" height="8.82"/>
				<rect id="사각형_214" x="391.47" y="310.29" class="st17" width="17.4" height="8.82"/>
			</g>
			<g id="그룹_1639">
				<rect id="사각형_215" x="284.45" y="332.59" class="st10" width="86.87" height="99.31"/>
				<rect id="사각형_216" x="284.45" y="332.59" class="st14" width="86.87" height="99.31"/>
			</g>
			<g id="그룹_1640">
				<rect id="사각형_217" x="371.32" y="332.59" class="st10" width="5.49" height="99.31"/>
				<rect id="사각형_218" x="371.32" y="332.59" class="st11" width="5.49" height="99.31"/>
			</g>
			<g id="그룹_1645">
				<g id="그룹_1642">
					<rect id="사각형_219" x="289.94" y="365.21" class="st10" width="75.89" height="22.97"/>
					<g id="그룹_1641">
						<rect id="사각형_220" x="289.94" y="338" class="st10" width="75.89" height="22.97"/>
						<rect id="사각형_221" x="289.94" y="392.42" class="st10" width="75.89" height="22.97"/>
					</g>
				</g>
				<g id="그룹_1644" class="st25">
					<rect id="사각형_222" x="289.94" y="365.21" class="st9" width="75.89" height="22.97"/>
					<g id="그룹_1643">
						<rect id="사각형_223" x="289.94" y="338" class="st9" width="75.89" height="22.97"/>
						<rect id="사각형_224" x="289.94" y="392.42" class="st9" width="75.89" height="22.97"/>
					</g>
				</g>
			</g>
			<g id="그룹_1646">
				<rect id="사각형_225" x="376.81" y="316.92" class="st10" width="8.05" height="114.97"/>
				<rect id="사각형_226" x="187.89" y="316.92" class="st26" width="205.63" height="114.97"/>
				<rect id="사각형_227" x="376.81" y="316.92" class="st14" width="8.05" height="114.97"/>
			</g>
			<rect id="사각형_228" x="158.04" y="310.29" class="st10" width="233.43" height="8.82"/>
			<rect id="사각형_229" x="158.04" y="310.29" class="st13" width="233.43" height="8.82"/>
			<g id="그룹_1647">
				<path id="패스_1563" class="st10" d="M328.1,346.99h-2.64c-1.38,0.07-2.44,1.24-2.37,2.62c0.06,1.28,1.09,2.31,2.37,2.37h2.64
					c1.38,0.07,2.55-1,2.62-2.37c0.07-1.38-1-2.55-2.37-2.62C328.27,346.98,328.18,346.98,328.1,346.99z"/>
				<path id="패스_1564" class="st10" d="M328.1,374.2h-2.64c-1.38,0.06-2.45,1.23-2.39,2.61c0.06,1.29,1.09,2.33,2.39,2.39h2.64
					c1.38-0.06,2.45-1.23,2.39-2.61C330.43,375.29,329.4,374.25,328.1,374.2z"/>
				<path id="패스_1565" class="st10" d="M328.1,401.41h-2.64c-1.38,0.07-2.44,1.24-2.37,2.62c0.06,1.28,1.09,2.31,2.37,2.37h2.64
					c1.38,0.07,2.55-1,2.62-2.37c0.07-1.38-1-2.55-2.37-2.62C328.27,401.4,328.18,401.4,328.1,401.41z"/>
				<path id="패스_1566" class="st27" d="M327.97,349.48c0,1.38-1.12,2.5-2.5,2.5s-2.5-1.12-2.5-2.5s1.12-2.5,2.5-2.5
					S327.97,348.1,327.97,349.48z"/>
				<path id="패스_1567" class="st27" d="M327.97,376.7c0,1.38-1.12,2.5-2.5,2.5s-2.5-1.12-2.5-2.5s1.12-2.5,2.5-2.5
					S327.97,375.31,327.97,376.7z"/>
				<path id="패스_1568" class="st27" d="M327.97,403.91c0,1.38-1.12,2.5-2.5,2.5s-2.5-1.12-2.5-2.5s1.12-2.5,2.5-2.5
					S327.97,402.52,327.97,403.91z"/>
			</g>
		</g>
	</g>
	<path id="패스_1569" class="st28" d="M240.47,209.71c-1.43,2.02,1.72,8.44,1.72,8.44L228,219.87l2.78-15.47
		C230.78,204.4,242.15,207.33,240.47,209.71z"/>
	<path id="패스_1570" class="st18" d="M240.24,212.6c-0.29-0.96-0.21-1.99,0.23-2.89c1.05-1.48-2.95-3.17-6.13-4.24
		C235.09,206.97,237.21,210.78,240.24,212.6z"/>
	<g id="그룹_1649">
		<path id="패스_1571" class="st28" d="M274.66,421.08l1.51,14.44l-6.66,1.25l-4-13.94L274.66,421.08z"/>
		<path id="패스_1572" class="st7" d="M276.03,433.05l-7.83,1.57c-0.29,0.06-0.51,0.32-0.52,0.62l-0.14,6.65
			c-0.02,0.59,0.45,1.08,1.03,1.1c0.08,0,0.15,0,0.23-0.02c2.81-0.61,5.29-1.27,8.81-1.97c4.15-0.83,3.19-0.12,8.08-1.03
			c2.95-0.55,2.81-4,1.54-3.91c-5.84,0.42-6.78-1.18-9.39-2.78C277.29,432.98,276.64,432.9,276.03,433.05z"/>
		<path id="패스_1573" class="st18" d="M268.15,432.04l7.55-1l-1.04-9.96l-9.15,1.75L268.15,432.04z"/>
	</g>
	<g id="그룹_1650">
		<path id="패스_1574" class="st28" d="M217.05,418.15l-4.53,17.9l-6.39-0.9l1.7-17.51L217.05,418.15z"/>
		<path id="패스_1575" class="st7" d="M213.37,433.81l-7.96-0.56c-0.3-0.02-0.57,0.17-0.66,0.46l-1.9,6.38
			c-0.17,0.56,0.15,1.16,0.71,1.33c0.07,0.02,0.15,0.04,0.22,0.04c2.88,0.15,5.44,0.17,9.01,0.43c4.22,0.3,3.11,0.73,8.07,1.15
			c2.99,0.25,3.77-3.11,2.52-3.36c-5.75-1.14-6.23-2.93-8.32-5.17C214.59,434.07,213.99,433.82,213.37,433.81z"/>
		<path id="패스_1576" class="st18" d="M206.52,431.09l6.99,1.07l3.34-13.19c-3.06-0.33-8.08-0.83-9.06-0.93L206.52,431.09z"/>
	</g>
	<path id="패스_1577" class="st7" d="M223.97,281.13c0,0-2.2,6.4-2.52,21.97c-0.19,9.31-1.1,24.04-1.8,34.39
		c-0.21,3.03-0.39,5.68-0.54,7.71c-0.19,2.58-0.79,5.11-1.78,7.5c-0.68,1.66-1.54,3.93-2.42,6.77c-1.77,5.75-3.05,11.65-3.83,17.61
		c-2.33,17.45-5.01,51.25-5.01,51.25l8.63,1.12l21.25-78.77l22.65-69.62L223.97,281.13z"/>
	<path id="패스_1578" class="st18" d="M246.52,318.69l-0.92-6.86l-7.41-6.27l-2.49-1.23c3.74,10.8,5.21,22.25,4.32,33.64
		L246.52,318.69z"/>
	<path id="패스_1579" class="st7" d="M265.39,281.44l10.39,146.3l-8.8,1.5c0,0-11.77-40.49-13.75-62.87
		c-0.23-2.37-0.32-4.76-0.26-7.14c0.09-3.04-0.31-6.08-1.19-9l-1.24-4.18l-6.93-23.46c-1.4-4.91-3.73-9.51-6.86-13.55
		c-3.6-4.55-8.07-13.36-6.21-28.02l32.55-2.26L265.39,281.44z"/>
	<g id="그룹_1653">
		<g id="그룹_1651">
			<path id="패스_1580" class="st28" d="M232.86,272.21c0,0,5.05-1.04,6.75-0.88c1.85,0.44,3.66,1.03,5.41,1.77
				c1.22,0.4,1.89,1.72,1.49,2.94c-0.12,0.38-0.34,0.71-0.63,0.98c0,0-2.78,3.56-4.16,3.85c-2.77,0.59-10.71-3.66-10.71-3.66
				L232.86,272.21z"/>
			<path id="패스_1581" class="st7" d="M232.61,269.79l-2.81,9.05l2.69,0.22l2.47-7.91L232.61,269.79z"/>
			<path id="패스_1582" class="st11" d="M232.61,269.79l-2.81,9.05l2.69,0.22l2.47-7.91L232.61,269.79z"/>
		</g>
		<path id="패스_1583" class="st10" d="M215.99,226.67c-0.99-1.28-2.83-1.51-4.1-0.52c-0.37,0.29-0.67,0.67-0.87,1.1
			c-3.15,6.74-11.1,24.61-11.13,33.28c-0.04,10.82,31.75,17.22,31.75,17.22l1.92-6.22l-21.87-13.44l6.29-14.82
			C217.98,243.27,219.54,231.53,215.99,226.67z"/>
		<path id="패스_1584" class="st23" d="M215.99,226.67c-0.99-1.28-2.83-1.51-4.1-0.52c-0.37,0.29-0.67,0.67-0.87,1.1
			c-3.15,6.74-11.1,24.61-11.13,33.28c-0.04,10.82,31.75,17.22,31.75,17.22l1.92-6.22l-21.87-13.44l6.29-14.82
			C217.98,243.27,219.54,231.53,215.99,226.67z"/>
		<g id="그룹_1652" class="st8">
			<path id="패스_1585" d="M216.64,227.74l-3.43,0.47l-1.97,1.41l2.35,23.98l4.39-10.33
				C217.98,243.27,219.34,233.06,216.64,227.74z"/>
			<path id="패스_1586" d="M223.26,265.21l-9.08-5.58l1.32,13.47c1.9,0.71,3.8,1.35,5.6,1.9L223.26,265.21z"/>
		</g>
	</g>
	<path id="패스_1587" class="st10" d="M264.91,281.37c0,0-15.65,5.12-41.29,0.98l-12.29-51.79c-0.85-3.92,0.99-7.92,4.51-9.83
		c5.28-2.91,15.71-5.66,36.3-4.52c5.08,0.28,9.37,3.88,10.54,8.83L264.91,281.37z"/>
	<g id="그룹_1654">
		<path id="패스_1588" class="st7" d="M223.81,218.39l1.57-3.67c0,0,6.16-3.12,16.63-1.65l2.49,2.88
			C244.49,215.94,232.77,216.23,223.81,218.39z"/>
	</g>
	<path id="패스_1589" class="st7" d="M247.88,191.5c0.14,0.58-0.05,1.13-0.44,1.22s-0.85-0.33-0.98-0.9s0.05-1.13,0.45-1.21
		S247.74,190.91,247.88,191.5z"/>
	<path id="패스_1590" class="st29" d="M247.36,193.26l4,3.91c-0.96,0.92-2.29,1.35-3.61,1.14L247.36,193.26z"/>
	<path id="패스_1591" class="st28" d="M224.56,194.1c1.53,7.84,2.01,11.19,6.62,14.76c6.78,3.39,16.47,1.9,17.36-6.22
		c0.81-7.3-1.82-18.86-10.16-21.12c-5.86-1.65-11.96,1.73-13.66,7.58C224.27,190.74,224.21,192.45,224.56,194.1z"/>
	<path id="패스_1592" class="st7" d="M244.94,189.65c0.11,0,0.21-0.05,0.27-0.14c0.43-0.68,1.16-1.1,1.95-1.14
		c0.17,0.01,0.31-0.13,0.32-0.3c0,0,0,0,0,0c0-0.18-0.14-0.32-0.32-0.32c-1.01,0.03-1.95,0.55-2.49,1.41
		c-0.1,0.15-0.06,0.34,0.09,0.44c0,0,0,0,0,0l0,0C244.82,189.63,244.88,189.65,244.94,189.65z"/>
	<path id="패스_1593" class="st22" d="M264.39,255.85l-1.05-18.97l-6.78-8.98l-3.71-3.44l-2.86,2
		C250,226.47,250.39,236.93,264.39,255.85z"/>
	<path id="패스_1594" class="st10" d="M266.6,228.89c3.76,6.9,5.21,10.98,6.5,12.69c0.17,0.23,0.45,0.34,0.73,0.3l21.95-3.19
		c0.38-0.05,0.74,0.17,0.85,0.53l1.77,5.44c0.13,0.41-0.09,0.84-0.49,0.98l-20.58,6.98c-3.72,1.45-7.95,0.71-10.96-1.92
		c-5.84-5.13-10.6-11.38-13.99-18.37c-1.58-3.12-5.25-8.9,0.78-13.98C258.16,214.12,264.11,224.31,266.6,228.89z"/>
	<path id="패스_1595" class="st26" d="M266.6,228.89c3.76,6.9,5.21,10.98,6.5,12.69c0.17,0.23,0.45,0.34,0.73,0.3l21.95-3.19
		c0.38-0.05,0.74,0.17,0.85,0.53l1.77,5.44c0.13,0.41-0.09,0.84-0.49,0.98l-20.58,6.98c-3.72,1.45-7.95,0.71-10.96-1.92
		c-5.84-5.13-10.6-11.38-13.99-18.37c-1.58-3.12-5.25-8.9,0.78-13.98C258.16,214.12,264.11,224.31,266.6,228.89z"/>
	<path id="패스_1596" class="st28" d="M296.42,239.21l4.53-5.32c0.49-0.58,1.14-1,1.87-1.21l10.65-3.1
		c0.36-0.1,0.74,0.06,0.91,0.4l0,0c0.2,0.38,0.04,0.85-0.34,1.05c-0.02,0.01-0.04,0.02-0.06,0.03l-4.4,1.8
		c-0.31,0.13-0.51,0.45-0.48,0.79l0.22,2.66c0.13,1.63-0.77,3.17-2.26,3.85l-3.2,1.46l-0.37,0.15l-5.49,1.85
		c-0.41,0.14-0.85-0.08-0.99-0.49c-0.01-0.02-0.02-0.05-0.02-0.07l-0.73-3.15C296.19,239.65,296.26,239.4,296.42,239.21z"/>
	<g id="그룹_1655">
		<path id="패스_1597" class="st7" d="M295.1,238.66l2.71,6.85c0.16,0.4,0.61,0.6,1.01,0.44c0.02-0.01,0.04-0.02,0.06-0.02
			l0.9-0.44c0.37-0.18,0.53-0.61,0.38-0.99l-2.59-6.56c-0.13-0.34-0.48-0.54-0.84-0.49l-1.03,0.16c-0.43,0.07-0.72,0.46-0.65,0.89
			C295.06,238.55,295.08,238.61,295.1,238.66z"/>
	</g>
	<g id="그룹_1656">
		<path id="패스_1598" class="st10" d="M265.27,427.16l1.36,3.61l10.37-1.6l-0.29-3.84L265.27,427.16z"/>
		<path id="패스_1599" class="st18" d="M265.27,427.16l1.36,3.61l10.37-1.6l-0.29-3.84L265.27,427.16z"/>
	</g>
	<g id="그룹_1657">
		<path id="패스_1600" class="st10" d="M205.14,425.71l-0.16,3.8l10.4,1.39l0.81-3.77L205.14,425.71z"/>
		<path id="패스_1601" class="st18" d="M205.14,425.71l-0.16,3.8l10.4,1.39l0.81-3.77L205.14,425.71z"/>
	</g>
	<path id="패스_1602" class="st7" d="M229.92,209.1c0,0,1.16-1.65,4.66,0.26c0,0,4.97-5.56,5.12-10.77c0,0,3.67-0.68,3.36-3.05
		s-2.05-5.47-1.68-7.62s3.94-7.79,0.91-10.3s-3.39,0.48-5.11,0.8s-12.09,0.69-13.41,8.03c-3.09,3.49-3.37,8.65-0.69,12.47
		C227.61,205.93,229.92,209.1,229.92,209.1z"/>
	<path id="패스_1603" class="st10" d="M239.86,193.7l9.07-5.04c0,0,2.28,5.94,1.19,6.24s-2.53-4.36-2.53-4.36l-6.46,3.08
		L239.86,193.7z"/>
	<path id="패스_1604" class="st15" d="M247.82,190.69l0.69-0.41c0,0,1.87,4.2,1.36,4.57S247.82,190.69,247.82,190.69z"/>
	<path id="패스_1605" class="st28" d="M241.1,193.88c1.37,0.91,2.32,2.33,2.64,3.94c0.4,2.13-1.6,3-3.55,2.24
		c-1.77-0.68-4.08-2.61-3.59-4.67S239.4,192.77,241.1,193.88z"/>
</g>
</svg>
