<svg id="레이어_1" data-name="레이어 1" xmlns="http://www.w3.org/2000/svg" xmlns:xlink="http://www.w3.org/1999/xlink" viewBox="0 0 224.6 224.6"><defs><style>.cls-1,.cls-6{fill:none;}.cls-2{clip-path:url(#clip-path);}.cls-3{fill:#5282f0;}.cls-4{fill:url(#무제_그라디언트_4);}.cls-5{fill:#fff;}.cls-6{stroke:#fff;stroke-linecap:round;stroke-linejoin:round;stroke-width:8px;}</style><clipPath id="clip-path" transform="translate(0)"><circle id="타원_29" data-name="타원 29" class="cls-1" cx="112.3" cy="112.3" r="112.3"/></clipPath><linearGradient id="무제_그라디언트_4" x1="-845.52" y1="652.2" x2="-844.82" y2="651.27" gradientTransform="matrix(224.6, 0, 0, -224.6, 189928.25, 146479.14)" gradientUnits="userSpaceOnUse"><stop offset="0" stop-color="#fff" stop-opacity="0.2"/><stop offset="0.44" stop-color="#5282f0"/><stop offset="1" stop-color="#0f46c2"/></linearGradient></defs><g class="cls-2"><circle id="타원_5" data-name="타원 5" class="cls-3" cx="112.3" cy="112.3" r="112.3"/><circle id="타원_28" data-name="타원 28" class="cls-4" cx="112.3" cy="112.3" r="112.3"/><path id="패스_6278" data-name="패스 6278" class="cls-5" d="M70.27,190.23l26.41-37.72a5,5,0,0,0-1.2-7l0,0L86.16,139a5,5,0,0,0-7,1.2l0,0L52.75,178Z" transform="translate(0)"/><path id="패스_6279" data-name="패스 6279" class="cls-5" d="M43.57,191.08l-5.76,8.22a5,5,0,0,0,1.2,7l0,0,9.28,6.5a5,5,0,0,0,7-1.2l0,0,5.76-8.21Z" transform="translate(0)"/><rect id="사각형_479" data-name="사각형 479" class="cls-5" x="53.83" y="179.97" width="6.18" height="21.38" transform="translate(-131.88 127.85) rotate(-54.98)"/><path id="패스_6280" data-name="패스 6280" class="cls-6" d="M92.83,99.92h8.84l8.44-18.53,11.29,27.27,13.87-41.27,16.11,47,11-14.16,22.19-.3" transform="translate(0)"/><path id="패스_6281" data-name="패스 6281" class="cls-5" d="M174.54,109.34a51.35,51.35,0,1,1,2-18.34h11.14a62.28,62.28,0,1,0-1.63,18.34Z" transform="translate(0)"/></g></svg>