<?xml version="1.0" encoding="utf-8"?>
<!-- Generator: Adobe Illustrator 25.4.1, SVG Export Plug-In . SVG Version: 6.00 Build 0)  -->
<svg version="1.1" id="레이어_1" xmlns="http://www.w3.org/2000/svg" xmlns:xlink="http://www.w3.org/1999/xlink" x="0px"
	 y="0px" viewBox="0 0 1597 946" style="enable-background:new 0 0 1597 946;" xml:space="preserve">
<style type="text/css">
	.st0{fill:#E7ECF0;}
	.st1{fill:#646B73;}
	.st2{font-family:'AdobeMyungjoStd-Medium-KSCpc-EUC-H';}
	.st3{font-size:35px;}
	.st4{fill:#5282F0;}
	.st5{enable-background:new    ;}
	.st6{font-family:'ArialMT';}
	.st7{fill:#9C83E9;}
	.st8{fill:#00958D;}
	.st9{fill:#1B85B4;}
	.st10{fill:#A7BBC7;}
	.st11{fill:none;stroke:#A7BBC7;stroke-width:2;}
	.st12{fill:none;stroke:#A7BBC7;stroke-width:10;stroke-dasharray:4,10;}
	.st13{opacity:0.7;fill:none;stroke:#A7BBC7;stroke-width:10;stroke-dasharray:4,10;enable-background:new    ;}
	.st14{fill:none;stroke:#A7BBC7;}
	.st15{opacity:0.53;}
	.st16{fill:#5B5B61;}
	.st17{fill:#8D68B0;}
	.st18{fill:#4BB69A;}
	.st19{fill:#5360AB;}
	.st20{fill:#5BAACF;}
</style>
<g id="data-voucher-img" transform="translate(-154 -50)">
	<g id="그룹_5475" transform="translate(3 -102)">
		<g id="그룹_5469" transform="translate(-3727 -2418)">
			<g transform="matrix(1, 0, 0, 1, 3878, 2570)">
				
					<image style="overflow:visible;opacity:0.2;" width="417" height="144" xlink:href="42B87A13CBFBDA2E.png"  transform="matrix(1 0 0 1 582 12)">
				</image>
				<g>
					<g>
						<path id="사각형_488-8_00000121253499390721961770000011261398958856051849_" class="st0" d="M615,20h337
							c13.8,0,25,11.2,25,25v64c0,13.8-11.2,25-25,25H615c-13.8,0-25-11.2-25-25V45C590,31.2,601.2,20,615,20z"/>
					</g>
				</g>
			</g>
			<g transform="matrix(1, 0, 0, 1, 3878, 2570)">
				
					<image style="overflow:visible;opacity:0.2;" width="417" height="144" xlink:href="42B87A13CBFBDA32.png"  transform="matrix(1 0 0 1 582 12)">
				</image>
				<g>
					<g>
						<path id="사각형_489-8_00000016034080839925594360000000678258225806942611_" class="st0" d="M615,20h337
							c13.8,0,25,11.2,25,25v64c0,13.8-11.2,25-25,25H615c-13.8,0-25-11.2-25-25V45C590,31.2,601.2,20,615,20z"/>
					</g>
				</g>
			</g>
		</g>
		<g id="그룹_5468" transform="translate(-193 -147)">
			<text transform="matrix(1 0 0 1 997 385)" class="st1 st2 st3">과학기술정보통신부</text>
			<g id="태극문양-logo" transform="translate(960 358)">
				
					<image style="overflow:visible;enable-background:new    ;" width="503" height="503" id="image" xlink:href="42B87A13CBFBDA35.png"  transform="matrix(7.753479e-02 0 0 7.753479e-02 948 358)">
				</image>
			</g>
		</g>
	</g>
	<g id="그룹_5469-2" transform="translate(-3724 -2317)">
		<g transform="matrix(1, 0, 0, 1, 3878, 2367)">
			
				<image style="overflow:visible;opacity:0.2;" width="417" height="144" xlink:href="42B87A13CBFBDA36.png"  transform="matrix(1 0 0 1 582 215)">
			</image>
			<g>
				<g>
					<path id="사각형_488-9_00000176747630421529285230000005724048225230278017_" class="st0" d="M615,223h337
						c13.8,0,25,11.2,25,25v64c0,13.8-11.2,25-25,25H615c-13.8,0-25-11.2-25-25v-64C590,234.2,601.2,223,615,223z"/>
				</g>
			</g>
		</g>
		<g transform="matrix(1, 0, 0, 1, 3878, 2367)">
			
				<image style="overflow:visible;opacity:0.2;" width="417" height="144" xlink:href="42B87A13CBFBDA34.png"  transform="matrix(1 0 0 1 582 215)">
			</image>
			<g>
				<g>
					<path id="사각형_489-9_00000061460419296505433610000014608182287800031629_" class="st0" d="M615,223h337
						c13.8,0,25,11.2,25,25v64c0,13.8-11.2,25-25,25H615c-13.8,0-25-11.2-25-25v-64C590,234.2,601.2,223,615,223z"/>
				</g>
			</g>
		</g>
	</g>
	<g id="그룹_5479" transform="translate(-4293.246 -1781)">
		<g transform="matrix(1, 0, 0, 1, 4447.25, 1831)">
			
				<image style="overflow:visible;opacity:0.2;" width="530" height="196" xlink:href="42B87A13CBFBDA33.png"  transform="matrix(1 0 0 1 12.9961 751)">
			</image>
			<g>
				<g>
					<path id="사각형_488-10_00000180340998146959843620000015108987219235575713_" class="st0" d="M46,759h449
						c13.8,0,25,11.2,25,25v116c0,13.8-11.2,25-25,25H46c-13.8,0-25-11.2-25-25V784C21,770.2,32.2,759,46,759z"/>
				</g>
			</g>
		</g>
		<g transform="matrix(1, 0, 0, 1, 4447.25, 1831)">
			
				<image style="overflow:visible;opacity:0.2;" width="530" height="196" xlink:href="42B87A13CBFBDA3D.png"  transform="matrix(1 0 0 1 12.9961 751)">
			</image>
			<g>
				<g>
					<path id="사각형_489-10_00000103250202120271718860000007878889751608344967_" class="st0" d="M46,759h449
						c13.8,0,25,11.2,25,25v116c0,13.8-11.2,25-25,25H46c-13.8,0-25-11.2-25-25V784C21,770.2,32.2,759,46,759z"/>
				</g>
			</g>
		</g>
	</g>
	<g id="그룹_5480" transform="translate(-3237.246 -1781)">
		<g transform="matrix(1, 0, 0, 1, 3391.25, 1831)">
			
				<image style="overflow:visible;opacity:0.2;" width="530" height="144" xlink:href="42B87A13CBFBDA3E.png"  transform="matrix(1 0 0 1 1068.9961 751)">
			</image>
			<g>
				<g>
					<path id="사각형_488-11_00000137107479191537046590000011837300369326150331_" class="st0" d="M1102,759h449
						c13.8,0,25,11.2,25,25v64c0,13.8-11.2,25-25,25h-449c-13.8,0-25-11.2-25-25v-64C1077,770.2,1088.2,759,1102,759z"/>
				</g>
			</g>
		</g>
		<g transform="matrix(1, 0, 0, 1, 3391.25, 1831)">
			
				<image style="overflow:visible;opacity:0.2;" width="530" height="144" xlink:href="42B87A13CBFBDA3C.png"  transform="matrix(1 0 0 1 1068.9961 751)">
			</image>
			<g>
				<g>
					<path id="사각형_489-11_00000066516199426103562100000011903590034212488092_" class="st0" d="M1102,759h449
						c13.8,0,25,11.2,25,25v64c0,13.8-11.2,25-25,25h-449c-13.8,0-25-11.2-25-25v-64C1077,770.2,1088.2,759,1102,759z"/>
				</g>
			</g>
		</g>
	</g>
	<g id="그룹_5477" transform="translate(-3237 -2317)">
		<g transform="matrix(1, 0, 0, 1, 3391, 2367)">
			
				<image style="overflow:visible;opacity:0.2;" width="492" height="197" xlink:href="A4A9A4DC7B6688F1.png"  transform="matrix(1 0 0 1 1069 215)">
			</image>
			<g>
				<g>
					<path id="사각형_488-12_00000021808183796994467480000004264906822027620777_" class="st0" d="M1102.9,223H1513
						c14.3,0,25.9,11.2,25.9,25v117c0,13.8-11.6,25-25.9,25h-410.1c-14.3,0-25.9-11.2-25.9-25V248C1077,234.2,1088.6,223,1102.9,223
						z"/>
				</g>
			</g>
		</g>
		<g transform="matrix(1, 0, 0, 1, 3391, 2367)">
			
				<image style="overflow:visible;opacity:0.2;" width="492" height="197" xlink:href="A4A9A4DC7B6688F7.png"  transform="matrix(1 0 0 1 1069 215)">
			</image>
			<g>
				<g>
					<path id="사각형_489-12_00000114037073370235501890000005987032595023704977_" class="st0" d="M1102.9,223H1513
						c14.3,0,25.9,11.2,25.9,25v117c0,13.8-11.6,25-25.9,25h-410.1c-14.3,0-25.9-11.2-25.9-25V248C1077,234.2,1088.6,223,1102.9,223
						z"/>
				</g>
			</g>
		</g>
	</g>
	<g id="그룹_5478" transform="translate(-4267 -2317)">
		<g transform="matrix(1, 0, 0, 1, 4421, 2367)">
			
				<image style="overflow:visible;opacity:0.2;" width="476" height="197" xlink:href="A4A9A4DC7B6688F0.png"  transform="matrix(1 0 0 1 39 215)">
			</image>
			<g>
				<g>
					<path id="사각형_488-13_00000052067451819886687140000013740716292111008655_" class="st0" d="M72,223h396
						c13.8,0,25,11.2,25,25v117c0,13.8-11.2,25-25,25H72c-13.8,0-25-11.2-25-25V248C47,234.2,58.2,223,72,223z"/>
				</g>
			</g>
		</g>
		<g transform="matrix(1, 0, 0, 1, 4421, 2367)">
			
				<image style="overflow:visible;opacity:0.2;" width="476" height="197" xlink:href="A4A9A4DC7B6688F3.png"  transform="matrix(1 0 0 1 39 215)">
			</image>
			<g>
				<g>
					<path id="사각형_489-13_00000139989691549073581170000008834762635789705350_" class="st0" d="M72,223h396
						c13.8,0,25,11.2,25,25v117c0,13.8-11.2,25-25,25H72c-13.8,0-25-11.2-25-25V248C47,234.2,58.2,223,72,223z"/>
				</g>
			</g>
		</g>
	</g>
	<text transform="matrix(1 0 0 1 765 341)" class="st4 st2 st3">한국데이터산업진흥원</text>
	<text transform="matrix(1 0 0 1 1307.55 877)" class="st5"><tspan x="0" y="0" class="st4 st2 st3">데이터</tspan><tspan x="105" y="0" class="st4 st6 st3"> </tspan><tspan x="114.7" y="0" class="st4 st2 st3">활용</tspan><tspan x="184.7" y="0" class="st4 st6 st3"> </tspan></text>
	<text transform="matrix(1 0 0 1 1497.2483 877)" class="st5"><tspan x="0" y="0" class="st7 st2 st3">수요</tspan><tspan x="70" y="0" class="st7 st6 st3"> </tspan><tspan x="79.7" y="0" class="st7 st2 st3">기업</tspan></text>
	<text transform="matrix(1 0 0 1 1388.8 341)" class="st5"><tspan x="0" y="0" class="st8 st2 st3">전문기관</tspan><tspan x="140" y="0" class="st8 st6 st3">    </tspan></text>
	<text transform="matrix(1 0 0 1 1242.835 385)" class="st5"><tspan x="0" y="0" class="st8 st6 st3">(</tspan><tspan x="11.7" y="0" class="st8 st2 st3">수요선정</tspan><tspan x="151.7" y="0" class="st8 st6 st3"> </tspan><tspan x="161.4" y="0" class="st8 st2 st3">및</tspan><tspan x="196.4" y="0" class="st8 st6 st3"> </tspan><tspan x="206.1" y="0" class="st8 st2 st3">후속관리</tspan><tspan x="346.1" y="0" class="st8 st6 st3"> </tspan><tspan x="355.8" y="0" class="st8 st2 st3">협력</tspan><tspan x="425.8" y="0" class="st8 st6 st3">)</tspan></text>
	<text transform="matrix(1 0 0 1 256.337 345)" class="st5"><tspan x="0" y="0" class="st9 st2 st3">데이터</tspan><tspan x="105" y="0" class="st9 st6 st3"> </tspan><tspan x="114.7" y="0" class="st9 st2 st3">판매</tspan><tspan x="184.7" y="0" class="st9 st6 st3">·</tspan><tspan x="196.4" y="0" class="st9 st2 st3">가공사업</tspan></text>
	<text transform="matrix(1 0 0 1 323.625 389)" class="st5"><tspan x="0" y="0" class="st9 st2 st3">지정</tspan><tspan x="70" y="0" class="st9 st6 st3"> </tspan><tspan x="79.7" y="0" class="st9 st2 st3">및</tspan><tspan x="114.7" y="0" class="st9 st6 st3"> </tspan><tspan x="124.4" y="0" class="st9 st2 st3">관리</tspan></text>
	<g id="그룹_5476" transform="translate(3 -102)">
		<g id="그룹_5473_00000043426561964420840060000001357915623684281520_" transform="translate(-3188 -2415)">
			
				<image style="overflow:visible;opacity:0.2;" width="418" height="145" xlink:href="A4A9A4DC7B6688EF.png"  transform="matrix(1 0 0 1 4407.6489 2579.251)">
			</image>
			<g>
				<g>
					<g id="그룹_5470_00000109752274159292041300000001340363822065466032_" transform="translate(-52 -3)">
						<g transform="matrix(1, 0, 0, 1, 3391, 2570)">
							<path id="사각형_488-14_00000058571632146862433240000014740914923826833589_" class="st0" d="M1102.5,20.5h337
								c13.8,0,25,11.2,25,25v64c0,13.8-11.2,25-25,25h-337c-13.8,0-25-11.2-25-25v-64C1077.5,31.7,1088.7,20.5,1102.5,20.5z"/>
						</g>
						<g transform="matrix(1, 0, 0, 1, 3391, 2570)">
							<path id="사각형_489-14_00000177450770827377389300000013238710376997837985_" class="st0" d="M1102.5,20.5h337
								c13.8,0,25,11.2,25,25v64c0,13.8-11.2,25-25,25h-337c-13.8,0-25-11.2-25-25v-64C1077.5,31.7,1088.7,20.5,1102.5,20.5z"/>
						</g>
					</g>
				</g>
			</g>
		</g>
		<g id="그룹_5473" transform="translate(-3188 -2415)">
			
				<image style="overflow:visible;opacity:0.2;" width="417" height="144" xlink:href="A4A9A4DC7B66890F.png"  transform="matrix(1 0 0 1 4408 2579)">
			</image>
			<g>
				<g>
					<g id="그룹_5470_00000100373731415589321980000001663341876315105462_" transform="translate(-52 -3)">
						<g transform="matrix(1, 0, 0, 1, 3391, 2570)">
							<path id="사각형_488-14_00000059298753108817008650000004651927690672428438_" class="st0" d="M1102,20h337
								c13.8,0,25,11.2,25,25v64c0,13.8-11.2,25-25,25h-337c-13.8,0-25-11.2-25-25V45C1077,31.2,1088.2,20,1102,20z"/>
						</g>
						<g transform="matrix(1, 0, 0, 1, 3391, 2570)">
							<path id="사각형_489-14_00000133531592504406052770000010553716330515979924_" class="st0" d="M1102,20h337
								c13.8,0,25,11.2,25,25v64c0,13.8-11.2,25-25,25h-337c-13.8,0-25-11.2-25-25V45C1077,31.2,1088.2,20,1102,20z"/>
						</g>
					</g>
				</g>
			</g>
		</g>
		<g id="그룹_5474" transform="translate(309 -217)">
			<text transform="matrix(1 0 0 1 997 457)" class="st5"><tspan x="0" y="0" class="st1 st2 st3">정부부처</tspan><tspan x="140" y="0" class="st1 st6 st3"> · </tspan><tspan x="171.1" y="0" class="st1 st2 st3">지자체</tspan></text>
			<g id="태극문양-logo-2" transform="translate(960 427)">
				
					<image style="overflow:visible;enable-background:new    ;" width="503" height="503" id="image_00000161590643748036611640000014364127372940429723_" xlink:href="A4A9A4DC7B668911.png"  transform="matrix(7.753479e-02 0 0 7.753479e-02 948 427)">
				</image>
			</g>
		</g>
	</g>
	<g id="그룹_5481" transform="translate(-3973 -3551)">
		<g transform="matrix(1, 0, 0, 1, 4127, 3601)">
			
				<image style="overflow:visible;opacity:0.2;" width="375" height="330" xlink:href="A4A9A4DC7B668913.png"  transform="matrix(1 0 0 1 603 381)">
			</image>
			<g>
				<g>
					<path id="다각형_1-2_00000120561207662846639170000006574654016456891820_" class="st0" d="M783.5,389L956,689H611
						L783.5,389z"/>
				</g>
			</g>
		</g>
		<g transform="matrix(1, 0, 0, 1, 4127, 3601)">
			
				<image style="overflow:visible;opacity:0.2;" width="375" height="330" xlink:href="A4A9A4DC7B668910.png"  transform="matrix(1 0 0 1 603 381)">
			</image>
			<g>
				<g>
					<path id="다각형_2-2_00000121978550704662208230000016509272652466306216_" class="st0" d="M783.5,389L956,689H611
						L783.5,389z"/>
				</g>
			</g>
		</g>
	</g>
	<text transform="matrix(1 0 0 1 911.4 612)" class="st5"><tspan x="0" y="0" class="st1 st6 st3">3</tspan><tspan x="19.5" y="0" class="st1 st2 st3">자</tspan></text>
	<text transform="matrix(1 0 0 1 869.925 662)" class="st5"><tspan x="0" y="0" class="st1 st2 st3">협약</tspan><tspan x="70" y="0" class="st1 st6 st3"> </tspan><tspan x="79.7" y="0" class="st1 st2 st3">체결</tspan></text>
	<text transform="matrix(1 0 0 1 730.687 866)" class="st5"><tspan x="0" y="0" class="st10 st2 st3">데이터</tspan><tspan x="105" y="0" class="st10 st6 st3"> </tspan><tspan x="114.7" y="0" class="st10 st2 st3">구매</tspan><tspan x="184.7" y="0" class="st10 st6 st3"> ·</tspan><tspan x="206.1" y="0" class="st10 st2 st3">가공</tspan><tspan x="276.1" y="0" class="st10 st6 st3"> </tspan><tspan x="285.8" y="0" class="st10 st2 st3">서비스</tspan><tspan x="390.8" y="0" class="st10 st6 st3"> </tspan><tspan x="400.6" y="0" class="st10 st2 st3">협의</tspan><tspan x="470.6" y="0" class="st10 st6 st3">  </tspan></text>
	<text transform="matrix(1 0 0 1 739.437 981)" class="st5"><tspan x="0" y="0" class="st10 st2 st3">데이터</tspan><tspan x="105" y="0" class="st10 st6 st3"> </tspan><tspan x="114.7" y="0" class="st10 st2 st3">판매</tspan><tspan x="184.7" y="0" class="st10 st6 st3">·</tspan><tspan x="196.4" y="0" class="st10 st2 st3">가공</tspan><tspan x="266.4" y="0" class="st10 st6 st3"> </tspan><tspan x="276.1" y="0" class="st10 st2 st3">서비스</tspan><tspan x="381.1" y="0" class="st10 st6 st3"> </tspan><tspan x="390.8" y="0" class="st10 st2 st3">제공</tspan></text>
	<line id="선_28" class="st11" x1="1138.5" y1="129.5" x2="1227.5" y2="129.5"/>
	<line id="선_29" class="st11" x1="1138.5" y1="330.5" x2="1227.5" y2="330.5"/>
	<path id="패스_6286" class="st12" d="M656.5,332.5h77"/>
	<path id="패스_6285" class="st13" d="M424.5,458v335.5"/>
	<line id="선_30" class="st11" x1="1445" y1="201.5" x2="1445" y2="252.5"/>
	<line id="선_33" class="st11" x1="937.5" y1="202.5" x2="937.5" y2="253.5"/>
	<path id="다각형_4" class="st10" d="M1255.9,745.6l-13.8-8.4l14-7.8L1255.9,745.6z"/>
	<g id="그룹_5497">
		<line id="선_32" class="st14" x1="811.9" y1="434.2" x2="630.9" y2="753.2"/>
		<g id="그룹_5482" transform="translate(612.888 416.784)">
			<line id="선_31" class="st14" x1="181" y1="8" x2="0" y2="327"/>
			<path id="다각형_3" class="st10" d="M182.4,3.9l0.2,16.1l-14-7.8L182.4,3.9z"/>
		</g>
	</g>
	<path id="다각형_4-2" class="st10" d="M627.5,759.9l-0.2-16.1l14,7.8L627.5,759.9z"/>
	<g id="그룹_5494">
		<line id="선_32-2" class="st14" x1="1071.5" y1="420" x2="1252.5" y2="739"/>
		<g id="그룹_5482-2" transform="translate(3 -102)">
			<line id="선_31-2" class="st14" x1="1086.5" y1="512.5" x2="1267.5" y2="831.5"/>
			<path id="다각형_3-2" class="st10" d="M1085.1,508.4l13.8,8.4l-14,7.8L1085.1,508.4z"/>
		</g>
	</g>
	<text transform="matrix(0.5 0.866 -0.866 0.5 1052.0382 473.2333)" class="st5"><tspan x="0" y="0" class="st10 st2 st3">수요기업</tspan><tspan x="140" y="0" class="st10 st6 st3"> </tspan><tspan x="149.7" y="0" class="st10 st2 st3">선정</tspan><tspan x="219.7" y="0" class="st10 st6 st3">·</tspan><tspan x="231.4" y="0" class="st10 st2 st3">지원</tspan></text>
	<text transform="matrix(0.5 0.866 -0.866 0.5 1128.7833 435.4423)" class="st5"><tspan x="0" y="0" class="st10 st2 st3">데이터구매</tspan><tspan x="175" y="0" class="st10 st6 st3">·</tspan><tspan x="186.7" y="0" class="st10 st2 st3">가공</tspan><tspan x="256.7" y="0" class="st10 st6 st3"> </tspan><tspan x="266.4" y="0" class="st10 st2 st3">신청</tspan></text>
	<text transform="matrix(0.5 -0.866 0.866 0.5 597.0187 723.4513)" class="st5"><tspan x="0" y="0" class="st10 st2 st3">데이터구매</tspan><tspan x="175" y="0" class="st10 st6 st3">·</tspan><tspan x="186.7" y="0" class="st10 st2 st3">가공</tspan><tspan x="256.7" y="0" class="st10 st6 st3"> </tspan><tspan x="266.4" y="0" class="st10 st2 st3">신청</tspan></text>
	<text transform="matrix(0.5 -0.866 0.866 0.5 695.9613 721.504)" class="st5"><tspan x="0" y="0" class="st10 st2 st3">데이터비용</tspan><tspan x="175" y="0" class="st10 st6 st3"> </tspan><tspan x="184.7" y="0" class="st10 st2 st3">지급</tspan></text>
	<g id="그룹_5493">
		<line id="선_32-3" class="st14" x1="1178.5" y1="887.4" x2="711.9" y2="887.4"/>
		<path id="다각형_4-3" class="st10" d="M704.5,887.7l13.9-8.2l0.3,16L704.5,887.7z"/>
	</g>
	<g id="그룹_5498" transform="translate(1882.833 1810.992) rotate(180)">
		<line id="선_32-4" class="st14" x1="1178.5" y1="887.4" x2="711.9" y2="887.4"/>
		<path id="다각형_4-4" class="st10" d="M704.5,887.7l13.9-8.2l0.3,16L704.5,887.7z"/>
	</g>
	<text transform="matrix(1 0 0 1 1108.91 230)" class="st5"><tspan x="0" y="0" class="st10 st2 st3">부처</tspan><tspan x="70" y="0" class="st10 st6 st3">·</tspan><tspan x="81.7" y="0" class="st10 st2 st3">지역</tspan></text>
	<text transform="matrix(1 0 0 1 1148.722 270)" class="st10 st2 st3">협력</text>
	<g id="그룹_5492" transform="translate(141.671 839.6)" class="st15">
		<g id="그룹_5491" transform="translate(158.648 63.374)">
			<g id="그룹_5489" transform="translate(49.923)">
				<path id="패스_6273" class="st16" d="M-1.8,36.1H-7v-36H6.7c1.7,0,3.5,0.2,5.1,0.7c1.4,0.4,2.7,1.1,3.8,2
					c1,0.8,1.8,1.9,2.3,3.1c0.5,1.2,0.8,2.6,0.8,3.9v1.3c0,1.9-0.5,3.8-1.7,5.4c-1.2,1.6-2.8,2.8-4.7,3.5l7.5,16h-5.6L7.5,21h-9.3
					L-1.8,36.1z M-1.8,16.9h7.2c2.9,0,5-0.5,6.3-1.6c1.2-1,1.9-2.6,1.9-4.2v-1c0.1-1.6-0.6-3.1-1.8-4.2c-1.2-1-3.1-1.5-5.8-1.5h-7.7
					L-1.8,16.9z"/>
				<path id="패스_6274" class="st16" d="M47.5,33c-1.3,0.9-2.8,1.6-4.3,2.1c-2,0.6-4.1,0.9-6.2,0.9c-1.6,0-3.2-0.2-4.7-0.7
					c-1.4-0.5-2.7-1.2-3.8-2.2c-1.1-1.1-2-2.4-2.5-3.9c-0.7-1.7-1-3.5-0.9-5.3v-3.1c0-1.8,0.3-3.7,0.9-5.4c0.5-1.5,1.4-2.8,2.4-3.9
					c1.1-1.1,2.3-1.9,3.7-2.4c1.5-0.5,3.1-0.8,4.7-0.8c3.1-0.2,6.1,1,8.3,3.2c2.1,2.1,3.1,5.1,3.1,9v3.6H29.8v0.2
					c-0.2,2,0.6,4,2,5.5c1.4,1.4,3.4,2.1,5.3,2c1.6,0,3.1-0.2,4.6-0.6c1.3-0.4,2.5-1,3.7-1.8L47.5,33z M36.7,12.4
					c-0.9,0-1.9,0.2-2.8,0.5c-0.8,0.3-1.6,0.8-2.2,1.4c-0.6,0.6-1.1,1.4-1.4,2.2c-0.4,0.9-0.5,1.9-0.5,2.9v0.7h13.7v-0.9
					c0.1-1.8-0.6-3.6-1.8-5C40.3,13,38.5,12.3,36.7,12.4z"/>
				<path id="패스_6275" class="st16" d="M62,36c-2.4,0.1-4.7-0.6-6.6-2c-1.6-1.4-2.5-3.5-2.4-5.6V27c-0.1-2.1,0.8-4.2,2.3-5.7
					c1.6-1.5,4.1-2.2,7.6-2.2h6.9v-1.6c0.1-1.4-0.4-2.7-1.3-3.6c-1.2-1-2.8-1.5-4.3-1.3c-1.4,0-2.8,0.2-4.2,0.7
					c-1.3,0.6-2.5,1.2-3.7,2L54,11.7c1.4-1,2.9-1.8,4.5-2.4c1.8-0.7,3.8-1.1,5.8-1c1.4,0,2.8,0.2,4.2,0.6c1.2,0.3,2.3,0.9,3.3,1.7
					c0.9,0.7,1.6,1.7,2.1,2.7c0.5,1.1,0.8,2.4,0.8,3.7v19.1H70v-3.7h0c-0.3,0.5-0.6,1-1.1,1.4c-0.4,0.4-0.9,0.8-1.5,1.1
					c-0.7,0.4-1.5,0.7-2.4,0.9C64,35.9,63,36.1,62,36z M69.9,23.2H63c-1.4-0.1-2.9,0.3-4.1,1.1c-0.8,0.8-1.3,1.9-1.2,3v0.7
					c-0.1,1.1,0.4,2.3,1.4,2.9c1,0.6,2.2,0.9,3.3,0.9c1.1,0,2.1-0.1,3.1-0.4c0.9-0.3,1.7-0.7,2.4-1.3c0.6-0.4,1.1-1,1.4-1.7
					c0.3-0.8,0.5-1.7,0.4-2.5L69.9,23.2z"/>
				<path id="패스_6276" class="st16" d="M86.8,0v36.1h-4.8V0H86.8z"/>
				<path id="패스_6277" class="st16" d="M111.7,32.2c-0.7,1.3-1.9,2.4-3.3,2.9c-1.5,0.6-3.1,0.9-4.7,0.8c-3.5,0-6.1-1-7.9-3
					s-2.7-4.9-2.7-8.6V20c0-1.7,0.2-3.4,0.8-4.9c0.5-1.4,1.2-2.6,2.2-3.7c1-1,2.1-1.8,3.4-2.3c1.4-0.5,2.9-0.8,4.4-0.8
					c1.7-0.1,3.4,0.3,5,1.1c1,0.6,1.9,1.3,2.7,2.3V0h4.8v36.1h-4.6L111.7,32.2L111.7,32.2z M111.7,18.3c0-0.7-0.2-1.4-0.5-2.1
					c-0.4-0.7-0.9-1.4-1.5-1.9c-0.7-0.6-1.5-1-2.3-1.3c-0.9-0.3-1.9-0.5-2.9-0.5c-1.9-0.1-3.6,0.7-4.8,2.1c-1.2,1.8-1.9,3.9-1.7,6
					v2.9c-0.1,2.2,0.5,4.3,1.7,6c1.2,1.4,2.9,2.2,4.8,2.1c1,0,1.9-0.2,2.8-0.5c1.7-0.6,3.1-1.9,3.8-3.5c0.4-0.9,0.6-1.9,0.6-2.9
					L111.7,18.3z"/>
				<path id="패스_6278" class="st16" d="M131.8,36c-2.4,0.1-4.7-0.6-6.6-2c-1.6-1.4-2.5-3.5-2.4-5.6V27c-0.1-2.1,0.8-4.2,2.3-5.7
					c1.6-1.5,4.1-2.2,7.6-2.2h6.9v-1.6c0.1-1.4-0.4-2.7-1.3-3.6c-1.2-1-2.8-1.5-4.3-1.3c-1.4,0-2.8,0.2-4.2,0.7
					c-1.3,0.6-2.5,1.2-3.7,2l-2.4-3.6c1.4-1,2.9-1.8,4.5-2.4c1.8-0.7,3.8-1.1,5.8-1c1.4,0,2.8,0.2,4.2,0.6c1.2,0.3,2.3,0.9,3.3,1.7
					c0.9,0.7,1.6,1.7,2.1,2.7c0.5,1.1,0.8,2.4,0.8,3.7v19.1h-4.6v-3.7h-0.1c-0.3,0.5-0.6,1-1.1,1.4c-0.4,0.4-0.9,0.8-1.5,1.1
					c-0.7,0.4-1.5,0.7-2.4,0.9C133.9,35.9,132.9,36.1,131.8,36z M139.7,23.2h-6.8c-1.4-0.1-2.9,0.3-4.1,1.1c-0.8,0.8-1.3,1.9-1.2,3
					v0.7c-0.1,1.1,0.4,2.3,1.4,2.9c1,0.6,2.2,0.9,3.3,0.9c1.1,0,2.1-0.1,3.1-0.4c0.9-0.3,1.7-0.7,2.4-1.3c0.6-0.4,1.1-1,1.4-1.7
					c0.3-0.8,0.5-1.7,0.4-2.5L139.7,23.2z"/>
				<path id="패스_6279" class="st16" d="M153.5,12.9H149V8.8h4.5V1.9h4.8v6.9h7.2v4.1h-7.2V28c0,0.7,0.1,1.4,0.3,2
					c0.1,0.5,0.4,0.9,0.7,1.2c0.3,0.3,0.7,0.5,1.1,0.5c0.5,0.1,0.9,0.2,1.4,0.2c1.2,0,2.4-0.2,3.6-0.6l0.7,3.9
					c-0.7,0.3-1.5,0.5-2.2,0.6c-0.9,0.2-1.9,0.3-2.8,0.3c-2.6,0-4.5-0.6-5.7-1.9c-1.2-1.3-1.8-3.3-1.8-6.1V12.9z"/>
				<path id="패스_6280" class="st16" d="M178.8,36c-2.4,0.1-4.7-0.6-6.6-2c-1.6-1.4-2.5-3.5-2.4-5.6V27c-0.1-2.1,0.8-4.2,2.3-5.7
					c1.6-1.5,4.1-2.2,7.6-2.2h6.9v-1.2c0.1-1.5-0.4-2.9-1.3-4.1c-1.2-1-2.8-1.5-4.3-1.3c-1.4,0-2.8,0.2-4.2,0.7
					c-1.3,0.6-2.5,1.2-3.7,2l-2.4-3.6c1.4-1,2.9-1.8,4.5-2.4c1.8-0.7,3.8-1.1,5.8-1c1.4,0,2.8,0.2,4.2,0.6c1.2,0.3,2.3,0.9,3.3,1.7
					c0.9,0.7,1.6,1.7,2.1,2.7c0.5,1.1,0.8,2.4,0.8,3.7v19.1h-4.6v-3.7h-0.1c-0.3,0.5-0.6,1-1.1,1.4c-0.4,0.4-0.9,0.8-1.5,1.1
					c-0.7,0.4-1.5,0.7-2.4,0.9C180.8,35.9,179.8,36.1,178.8,36z M186.7,23.2h-6.8c-1.4-0.1-2.9,0.3-4.1,1.1c-0.8,0.8-1.3,1.9-1.2,3
					v0.7c-0.1,1.1,0.4,2.3,1.4,2.9c1,0.6,2.2,0.9,3.3,0.9c1.1,0,2.1-0.1,3.1-0.4c0.9-0.3,1.7-0.7,2.4-1.3c0.6-0.4,1.1-1,1.4-1.7
					c0.3-0.8,0.5-1.7,0.4-2.5L186.7,23.2z"/>
			</g>
			<path id="패스_6281" class="st17" d="M-2.6,0C-5,0-7,2-7,4.4v12.4H9.8V0H-2.6z"/>
			<path id="패스_6282" class="st18" d="M-7,19.3v12.4c0,2.4,2,4.4,4.4,4.4H9.8V19.3H-7z"/>
			<path id="패스_6283" class="st19" d="M16.9,0h-4.6v16.8h4.6c4.6,0,8.4-3.8,8.4-8.4C25.3,3.8,21.5,0,16.9,0z"/>
			<g id="그룹_5490" transform="translate(19.28 19.327)">
				<path id="패스_6284" class="st20" d="M-7,0v16.7H9.7C9.1,7.8,2,0.6-7,0z"/>
			</g>
		</g>
	</g>
	<text transform="matrix(1 0 0 1 238.4384 877)" class="st5"><tspan x="0" y="0" class="st4 st2 st3">데이터</tspan><tspan x="105" y="0" class="st4 st6 st3"> (</tspan><tspan x="126.4" y="0" class="st4 st2 st3">가공</tspan><tspan x="196.4" y="0" class="st4 st6 st3">) </tspan></text>
	<text transform="matrix(1 0 0 1 457.4365 877)" class="st7 st2 st3">공급기업</text>
</g>
</svg>
