<?xml version="1.0" encoding="utf-8"?>
<!-- Generator: Adobe Adobe Illustrator 24.2.0, SVG Export Plug-In . SVG Version: 6.00 Build 0)  -->
<svg version="1.1" id="레이어_1" xmlns="http://www.w3.org/2000/svg" xmlns:xlink="http://www.w3.org/1999/xlink" x="0px"
	 y="0px" width="1597px" height="946px" viewBox="0 0 1597 946" style="enable-background:new 0 0 1597 946;" xml:space="preserve">
<style type="text/css">
	.st0{fill:#E7ECF0;stroke:#FFFFFF;stroke-miterlimit:10;}
	.st1{fill:#646B73;}
	.st2{font-family:'AdobeMyungjoStd-Medium-KSCpc-EUC-H';}
	.st3{font-size:35px;}
	.st4{fill:#5282F0;}
	.st5{enable-background:new    ;}
	.st6{font-family:'ArialMT';}
	.st7{fill:#9C83E9;}
	.st8{fill:#00958D;}
	.st9{fill:#1B85B4;}
	.st10{fill:#A7BBC7;}
	.st11{fill:none;stroke:#A7BBC7;stroke-width:2;}
	.st12{fill:none;stroke:#A7BBC7;stroke-width:10;stroke-dasharray:4,10;}
	.st13{opacity:0.7;fill:none;stroke:#A7BBC7;stroke-width:10;stroke-dasharray:4,10;enable-background:new    ;}
	.st14{fill:none;stroke:#A7BBC7;}
	.st15{opacity:0.53;}
	.st16{fill:#5B5B61;}
	.st17{fill:#8D68B0;}
	.st18{fill:#4BB69A;}
	.st19{fill:#5360AB;}
	.st20{fill:#5BAACF;}
</style>
<g id="data-voucher-img" transform="translate(-154 -50)">
	<g id="그룹_5475" transform="translate(3 -102)">
		<g>
			<g transform="matrix(1, 0, 0, 1, 3878, 2570)">
				<path id="사각형_488-8_1_" class="st0" d="M-3112-2398h337c13.8,0,25,11.2,25,25v64c0,13.8-11.2,25-25,25h-337
					c-13.8,0-25-11.2-25-25v-64C-3137-2386.8-3125.8-2398-3112-2398z"/>
			</g>
			<g transform="matrix(1, 0, 0, 1, 3878, 2570)">
				<path id="사각형_489-8_1_" class="st0" d="M-3112-2398h337c13.8,0,25,11.2,25,25v64c0,13.8-11.2,25-25,25h-337
					c-13.8,0-25-11.2-25-25v-64C-3137-2386.8-3125.8-2398-3112-2398z"/>
			</g>
		</g>
		<g id="그룹_5468" transform="translate(-193 -147)">
			<text transform="matrix(1 0 0 1 970 388.8101)" class="st1 st2 st3">과학기술정보통신부</text>
		</g>
	</g>
	<g id="그룹_5469-2" transform="translate(-3724 -2317)">
		<g transform="matrix(1, 0, 0, 1, 3878, 2367)">
			<path id="사각형_488-9" class="st0" d="M615,223h337c13.8,0,25,11.2,25,25v64c0,13.8-11.2,25-25,25H615c-13.8,0-25-11.2-25-25
				v-64C590,234.2,601.2,223,615,223z"/>
		</g>
		<g transform="matrix(1, 0, 0, 1, 3878, 2367)">
			<path id="사각형_489-9" class="st0" d="M615,223h337c13.8,0,25,11.2,25,25v64c0,13.8-11.2,25-25,25H615c-13.8,0-25-11.2-25-25
				v-64C590,234.2,601.2,223,615,223z"/>
		</g>
	</g>
	<g id="그룹_5479" transform="translate(-4293.246 -1781)">
		<g transform="matrix(1, 0, 0, 1, 4447.25, 1831)">
			<path id="사각형_488-10" class="st0" d="M46,759h449c13.8,0,25,11.2,25,25v116c0,13.8-11.2,25-25,25H46c-13.8,0-25-11.2-25-25
				V784C21,770.2,32.2,759,46,759z"/>
		</g>
		<g transform="matrix(1, 0, 0, 1, 4447.25, 1831)">
			<path id="사각형_489-10" class="st0" d="M46,759h449c13.8,0,25,11.2,25,25v116c0,13.8-11.2,25-25,25H46c-13.8,0-25-11.2-25-25
				V784C21,770.2,32.2,759,46,759z"/>
		</g>
	</g>
	<g id="그룹_5480" transform="translate(-3237.246 -1781)">
		<g transform="matrix(1, 0, 0, 1, 3391.25, 1831)">
			<path id="사각형_488-11" class="st0" d="M1102,759h449c13.8,0,25,11.2,25,25v64c0,13.8-11.2,25-25,25h-449
				c-13.8,0-25-11.2-25-25v-64C1077,770.2,1088.2,759,1102,759z"/>
		</g>
		<g transform="matrix(1, 0, 0, 1, 3391.25, 1831)">
			<path id="사각형_489-11" class="st0" d="M1102,759h449c13.8,0,25,11.2,25,25v64c0,13.8-11.2,25-25,25h-449
				c-13.8,0-25-11.2-25-25v-64C1077,770.2,1088.2,759,1102,759z"/>
		</g>
	</g>
	<g id="그룹_5477" transform="translate(-3237 -2317)">
		<g transform="matrix(1, 0, 0, 1, 3391, 2367)">
			<path id="사각형_488-12" class="st0" d="M1104.6,223h436.8c15.2,0,27.6,11.2,27.6,25v117c0,13.8-12.3,25-27.6,25h-436.8
				c-15.2,0-27.6-11.2-27.6-25V248C1077,234.2,1089.3,223,1104.6,223z"/>
		</g>
		<g transform="matrix(1, 0, 0, 1, 3391, 2367)">
			<path id="사각형_489-12" class="st0" d="M1104.6,223h436.8c15.2,0,27.6,11.2,27.6,25v117c0,13.8-12.3,25-27.6,25h-436.8
				c-15.2,0-27.6-11.2-27.6-25V248C1077,234.2,1089.3,223,1104.6,223z"/>
		</g>
	</g>
	<g id="그룹_5478" transform="translate(-4267 -2317)">
		<g transform="matrix(1, 0, 0, 1, 4421, 2367)">
			<path id="사각형_488-13" class="st0" d="M72,223h396c13.8,0,25,11.2,25,25v117c0,13.8-11.2,25-25,25H72c-13.8,0-25-11.2-25-25
				V248C47,234.2,58.2,223,72,223z"/>
		</g>
		<g transform="matrix(1, 0, 0, 1, 4421, 2367)">
			<path id="사각형_489-13" class="st0" d="M72,223h396c13.8,0,25,11.2,25,25v117c0,13.8-11.2,25-25,25H72c-13.8,0-25-11.2-25-25
				V248C47,234.2,58.2,223,72,223z"/>
		</g>
	</g>
	<text transform="matrix(1 0 0 1 762.5 342.8101)" class="st4 st2 st3">한국데이터산업진흥원</text>
	<text transform="matrix(1 0 0 1 1310.7844 875.7173)" class="st5"><tspan x="0" y="0" class="st4 st2 st3">데이터</tspan><tspan x="105" y="0" class="st4 st6 st3"> </tspan><tspan x="114.7" y="0" class="st4 st2 st3">활용</tspan><tspan x="184.7" y="0" class="st4 st6 st3"> </tspan></text>
	<text transform="matrix(1 0 0 1 1500.4998 875.7173)" class="st5"><tspan x="0" y="0" class="st7 st2 st3">수요</tspan><tspan x="70" y="0" class="st7 st6 st3"> </tspan><tspan x="79.7" y="0" class="st7 st2 st3">기업</tspan></text>
	<text transform="matrix(1 0 0 1 1391.0559 340.2173)" class="st5"><tspan x="0" y="0" class="st8 st2 st3">전문기관</tspan><tspan x="140" y="0" class="st8 st6 st3">    </tspan></text>
	<text transform="matrix(1 0 0 1 1258.835 385)" class="st5"><tspan x="0" y="0" class="st8 st6 st3">(</tspan><tspan x="11.7" y="0" class="st8 st2 st3">수요선정</tspan><tspan x="151.7" y="0" class="st8 st6 st3"> </tspan><tspan x="161.4" y="0" class="st8 st2 st3">및</tspan><tspan x="196.4" y="0" class="st8 st6 st3"> </tspan><tspan x="206.1" y="0" class="st8 st2 st3">후속관리</tspan><tspan x="346.1" y="0" class="st8 st6 st3"> </tspan><tspan x="355.8" y="0" class="st8 st2 st3">협력</tspan><tspan x="425.8" y="0" class="st8 st6 st3">)</tspan></text>
	<text transform="matrix(1 0 0 1 256.3145 344.2173)" class="st5"><tspan x="0" y="0" class="st9 st2 st3">데이터</tspan><tspan x="105" y="0" class="st9 st6 st3"> </tspan><tspan x="114.7" y="0" class="st9 st2 st3">판매</tspan><tspan x="184.7" y="0" class="st9 st6 st3">·</tspan><tspan x="196.4" y="0" class="st9 st2 st3">가공사업</tspan></text>
	<text transform="matrix(1 0 0 1 326.7759 396.7173)" class="st5"><tspan x="0" y="0" class="st9 st2 st3">지정</tspan><tspan x="70" y="0" class="st9 st6 st3"> </tspan><tspan x="79.7" y="0" class="st9 st2 st3">및</tspan><tspan x="114.7" y="0" class="st9 st6 st3"> </tspan><tspan x="124.4" y="0" class="st9 st2 st3">관리</tspan></text>
	<g id="그룹_5476" transform="translate(3 -102)">
		<g id="그룹_5473" transform="translate(-3188 -2415)">
			<g id="그룹_5470" transform="translate(-52 -3)">
				<g transform="matrix(1, 0, 0, 1, 3391, 2570)">
					<path id="사각형_488-14" class="st0" d="M1104.1,20h365.1c15,0,27.1,11.2,27.1,25v64c0,13.8-12.1,25-27.1,25h-365.1
						c-15,0-27.1-11.2-27.1-25V45C1077,31.2,1089.1,20,1104.1,20z"/>
				</g>
				<g transform="matrix(1, 0, 0, 1, 3391, 2570)">
					<path id="사각형_489-14" class="st0" d="M1104.1,20h365.1c15,0,27.1,11.2,27.1,25v64c0,13.8-12.1,25-27.1,25h-365.1
						c-15,0-27.1-11.2-27.1-25V45C1077,31.2,1089.1,20,1104.1,20z"/>
				</g>
			</g>
		</g>
		<g id="그룹_5474" transform="translate(309 -217)">
			<text transform="matrix(1 0 0 1 990.5601 455.7173)" class="st5"><tspan x="0" y="0" class="st1 st2 st3">정부부처</tspan><tspan x="140" y="0" class="st1 st6 st3"> · </tspan><tspan x="171.1" y="0" class="st1 st2 st3">지자체</tspan></text>
		</g>
	</g>
	<g id="그룹_5481" transform="translate(-3973 -3551)">
		<g transform="matrix(1, 0, 0, 1, 4127, 3601)">
			<path id="다각형_1-2" class="st0" d="M783.5,389L956,689H611L783.5,389z"/>
		</g>
		<g transform="matrix(1, 0, 0, 1, 4127, 3601)">
			<path id="다각형_2-2" class="st0" d="M783.5,389L956,689H611L783.5,389z"/>
		</g>
	</g>
	<text transform="matrix(1 0 0 1 911.4 612)" class="st5"><tspan x="0" y="0" class="st1 st6 st3">3</tspan><tspan x="19.5" y="0" class="st1 st2 st3">자</tspan></text>
	<text transform="matrix(1 0 0 1 869.925 662)" class="st5"><tspan x="0" y="0" class="st1 st2 st3">협약</tspan><tspan x="70" y="0" class="st1 st6 st3"> </tspan><tspan x="79.7" y="0" class="st1 st2 st3">체결</tspan></text>
	<text transform="matrix(1 0 0 1 730.687 866)" class="st5"><tspan x="0" y="0" class="st10 st2 st3">데이터</tspan><tspan x="105" y="0" class="st10 st6 st3"> </tspan><tspan x="114.7" y="0" class="st10 st2 st3">구매</tspan><tspan x="184.7" y="0" class="st10 st6 st3"> ·</tspan><tspan x="206.1" y="0" class="st10 st2 st3">가공</tspan><tspan x="276.1" y="0" class="st10 st6 st3"> </tspan><tspan x="285.8" y="0" class="st10 st2 st3">서비스</tspan><tspan x="390.8" y="0" class="st10 st6 st3"> </tspan><tspan x="400.6" y="0" class="st10 st2 st3">협의</tspan><tspan x="470.6" y="0" class="st10 st6 st3">  </tspan></text>
	<text transform="matrix(1 0 0 1 739.437 981)" class="st5"><tspan x="0" y="0" class="st10 st2 st3">데이터</tspan><tspan x="105" y="0" class="st10 st6 st3"> </tspan><tspan x="114.7" y="0" class="st10 st2 st3">판매</tspan><tspan x="184.7" y="0" class="st10 st6 st3">·</tspan><tspan x="196.4" y="0" class="st10 st2 st3">가공</tspan><tspan x="266.4" y="0" class="st10 st6 st3"> </tspan><tspan x="276.1" y="0" class="st10 st2 st3">서비스</tspan><tspan x="381.1" y="0" class="st10 st6 st3"> </tspan><tspan x="390.8" y="0" class="st10 st2 st3">제공</tspan></text>
	<line id="선_28" class="st11" x1="1138.5" y1="129.5" x2="1227.5" y2="129.5"/>
	<line id="선_29" class="st11" x1="1138.5" y1="330.5" x2="1227.5" y2="330.5"/>
	<path id="패스_6286" class="st12" d="M656.5,332.5h77"/>
	<path id="패스_6285" class="st13" d="M424.5,458v335.5"/>
	<line id="선_30" class="st11" x1="1445" y1="201.5" x2="1445" y2="252.5"/>
	<line id="선_33" class="st11" x1="937.5" y1="202.5" x2="937.5" y2="253.5"/>
	<path id="다각형_4" class="st10" d="M1255.9,745.6l-13.8-8.4l14-7.8L1255.9,745.6z"/>
	<g id="그룹_5497">
		<line id="선_32" class="st14" x1="811.9" y1="434.2" x2="630.9" y2="753.2"/>
		<g id="그룹_5482" transform="translate(612.888 416.784)">
			<line id="선_31" class="st14" x1="181" y1="8" x2="0" y2="327"/>
			<path id="다각형_3" class="st10" d="M182.4,3.9l0.2,16.1l-14-7.8L182.4,3.9z"/>
		</g>
	</g>
	<path id="다각형_4-2" class="st10" d="M627.5,759.9l-0.2-16.1l14,7.8L627.5,759.9z"/>
	<g id="그룹_5494">
		<line id="선_32-2" class="st14" x1="1071.5" y1="420" x2="1252.5" y2="739"/>
		<g id="그룹_5482-2" transform="translate(3 -102)">
			<line id="선_31-2" class="st14" x1="1086.5" y1="512.5" x2="1267.5" y2="831.5"/>
			<path id="다각형_3-2" class="st10" d="M1085.1,508.4l13.8,8.4l-14,7.8L1085.1,508.4z"/>
		</g>
	</g>
	<text transform="matrix(0.5 0.866 -0.866 0.5 1051.9984 473.2695)" class="st5"><tspan x="0" y="0" class="st10 st2 st3">수요기업</tspan><tspan x="140" y="0" class="st10 st6 st3"> </tspan><tspan x="149.7" y="0" class="st10 st2 st3">선정</tspan><tspan x="219.7" y="0" class="st10 st6 st3">·</tspan><tspan x="231.4" y="0" class="st10 st2 st3">지원</tspan></text>
	<text transform="matrix(0.5 0.866 -0.866 0.5 1128.7445 435.4785)" class="st5"><tspan x="0" y="0" class="st10 st2 st3">데이터구매</tspan><tspan x="175" y="0" class="st10 st6 st3">·</tspan><tspan x="186.7" y="0" class="st10 st2 st3">가공</tspan><tspan x="256.7" y="0" class="st10 st6 st3"> </tspan><tspan x="266.4" y="0" class="st10 st2 st3">신청</tspan></text>
	<text transform="matrix(0.5 -0.866 0.866 0.5 597.0582 723.4144)" class="st5"><tspan x="0" y="0" class="st10 st2 st3">데이터구매</tspan><tspan x="175" y="0" class="st10 st6 st3">·</tspan><tspan x="186.7" y="0" class="st10 st2 st3">가공</tspan><tspan x="256.7" y="0" class="st10 st6 st3"> </tspan><tspan x="266.4" y="0" class="st10 st2 st3">신청</tspan></text>
	<text transform="matrix(0.5 -0.866 0.866 0.5 696.0006 721.4671)" class="st5"><tspan x="0" y="0" class="st10 st2 st3">데이터비용</tspan><tspan x="175" y="0" class="st10 st6 st3"> </tspan><tspan x="184.7" y="0" class="st10 st2 st3">지급</tspan></text>
	<g id="그룹_5493">
		<line id="선_32-3" class="st14" x1="1178.5" y1="887.4" x2="711.9" y2="887.4"/>
		<path id="다각형_4-3" class="st10" d="M704.5,887.7l13.9-8.2l0.3,16L704.5,887.7z"/>
	</g>
	<g id="그룹_5498" transform="translate(1882.833 1810.992) rotate(180)">
		<line id="선_32-4" class="st14" x1="1178.5" y1="887.4" x2="711.9" y2="887.4"/>
		<path id="다각형_4-4" class="st10" d="M704.5,887.7l13.9-8.2l0.3,16L704.5,887.7z"/>
	</g>
	<text transform="matrix(1 0 0 1 1108.91 230)" class="st5"><tspan x="0" y="0" class="st10 st2 st3">부처</tspan><tspan x="70" y="0" class="st10 st6 st3">·</tspan><tspan x="81.7" y="0" class="st10 st2 st3">지역</tspan></text>
	<text transform="matrix(1 0 0 1 1148.722 270)" class="st10 st2 st3">협력</text>
	<g id="그룹_5492" transform="translate(141.671 839.6)" class="st15">
		<g id="그룹_5491" transform="translate(158.648 63.374)">
			<g id="그룹_5489" transform="translate(49.923)">
				<path id="패스_6273" class="st16" d="M4.7,38h-5.2v-36h13.7c1.7,0,3.5,0.2,5.1,0.7c1.4,0.4,2.7,1.1,3.8,2
					c1,0.8,1.8,1.9,2.3,3.1c0.5,1.2,0.8,2.6,0.8,3.9v1.3c0,1.9-0.5,3.8-1.7,5.4c-1.2,1.6-2.8,2.8-4.7,3.5l7.5,16h-5.6L14,23H4.7
					L4.7,38z M4.7,18.8h7.2c2.9,0,5-0.5,6.3-1.6c1.2-1,1.9-2.6,1.9-4.2v-1c0.1-1.6-0.6-3.1-1.8-4.2c-1.2-1-3.1-1.5-5.8-1.5H4.7
					L4.7,18.8z"/>
				<path id="패스_6274" class="st16" d="M54,35c-1.3,0.9-2.8,1.6-4.3,2.1c-2,0.6-4.1,0.9-6.2,0.9c-1.6,0-3.2-0.2-4.7-0.7
					c-1.4-0.5-2.7-1.2-3.8-2.2c-1.1-1.1-2-2.4-2.5-3.9c-0.7-1.7-1-3.5-0.9-5.3v-3.1c0-1.8,0.3-3.7,0.9-5.4c0.5-1.5,1.4-2.8,2.4-3.9
					c1.1-1.1,2.3-1.9,3.7-2.4c1.5-0.5,3.1-0.8,4.7-0.8c3.1-0.2,6.1,1,8.3,3.2c2.1,2.1,3.1,5.1,3.1,9v3.6H36.3v0.2
					c-0.2,2,0.6,4,2,5.5c1.4,1.4,3.4,2.1,5.3,2c1.6,0,3.1-0.2,4.6-0.6c1.3-0.4,2.5-1,3.7-1.8L54,35z M43.2,14.4
					c-0.9,0-1.9,0.2-2.8,0.5c-0.8,0.3-1.6,0.8-2.2,1.4c-0.6,0.6-1.1,1.4-1.4,2.2c-0.4,0.9-0.5,1.9-0.5,2.9v0.7h13.7v-0.9
					c0.1-1.8-0.6-3.6-1.8-5C46.8,15,45,14.3,43.2,14.4z"/>
				<path id="패스_6275" class="st16" d="M68.5,38c-2.4,0.1-4.7-0.6-6.6-2c-1.6-1.4-2.5-3.5-2.4-5.6V29c-0.1-2.1,0.8-4.2,2.3-5.7
					c1.6-1.5,4.1-2.2,7.6-2.2h6.9v-1.6c0.1-1.4-0.4-2.7-1.3-3.6c-1.2-1-2.8-1.5-4.3-1.3c-1.4,0-2.8,0.2-4.2,0.7
					c-1.3,0.6-2.5,1.2-3.7,2l-2.4-3.6c1.4-1,2.9-1.8,4.5-2.4c1.8-0.7,3.8-1.1,5.8-1c1.4,0,2.8,0.2,4.2,0.6c1.2,0.3,2.3,0.9,3.3,1.7
					c0.9,0.7,1.6,1.7,2.1,2.7c0.5,1.1,0.8,2.4,0.8,3.7V38h-4.6v-3.7h0c-0.3,0.5-0.6,1-1.1,1.4c-0.4,0.4-0.9,0.8-1.5,1.1
					c-0.7,0.4-1.5,0.7-2.4,0.9C70.5,37.9,69.5,38,68.5,38z M76.4,25.2h-6.8c-1.4-0.1-2.9,0.3-4.1,1.1c-0.8,0.8-1.3,1.9-1.2,3v0.7
					c-0.1,1.1,0.4,2.3,1.4,2.9c1,0.6,2.2,0.9,3.3,0.9c1.1,0,2.1-0.1,3.1-0.4c0.9-0.3,1.7-0.7,2.4-1.3c0.6-0.4,1.1-1,1.4-1.7
					c0.3-0.8,0.5-1.7,0.4-2.5L76.4,25.2z"/>
				<path id="패스_6276" class="st16" d="M93.3,2V38h-4.8V2H93.3z"/>
				<path id="패스_6277" class="st16" d="M118.2,34.2c-0.7,1.3-1.9,2.4-3.3,2.9c-1.5,0.6-3.1,0.9-4.7,0.8c-3.5,0-6.1-1-7.9-3
					s-2.7-4.9-2.7-8.6V22c0-1.7,0.2-3.4,0.8-4.9c0.5-1.4,1.2-2.6,2.2-3.7c1-1,2.1-1.8,3.4-2.3c1.4-0.5,2.9-0.8,4.4-0.8
					c1.7-0.1,3.4,0.3,5,1.1c1,0.6,1.9,1.3,2.7,2.3V2h4.8V38h-4.6L118.2,34.2L118.2,34.2z M118.2,20.3c0-0.7-0.2-1.4-0.5-2.1
					c-0.4-0.7-0.9-1.4-1.5-1.9c-0.7-0.6-1.5-1-2.3-1.3c-0.9-0.3-1.9-0.5-2.9-0.5c-1.9-0.1-3.6,0.7-4.8,2.1c-1.2,1.8-1.9,3.9-1.7,6
					v2.9c-0.1,2.2,0.5,4.3,1.7,6c1.2,1.4,2.9,2.2,4.8,2.1c1,0,1.9-0.2,2.8-0.5c1.7-0.6,3.1-1.9,3.8-3.5c0.4-0.9,0.6-1.9,0.6-2.9
					L118.2,20.3z"/>
				<path id="패스_6278" class="st16" d="M138.3,38c-2.4,0.1-4.7-0.6-6.6-2c-1.6-1.4-2.5-3.5-2.4-5.6V29c-0.1-2.1,0.8-4.2,2.3-5.7
					c1.6-1.5,4.1-2.2,7.6-2.2h6.9v-1.6c0.1-1.4-0.4-2.7-1.3-3.6c-1.2-1-2.8-1.5-4.3-1.3c-1.4,0-2.8,0.2-4.2,0.7
					c-1.3,0.6-2.5,1.2-3.7,2l-2.4-3.6c1.4-1,2.9-1.8,4.5-2.4c1.8-0.7,3.8-1.1,5.8-1c1.4,0,2.8,0.2,4.2,0.6c1.2,0.3,2.3,0.9,3.3,1.7
					c0.9,0.7,1.6,1.7,2.1,2.7c0.5,1.1,0.8,2.4,0.8,3.7V38h-4.6v-3.7h-0.1c-0.3,0.5-0.6,1-1.1,1.4c-0.4,0.4-0.9,0.8-1.5,1.1
					c-0.7,0.4-1.5,0.7-2.4,0.9C140.4,37.9,139.4,38,138.3,38z M146.2,25.2h-6.8c-1.4-0.1-2.9,0.3-4.1,1.1c-0.8,0.8-1.3,1.9-1.2,3
					v0.7c-0.1,1.1,0.4,2.3,1.4,2.9c1,0.6,2.2,0.9,3.3,0.9c1.1,0,2.1-0.1,3.1-0.4c0.9-0.3,1.7-0.7,2.4-1.3c0.6-0.4,1.1-1,1.4-1.7
					c0.3-0.8,0.5-1.7,0.4-2.5L146.2,25.2z"/>
				<path id="패스_6279" class="st16" d="M160,14.9h-4.5v-4.1h4.5V3.9h4.8v6.9h7.2v4.1h-7.2V30c0,0.7,0.1,1.4,0.3,2
					c0.1,0.5,0.4,0.9,0.7,1.2c0.3,0.3,0.7,0.5,1.1,0.5c0.5,0.1,0.9,0.2,1.4,0.2c1.2,0,2.4-0.2,3.6-0.6l0.7,3.9
					c-0.7,0.3-1.5,0.5-2.2,0.6c-0.9,0.2-1.9,0.3-2.8,0.3c-2.6,0-4.5-0.6-5.7-1.9c-1.2-1.3-1.8-3.3-1.8-6.1V14.9z"/>
				<path id="패스_6280" class="st16" d="M185.3,38c-2.4,0.1-4.7-0.6-6.6-2c-1.6-1.4-2.5-3.5-2.4-5.6V29c-0.1-2.1,0.8-4.2,2.3-5.7
					c1.6-1.5,4.1-2.2,7.6-2.2h6.9v-1.2c0.1-1.5-0.4-2.9-1.3-4.1c-1.2-1-2.8-1.5-4.3-1.3c-1.4,0-2.8,0.2-4.2,0.7
					c-1.3,0.6-2.5,1.2-3.7,2l-2.4-3.6c1.4-1,2.9-1.8,4.5-2.4c1.8-0.7,3.8-1.1,5.8-1c1.4,0,2.8,0.2,4.2,0.6c1.2,0.3,2.3,0.9,3.3,1.7
					c0.9,0.7,1.6,1.7,2.1,2.7c0.5,1.1,0.8,2.4,0.8,3.7v19.1h-4.6v-3.7h-0.1c-0.3,0.5-0.6,1-1.1,1.4c-0.4,0.4-0.9,0.8-1.5,1.1
					c-0.7,0.4-1.5,0.7-2.4,0.9C187.3,37.9,186.3,38,185.3,38z M193.1,25.2h-6.8c-1.4-0.1-2.9,0.3-4.1,1.1c-0.8,0.8-1.3,1.9-1.2,3
					v0.7c-0.1,1.1,0.4,2.3,1.4,2.9c1,0.6,2.2,0.9,3.3,0.9c1.1,0,2.1-0.1,3.1-0.4c0.9-0.3,1.7-0.7,2.4-1.3c0.6-0.4,1.1-1,1.4-1.7
					c0.3-0.8,0.5-1.7,0.4-2.5L193.1,25.2z"/>
			</g>
			<path id="패스_6281" class="st17" d="M3.9,2C1.5,2-0.5,4-0.5,6.4v12.4h16.8V2H3.9z"/>
			<path id="패스_6282" class="st18" d="M-0.5,21.3v12.4c0,2.4,2,4.4,4.4,4.4h12.4V21.3H-0.5z"/>
			<path id="패스_6283" class="st19" d="M23.4,2h-4.6v16.8h4.6c4.6,0,8.4-3.8,8.4-8.4C31.8,5.7,28,2,23.4,2z"/>
			<g id="그룹_5490" transform="translate(19.28 19.327)">
				<path id="패스_6284" class="st20" d="M-0.5,2v16.7h16.7C15.6,9.8,8.5,2.6-0.5,2z"/>
			</g>
		</g>
	</g>
	<text transform="matrix(1 0 0 1 245.1205 875.7173)" class="st5"><tspan x="0" y="0" class="st4 st2 st3">데이터</tspan><tspan x="105" y="0" class="st4 st6 st3"> (</tspan><tspan x="126.4" y="0" class="st4 st2 st3">가공</tspan><tspan x="196.4" y="0" class="st4 st6 st3">) </tspan></text>
	<text transform="matrix(1 0 0 1 462.8793 878.8101)" class="st7 st2 st3">공급기업</text>
</g>
</svg>
