<svg id="레이어_1" data-name="레이어 1" xmlns="http://www.w3.org/2000/svg" viewBox="0 0 224.59 224.59"><defs><style>.cls-1{fill:#a7bbc7;}.cls-2{fill:#fff;}.cls-3{fill:none;stroke:#fff;stroke-linecap:round;stroke-linejoin:round;stroke-width:8px;}</style></defs><circle class="cls-1" cx="112.3" cy="112.3" r="112.3"/><path class="cls-2" d="M70.27,190.23l26.41-37.72a5,5,0,0,0-1.24-7L86.16,139a5,5,0,0,0-7,1.24L52.75,178Z"/><path class="cls-2" d="M43.57,191.08l-5.76,8.22a5,5,0,0,0,1.24,7l9.28,6.5a5,5,0,0,0,7-1.24l5.76-8.21Z"/><rect class="cls-2" x="53.83" y="179.96" width="6.18" height="21.38" transform="translate(-131.9 127.93) rotate(-55)"/><polyline class="cls-3" points="92.83 99.92 101.67 99.92 110.11 81.39 121.4 108.66 135.27 67.39 151.38 114.38 162.37 100.22 184.56 99.92"/><path class="cls-2" d="M174.54,109.34a51.36,51.36,0,1,1,2-18.34h11.14a62.28,62.28,0,1,0-1.63,18.34Z"/></svg>