<?xml version="1.0" encoding="utf-8"?>
<!-- Generator: Adobe Adobe Illustrator 24.2.0, SVG Export Plug-In . SVG Version: 6.00 Build 0)  -->
<svg version="1.1" id="레이어_1" xmlns="http://www.w3.org/2000/svg" xmlns:xlink="http://www.w3.org/1999/xlink" x="0px"
	 y="0px" width="1597px" height="946px" viewBox="0 0 1597 946" style="enable-background:new 0 0 1597 946;" xml:space="preserve">
<style type="text/css">
	.st0{opacity:0.149;}
	.st1{fill:url(#사각형_488-8_7_);stroke:#FFFFFF;stroke-miterlimit:10;}
	.st2{fill:url(#사각형_489-8_5_);stroke:#FFFFFF;stroke-miterlimit:10;}
	.st3{fill:#E7ECF0;}
	.st4{fill:#646B73;}
	.st5{font-family:'AdobeMyungjoStd-Medium-KSCpc-EUC-H';}
	.st6{font-size:35px;}
	.st7{fill:url(#사각형_488-8_8_);stroke:#FFFFFF;stroke-miterlimit:10;}
	.st8{fill:url(#사각형_489-8_7_);stroke:#FFFFFF;stroke-miterlimit:10;}
	.st9{fill:url(#사각형_488-8_9_);stroke:#FFFFFF;stroke-miterlimit:10;}
	.st10{fill:url(#사각형_489-8_8_);stroke:#FFFFFF;stroke-miterlimit:10;}
	.st11{fill:url(#사각형_488-11_2_);stroke:#FFFFFF;stroke-miterlimit:10;}
	.st12{fill:url(#사각형_488-11_3_);stroke:#FFFFFF;stroke-miterlimit:10;}
	.st13{fill:url(#사각형_488-8_10_);stroke:#FFFFFF;stroke-miterlimit:10;}
	.st14{fill:#5282F0;}
	.st15{enable-background:new    ;}
	.st16{font-family:'ArialMT';}
	.st17{fill:#9C83E9;}
	.st18{fill:#00958D;}
	.st19{fill:#1B85B4;}
	.st20{fill:url(#사각형_488-8_11_);stroke:#FFFFFF;stroke-miterlimit:10;}
	.st21{fill:url(#사각형_489-8_9_);stroke:#FFFFFF;stroke-miterlimit:10;}
	.st22{fill:url(#다각형_1-2_1_);stroke:#FFFFFF;stroke-miterlimit:10;}
	.st23{fill:#A7BBC7;}
	.st24{fill:none;stroke:#A7BBC7;stroke-width:2;}
	.st25{fill:none;stroke:#A7BBC7;stroke-width:10;stroke-dasharray:4,10;}
	.st26{opacity:0.7;fill:none;stroke:#A7BBC7;stroke-width:10;stroke-dasharray:4,10;enable-background:new    ;}
	.st27{fill:none;stroke:#A7BBC7;}
	.st28{opacity:0.53;}
	.st29{fill:#5B5B61;}
	.st30{fill:#8D68B0;}
	.st31{fill:#4BB69A;}
	.st32{fill:#5360AB;}
	.st33{fill:#5BAACF;}
</style>
<g id="data-voucher-img" transform="translate(-154 -50)">
	<g id="그룹_5475" transform="translate(3 -102)">
		<g class="st0">
			<g transform="matrix(1, 0, 0, 1, 3878, 2570)">
				
					<linearGradient id="사각형_488-8_7_" gradientUnits="userSpaceOnUse" x1="-3125.1321" y1="-2308.6172" x2="-2740.6394" y2="-2308.6172" gradientTransform="matrix(-1 0 0 -1 -5872.4258 -4651.5996)">
					<stop  offset="0" style="stop-color:#000000"/>
					<stop  offset="1" style="stop-color:#FFFFFF"/>
				</linearGradient>
				<path id="사각형_488-8_1_" class="st1" d="M-2772.1-2286h-334.8c-13.7,0-24.8-11.2-24.8-25v-64c0-13.8,11.1-25,24.8-25h334.8
					c13.7,0,24.8,11.2,24.8,25v64C-2747.3-2297.2-2758.4-2286-2772.1-2286z"/>
			</g>
			<g transform="matrix(1, 0, 0, 1, 3878, 2570)">
				
					<linearGradient id="사각형_489-8_5_" gradientUnits="userSpaceOnUse" x1="-2949.8354" y1="-2347.3884" x2="-2917.5674" y2="-2273.5776" gradientTransform="matrix(-1 0 0 -1 -5872.4258 -4651.5996)">
					<stop  offset="0" style="stop-color:#000000"/>
					<stop  offset="1" style="stop-color:#FFFFFF"/>
				</linearGradient>
				<path id="사각형_489-8_1_" class="st2" d="M-2772.1-2286h-334.8c-13.7,0-24.8-11.2-24.8-25v-64c0-13.8,11.1-25,24.8-25h334.8
					c13.7,0,24.8,11.2,24.8,25v64C-2747.3-2297.2-2758.4-2286-2772.1-2286z"/>
			</g>
		</g>
		<g>
			<g transform="matrix(1, 0, 0, 1, 3878, 2570)">
				<path id="사각형_488-8_2_" class="st3" d="M-3114.1-2406.2h337c13.8,0,25,11.2,25,25v64c0,13.8-11.2,25-25,25h-337
					c-13.8,0-25-11.2-25-25v-64C-3139.1-2395-3127.9-2406.2-3114.1-2406.2z"/>
			</g>
			<g transform="matrix(1, 0, 0, 1, 3878, 2570)">
				<path id="사각형_489-8_2_" class="st3" d="M-3114.1-2406.2h337c13.8,0,25,11.2,25,25v64c0,13.8-11.2,25-25,25h-337
					c-13.8,0-25-11.2-25-25v-64C-3139.1-2395-3127.9-2406.2-3114.1-2406.2z"/>
			</g>
		</g>
		<g id="그룹_5468" transform="translate(-193 -147)">
			<text transform="matrix(1 0 0 1 967.9475 380.6274)" class="st4 st5 st6">과학기술정보통신부</text>
		</g>
	</g>
	<g id="그룹_5469-2" transform="translate(-3724 -2317)">
		<g class="st0">
			<g transform="matrix(1, 0, 0, 1, 3878, 2570)">
				
					<linearGradient id="사각형_488-8_8_" gradientUnits="userSpaceOnUse" x1="601.8678" y1="-295.917" x2="985.0858" y2="-295.917" gradientTransform="matrix(-1 0 0 -1 1581.5741 -221.5996)">
					<stop  offset="0" style="stop-color:#000000"/>
					<stop  offset="1" style="stop-color:#FFFFFF"/>
				</linearGradient>
				<path id="사각형_488-8_4_" class="st7" d="M955,131.3H621.2c-13.7,0-24.8-11.2-24.8-25v-64c0-13.8,11.1-25,24.8-25H955
					c13.7,0,24.8,11.2,24.8,25v64C979.7,120.1,968.6,131.3,955,131.3z"/>
			</g>
			<g transform="matrix(1, 0, 0, 1, 3878, 2570)">
				
					<linearGradient id="사각형_489-8_7_" gradientUnits="userSpaceOnUse" x1="776.56" y1="-334.6129" x2="808.7656" y2="-260.9453" gradientTransform="matrix(-1 0 0 -1 1581.5741 -221.5996)">
					<stop  offset="0" style="stop-color:#000000"/>
					<stop  offset="1" style="stop-color:#FFFFFF"/>
				</linearGradient>
				<path id="사각형_489-8_4_" class="st8" d="M955,131.3H621.2c-13.7,0-24.8-11.2-24.8-25v-64c0-13.8,11.1-25,24.8-25H955
					c13.7,0,24.8,11.2,24.8,25v64C979.7,120.1,968.6,131.3,955,131.3z"/>
			</g>
		</g>
		<g class="st0">
			<g transform="matrix(1, 0, 0, 1, 3878, 2570)">
				
					<linearGradient id="사각형_488-8_9_" gradientUnits="userSpaceOnUse" x1="7.1226" y1="-323.417" x2="491.5256" y2="-323.417" gradientTransform="matrix(-1 0 0 -1 1581.5741 -221.5996)">
					<stop  offset="0" style="stop-color:#000000"/>
					<stop  offset="1" style="stop-color:#FFFFFF"/>
				</linearGradient>
				<path id="사각형_488-8_6_" class="st9" d="M1543.2,186.8h-421.8c-17.3,0-31.3-16.7-31.3-37.3V54.1c0-20.6,14-37.3,31.3-37.3
					h421.8c17.3,0,31.3,16.7,31.3,37.3v95.4C1574.5,170.1,1560.4,186.8,1543.2,186.8z"/>
			</g>
			<g transform="matrix(1, 0, 0, 1, 3878, 2570)">
				
					<linearGradient id="사각형_489-8_8_" gradientUnits="userSpaceOnUse" x1="226.3347" y1="-376.0034" x2="270.101" y2="-275.8916" gradientTransform="matrix(-1 0 0 -1 1581.5741 -221.5996)">
					<stop  offset="0" style="stop-color:#000000"/>
					<stop  offset="1" style="stop-color:#FFFFFF"/>
				</linearGradient>
				<path id="사각형_489-8_6_" class="st10" d="M1543.2,186.8h-421.8c-17.3,0-31.3-16.7-31.3-37.3V54.1c0-20.6,14-37.3,31.3-37.3
					h421.8c17.3,0,31.3,16.7,31.3,37.3v95.4C1574.5,170.1,1560.4,186.8,1543.2,186.8z"/>
			</g>
		</g>
		<g transform="matrix(1, 0, 0, 1, 3878, 2367)">
			<path id="사각형_489-9" class="st3" d="M612.9,214.8h337c13.8,0,25,11.2,25,25v64c0,13.8-11.2,25-25,25h-337
				c-13.8,0-25-11.2-25-25v-64C587.9,226,599.1,214.8,612.9,214.8z"/>
		</g>
	</g>
	<g id="그룹_5479" transform="translate(-4293.246 -1781)">
		<g transform="matrix(1, 0, 0, 1, 3391.25, 1831)" class="st0">
			
				<linearGradient id="사각형_488-11_2_" gradientUnits="userSpaceOnUse" x1="3274.4409" y1="706.5681" x2="3673.2224" y2="824.0024" gradientTransform="matrix(-1 0 0 -1 4787.1865 1602.7303)">
				<stop  offset="0" style="stop-color:#000000"/>
				<stop  offset="0.1492" style="stop-color:#030303"/>
				<stop  offset="0.2779" style="stop-color:#0E0E0E"/>
				<stop  offset="0.3991" style="stop-color:#202020"/>
				<stop  offset="0.5158" style="stop-color:#393939"/>
				<stop  offset="0.6292" style="stop-color:#595959"/>
				<stop  offset="0.7401" style="stop-color:#818181"/>
				<stop  offset="0.849" style="stop-color:#B0B0B0"/>
				<stop  offset="0.9537" style="stop-color:#E5E5E5"/>
				<stop  offset="1" style="stop-color:#FFFFFF"/>
			</linearGradient>
			<path id="사각형_488-11_1_" class="st11" d="M1557.2,924.7h-445.4c-13.7,0-24.8-15.9-24.8-35.5v-90.9
				c0-19.6,11.1-35.5,24.8-35.5h445.4c13.7,0,24.8,15.9,24.8,35.5v90.9C1582,908.8,1570.9,924.7,1557.2,924.7z"/>
		</g>
		<g transform="matrix(1, 0, 0, 1, 4447.25, 1831)">
			<path id="사각형_489-10" class="st3" d="M43.9,750.8h449c13.8,0,25,11.2,25,25v116c0,13.8-11.2,25-25,25h-449
				c-13.8,0-25-11.2-25-25v-116C18.9,762,30.1,750.8,43.9,750.8z"/>
		</g>
	</g>
	<g id="그룹_5480" transform="translate(-3237.246 -1781)">
		<g transform="matrix(1, 0, 0, 1, 3391.25, 1831)" class="st0">
			
				<linearGradient id="사각형_488-11_3_" gradientUnits="userSpaceOnUse" x1="1297.911" y1="740.7145" x2="1484.2758" y2="929.5621" gradientTransform="matrix(-1 0 0 -1 2675.1865 1602.7303)">
				<stop  offset="0" style="stop-color:#000000"/>
				<stop  offset="1" style="stop-color:#FFFFFF"/>
			</linearGradient>
			<path id="사각형_488-11" class="st12" d="M1553.4,870.2h-442.7c-13.6,0-24.6-10.6-24.6-23.7v-60.6c0-13.1,11-23.7,24.6-23.7
				h442.7c13.6,0,24.6,10.6,24.6,23.7v60.6C1578,859.6,1567,870.2,1553.4,870.2z"/>
		</g>
		<g transform="matrix(1, 0, 0, 1, 3391.25, 1831)">
			<path id="사각형_489-11" class="st3" d="M1099.9,750.8h449c13.8,0,25,11.2,25,25v64c0,13.8-11.2,25-25,25h-449
				c-13.8,0-25-11.2-25-25v-64C1074.9,762,1086.1,750.8,1099.9,750.8z"/>
		</g>
	</g>
	<g id="그룹_5477" transform="translate(-3237 -2317)">
		<g transform="matrix(1, 0, 0, 1, 3391, 2367)">
			<path id="사각형_488-12" class="st3" d="M1102.5,214.8h436.8c15.2,0,27.6,11.2,27.6,25v117c0,13.8-12.3,25-27.6,25h-436.8
				c-15.2,0-27.6-11.2-27.6-25v-117C1074.9,226,1087.3,214.8,1102.5,214.8z"/>
		</g>
	</g>
	<g id="그룹_5478" transform="translate(-4267 -2317)">
		<g class="st0">
			<g transform="matrix(1, 0, 0, 1, 3878, 2570)">
				
					<linearGradient id="사각형_488-8_10_" gradientUnits="userSpaceOnUse" x1="1628.5061" y1="-324.9168" x2="2068.5061" y2="-324.9168" gradientTransform="matrix(-1 0 0 -1 2667.5742 -221.5996)">
					<stop  offset="0" style="stop-color:#000000"/>
					<stop  offset="1" style="stop-color:#FFFFFF"/>
				</linearGradient>
				<path id="사각형_488-8_5_" class="st13" d="M1010.6,184.3H627.5c-15.7,0-28.4-15.9-28.4-35.5V57.8
					c0-19.6,12.7-35.5,28.4-35.5h383.2c15.7,0,28.4,15.9,28.4,35.5v90.9C1039.1,168.4,1026.3,184.3,1010.6,184.3z"/>
			</g>
		</g>
		<g transform="matrix(1, 0, 0, 1, 4421, 2367)">
			<path id="사각형_489-13" class="st3" d="M69.9,214.8h396c13.8,0,25,11.2,25,25v117c0,13.8-11.2,25-25,25h-396
				c-13.8,0-25-11.2-25-25v-117C44.9,226,56.1,214.8,69.9,214.8z"/>
		</g>
	</g>
	<text transform="matrix(1 0 0 1 760.4475 334.6274)" class="st14 st5 st6">한국데이터산업진흥원</text>
	<text transform="matrix(1 0 0 1 1308.7319 867.5347)" class="st15"><tspan x="0" y="0" class="st14 st5 st6">데이터</tspan><tspan x="105" y="0" class="st14 st16 st6"> </tspan><tspan x="114.7" y="0" class="st14 st5 st6">활용</tspan><tspan x="184.7" y="0" class="st14 st16 st6"> </tspan></text>
	<text transform="matrix(1 0 0 1 1498.4473 867.5347)" class="st15"><tspan x="0" y="0" class="st17 st5 st6">수요</tspan><tspan x="70" y="0" class="st17 st16 st6"> </tspan><tspan x="79.7" y="0" class="st17 st5 st6">기업</tspan></text>
	<text transform="matrix(1 0 0 1 1389.0034 332.0347)" class="st15"><tspan x="0" y="0" class="st18 st5 st6">전문기관</tspan><tspan x="140" y="0" class="st18 st16 st6">    </tspan></text>
	<text transform="matrix(1 0 0 1 1256.7825 376.8174)" class="st15"><tspan x="0" y="0" class="st18 st16 st6">(</tspan><tspan x="11.7" y="0" class="st18 st5 st6">수요선정</tspan><tspan x="151.7" y="0" class="st18 st16 st6"> </tspan><tspan x="161.4" y="0" class="st18 st5 st6">및</tspan><tspan x="196.4" y="0" class="st18 st16 st6"> </tspan><tspan x="206.1" y="0" class="st18 st5 st6">후속관리</tspan><tspan x="346.1" y="0" class="st18 st16 st6"> </tspan><tspan x="355.8" y="0" class="st18 st5 st6">협력</tspan><tspan x="425.8" y="0" class="st18 st16 st6">)</tspan></text>
	<text transform="matrix(1 0 0 1 254.2621 336.0347)" class="st15"><tspan x="0" y="0" class="st19 st5 st6">데이터</tspan><tspan x="105" y="0" class="st19 st16 st6"> </tspan><tspan x="114.7" y="0" class="st19 st5 st6">판매</tspan><tspan x="184.7" y="0" class="st19 st16 st6">·</tspan><tspan x="196.4" y="0" class="st19 st5 st6">가공사업</tspan></text>
	<text transform="matrix(1 0 0 1 324.7234 388.5347)" class="st15"><tspan x="0" y="0" class="st19 st5 st6">지정</tspan><tspan x="70" y="0" class="st19 st16 st6"> </tspan><tspan x="79.7" y="0" class="st19 st5 st6">및</tspan><tspan x="114.7" y="0" class="st19 st16 st6"> </tspan><tspan x="124.4" y="0" class="st19 st5 st6">관리</tspan></text>
	<g id="그룹_5476" transform="translate(3 -102)">
		<g class="st0">
			<g transform="matrix(1, 0, 0, 1, 3878, 2570)">
				
					<linearGradient id="사각형_488-8_11_" gradientUnits="userSpaceOnUse" x1="-3644.5264" y1="-2309.1172" x2="-3229.5264" y2="-2309.1172" gradientTransform="matrix(-1 0 0 -1 -5872.4258 -4651.5996)">
					<stop  offset="0" style="stop-color:#000000"/>
					<stop  offset="1" style="stop-color:#FFFFFF"/>
				</linearGradient>
				<path id="사각형_488-8_3_" class="st20" d="M-2254.7-2285.5h-361.4c-14.8,0-26.8-11.2-26.8-25v-64c0-13.8,12-25,26.8-25
					h361.4c14.8,0,26.8,11.2,26.8,25v64C-2227.9-2296.7-2239.9-2285.5-2254.7-2285.5z"/>
			</g>
			<g transform="matrix(1, 0, 0, 1, 3878, 2570)">
				
					<linearGradient id="사각형_489-8_9_" gradientUnits="userSpaceOnUse" x1="-3454.7644" y1="-2349.6919" x2="-3420.9954" y2="-2272.4478" gradientTransform="matrix(-1 0 0 -1 -5872.4258 -4651.5996)">
					<stop  offset="0" style="stop-color:#000000"/>
					<stop  offset="1" style="stop-color:#FFFFFF"/>
				</linearGradient>
				<path id="사각형_489-8_3_" class="st21" d="M-2254.7-2285.5h-361.4c-14.8,0-26.8-11.2-26.8-25v-64c0-13.8,12-25,26.8-25
					h361.4c14.8,0,26.8,11.2,26.8,25v64C-2227.9-2296.7-2239.9-2285.5-2254.7-2285.5z"/>
			</g>
		</g>
		<g id="그룹_5473" transform="translate(-3188 -2415)">
			<g id="그룹_5470" transform="translate(-52 -3)">
				<g transform="matrix(1, 0, 0, 1, 3391, 2570)">
					<path id="사각형_488-14" class="st3" d="M1102,11.8h365.1c15,0,27.1,11.2,27.1,25v64c0,13.8-12.1,25-27.1,25H1102
						c-15,0-27.1-11.2-27.1-25v-64C1074.9,23,1087.1,11.8,1102,11.8z"/>
				</g>
				<g transform="matrix(1, 0, 0, 1, 3391, 2570)">
					<path id="사각형_489-14" class="st3" d="M1102,11.8h365.1c15,0,27.1,11.2,27.1,25v64c0,13.8-12.1,25-27.1,25H1102
						c-15,0-27.1-11.2-27.1-25v-64C1074.9,23,1087.1,11.8,1102,11.8z"/>
				</g>
			</g>
		</g>
		<g id="그룹_5474" transform="translate(309 -217)">
			<text transform="matrix(1 0 0 1 988.5076 447.5347)" class="st15"><tspan x="0" y="0" class="st4 st5 st6">정부부처</tspan><tspan x="140" y="0" class="st4 st16 st6"> · </tspan><tspan x="171.1" y="0" class="st4 st5 st6">지자체</tspan></text>
		</g>
	</g>
	<g id="그룹_5481" transform="translate(-3973 -3551)">
		<g transform="matrix(1, 0, 0, 1, 4127, 3601)" class="st0">
			<linearGradient id="다각형_1-2_1_" gradientUnits="userSpaceOnUse" x1="832.8862" y1="592.4828" x2="657.4399" y2="514.2066">
				<stop  offset="0" style="stop-color:#000000"/>
				<stop  offset="1" style="stop-color:#FFFFFF"/>
			</linearGradient>
			<path id="다각형_1-2" class="st22" d="M791.5,385.6l172.5,300H619L791.5,385.6z"/>
		</g>
		<g transform="matrix(1, 0, 0, 1, 4127, 3601)">
			<path id="다각형_2-2" class="st3" d="M781.4,380.8l172.5,300h-345L781.4,380.8z"/>
		</g>
	</g>
	<text transform="matrix(1 0 0 1 909.3475 603.8174)" class="st15"><tspan x="0" y="0" class="st4 st16 st6">3</tspan><tspan x="19.5" y="0" class="st4 st5 st6">자</tspan></text>
	<text transform="matrix(1 0 0 1 867.8725 653.8174)" class="st15"><tspan x="0" y="0" class="st4 st5 st6">협약</tspan><tspan x="70" y="0" class="st4 st16 st6"> </tspan><tspan x="79.7" y="0" class="st4 st5 st6">체결</tspan></text>
	<text transform="matrix(1 0 0 1 728.6345 857.8174)" class="st15"><tspan x="0" y="0" class="st23 st5 st6">데이터</tspan><tspan x="105" y="0" class="st23 st16 st6"> </tspan><tspan x="114.7" y="0" class="st23 st5 st6">구매</tspan><tspan x="184.7" y="0" class="st23 st16 st6"> ·</tspan><tspan x="206.1" y="0" class="st23 st5 st6">가공</tspan><tspan x="276.1" y="0" class="st23 st16 st6"> </tspan><tspan x="285.8" y="0" class="st23 st5 st6">서비스</tspan><tspan x="390.8" y="0" class="st23 st16 st6"> </tspan><tspan x="400.6" y="0" class="st23 st5 st6">협의</tspan><tspan x="470.6" y="0" class="st23 st16 st6">  </tspan></text>
	<text transform="matrix(1 0 0 1 737.3845 972.8174)" class="st15"><tspan x="0" y="0" class="st23 st5 st6">데이터</tspan><tspan x="105" y="0" class="st23 st16 st6"> </tspan><tspan x="114.7" y="0" class="st23 st5 st6">판매</tspan><tspan x="184.7" y="0" class="st23 st16 st6">·</tspan><tspan x="196.4" y="0" class="st23 st5 st6">가공</tspan><tspan x="266.4" y="0" class="st23 st16 st6"> </tspan><tspan x="276.1" y="0" class="st23 st5 st6">서비스</tspan><tspan x="381.1" y="0" class="st23 st16 st6"> </tspan><tspan x="390.8" y="0" class="st23 st5 st6">제공</tspan></text>
	<line id="선_28" class="st24" x1="1136.4" y1="121.3" x2="1225.4" y2="121.3"/>
	<line id="선_29" class="st24" x1="1136.4" y1="322.3" x2="1225.4" y2="322.3"/>
	<path id="패스_6286" class="st25" d="M654.4,324.3h77"/>
	<path id="패스_6285" class="st26" d="M422.4,449.8v335.5"/>
	<line id="선_30" class="st24" x1="1442.9" y1="193.3" x2="1442.9" y2="244.3"/>
	<line id="선_33" class="st24" x1="935.4" y1="194.3" x2="935.4" y2="245.3"/>
	<path id="다각형_4" class="st23" d="M1253.8,737.4l-13.8-8.4l14-7.8L1253.8,737.4z"/>
	<g id="그룹_5497">
		<line id="선_32" class="st27" x1="809.8" y1="426.1" x2="628.8" y2="745.1"/>
		<g id="그룹_5482" transform="translate(612.888 416.784)">
			<line id="선_31" class="st27" x1="178.9" y1="-0.2" x2="-2.1" y2="318.8"/>
			<path id="다각형_3" class="st23" d="M180.3-4.3l0.2,16.1l-14-7.8L180.3-4.3z"/>
		</g>
	</g>
	<path id="다각형_4-2" class="st23" d="M625.4,751.7l-0.2-16.1l14,7.8L625.4,751.7z"/>
	<g id="그룹_5494">
		<line id="선_32-2" class="st27" x1="1069.4" y1="411.8" x2="1250.4" y2="730.8"/>
		<g id="그룹_5482-2" transform="translate(3 -102)">
			<line id="선_31-2" class="st27" x1="1084.4" y1="504.3" x2="1265.4" y2="823.3"/>
			<path id="다각형_3-2" class="st23" d="M1083.1,500.2l13.8,8.4l-14,7.8L1083.1,500.2z"/>
		</g>
	</g>
	<text transform="matrix(0.5 0.866 -0.866 0.5 1049.9457 465.0869)" class="st15"><tspan x="0" y="0" class="st23 st5 st6">수요기업</tspan><tspan x="140" y="0" class="st23 st16 st6"> </tspan><tspan x="149.7" y="0" class="st23 st5 st6">선정</tspan><tspan x="219.7" y="0" class="st23 st16 st6">·</tspan><tspan x="231.4" y="0" class="st23 st5 st6">지원</tspan></text>
	<text transform="matrix(0.5 0.866 -0.866 0.5 1126.6918 427.2958)" class="st15"><tspan x="0" y="0" class="st23 st5 st6">데이터구매</tspan><tspan x="175" y="0" class="st23 st16 st6">·</tspan><tspan x="186.7" y="0" class="st23 st5 st6">가공</tspan><tspan x="256.7" y="0" class="st23 st16 st6"> </tspan><tspan x="266.4" y="0" class="st23 st5 st6">신청</tspan></text>
	<text transform="matrix(0.5 -0.866 0.866 0.5 595.0057 715.2318)" class="st15"><tspan x="0" y="0" class="st23 st5 st6">데이터구매</tspan><tspan x="175" y="0" class="st23 st16 st6">·</tspan><tspan x="186.7" y="0" class="st23 st5 st6">가공</tspan><tspan x="256.7" y="0" class="st23 st16 st6"> </tspan><tspan x="266.4" y="0" class="st23 st5 st6">신청</tspan></text>
	<text transform="matrix(0.5 -0.866 0.866 0.5 693.9481 713.2845)" class="st15"><tspan x="0" y="0" class="st23 st5 st6">데이터비용</tspan><tspan x="175" y="0" class="st23 st16 st6"> </tspan><tspan x="184.7" y="0" class="st23 st5 st6">지급</tspan></text>
	<g id="그룹_5493">
		<line id="선_32-3" class="st27" x1="1176.4" y1="879.2" x2="709.9" y2="879.2"/>
		<path id="다각형_4-3" class="st23" d="M702.4,879.6l13.9-8.2l0.3,16L702.4,879.6z"/>
	</g>
	<g id="그룹_5498" transform="translate(1882.833 1810.992) rotate(180)">
		<line id="선_32-4" class="st27" x1="1180.6" y1="895.6" x2="714" y2="895.6"/>
		<path id="다각형_4-4" class="st23" d="M706.5,895.9l13.9-8.2l0.3,16L706.5,895.9z"/>
	</g>
	<text transform="matrix(1 0 0 1 1106.8575 221.8174)" class="st15"><tspan x="0" y="0" class="st23 st5 st6">부처</tspan><tspan x="70" y="0" class="st23 st16 st6">·</tspan><tspan x="81.7" y="0" class="st23 st5 st6">지역</tspan></text>
	<text transform="matrix(1 0 0 1 1146.6696 261.8174)" class="st23 st5 st6">협력</text>
	<g id="그룹_5492" transform="translate(141.671 839.6)" class="st28">
		<g id="그룹_5491" transform="translate(158.648 63.374)">
			<g id="그룹_5489" transform="translate(49.923)">
				<path id="패스_6273" class="st29" d="M2.6,29.9h-5.2v-36h13.7c1.7,0,3.5,0.2,5.1,0.7c1.4,0.4,2.7,1.1,3.8,2
					c1,0.8,1.8,1.9,2.3,3.1c0.5,1.2,0.8,2.6,0.8,3.9V5c0,1.9-0.5,3.8-1.7,5.4c-1.2,1.6-2.8,2.8-4.7,3.5l7.5,16h-5.6l-6.8-15H2.6
					L2.6,29.9z M2.6,10.7h7.2c2.9,0,5-0.5,6.3-1.6c1.2-1,1.9-2.6,1.9-4.2v-1c0.1-1.6-0.6-3.1-1.8-4.2c-1.2-1-3.1-1.5-5.8-1.5H2.6
					L2.6,10.7z"/>
				<path id="패스_6274" class="st29" d="M51.9,26.9c-1.3,0.9-2.8,1.6-4.3,2.1c-2,0.6-4.1,0.9-6.2,0.9c-1.6,0-3.2-0.2-4.7-0.7
					c-1.4-0.5-2.7-1.2-3.8-2.2c-1.1-1.1-2-2.4-2.5-3.9c-0.7-1.7-1-3.5-0.9-5.3v-3.1c0-1.8,0.3-3.7,0.9-5.4c0.5-1.5,1.4-2.8,2.4-3.9
					c1.1-1.1,2.3-1.9,3.7-2.4c1.5-0.5,3.1-0.8,4.7-0.8c3.1-0.2,6.1,1,8.3,3.2c2.1,2.1,3.1,5.1,3.1,9v3.6H34.2v0.2
					c-0.2,2,0.6,4,2,5.5c1.4,1.4,3.4,2.1,5.3,2c1.6,0,3.1-0.2,4.6-0.6c1.3-0.4,2.5-1,3.7-1.8L51.9,26.9z M41.1,6.2
					c-0.9,0-1.9,0.2-2.8,0.5c-0.8,0.3-1.6,0.8-2.2,1.4c-0.6,0.6-1.1,1.4-1.4,2.2c-0.4,0.9-0.5,1.9-0.5,2.9V14h13.7v-0.9
					c0.1-1.8-0.6-3.6-1.8-5C44.8,6.8,43,6.1,41.1,6.2z"/>
				<path id="패스_6275" class="st29" d="M66.4,29.8c-2.4,0.1-4.7-0.6-6.6-2c-1.6-1.4-2.5-3.5-2.4-5.6v-1.3
					c-0.1-2.1,0.8-4.2,2.3-5.7c1.6-1.5,4.1-2.2,7.6-2.2h6.9v-1.6c0.1-1.4-0.4-2.7-1.3-3.6c-1.2-1-2.8-1.5-4.3-1.3
					c-1.4,0-2.8,0.2-4.2,0.7c-1.3,0.6-2.5,1.2-3.7,2l-2.4-3.6c1.4-1,2.9-1.8,4.5-2.4c1.8-0.7,3.8-1.1,5.8-1c1.4,0,2.8,0.2,4.2,0.6
					c1.2,0.3,2.3,0.9,3.3,1.7c0.9,0.7,1.6,1.7,2.1,2.7c0.5,1.1,0.8,2.4,0.8,3.7v19.1h-4.6v-3.7h0c-0.3,0.5-0.6,1-1.1,1.4
					c-0.4,0.4-0.9,0.8-1.5,1.1c-0.7,0.4-1.5,0.7-2.4,0.9C68.5,29.8,67.5,29.9,66.4,29.8z M74.3,17h-6.8c-1.4-0.1-2.9,0.3-4.1,1.1
					c-0.8,0.8-1.3,1.9-1.2,3v0.7c-0.1,1.1,0.4,2.3,1.4,2.9c1,0.6,2.2,0.9,3.3,0.9c1.1,0,2.1-0.1,3.1-0.4c0.9-0.3,1.7-0.7,2.4-1.3
					c0.6-0.4,1.1-1,1.4-1.7c0.3-0.8,0.5-1.7,0.4-2.5L74.3,17z"/>
				<path id="패스_6276" class="st29" d="M91.2-6.2v36.1h-4.8V-6.2H91.2z"/>
				<path id="패스_6277" class="st29" d="M116.2,26.1c-0.7,1.3-1.9,2.4-3.3,2.9c-1.5,0.6-3.1,0.9-4.7,0.8c-3.5,0-6.1-1-7.9-3
					s-2.7-4.9-2.7-8.6v-4.4c0-1.7,0.2-3.4,0.8-4.9c0.5-1.4,1.2-2.6,2.2-3.7c1-1,2.1-1.8,3.4-2.3c1.4-0.5,2.9-0.8,4.4-0.8
					c1.7-0.1,3.4,0.3,5,1.1c1,0.6,1.9,1.3,2.7,2.3V-6.2h4.8v36.1h-4.6L116.2,26.1L116.2,26.1z M116.1,12.1c0-0.7-0.2-1.4-0.5-2.1
					c-0.4-0.7-0.9-1.4-1.5-1.9c-0.7-0.6-1.5-1-2.3-1.3c-0.9-0.3-1.9-0.5-2.9-0.5c-1.9-0.1-3.6,0.7-4.8,2.1c-1.2,1.8-1.9,3.9-1.7,6
					v2.9c-0.1,2.2,0.5,4.3,1.7,6c1.2,1.4,2.9,2.2,4.8,2.1c1,0,1.9-0.2,2.8-0.5c1.7-0.6,3.1-1.9,3.8-3.5c0.4-0.9,0.6-1.9,0.6-2.9
					L116.1,12.1z"/>
				<path id="패스_6278" class="st29" d="M136.3,29.8c-2.4,0.1-4.7-0.6-6.6-2c-1.6-1.4-2.5-3.5-2.4-5.6v-1.3
					c-0.1-2.1,0.8-4.2,2.3-5.7c1.6-1.5,4.1-2.2,7.6-2.2h6.9v-1.6c0.1-1.4-0.4-2.7-1.3-3.6c-1.2-1-2.8-1.5-4.3-1.3
					c-1.4,0-2.8,0.2-4.2,0.7c-1.3,0.6-2.5,1.2-3.7,2l-2.4-3.6c1.4-1,2.9-1.8,4.5-2.4c1.8-0.7,3.8-1.1,5.8-1c1.4,0,2.8,0.2,4.2,0.6
					c1.2,0.3,2.3,0.9,3.3,1.7c0.9,0.7,1.6,1.7,2.1,2.7c0.5,1.1,0.8,2.4,0.8,3.7v19.1h-4.6v-3.7h-0.1c-0.3,0.5-0.6,1-1.1,1.4
					c-0.4,0.4-0.9,0.8-1.5,1.1c-0.7,0.4-1.5,0.7-2.4,0.9C138.4,29.8,137.3,29.9,136.3,29.8z M144.2,17h-6.8
					c-1.4-0.1-2.9,0.3-4.1,1.1c-0.8,0.8-1.3,1.9-1.2,3v0.7c-0.1,1.1,0.4,2.3,1.4,2.9c1,0.6,2.2,0.9,3.3,0.9c1.1,0,2.1-0.1,3.1-0.4
					c0.9-0.3,1.7-0.7,2.4-1.3c0.6-0.4,1.1-1,1.4-1.7c0.3-0.8,0.5-1.7,0.4-2.5L144.2,17z"/>
				<path id="패스_6279" class="st29" d="M157.9,6.7h-4.5V2.6h4.5v-6.9h4.8v6.9h7.2v4.1h-7.2v15.1c0,0.7,0.1,1.4,0.3,2
					c0.1,0.5,0.4,0.9,0.7,1.2c0.3,0.3,0.7,0.5,1.1,0.5c0.5,0.1,0.9,0.2,1.4,0.2c1.2,0,2.4-0.2,3.6-0.6l0.7,3.9
					c-0.7,0.3-1.5,0.5-2.2,0.6c-0.9,0.2-1.9,0.3-2.8,0.3c-2.6,0-4.5-0.6-5.7-1.9c-1.2-1.3-1.8-3.3-1.8-6.1V6.7z"/>
				<path id="패스_6280" class="st29" d="M183.2,29.8c-2.4,0.1-4.7-0.6-6.6-2c-1.6-1.4-2.5-3.5-2.4-5.6v-1.3
					c-0.1-2.1,0.8-4.2,2.3-5.7c1.6-1.5,4.1-2.2,7.6-2.2h6.9v-1.2c0.1-1.5-0.4-2.9-1.3-4.1c-1.2-1-2.8-1.5-4.3-1.3
					c-1.4,0-2.8,0.2-4.2,0.7c-1.3,0.6-2.5,1.2-3.7,2l-2.4-3.6c1.4-1,2.9-1.8,4.5-2.4c1.8-0.7,3.8-1.1,5.8-1c1.4,0,2.8,0.2,4.2,0.6
					c1.2,0.3,2.3,0.9,3.3,1.7c0.9,0.7,1.6,1.7,2.1,2.7c0.5,1.1,0.8,2.4,0.8,3.7v19.1h-4.6v-3.7h-0.1c-0.3,0.5-0.6,1-1.1,1.4
					c-0.4,0.4-0.9,0.8-1.5,1.1c-0.7,0.4-1.5,0.7-2.4,0.9C185.3,29.8,184.3,29.9,183.2,29.8z M191.1,17h-6.8
					c-1.4-0.1-2.9,0.3-4.1,1.1c-0.8,0.8-1.3,1.9-1.2,3v0.7c-0.1,1.1,0.4,2.3,1.4,2.9c1,0.6,2.2,0.9,3.3,0.9c1.1,0,2.1-0.1,3.1-0.4
					c0.9-0.3,1.7-0.7,2.4-1.3c0.6-0.4,1.1-1,1.4-1.7c0.3-0.8,0.5-1.7,0.4-2.5L191.1,17z"/>
			</g>
			<path id="패스_6281" class="st30" d="M1.8-6.2c-2.4,0-4.4,2-4.4,4.4v12.4h16.8V-6.2H1.8z"/>
			<path id="패스_6282" class="st31" d="M-2.6,13.1v12.4c0,2.4,2,4.4,4.4,4.4h12.4V13.1H-2.6z"/>
			<path id="패스_6283" class="st32" d="M21.3-6.2h-4.6v16.8h4.6c4.6,0,8.4-3.8,8.4-8.4C29.7-2.4,26-6.2,21.3-6.2z"/>
			<g id="그룹_5490" transform="translate(19.28 19.327)">
				<path id="패스_6284" class="st33" d="M-2.6-6.2v16.7h16.7C13.5,1.6,6.4-5.6-2.6-6.2z"/>
			</g>
		</g>
	</g>
	<text transform="matrix(1 0 0 1 243.0681 867.5347)" class="st15"><tspan x="0" y="0" class="st14 st5 st6">데이터</tspan><tspan x="105" y="0" class="st14 st16 st6"> (</tspan><tspan x="126.4" y="0" class="st14 st5 st6">가공</tspan><tspan x="196.4" y="0" class="st14 st16 st6">) </tspan></text>
	<text transform="matrix(1 0 0 1 460.8268 870.6274)" class="st17 st5 st6">공급기업</text>
</g>
</svg>
