<?xml version="1.0" encoding="utf-8"?>
<!-- Generator: Adobe Illustrator 25.2.3, SVG Export Plug-In . SVG Version: 6.00 Build 0)  -->
<svg version="1.1" id="레이어_1" xmlns="http://www.w3.org/2000/svg" xmlns:xlink="http://www.w3.org/1999/xlink" x="0px"
	 y="0px" viewBox="0 0 580.74 530.45" style="enable-background:new 0 0 580.74 530.45;" xml:space="preserve">
<style type="text/css">
	.st0{fill:#F0F0F0;}
	.st1{fill:#E0E0E0;}
	.st2{fill:#FAFAFA;}
	.st3{fill:#FFFFFF;}
	.st4{fill:#37474F;}
	.st5{fill:#455A64;}
	.st6{fill:#2E353A;}
	.st7{fill:#EBEBEB;}
	.st8{fill:#03C1B7;}
	.st9{opacity:0.3;fill:#BA68C8;enable-background:new    ;}
	.st10{opacity:0.3;enable-background:new    ;}
	.st11{fill:#8C5656;}
	.st12{fill:#F5F5F5;}
	.st13{opacity:0.1;enable-background:new    ;}
	.st14{fill:#263238;}
	.st15{fill:url(#패스_4153_1_);}
	.st16{fill:url(#패스_4154_1_);}
	.st17{fill:#703838;}
	.st18{fill:#BA68C8;}
	.st19{opacity:0.2;enable-background:new    ;}
	.st20{fill:#E6E6E6;}
	.st21{opacity:0.3;fill:#FFFFFF;enable-background:new    ;}
	.st22{fill:#784141;}
	.st23{opacity:0.4;enable-background:new    ;}
	.st24{opacity:0.2;fill:#FFFFFF;enable-background:new    ;}
	.st25{opacity:0.4;fill:#FFFFFF;enable-background:new    ;}
	.st26{fill:#F28F8F;}
	.st27{fill:#01605B;}
	.st28{fill:#FFA8A7;}
	.st29{opacity:0.5;enable-background:new    ;}
	.st30{fill:#FF9192;}
	.st31{opacity:0.85;fill:#FFFFFF;enable-background:new    ;}
	.st32{opacity:0.77;fill:#00958D;enable-background:new    ;}
	.st33{opacity:0.6;fill:#FFFFFF;enable-background:new    ;}
	.st34{opacity:0.37;enable-background:new    ;}
	.st35{fill:#D99280;}
	.st36{fill:#B06553;}
	.st37{fill:#00958D;}
	.st38{fill:none;}
</style>
<g id="그룹_5518" transform="translate(-19.795 -45.56)">
	<g id="Floor" transform="translate(-1.458 -0.043)">
		<g id="그룹_4722">
			<path id="패스_4065" class="st0" d="M453.66,284.12c89.62,51.74,90.09,135.63,1.05,187.38s-233.87,51.74-323.49,0
				s-90.1-135.64-1.06-187.38S364.03,232.38,453.66,284.12z"/>
		</g>
	</g>
	<g id="Shadows">
		<g id="그룹_4723">
			<path id="패스_4066" class="st1" d="M253.4,395.41c19.73,11.39,19.84,29.86,0.23,41.26s-51.49,11.39-71.23,0
				s-19.84-29.86-0.23-41.26S233.66,384.02,253.4,395.41z"/>
		</g>
		<g id="그룹_4724">
			<path id="패스_4067" class="st1" d="M170.57,292.17c12.94,7.47,13.01,19.58,0.15,27.05s-33.76,7.47-46.7,0
				s-13.01-19.58-0.15-27.05S157.63,284.7,170.57,292.17z"/>
		</g>
		<g id="그룹_4725">
			<path id="패스_4068" class="st1" d="M323.87,356.71c19.73,11.39,19.84,29.86,0.23,41.26s-51.49,11.39-71.23,0
				s-19.84-29.86-0.24-41.26S304.13,345.31,323.87,356.71z"/>
		</g>
		<g id="그룹_4726">
			<path id="패스_4069" class="st1" d="M394.34,318c19.73,11.39,19.84,29.86,0.23,41.26s-51.49,11.39-71.23,0
				s-19.84-29.86-0.23-41.26S374.6,306.61,394.34,318z"/>
		</g>
		<g id="그룹_4727">
			<path id="패스_4070" class="st1" d="M343.97,445.4c19.73,11.39,19.84,29.86,0.23,41.26s-51.49,11.39-71.23,0
				c-19.73-11.39-19.84-29.86-0.23-41.26S324.24,434.01,343.97,445.4z"/>
		</g>
		<g id="그룹_4728">
			<path id="패스_4071" class="st1" d="M412.63,406.32c19.73,11.39,19.84,29.86,0.23,41.26s-51.49,11.39-71.23,0
				s-19.84-29.86-0.23-41.26S392.89,394.92,412.63,406.32z"/>
		</g>
		<g id="그룹_4729">
			<path id="패스_4072" class="st1" d="M476.29,371.13c19.73,11.39,19.84,29.86,0.23,41.26s-51.49,11.39-71.23,0
				s-19.84-29.86-0.23-41.26S456.55,359.73,476.29,371.13z"/>
		</g>
		<path id="패스_4073" class="st1" d="M250.06,306.36l-42.81-25.16l-74.02,42.26l42.81,25.16L250.06,306.36z"/>
	</g>
	<g id="Wndows">
		<g id="그룹_4730">
			<path id="패스_4074" class="st2" d="M330.8,178.29l-1.06,0.77l71.4,41.23l2.12-0.14L330.8,178.29z"/>
			<path id="패스_4075" class="st3" d="M330.8,84.54l70.34,40.62v93.76l-70.34-40.63V84.54z"/>
			<path id="패스_4076" class="st0" d="M327.62,180.29l75.65,43.68V123.93l-75.65-43.68V180.29z M329.75,83.94l71.4,41.22v95.13
				l-71.4-41.23V83.94z"/>
			<path id="패스_4077" class="st1" d="M329.75,83.94l1.06,0.6v93.75l-1.06,0.77V83.94z"/>
			<path id="패스_4078" class="st2" d="M403.27,123.93l1.07-0.61l-75.66-43.68l-1.06,0.61L403.27,123.93z"/>
			<path id="패스_4079" class="st1" d="M404.34,223.35l-1.07,0.62V123.93l1.07-0.61V223.35z"/>
			<path id="패스_4080" class="st2" d="M401.15,173.14l-71.4-41.22l1.07-0.64l70.33,40.65L401.15,173.14z"/>
			<path id="패스_4081" class="st0" d="M401.15,173.14v2.38l-71.4-41.23v-2.37L401.15,173.14z"/>
			<path id="패스_4082" class="st0" d="M401.15,129.77l-70.9-40.97l0.57-2.49l70.33,40.62V129.77z"/>
			<path id="패스_4083" class="st1" d="M330.81,86.32l-0.23,0.99l70.56,40.77v-1.14L330.81,86.32z"/>
			<path id="패스_4084" class="st0" d="M401.15,133.74l-70.9-40.96l0.57-2.49l70.33,40.61L401.15,133.74z"/>
			<path id="패스_4085" class="st1" d="M330.81,90.29l-0.23,0.98l70.56,40.77v-1.14L330.81,90.29z"/>
			<path id="패스_4086" class="st0" d="M401.15,137.7l-70.9-40.96l0.57-2.49l70.33,40.62L401.15,137.7z"/>
			<path id="패스_4087" class="st1" d="M330.81,94.25l-0.23,0.99L401.15,136v-1.13L330.81,94.25z"/>
			<path id="패스_4088" class="st0" d="M401.15,141.67l-70.9-40.97l0.57-2.49l70.33,40.62L401.15,141.67z"/>
			<path id="패스_4089" class="st1" d="M330.81,98.21l-0.23,0.99l70.56,40.76v-1.13L330.81,98.21z"/>
			<path id="패스_4090" class="st0" d="M401.15,145.63l-70.9-40.97l0.57-2.49l70.33,40.62L401.15,145.63z"/>
			<path id="패스_4091" class="st1" d="M330.81,102.18l-0.23,0.99l70.56,40.77v-1.14L330.81,102.18z"/>
			<path id="패스_4092" class="st0" d="M401.15,149.59l-70.9-40.96l0.57-2.49l70.33,40.61L401.15,149.59z"/>
			<path id="패스_4093" class="st1" d="M330.81,106.15l-0.23,0.98l70.56,40.77v-1.14L330.81,106.15z"/>
			<path id="패스_4094" class="st0" d="M401.15,153.55l-70.9-40.96l0.57-2.49l70.33,40.62L401.15,153.55z"/>
			<path id="패스_4095" class="st1" d="M330.81,110.11l-0.23,0.99l70.56,40.76v-1.13L330.81,110.11z"/>
			<path id="패스_4096" class="st0" d="M401.15,157.52l-70.9-40.97l0.57-2.49l70.33,40.62V157.52z"/>
			<path id="패스_4097" class="st1" d="M330.81,114.07l-0.23,0.99l70.56,40.76v-1.14L330.81,114.07z"/>
			<path id="패스_4098" class="st0" d="M401.15,161.49l-70.9-40.97l0.57-2.49l70.33,40.62L401.15,161.49z"/>
			<path id="패스_4099" class="st1" d="M330.81,118.03l-0.23,0.99l70.56,40.77v-1.14L330.81,118.03z"/>
			<path id="패스_4100" class="st0" d="M401.15,165.45l-70.9-40.96l0.57-2.49l70.33,40.61L401.15,165.45z"/>
			<path id="패스_4101" class="st1" d="M330.81,122l-0.23,0.98l70.56,40.77v-1.14L330.81,122z"/>
		</g>
		<g id="그룹_4731">
			<path id="패스_4102" class="st2" d="M424,230.03l-1.06,0.77l71.4,41.23l2.12-0.14L424,230.03z"/>
			<path id="패스_4103" class="st3" d="M424,136.28l70.34,40.62v93.76L424,230.03V136.28z"/>
			<path id="패스_4104" class="st0" d="M420.82,232.02l75.65,43.68V175.67l-75.65-43.68V232.02z M422.94,135.67l71.4,41.22v95.13
				l-71.4-41.23V135.67z"/>
			<path id="패스_4105" class="st1" d="M422.94,135.67l1.06,0.6v93.75l-1.06,0.77V135.67z"/>
			<path id="패스_4106" class="st2" d="M496.47,175.67l1.07-0.61l-75.66-43.68l-1.06,0.61L496.47,175.67z"/>
			<path id="패스_4107" class="st1" d="M497.54,275.09l-1.07,0.62V175.67l1.07-0.61V275.09z"/>
			<path id="패스_4108" class="st2" d="M494.34,224.88l-71.4-41.22l1.07-0.64l70.33,40.65L494.34,224.88z"/>
			<path id="패스_4109" class="st0" d="M494.34,224.88v2.38l-71.4-41.23v-2.37L494.34,224.88z"/>
			<path id="패스_4110" class="st0" d="M494.34,181.51l-70.9-40.97l0.57-2.49l70.33,40.62L494.34,181.51z"/>
			<path id="패스_4111" class="st1" d="M424.01,138.05l-0.23,0.99l70.56,40.77v-1.14L424.01,138.05z"/>
			<path id="패스_4112" class="st0" d="M494.34,185.47l-70.9-40.96l0.57-2.49l70.33,40.61L494.34,185.47z"/>
			<path id="패스_4113" class="st1" d="M424.01,142.02l-0.23,0.98l70.56,40.77v-1.14L424.01,142.02z"/>
			<path id="패스_4114" class="st0" d="M494.34,189.43l-70.9-40.96l0.57-2.49l70.33,40.62L494.34,189.43z"/>
			<path id="패스_4115" class="st1" d="M424.01,145.99l-0.23,0.99l70.56,40.76v-1.13L424.01,145.99z"/>
			<path id="패스_4116" class="st0" d="M494.34,193.4l-70.9-40.97l0.57-2.49l70.33,40.62L494.34,193.4z"/>
			<path id="패스_4117" class="st1" d="M424.01,149.95l-0.23,0.99l70.56,40.76v-1.13L424.01,149.95z"/>
			<path id="패스_4118" class="st0" d="M494.34,197.36l-70.9-40.97l0.57-2.49l70.33,40.62L494.34,197.36z"/>
			<path id="패스_4119" class="st1" d="M424.01,153.91l-0.23,0.99l70.56,40.77v-1.14L424.01,153.91z"/>
			<path id="패스_4120" class="st0" d="M494.34,201.33l-70.9-40.96l0.57-2.49l70.34,40.61V201.33z"/>
			<path id="패스_4121" class="st1" d="M424.01,157.88l-0.23,0.98l70.56,40.77v-1.15L424.01,157.88z"/>
			<path id="패스_4122" class="st0" d="M494.34,205.29l-70.9-40.96l0.57-2.49l70.33,40.62L494.34,205.29z"/>
			<path id="패스_4123" class="st1" d="M424.01,161.84l-0.23,0.99l70.56,40.76v-1.13L424.01,161.84z"/>
			<path id="패스_4124" class="st0" d="M494.34,209.26l-70.9-40.97l0.57-2.49l70.33,40.62L494.34,209.26z"/>
			<path id="패스_4125" class="st1" d="M424.01,165.8l-0.23,0.99l70.56,40.76v-1.13L424.01,165.8z"/>
			<path id="패스_4126" class="st0" d="M494.34,213.22l-70.9-40.97l0.57-2.49l70.34,40.62V213.22z"/>
			<path id="패스_4127" class="st1" d="M424.01,169.77l-0.23,0.99l70.56,40.77v-1.14L424.01,169.77z"/>
			<path id="패스_4128" class="st0" d="M494.34,217.19l-70.9-40.96l0.57-2.49l70.33,40.61L494.34,217.19z"/>
			<path id="패스_4129" class="st1" d="M424.01,173.74l-0.23,0.98l70.56,40.77v-1.14L424.01,173.74z"/>
		</g>
	</g>
	<g id="그룹_4732">
		<path id="패스_4130" class="st4" d="M94.97,385.8c-5.56-5.67-8.82-22.58-3.4-27.1h27.57c5.41,4.52,2.15,21.4-3.39,27.1
			l-0.15,0.15l-0.19,0.19c-0.15,0.15-0.32,0.3-0.5,0.45l-0.14,0.1c-0.14,0.1-0.27,0.21-0.42,0.32s-0.48,0.32-0.72,0.46
			c-4.57,2.64-11.98,2.64-16.55,0l0,0c-0.25-0.14-0.49-0.3-0.72-0.46c-0.14-0.1-0.26-0.19-0.39-0.3l-0.16-0.12
			c-0.17-0.14-0.33-0.29-0.48-0.43s-0.15-0.14-0.22-0.22L94.97,385.8z"/>
		<path id="패스_4131" class="st5" d="M116.72,356.92c6.29,3.63,6.29,9.52,0,13.15s-16.49,3.63-22.78,0s-6.29-9.52,0-13.15
			S110.46,353.29,116.72,356.92z"/>
		<path id="패스_4132" class="st6" d="M113.68,358.66c4.62,2.67,4.62,6.99,0,9.68s-12.11,2.67-16.73,0s-4.62-7,0-9.68
			C101.57,355.99,109.07,355.99,113.68,358.66z"/>
		<path id="패스_4133" class="st7" d="M96.96,363.25c4.62-2.66,12.11-2.66,16.73,0c1.12,0.61,2.07,1.48,2.77,2.54
			c-0.7,1.06-1.66,1.93-2.78,2.53c-4.62,2.67-12.11,2.67-16.73,0c-1.12-0.6-2.07-1.48-2.77-2.54
			C94.89,364.71,95.84,363.84,96.96,363.25z"/>
		<path id="패스_4134" class="st8" d="M100.63,351.97c0.82-1.23,2.04-2.18,2.78-3.46c1.56-2.7-0.31-5.33,0.47-8.07
			c0.41-1.19,1.31-2.16,2.47-2.65c1.15-0.48,2.37-0.8,3.61-0.94c0.66-0.07,1.3-0.25,1.9-0.54c0.71-0.4,0.93-1.1,1.37-1.72
			c0.51-0.68,1.1-1.31,1.75-1.86c1.25-1.27,2.94-2,4.72-2.04c3.75,0.17,3.65,3.4,2.58,5.84s-1.37,3.23,0.97,5.81
			s2.35,5.68-0.45,7.45s-4.61,1.99-3.51,5.38c0.99,3.03,1.6,5.61-1.19,8.84c-1.78,2.24-4.5,3.52-7.36,3.45
			c-5.6-0.23-10.14-4.76-11.07-10.15c-0.34-1.75-0.04-3.56,0.84-5.1L100.63,351.97z"/>
		<path id="패스_4135" class="st9" d="M100.63,351.97c0.82-1.23,2.04-2.18,2.78-3.46c1.56-2.7-0.31-5.33,0.47-8.07
			c0.41-1.19,1.31-2.16,2.47-2.65c1.15-0.48,2.37-0.8,3.61-0.94c0.66-0.07,1.3-0.25,1.9-0.54c0.71-0.4,0.93-1.1,1.37-1.72
			c0.51-0.68,1.1-1.31,1.75-1.86c1.25-1.27,2.94-2,4.72-2.04c3.75,0.17,3.65,3.4,2.58,5.84s-1.37,3.23,0.97,5.81
			s2.35,5.68-0.45,7.45s-4.61,1.99-3.51,5.38c0.99,3.03,1.6,5.61-1.19,8.84c-1.78,2.24-4.5,3.52-7.36,3.45
			c-5.6-0.23-10.14-4.76-11.07-10.15c-0.34-1.75-0.04-3.56,0.84-5.1L100.63,351.97z"/>
		<path id="패스_4136" class="st10" d="M100.63,351.97c0.82-1.23,2.04-2.18,2.78-3.46c1.56-2.7-0.31-5.33,0.47-8.07
			c0.41-1.19,1.31-2.16,2.47-2.65c1.15-0.48,2.37-0.8,3.61-0.94c0.66-0.07,1.3-0.25,1.9-0.54c0.71-0.4,0.93-1.1,1.37-1.72
			c0.51-0.68,1.1-1.31,1.75-1.86c1.25-1.27,2.94-2,4.72-2.04c3.75,0.17,3.65,3.4,2.58,5.84s-1.37,3.23,0.97,5.81
			s2.35,5.68-0.45,7.45s-4.61,1.99-3.51,5.38c0.99,3.03,1.6,5.61-1.19,8.84c-1.78,2.24-4.5,3.52-7.36,3.45
			c-5.6-0.23-10.14-4.76-11.07-10.15c-0.34-1.75-0.04-3.56,0.84-5.1L100.63,351.97z"/>
		<path id="패스_4137" class="st3" d="M119.74,345.3c-0.04-0.15-0.19-0.24-0.33-0.2c-3.03,0.79-5.96,1.9-8.75,3.31
			c1.61-4.3,3.94-8.29,6.89-11.81c0.11-0.11,0.11-0.28,0-0.39c-0.11-0.11-0.28-0.11-0.39,0c-2.47,2.91-4.49,6.18-6.01,9.68
			c-0.75-1.64-1.7-3.19-2.83-4.6c-0.1-0.12-0.28-0.13-0.39-0.03c-0.12,0.1-0.13,0.28-0.03,0.39c1.2,1.5,2.19,3.16,2.94,4.93
			c-0.32,0.74-0.65,1.51-0.94,2.32c-0.05,0.05-0.07,0.12-0.07,0.19c-2.03,5.51-3.04,11.35-2.97,17.22c0,0.15,0.12,0.27,0.26,0.28
			c0,0,0,0,0,0h0.01c0.03,0.01,0.06,0.01,0.08,0c0.11-0.04,0.19-0.14,0.19-0.26c-0.06-5.82,0.94-11.6,2.96-17.05
			c3.34-2.06,9.14-3.59,9.19-3.61c0.15-0.04,0.24-0.19,0.2-0.34L119.74,345.3z"/>
		<path id="패스_4138" class="st8" d="M105.79,367.96c-0.15,0.1-1.45,0.55-1.63,0.6c-2.07,0.59-4.75,0.28-7.18-0.08
			c-1.6-0.24-3.76-0.57-4.94-1.77c-0.63-0.57-0.86-1.47-0.57-2.28c0.37-0.81,1.43-1.29,1.51-2.17c-1.74-0.58-3.8-0.12-5.36-1.1
			c-1.13-0.77-1.98-1.88-2.43-3.16c-0.37-0.81-0.41-1.74-0.12-2.58c0.43-0.87,1.54-1.08,2.5-1.23c0.26-0.02,0.5-0.09,0.73-0.21
			c0.23-0.13,0.36-0.38,0.32-0.64c-0.07-0.31-0.4-0.46-0.7-0.56c-0.64-0.21-1.29-0.33-1.93-0.57c-0.64-0.21-1.2-0.63-1.57-1.2
			c-0.34-0.73-0.44-1.54-0.3-2.33c0.11-1.35,0.3-2.7,0.57-4.03c0.19-1.16,0.29-2.33,0.32-3.5c3.37-0.64,6.84-0.56,10.18,0.23
			c1.85,0.38,4.52,1.24,5.32,3.16c0.21,0.55,0.28,1.15,0.21,1.73c-0.04,0.27-0.1,0.53-0.18,0.79c-0.04,0.16-0.2,0.8,0.19,0.5
			c0.08-0.07,0.15-0.16,0.19-0.27l1.29-2.58c0.11-0.27,0.29-0.5,0.52-0.68c0.52-0.32,1.94-0.07,3.37,1.1
			c0.95,0.83,1.59,1.96,1.82,3.19c0.3,1.97,0.23,3.98-0.23,5.92l1.26-1.76c1.48-2.05,2.38,1.7,2.44,2.5
			c0.14,2.52-0.26,5.03-1.17,7.38C109.34,364.63,107.8,366.58,105.79,367.96z"/>
		<path id="패스_4139" class="st3" d="M101.87,358.29c0.13-3.31,0.98-6.55,2.5-9.49l0.03-0.06c0.06-0.13,0-0.28-0.12-0.33l0,0
			c-0.12-0.06-0.27-0.01-0.33,0.12v0.07c-1.42,2.77-2.27,5.8-2.52,8.9c-4.01-6.76-9.89-13.18-12.99-14.84
			c-0.13-0.07-0.29-0.02-0.36,0.11c-0.07,0.13-0.03,0.29,0.09,0.36l0.01,0.01c3.05,1.66,8.86,8.01,12.81,14.68
			c-3.19-1.34-6.73-1.58-10.07-0.68c-0.13,0.04-0.21,0.18-0.16,0.32v0.01c0.03,0.09,0.11,0.15,0.2,0.17c0.04,0.01,0.08,0.01,0.12,0
			c3.44-0.93,7.11-0.59,10.32,0.94c1.73,2.82,2.94,5.92,3.57,9.17c0.02,0.1,0.08,0.18,0.18,0.22c0.16,0.03,0.31-0.06,0.34-0.22
			c0-0.02,0.01-0.04,0.01-0.06v-0.02C104.86,364.33,103.63,361.16,101.87,358.29z"/>
	</g>
	<path id="패스_4140" class="st11" d="M187,190.34l2.66-1.97c0.83-0.61,1.46-1.46,1.81-2.42l0.63-1.73
		c0.44-1.19,1.21-2.22,2.23-2.97c1.52-1.13,2.89-2.45,4.08-3.92l0,0c0.79,0.86,0.86,2.16,0.18,3.1c-0.5,0.66-1.04,1.28-1.63,1.86
		l1.46,0.1c1.06,0.07,2.11-0.18,3.01-0.74l3.72-2.28c0.33-0.2,0.77-0.1,0.97,0.24c0.07,0.11,0.1,0.24,0.1,0.36
		c-0.05,1.84-0.41,3.66-1.07,5.38c-0.6,1.66-1.9,2.97-3.55,3.59c-1.97,0.75-3.89,1.41-4.99,1.77c-0.63,0.21-1.22,0.52-1.74,0.91
		l-3.9,2.9L187,190.34z"/>
	<g id="그룹_4733">
		<path id="패스_4141" class="st1" d="M189.89,187.78l-3.36,2.16c0.22,2.55,1.91,4.74,4.32,5.6l3.07-2.91
			C193.93,192.64,190.96,192.19,189.89,187.78z"/>
		<path id="패스_4142" class="st12" d="M187.78,193.26c-0.71-0.97-1.14-2.12-1.25-3.32l-10.5,6.77l-6.19-17.32
			c-0.83-2.31-2.88-3.97-5.32-4.28l-3.03-0.39l2.82,20.29l4.82,9.67c1.59,3.18,5.45,4.47,8.63,2.89c0.43-0.22,0.84-0.48,1.21-0.79
			l11.86-11.22C189.63,195.1,188.56,194.31,187.78,193.26z"/>
		<path id="패스_4143" class="st13" d="M176.04,196.71l-3.98,2.98l2.88-6.07L176.04,196.71z"/>
		<path id="패스_4144" class="st13" d="M168.73,203.82c0.67-8.43,1.2-15.27-6.5-23.94l2.1,15.11L168.73,203.82z"/>
	</g>
	<g id="그룹_4734">
		<path id="패스_4145" class="st5" d="M174.91,306.69c-1.31,1.26-3.09,1.91-4.91,1.8c-1.8-0.12-3.55-0.56-5.19-1.31
			c-1.66-0.68-3.74-2.59-5.54-2.56c-1.76-0.01-3.51-0.13-5.25-0.36c-0.06-2.39,0.19-4.78,0.75-7.11l8.38-0.22
			c2.26,3.1,6.66,5.68,9.99,6.64c1.04,0.3,1.84,1.14,2.07,2.2c0,0.02,0,0.04-0.01,0.05C175.14,306.12,175.04,306.41,174.91,306.69z"
			/>
		<path id="패스_4146" class="st14" d="M159.27,304.63c1.79-0.04,3.88,1.88,5.54,2.56c1.64,0.75,3.4,1.19,5.19,1.31
			c1.82,0.11,3.59-0.54,4.91-1.8c0.13-0.27,0.23-0.56,0.29-0.85c0-0.02,0-0.04,0.01-0.05c0.08,0.37,0.07,0.75-0.01,1.12
			c-0.06,0.3-0.16,0.58-0.29,0.85c-1.31,1.26-3.09,1.91-4.91,1.8c-1.8-0.12-3.55-0.56-5.19-1.31c-1.66-0.68-3.74-2.59-5.54-2.56
			c-1.73,0.01-3.45-0.09-5.17-0.3c-0.04-0.37-0.07-0.75-0.08-1.12C155.76,304.5,157.51,304.62,159.27,304.63z"/>
	</g>
	<g id="그룹_4735">
		<path id="패스_4147" class="st14" d="M135.61,307.48c-0.01,0.85,0.08,1.71,0.25,2.54c0.27,1.49,1.1,2.82,2.32,3.71
			c1.12,0.64,2.4,0.98,3.69,0.98c1.14,0.12,2.29,0,3.38-0.35c0.82-0.3,1.52-0.87,1.98-1.61c0,0.01,0,0.03-0.01,0.04
			c-0.32,1.11-1.17,2-2.27,2.37c-1.09,0.35-2.24,0.47-3.38,0.35c-1.3,0-2.57-0.34-3.69-0.98c-1.22-0.89-2.05-2.22-2.32-3.71
			c-0.17-0.84-0.26-1.69-0.25-2.54c-0.01-1.18-0.5-2.3-1.36-3.11c-0.21-0.19-0.41-0.4-0.59-0.61c-0.26-0.31-0.4-0.7-0.36-1.11
			c0.01-0.16,0.03-0.31,0.05-0.46c0.31,0.36,1.03,1.22,1.21,1.39C135.11,305.17,135.6,306.3,135.61,307.48z"/>
		<path id="패스_4148" class="st5" d="M142.02,298.62c-0.28,1.74-0.05,3.53,0.65,5.15c0.7,1.61,1.62,3.12,2.73,4.48
			c0.54,0.65,1.02,1.34,1.43,2.08c0.4,0.73,0.54,1.58,0.4,2.4c-0.46,0.75-1.15,1.32-1.98,1.61c-1.09,0.35-2.24,0.47-3.38,0.35
			c-1.3,0-2.57-0.34-3.69-0.98c-1.22-0.89-2.05-2.22-2.32-3.71c-0.17-0.84-0.26-1.69-0.25-2.54c-0.01-1.18-0.5-2.3-1.36-3.11
			c-0.18-0.17-0.91-1.03-1.21-1.39c0.17-1.27,0.6-2.5,1.25-3.6L142.02,298.62z"/>
	</g>
	<g id="그룹_4736">
		<path id="패스_4149" class="st4" d="M166.77,215.86l-0.7,47.79l-2.25,33.45c-5.71,3.61-9.84,0.66-9.84,0.66
			c-2.17-15.85-2.46-25.59-1.28-32.19l-1.08-25.79l-3.25,26.78l-5.46,32.82c-5.86,3.8-9.99,0-9.99,0c0-12.15-1.08-25.73,2.26-34.5
			c-1.43-16.18-0.91-32.48,1.57-48.53L166.77,215.86z"/>
		<path id="패스_4150" class="st10" d="M152.81,229.93l-1.19,9.85l0.51,12.08l2.2-19.86c5.09-1.99,5.76-4.8,5.76-4.8
			C157.92,228.71,155.42,229.65,152.81,229.93z"/>
	</g>
	<g id="그룹_4737">
		<path id="패스_4151" class="st12" d="M155.92,174.12l5.59,0.59c4.58,4.04,6.94,12.5,5.96,21.85c-0.6,6.41-0.83,12.85-0.69,19.29
			c-12.4,9.06-28.06,2.46-30.02,0.49l0.92-11.47c0.1-1.29-0.11-2.59-0.63-3.77c-1.17-2.72-3.26-8.07-3.54-12.22
			c-0.17-3.7,0.61-7.37,2.26-10.68l8.12-3.54L155.92,174.12z"/>
		<path id="패스_4152" class="st13" d="M137.04,201.11c-1.53-3.42-2.66-7.01-3.37-10.69c1.15,0.69,2.37,1.38,2.85,2.53
			c1.53,3.7,1.93,7.77,1.15,11.7C137.74,203.44,137.52,202.23,137.04,201.11z"/>
	</g>
	<g id="그룹_4738">
		
			<linearGradient id="패스_4153_1_" gradientUnits="userSpaceOnUse" x1="-57.2656" y1="1134.3749" x2="-57.2656" y2="1133.3749" gradientTransform="matrix(6.334 0 0 -26.776 521.6247 30556.291)">
			<stop  offset="0" style="stop-color:#9DECE8"/>
			<stop  offset="1" style="stop-color:#03C1B7"/>
		</linearGradient>
		<path id="패스_4153" class="st15" d="M157.47,182.27c2.87,6.93,4.43,14.33,4.6,21.83l-2.3,4.95l-3.61-4.73
			c0.28-7.25,0.14-14.5-0.43-21.73L157.47,182.27z"/>
		
			<linearGradient id="패스_4154_1_" gradientUnits="userSpaceOnUse" x1="-82.9754" y1="1174.1704" x2="-82.9754" y2="1173.1703" gradientTransform="matrix(4.7722 0 0 -4.3951 551.3025 5338.8145)">
			<stop  offset="0" style="stop-color:#9DECE8"/>
			<stop  offset="1" style="stop-color:#03C1B7"/>
		</linearGradient>
		<path id="패스_4154" class="st16" d="M157.67,178.21c0.1,1.36,0.03,2.72-0.2,4.06c-0.54,0.27-1.14,0.38-1.74,0.32
			c-1.1-0.97-2.04-2.11-2.79-3.37l2.79-1.01L157.67,178.21z"/>
	</g>
	<g id="그룹_4741">
		<g id="그룹_4739">
			<path id="패스_4155" class="st1" d="M155.74,178.21c-2.41,0.89-4.55,5.17-4.55,5.17c-6.32-5.37-7.3-8.71-7.3-8.71
				c0.78-1.27,1.98-2.22,3.4-2.68L155.74,178.21z"/>
			<path id="패스_4156" class="st1" d="M155.74,178.21c1.84,0.05,3.46,2.61,3.46,2.61c0.3-4.48-3.46-7.92-3.46-7.92V178.21z"/>
		</g>
		<g id="그룹_4740">
			<path id="패스_4157" class="st17" d="M147.14,166.96l8.6,3.07v3.19c-1.93-0.28-3.79-0.95-5.45-1.98
				C148.8,170.2,147.69,168.69,147.14,166.96z"/>
			<path id="패스_4158" class="st11" d="M147.14,166.96c0.55,1.73,1.66,3.23,3.15,4.28c1.66,1.03,3.52,1.7,5.45,1.98v4.98
				c0,0-9.09-4.09-9.09-6v-5.42L147.14,166.96z"/>
		</g>
	</g>
	<g id="그룹_4742">
		<path id="패스_4159" class="st14" d="M163.7,154.36c1.95,0.07,3.77-0.96,4.71-2.66c0.18-0.35,0.04-0.78-0.31-0.96
			c-0.14-0.07-0.31-0.1-0.47-0.07c-0.66,0.12-1.33,0.13-1.99,0.02c1.53-2,2.2-4.53,1.85-7.03c-0.08-0.49-0.53-0.82-1.02-0.74
			c-0.09,0.01-0.17,0.04-0.25,0.08c-2.74,1.36-5.78,1.97-8.83,1.79c-1.62-0.12-3.22-0.46-4.85-0.58c-1.62-0.2-3.27,0.05-4.76,0.73
			c-1.5,0.71-2.5,2.18-2.6,3.84c-0.37-0.53-0.96-0.87-1.61-0.93c-0.68-0.08-1.36,0.12-1.88,0.56c0.94,0.51,1.86,1.04,2.79,1.55
			c-1.08-0.21-2.16,0.33-2.65,1.31c-0.41,0.94-0.58,1.97-0.52,2.99c-0.06,1.36,0,2.72,0.18,4.06c0.18,1.35,0.71,2.63,1.54,3.72
			c0.73,0.89,1.7,1.55,2.79,1.89c1.49,0.41,3.08,0.36,4.54-0.15c1.45-0.51,2.84-1.2,4.11-2.05
			C157.78,159.54,160.86,157.08,163.7,154.36z"/>
		<path id="패스_4160" class="st11" d="M163.91,151.65c0.94,5.62,0.32,11.39-1.79,16.68c-0.38,1.27-1.18,2.38-2.27,3.14
			c-1.27,0.56-2.7,0.68-4.05,0.34c-2.21-0.25-4.37-0.86-6.39-1.8c-2.03-0.96-3.62-2.67-4.42-4.77c-1.48,0.3-2.99-0.29-3.87-1.52
			c-0.85-1.25-1.29-2.72-1.26-4.23c-0.15-0.96,0.25-1.93,1.04-2.51c0.87-0.28,1.82-0.04,2.45,0.61c1.14,0.93,1.97,2.18,2.39,3.58
			c0.63-2.33,1.62-4.58,2.25-6.91c0.14-0.95,0.62-1.81,1.36-2.43c0.98-0.63,2.26-0.27,3.38,0.01
			C156.41,152.73,160.26,152.67,163.91,151.65z"/>
		<path id="패스_4161" class="st17" d="M157.11,158.73l2.73,4.59l-3.25,0.61L157.11,158.73z"/>
		<path id="패스_4162" class="st17" d="M153.45,165.51l2.47,1.2c-0.44,0.58-1.2,0.79-1.87,0.53
			C153.46,166.88,153.21,166.16,153.45,165.51z"/>
		<path id="패스_4163" class="st10" d="M153.45,165.51l2.47,1.2c-0.44,0.58-1.2,0.79-1.87,0.53
			C153.46,166.88,153.21,166.16,153.45,165.51z"/>
		<path id="패스_4164" class="st17" d="M154.9,167.33c-0.29,0.06-0.59,0.03-0.86-0.08c-0.46-0.26-0.72-0.77-0.66-1.3
			C154.18,165.93,154.84,166.54,154.9,167.33L154.9,167.33z"/>
		<path id="패스_4165" class="st14" d="M152.4,158.91c-0.05,0.51,0.32,0.97,0.84,1.02c0.51,0.05,0.97-0.32,1.02-0.84
			c0.05-0.51-0.32-0.97-0.84-1.02c0,0,0,0,0,0C152.91,158.02,152.45,158.4,152.4,158.91z"/>
		<path id="패스_4166" class="st14" d="M160.23,159.4c-0.05,0.51,0.32,0.97,0.83,1.02c0.51,0.05,0.97-0.32,1.02-0.83
			c0.05-0.51-0.32-0.97-0.83-1.02c0,0,0,0,0,0C160.74,158.51,160.28,158.88,160.23,159.4z"/>
		<path id="패스_4167" class="st14" d="M161.51,155.79l1.92,1.63c0.24-0.5,0.14-1.1-0.25-1.5
			C162.68,155.56,162.04,155.51,161.51,155.79z"/>
		<path id="패스_4168" class="st14" d="M153.56,154.88l-2.2,1.21c-0.13-0.54,0.09-1.11,0.55-1.42
			C152.45,154.42,153.09,154.5,153.56,154.88z"/>
	</g>
	<g id="그룹_4744">
		<path id="패스_4169" class="st11" d="M116.77,198.39l-2.96-1.47c-0.92-0.46-1.69-1.17-2.21-2.06l-0.93-1.59
			c-0.64-1.09-1.59-1.97-2.72-2.53c-1.7-0.84-3.28-1.89-4.71-3.13l0,0c-0.62,0.99-0.46,2.27,0.38,3.08
			c0.61,0.56,1.25,1.08,1.93,1.54l-1.42,0.36c-1.03,0.26-2.11,0.2-3.1-0.19l-4.06-1.58c-0.36-0.14-0.77,0.04-0.91,0.4
			c-0.05,0.12-0.06,0.25-0.04,0.37c0.37,1.8,1.06,3.53,2.01,5.1c0.89,1.52,2.4,2.58,4.13,2.9c2.07,0.39,4.08,0.69,5.22,0.86
			c0.65,0.09,1.29,0.29,1.88,0.59l4.36,2.16L116.77,198.39z"/>
		<path id="패스_4170" class="st12" d="M119.59,202.96c0.52-1.22,0.7-2.56,0.52-3.87l5.56,2.65c1.01-4.06,1.8-8.18,2.36-12.33
			c0.66-5.61,0.52-9.38,7.73-11.2l0.76,14.74c0,0-0.89,18.01-6.05,20.01c-4.28,1.65-7.3-2.42-13.82-6.63
			C117.95,205.53,118.98,204.35,119.59,202.96z"/>
		<path id="패스_4171" class="st13" d="M129.42,205.42c-0.72-1.67-2.06-3-3.74-3.69c0,0,0.16-0.65,0.41-1.71
			C127.21,200.57,129.97,202.27,129.42,205.42z"/>
		<path id="패스_4172" class="st1" d="M114.99,197.28l5.13,1.81c0.4,2.89-0.96,5.73-3.46,7.23c-1.5-1.03-2.92-2.16-4.25-3.39
			C112.4,202.93,114.62,202.15,114.99,197.28z"/>
	</g>
	<path id="패스_4173" class="st18" d="M243.36,236.99l-37.93-22.29l-65.58,37.44l37.93,22.29L243.36,236.99z"/>
	<path id="패스_4174" class="st8" d="M139.85,252.13l-0.32,69.29l37.93,22.29l0.32-69.29L139.85,252.13z"/>
	<path id="패스_4175" class="st8" d="M243.36,236.99l-65.58,37.44l-0.32,69.29l65.58-37.44L243.36,236.99z"/>
	<path id="패스_4176" class="st10" d="M139.85,252.13l-0.32,69.29l37.93,22.29l0.32-69.29L139.85,252.13z"/>
	<path id="패스_4177" class="st19" d="M243.36,236.99l-65.58,37.44l-0.32,69.29l65.58-37.44L243.36,236.99z"/>
	<path id="패스_4178" class="st20" d="M235.02,251.28l-48.99,27.96l-0.24,50.18l48.98-27.96L235.02,251.28z M188.58,324.66
		l0.21-43.81l43.45-24.81l-0.21,43.81L188.58,324.66z"/>
	<path id="패스_4179" class="st8" d="M250.06,229.5l-42.81-25.16l-74.02,42.26l42.81,25.16L250.06,229.5z"/>
	<path id="패스_4180" class="st21" d="M250.06,229.5l-42.81-25.16l-74.02,42.26l42.81,25.16L250.06,229.5z"/>
	<path id="패스_4181" class="st8" d="M133.22,246.6l-0.01,5.25l42.81,25.16l0.01-5.25L133.22,246.6z"/>
	<path id="패스_4183" class="st8" d="M250.06,229.5l-74.02,42.26l-0.01,5.25l74.02-42.26L250.06,229.5z"/>
	<g id="그룹_4756">
		<g id="그룹_4754">
			<g id="그룹_4752">
				<g id="그룹_4751">
					<g id="그룹_4748">
						<path id="패스_4184" class="st5" d="M208.26,234.86l-12.45,7.16l-12.46-7.28l12.45-7.16L208.26,234.86z"/>
					</g>
					<g id="그룹_4749">
						<path id="패스_4185" class="st4" d="M208.26,234.86l-0.01,1.5l-12.45,7.16l0.01-1.5L208.26,234.86z"/>
					</g>
					<g id="그룹_4750">
						<path id="패스_4186" class="st14" d="M195.81,242.02l-0.01,1.5l-12.46-7.28l0.01-1.5L195.81,242.02z"/>
					</g>
				</g>
			</g>
			<g id="그룹_4753">
				<path id="패스_4187" class="st14" d="M202.11,232.53c-0.1,1.12-0.8,2.1-1.83,2.55c-2.78,1.4-6.07,1.38-8.84-0.04
					c-1.03-0.47-1.72-1.45-1.83-2.57l0,0l-0.01,2.3l0,0c0.11,1.12,0.8,2.1,1.83,2.57c2.77,1.43,6.06,1.44,8.84,0.04
					c1.03-0.46,1.73-1.43,1.83-2.55l0,0L202.11,232.53L202.11,232.53z"/>
				<path id="패스_4188" class="st5" d="M191.44,235.04c2.77,1.43,6.06,1.44,8.84,0.04c1.03-0.46,1.73-1.43,1.83-2.55
					c-0.1-1.12-0.8-2.11-1.83-2.57c-2.77-1.43-6.06-1.44-8.84-0.04c-0.98,0.45-1.67,1.36-1.82,2.42c0,0.04,0,0.09,0,0.13
					C189.71,233.6,190.41,234.58,191.44,235.04z"/>
			</g>
		</g>
		<g id="그룹_4755">
			<path id="패스_4189" class="st14" d="M186.79,198.53c-0.01-0.02-0.02-0.03-0.03-0.04c-0.08-0.11-0.16-0.21-0.25-0.31
				c-0.81-0.84-2.14-0.86-2.98-0.05c-0.84,0.81-0.86,2.14-0.05,2.98c0.01,0.01,0.02,0.02,0.04,0.04c0.96,0.81,2,1.53,3.1,2.13
				l1.43-1.15C187.87,200.85,187.45,199.63,186.79,198.53z"/>
			<path id="패스_4190" class="st4" d="M196.79,220.39c0.02-4.76-1.6-9.39-4.58-13.1l-4.16-5.17c-0.37-0.1-0.77,0.01-1.02,0.3
				c-0.27,0.2-0.42,0.52-0.41,0.86l4.16,5.17c2.72,3.38,4.19,7.6,4.17,11.93l-0.06,12.07c0,0.01-0.01,0.01-0.01,0.02s0,0.01,0,0.02
				c0.01,0.17,0.12,0.31,0.27,0.38c0.41,0.21,0.9,0.21,1.31,0.01c0.15-0.07,0.25-0.21,0.27-0.38l0,0L196.79,220.39z"/>
		</g>
	</g>
	<g id="그룹_4761">
		<g id="그룹_4759">
			<g id="그룹_4758">
				<path id="패스_4191" class="st14" d="M344.39,323.61c-0.62,1.46-2.05,2.42-3.63,2.45c-1.55,0-3.1-0.2-4.6-0.59
					c-3.42-0.62-5.31-0.01-8.72-0.09c-1.12,0.01-2.24-0.11-3.33-0.36c-1.1-0.25-2.09-0.84-2.84-1.68c-0.43-0.51-0.71-1.13-0.82-1.78
					c-0.14,1,0.16,2.02,0.82,2.78c0.75,0.84,1.75,1.42,2.84,1.68c1.09,0.25,2.21,0.37,3.33,0.36c3.41,0.08,5.3-0.53,8.72,0.09
					c1.5,0.39,3.05,0.59,4.6,0.59c1.59-0.03,3.01-0.99,3.63-2.45c0.15-0.51,0.19-1.05,0.12-1.57
					C344.49,323.23,344.45,323.42,344.39,323.61z"/>
				<path id="패스_4192" class="st5" d="M344.31,320.78c-0.21-1.03-0.42-2.07-0.63-3.1c-0.08-0.55-0.26-1.09-0.52-1.58
					c-0.28-0.5-0.81-0.8-1.38-0.79c-1.87-0.25-4.5-0.93-6.05,0.14c-2.43,1.67-4.02,2.54-6.97,2.42c-1.53-0.18-3.08-0.25-4.63-0.19
					c-1.58,0.09-2.97,1.06-3.59,2.52c-0.13,0.44-0.16,0.9-0.08,1.35c0.11,0.66,0.39,1.27,0.82,1.78c0.75,0.84,1.75,1.42,2.84,1.68
					c1.09,0.25,2.21,0.37,3.33,0.36c3.41,0.08,5.3-0.53,8.72,0.09c1.5,0.39,3.05,0.59,4.6,0.59c1.59-0.03,3.01-0.99,3.63-2.45
					c0.06-0.19,0.1-0.38,0.12-0.58C344.56,322.28,344.49,321.52,344.31,320.78z"/>
			</g>
			<path id="패스_4193" class="st22" d="M335.26,312.2l-0.13,4.04c-0.03,0.86,0.63,1.59,1.48,1.65c1.36,0.1,2.72,0.08,4.07-0.04
				c1.13-0.11,2.02-1.03,2.08-2.17l0.16-2.98L335.26,312.2z"/>
		</g>
		<g id="그룹_4760">
			<path id="패스_4194" class="st14" d="M335.19,293.61c0,5.63-0.59,19.6-0.59,19.6c5.14,3.29,8.89,0.86,8.89,0.86
				c0.49-8.99,4.94-17.59,4.94-26.39c-6.82-4.67-8.9-5.79-11.68-8.53C335.19,283.35,335.19,289.57,335.19,293.61z"/>
			<path id="패스_4195" class="st14" d="M348.43,287.69c-2.45-1.68-4.29-2.9-5.77-3.9c0.35,5.25,1.7,10.39,3.98,15.14
				C347.71,295.27,348.31,291.49,348.43,287.69z"/>
		</g>
	</g>
	<g id="그룹_4765">
		<g id="그룹_4763">
			<g id="그룹_4762">
				<path id="패스_4196" class="st14" d="M330.93,333.85c-0.67,1.57-2.2,2.59-3.9,2.62c-1.66,0-3.32-0.21-4.93-0.63
					c-3.66-0.66-5.7-0.01-9.35-0.1c-1.2,0.01-2.4-0.12-3.57-0.39c-1.18-0.27-2.24-0.9-3.05-1.8c-0.46-0.55-0.76-1.21-0.88-1.91
					c-0.15,1.07,0.17,2.16,0.88,2.98c0.81,0.9,1.87,1.53,3.05,1.8c1.17,0.27,2.37,0.4,3.57,0.39c3.65,0.09,5.69-0.57,9.35,0.1
					c1.61,0.42,3.27,0.63,4.93,0.63c1.7-0.03,3.23-1.06,3.9-2.62c0.16-0.55,0.2-1.12,0.13-1.69
					C331.03,333.44,330.99,333.65,330.93,333.85z"/>
				<path id="패스_4197" class="st5" d="M330.84,330.82c-0.22-1.11-0.45-2.22-0.67-3.33c-0.08-0.59-0.27-1.17-0.56-1.7
					c-0.3-0.53-0.87-0.86-1.48-0.85c-2.01-0.27-4.83-0.99-6.49,0.15c-2.61,1.8-4.31,2.72-7.48,2.6c-1.65-0.2-3.31-0.27-4.96-0.2
					c-1.69,0.09-3.19,1.14-3.85,2.7c-0.14,0.47-0.17,0.96-0.08,1.45c0.12,0.7,0.42,1.37,0.88,1.91c0.81,0.9,1.87,1.53,3.05,1.8
					c1.17,0.27,2.37,0.4,3.57,0.39c3.65,0.09,5.69-0.57,9.35,0.1c1.61,0.42,3.27,0.63,4.93,0.63c1.7-0.03,3.23-1.06,3.9-2.62
					c0.06-0.2,0.1-0.41,0.13-0.62C331.11,332.42,331.04,331.61,330.84,330.82z"/>
			</g>
			<path id="패스_4198" class="st22" d="M321.14,321.61l-0.14,4.34c-0.03,0.92,0.67,1.71,1.59,1.77c1.46,0.1,2.92,0.09,4.37-0.04
				c1.22-0.11,2.17-1.1,2.23-2.32l0.17-3.2L321.14,321.61z"/>
		</g>
		<g id="그룹_4764">
			<path id="패스_4199" class="st14" d="M321.05,301.67c0,6.04-0.64,21.03-0.64,21.03c5.51,3.54,9.54,0.92,9.54,0.92
				c0.53-9.65,5.3-18.87,5.3-28.31c-7.31-5.02-9.55-6.21-12.53-9.15C321.06,290.66,321.05,297.33,321.05,301.67z"/>
			<path id="패스_4200" class="st10" d="M335.26,295.31c-2.63-1.81-4.6-3.11-6.19-4.19c0.38,5.64,1.83,11.15,4.27,16.24
				C334.49,303.44,335.13,299.39,335.26,295.31z"/>
		</g>
	</g>
	<g id="그룹_4771">
		<g id="그룹_4766">
			<path id="패스_4201" class="st14" d="M334.15,341.08c-0.35,0-0.64-0.29-0.64-0.64c0-0.16,0.06-0.32,0.18-0.44l23.16-24.05
				c0.24-0.25,0.65-0.26,0.9-0.02s0.26,0.65,0.02,0.9l0,0l-23.16,24.05C334.49,341,334.32,341.08,334.15,341.08z"/>
		</g>
		<g id="그룹_4767">
			<path id="패스_4202" class="st18" d="M361.45,358.35v5.14c0,0.47,0.38,0.85,0.85,0.85s0.85-0.38,0.85-0.85v-5.14
				C362.61,358.59,361.99,358.59,361.45,358.35L361.45,358.35z"/>
			<path id="패스_4203" class="st5" d="M362.3,313.23c-0.47,0-0.85,0.38-0.85,0.85v44.27c0.54,0.24,1.16,0.24,1.7,0v-44.27
				C363.15,313.61,362.77,313.23,362.3,313.23C362.3,313.23,362.3,313.23,362.3,313.23z"/>
		</g>
		<g id="그룹_4768">
			<path id="패스_4204" class="st5" d="M347.67,307.35c-0.43-0.18-0.93,0.03-1.11,0.46l-13.07,31.99c0.4,0.45,1,0.67,1.6,0.58
				l13.05-31.93C348.31,308.02,348.1,307.53,347.67,307.35C347.67,307.35,347.67,307.35,347.67,307.35z"/>
			<path id="패스_4205" class="st18" d="M334.31,340.33c-0.32-0.1-0.6-0.28-0.83-0.53l-2.09,5.12c-0.18,0.43,0.03,0.93,0.46,1.11
				c0,0,0,0,0,0c0.1,0.04,0.21,0.06,0.32,0.06c0.34,0,0.65-0.21,0.79-0.53l2.12-5.18C334.83,340.42,334.57,340.4,334.31,340.33z"/>
		</g>
		<g id="그룹_4769">
			<path id="패스_4206" class="st14" d="M390.44,341.08c0.35,0,0.64-0.29,0.64-0.64c0-0.16-0.06-0.32-0.18-0.44l-25.44-26.58
				c-0.24-0.25-0.65-0.26-0.9-0.02s-0.26,0.65-0.02,0.9l0,0l25.44,26.58C390.11,341,390.27,341.08,390.44,341.08z"/>
		</g>
		<g id="그룹_4770">
			<path id="패스_4207" class="st5" d="M376.93,307.35c0.43-0.17,0.93,0.03,1.11,0.46l13.07,31.99c-0.4,0.45-1,0.67-1.6,0.58
				l-13.05-31.93C376.28,308.02,376.49,307.53,376.93,307.35C376.92,307.35,376.93,307.35,376.93,307.35z"/>
			<path id="패스_4208" class="st18" d="M390.28,340.33c0.32-0.1,0.6-0.28,0.83-0.53l2.09,5.12c0.18,0.43-0.03,0.93-0.46,1.11
				c-0.1,0.04-0.21,0.06-0.32,0.06c-0.34,0-0.65-0.21-0.79-0.53l-2.12-5.18C389.76,340.42,390.03,340.4,390.28,340.33z"/>
		</g>
	</g>
	<path id="패스_4209" class="st8" d="M339.5,305.81c5.78,4.61,14.18,8.96,16.28,7.84c6.13-3.22,9.34-15.03,11.99-24.08
		c0.73-2.47,1.45-4.88,2.32-7.2c-2.05-1.19-3.89-2.2-5.17-2.77c-5.32-2.37-32.95,12.43-32.73,17.71
		C332.5,298.88,333.72,301.19,339.5,305.81z"/>
	<path id="패스_4210" class="st10" d="M339.5,305.81c5.78,4.61,14.18,8.96,16.28,7.84c6.13-3.22,9.34-15.03,11.99-24.08
		c0.73-2.47,1.45-4.88,2.32-7.2c-2.05-1.19-3.89-2.2-5.17-2.77c-5.32-2.37-32.95,12.43-32.73,17.71
		C332.5,298.88,333.72,301.19,339.5,305.81z"/>
	<path id="패스_4211" class="st14" d="M386.38,283.14l-17.99-3.92c-12.65-4.08-23.32-7.77-28.99-3.82
		c-1.26,0.94-2.19,2.26-2.65,3.76c2.77,2.73,4.86,3.85,11.68,8.53c15.22,10.57,28.17,15.39,35.38,10.02S386.38,283.14,386.38,283.14
		z"/>
	<path id="패스_4212" class="st14" d="M375.97,290.43l-19.3-4.21c-13.57-4.38-25.02-8.34-31.1-4.1c-1.36,1-2.35,2.42-2.84,4.04
		c2.98,2.93,5.21,4.13,12.53,9.15c16.33,11.35,30.22,16.51,37.96,10.75S375.97,290.43,375.97,290.43z"/>
	<g id="그룹_4774">
		<g id="그룹_4772">
			<path id="패스_4213" class="st22" d="M387.78,266.13l1.75,3.68l-4.18,4.59l0.3,10.97l13.47-11.69
				c1.24-1.08,1.61-2.85,0.89-4.33l-4.11-8.54L387.78,266.13z"/>
			<path id="패스_4214" class="st23" d="M391.93,273.1c-1.05-0.88-1.88-2.01-2.4-3.28l-1.04,1.14
				C389.31,272.1,390.55,272.86,391.93,273.1z"/>
		</g>
		<path id="패스_4215" class="st5" d="M387.45,267.02c5.35-0.47,8.99-6.01,8.99-6.01c-4.78-9.79-8.96-20.69-17.31-18.09
			L387.45,267.02z"/>
		<path id="패스_4216" class="st5" d="M355.04,260.4v30.77c18.12,7.59,29.86,0.73,31.45-2.83c-0.83-12.53,2.13-27.18,1.9-33.4
			s-0.99-13.24-10.64-11.83l-10.27,1l-5.21,1.27L355.04,260.4z"/>
		<g id="그룹_4773">
			<path id="패스_4217" class="st14" d="M361.39,220.16c1.59-9.68,16.43-10.86,22.36-2.6c3.58,4.97-4.02,16.93-6,20.63l-3.19,2.9
				l-6.64-3.02l-5.84-12.79L361.39,220.16z"/>
			<path id="패스_4218" class="st22" d="M360.22,227.36l-1.69,2.93l1.67,0.62C360.14,229.72,360.15,228.54,360.22,227.36z"/>
			<path id="패스_4219" class="st22" d="M371.37,238.58c-2.52-1.36-3.03-5.96-2.67-7.18c0.46,0.6,1.24,0.88,1.97,0.69
				c0.7-0.19,1.29-0.66,1.64-1.3c0.34-0.64,0.54-1.33,0.61-2.05c0.18-0.86,0.05-1.76-0.37-2.54c-0.66-0.88-1.8-1.27-2.86-0.96
				c-1.04,0.32-1.9,1.05-2.4,2.01c-0.16,0.3-0.31,0.6-0.42,0.92c-0.1,0.3-0.43,0.45-0.73,0.35c-0.21-0.07-0.36-0.27-0.38-0.49
				c-0.13-1.38,0.12-2.77,0.72-4.02c-0.84-0.09-1.6-0.55-2.06-1.26c-0.49-0.66-0.64-1.52-0.4-2.31c-0.89,0.06-1.78-0.04-2.64-0.29
				c-0.95,3.5-1.36,7.12-1.19,10.75c0.07,1.66,0.26,3.32,0.58,4.96c0.11,0.9,0.45,1.75,0.98,2.48c0.7,0.75,1.67,1.2,2.7,1.24
				c1.02,0.04,2.04-0.06,3.03-0.29v4.81c3.65,0.86,7.4,1.2,10.27-1v-4.92C375.69,238.84,373.5,238.98,371.37,238.58z"/>
		</g>
		<path id="패스_4220" class="st10" d="M365.17,259.31l-1.2,11.14c-0.62,5.75-2.36,11.33-5.13,16.41l0,0l-4.56-5.45l5.87-17.58
			L365.17,259.31z"/>
		<path id="패스_4221" class="st22" d="M351.66,266.6l-2.21,14.8c0,0-10.07-1.77-14.85-2.05c-4.78-0.27-9.46,1.59-8.56,2.9
			c0.91,1.31,4.43,0.6,4.43,0.6c1.66,1.46,4.48,1.03,4.48,1.03l17.38,6.72c2.49,0.96,5.29-0.27,6.25-2.76
			c0.12-0.32,0.21-0.66,0.27-1l2.61-16.66L351.66,266.6z"/>
		<path id="패스_4222" class="st5" d="M350.14,267.9l2.88-12.64c1.08-4.72,4.61-8.5,9.25-9.89l0,0c4.4,9.64,3.28,12.22,3.28,12.22
			l-3.25,14.5C357.91,271.99,353.66,270.53,350.14,267.9z"/>
	</g>
	<path id="패스_4223" class="st8" d="M369.93,292.02c3.08-10.5,6.22-19.83,19.4-25.64c4.65-2.05,7.13-1.32,8.3,0.49h0.01
		c-0.73-1.34-1.76-2.49-3-3.37v0.01c-1.38-1.08-3.72-1.24-7.48,0.41c-10.08,4.44-14.29,10.94-17.09,18.44
		c-0.86,2.31-1.59,4.72-2.32,7.2c-2.65,9.05-5.85,20.86-11.99,24.08c-2.1,1.12-10.5-3.23-16.28-7.84s-7-6.93-7.32-8.48v3.09
		c0,1.05,0.32,2.07,0.93,2.92c5.84,8.17,16.43,13,21.65,13.61C363.04,316.73,366.86,302.52,369.93,292.02z"/>
	<path id="패스_4224" class="st24" d="M369.93,292.02c3.08-10.5,6.22-19.83,19.4-25.64c4.65-2.05,7.13-1.32,8.3,0.49h0.01
		c-0.73-1.34-1.76-2.49-3-3.37v0.01c-1.38-1.08-3.72-1.24-7.48,0.41c-10.08,4.44-14.29,10.94-17.09,18.44
		c-0.86,2.31-1.59,4.72-2.32,7.2c-2.65,9.05-5.85,20.86-11.99,24.08c-2.1,1.12-10.5-3.23-16.28-7.84s-7-6.93-7.32-8.48v3.09
		c0,1.05,0.32,2.07,0.93,2.92c5.84,8.17,16.43,13,21.65,13.61C363.04,316.73,366.86,302.52,369.93,292.02z"/>
	<path id="패스_4225" class="st8" d="M398.52,270.46c0.05-1.26-0.26-2.5-0.89-3.59c-1.17-1.81-3.65-2.54-8.3-0.49
		c-13.18,5.8-16.33,15.14-19.4,25.64s-6.89,24.71-15.16,24.92c8.21,2.36,25.86-7.07,34.58-13.11c3-2.08,5.24-5.09,6.37-8.57
		C398.98,285.18,398.52,273.69,398.52,270.46z"/>
	<g id="그룹_4778">
		<path id="패스_4226" class="st8" d="M254.02,362.18c0.47-0.95,1.36-1.63,2.41-1.82c1.03-0.18,2.08-0.22,3.12-0.13
			c-4.49,2.48,1.6,4,6.86,3.77s9.84,0.67,10.04-3.67c0.59,0.28,2.17,3.79,1.59,6.82c-0.83,1.25-2.14,2.09-3.62,2.32
			c-1.47,0.21-2.96,0.14-4.4-0.22c-1.45-0.3-2.87-0.73-4.33-0.94c-1.85-0.26-3.74-0.18-5.6-0.4c-1.88-0.12-3.67-0.87-5.08-2.13
			C254,364.86,253.62,363.46,254.02,362.18z"/>
		<path id="패스_4227" class="st25" d="M254.02,362.18c0.47-0.95,1.36-1.63,2.41-1.82c1.03-0.18,2.08-0.22,3.12-0.13
			c-4.49,2.48,1.6,4,6.86,3.77s9.84,0.67,10.04-3.67c0.59,0.28,2.17,3.79,1.59,6.82c-0.83,1.25-2.14,2.09-3.62,2.32
			c-1.47,0.21-2.96,0.14-4.4-0.22c-1.45-0.3-2.87-0.73-4.33-0.94c-1.85-0.26-3.74-0.18-5.6-0.4c-1.88-0.12-3.67-0.87-5.08-2.13
			C254,364.86,253.62,363.46,254.02,362.18z"/>
		<path id="패스_4228" class="st26" d="M266.4,364c-5.26,0.24-11.34-1.29-6.86-3.77c3.01,0.12,6.23-0.58,9.24-0.58l0.54-5.02
			l7.7,0.59l-0.59,5.1C276.24,364.67,271.66,363.76,266.4,364z"/>
		<path id="패스_4229" class="st27" d="M281.77,325.47c1.58,5.93-1.72,21.34-4.41,30.98c0,0-5.71,1.19-8.55-0.95l-0.03-34.85
			c0-1.13,0.17-2.25,0.49-3.34L281.77,325.47z"/>
	</g>
	<path id="패스_4231" class="st8" d="M241.4,368.83c0.47-0.95,1.36-1.63,2.41-1.82c1.03-0.18,2.08-0.23,3.12-0.13
		c-4.49,2.48,1.6,4,6.86,3.77c5.26-0.23,9.84,0.67,10.04-3.67c0.59,0.28,2.17,3.79,1.59,6.82c-0.83,1.25-2.14,2.09-3.62,2.32
		c-1.47,0.21-2.96,0.14-4.4-0.22c-1.45-0.3-2.87-0.73-4.33-0.94c-1.85-0.26-3.74-0.18-5.6-0.4c-1.88-0.12-3.67-0.87-5.08-2.13
		C241.39,371.51,241.01,370.11,241.4,368.83z"/>
	<path id="패스_4232" class="st21" d="M241.4,368.83c0.47-0.95,1.36-1.63,2.41-1.82c1.03-0.18,2.08-0.23,3.12-0.13
		c-4.49,2.48,1.6,4,6.86,3.77c5.26-0.23,9.84,0.67,10.04-3.67c0.59,0.28,2.17,3.79,1.59,6.82c-0.83,1.25-2.14,2.09-3.62,2.32
		c-1.47,0.21-2.96,0.14-4.4-0.22c-1.45-0.3-2.87-0.73-4.33-0.94c-1.85-0.26-3.74-0.18-5.6-0.4c-1.88-0.12-3.67-0.87-5.08-2.13
		C241.39,371.51,241.01,370.11,241.4,368.83z"/>
	<path id="패스_4233" class="st28" d="M253.79,370.64c-5.26,0.24-11.34-1.29-6.86-3.77c3.01,0.12,6.23-0.58,9.24-0.58l0.54-5.02
		l7.71,0.59l-0.59,5.1C263.63,371.31,259.04,370.4,253.79,370.64z"/>
	<path id="패스_4234" class="st8" d="M269.16,332.11c1.58,5.93-1.72,21.34-4.41,30.98c0,0-5.71,1.19-8.55-0.95l-0.03-34.85
		c0-1.13,0.17-2.25,0.48-3.34L269.16,332.11z"/>
	<path id="패스_4235" class="st29" d="M269.16,332.11c1.58,5.93-1.72,21.34-4.41,30.98c0,0-5.71,1.19-8.55-0.95l-0.03-34.85
		c0-1.13,0.17-2.25,0.48-3.34L269.16,332.11z"/>
	<path id="패스_4236" class="st10" d="M265.78,338.35c-1.64-3.08-2.48-6.53-2.41-10.02l5.8,3.78c0.63,2.37,0.48,6.26-0.1,10.69
		C267.76,341.49,266.65,339.99,265.78,338.35z"/>
	<g id="그룹_4781">
		<path id="패스_4237" class="st14" d="M269.26,377.75c-0.35,0-0.64-0.29-0.64-0.64c0-0.16,0.06-0.32,0.18-0.44l23.16-24.05
			c0.24-0.25,0.65-0.26,0.9-0.02s0.26,0.65,0.02,0.9l0,0l-23.16,24.05C269.59,377.68,269.43,377.75,269.26,377.75z"/>
	</g>
	<path id="패스_4238" class="st8" d="M296.56,395.02v5.14c0,0.47,0.38,0.85,0.85,0.85s0.85-0.38,0.85-0.85v-5.14
		C297.71,395.27,297.1,395.27,296.56,395.02L296.56,395.02z"/>
	<path id="패스_4239" class="st5" d="M297.4,349.9c-0.47,0-0.85,0.38-0.85,0.85c0,0,0,0,0,0v44.27c0.54,0.24,1.16,0.24,1.7,0
		v-44.27C298.26,350.28,297.88,349.9,297.4,349.9C297.41,349.9,297.41,349.9,297.4,349.9z"/>
	<path id="패스_4240" class="st5" d="M282.77,344.03c-0.43-0.18-0.93,0.03-1.11,0.46l-13.07,31.99c0.22,0.24,0.51,0.43,0.82,0.53
		c0.25,0.07,0.51,0.09,0.77,0.05l13.04-31.93C283.42,344.7,283.21,344.21,282.77,344.03C282.77,344.03,282.77,344.03,282.77,344.03z
		"/>
	<path id="패스_4241" class="st8" d="M269.42,377.01c-0.32-0.1-0.6-0.28-0.82-0.53l-2.09,5.12c-0.18,0.43,0.03,0.93,0.46,1.11
		c0,0,0,0,0,0c0.1,0.04,0.21,0.06,0.32,0.06c0.34,0,0.65-0.21,0.79-0.53l2.12-5.18C269.94,377.1,269.67,377.08,269.42,377.01z"/>
	<g id="그룹_4784">
		<path id="패스_4242" class="st14" d="M325.55,377.75c0.35,0,0.64-0.29,0.64-0.64c0-0.16-0.06-0.32-0.18-0.44l-25.44-26.57
			c-0.24-0.25-0.65-0.26-0.9-0.02c-0.25,0.24-0.26,0.65-0.02,0.9l0,0l25.44,26.58C325.21,377.68,325.38,377.75,325.55,377.75z"/>
	</g>
	<g id="그룹_4785">
		<path id="패스_4243" class="st5" d="M312.04,344.03c0.43-0.18,0.93,0.03,1.11,0.46l13.07,31.99c-0.22,0.24-0.51,0.43-0.83,0.53
			c-0.25,0.07-0.51,0.09-0.77,0.05l-13.05-31.93C311.39,344.71,311.6,344.21,312.04,344.03
			C312.03,344.03,312.04,344.03,312.04,344.03z"/>
		<path id="패스_4244" class="st18" d="M325.38,377.01c0.32-0.1,0.6-0.28,0.83-0.53l2.09,5.12c0.16,0.44-0.06,0.93-0.5,1.09
			c-0.42,0.16-0.89-0.04-1.07-0.45l-2.12-5.18C324.87,377.1,325.13,377.08,325.38,377.01z"/>
	</g>
	<path id="패스_4245" class="st8" d="M274.61,342.48c5.78,4.61,14.18,8.96,16.28,7.84c6.13-3.22,9.34-15.03,11.99-24.08
		c0.73-2.47,1.45-4.88,2.32-7.19c-2.05-1.19-3.89-2.2-5.17-2.77c-5.31-2.37-32.95,12.43-32.73,17.71
		C267.61,335.55,268.83,337.87,274.61,342.48z"/>
	<path id="패스_4246" class="st10" d="M274.61,342.48c5.78,4.61,14.18,8.96,16.28,7.84c6.13-3.22,9.34-15.03,11.99-24.08
		c0.73-2.47,1.45-4.88,2.32-7.19c-2.05-1.19-3.89-2.2-5.17-2.77c-5.31-2.37-32.95,12.43-32.73,17.71
		C267.61,335.55,268.83,337.87,274.61,342.48z"/>
	<path id="패스_4247" class="st18" d="M283.01,308.85l22.63,4.29l16.36,3.08c0,0,9.25,10.51,1.82,19.36s-23.08,2.77-42.04-10.12
		l-12.5-8.16C270.99,311.37,276.94,307.71,283.01,308.85z"/>
	<path id="패스_4248" class="st27" d="M283.01,308.85l22.63,4.29l16.36,3.08c0,0,9.25,10.51,1.82,19.36s-23.08,2.77-42.04-10.12
		l-12.5-8.16C270.99,311.37,276.94,307.71,283.01,308.85z"/>
	<path id="패스_4249" class="st27" d="M270.4,315.5l22.63,4.29l16.36,3.08c0,0,9.25,10.51,1.82,19.36s-23.08,2.77-42.04-10.12
		l-12.5-8.16C258.37,318.02,264.32,314.35,270.4,315.5z"/>
	<g id="그룹_4787">
		<path id="패스_4251" class="st28" d="M319.6,297.58l1.62,3.41l-3.86,4.25l0.28,10.16l12.46-10.82c1.15-1,1.49-2.64,0.83-4.01
			l-3.8-7.9L319.6,297.58z"/>
		<path id="패스_4252" class="st30" d="M323.45,304.03c-0.98-0.82-1.74-1.86-2.23-3.04l-0.96,1.06
			C321.02,303.1,322.16,303.81,323.45,304.03z"/>
	</g>
	<path id="패스_4253" class="st8" d="M319.29,298.4c4.95-0.43,8.32-5.56,8.32-5.56c-4.43-9.07-8.29-19.15-16.02-16.74
		L319.29,298.4z"/>
	<path id="패스_4254" class="st31" d="M319.29,298.4c4.95-0.43,8.32-5.56,8.32-5.56c-4.43-9.07-8.29-19.15-16.02-16.74
		L319.29,298.4z"/>
	<path id="패스_4255" class="st8" d="M299.19,277.59l13.59-1.82c5.69-0.55,8.14,5.69,8.06,11.46c-0.08,5.77-3.87,23.55-3.87,39.36
		c-10.35,8.85-23.71,0.71-26-1.98c-1.74-13.24,0-31.26,0-31.26L299.19,277.59z"/>
	<path id="패스_4256" class="st31" d="M299.19,277.59l13.59-1.82c5.69-0.55,8.14,5.69,8.06,11.46
		c-0.08,5.77-3.87,23.55-3.87,39.36c-10.35,8.85-23.71,0.71-26-1.98c-1.74-13.24,0-31.26,0-31.26L299.19,277.59z"/>
	<path id="패스_4257" class="st30" d="M291.94,261.18l-2.13,3.7l2.33,0.86L291.94,261.18z"/>
	<path id="패스_4258" class="st28" d="M291.7,259.53c0.34-3.24,1.29-6.3,3.4-7.85c-0.56,4.03,0.3,8.13,2.43,11.6
		c0.21-1.07,0.76-2.05,1.57-2.78c0.8-0.77,1.97-1.02,3.02-0.65c0.7,0.33,1.25,0.93,1.52,1.65c0.81,2.02-0.16,4.31-2.18,5.12
		c-0.88,0.35-1.85,0.38-2.74,0.08c0.6,2.94,2.88,5.25,5.81,5.89c1.89,0.38,3.85,0.2,5.64-0.54l0.88,4.37
		c-3.56,3.79-9.63,1.24-9.63,1.24l-0.8-4.3c-6.99,0.41-7.65,0.3-8.42-3.56C291.56,266.43,291.4,262.96,291.7,259.53z"/>
	<path id="패스_4259" class="st18" d="M290.87,251.76c1.27-2.88,3.69-5.09,6.67-6.1c2.96-0.98,6.11-1.22,9.19-0.7
		c1.91,0.22,3.76,0.77,5.48,1.62c1.74,0.89,3.16,2.3,4.05,4.04l0.36-2.98c0.76,0.16,1.37,0.71,1.61,1.45
		c0.2,0.77-0.01,1.6-0.55,2.19h0.28c5.18,0,9.38,4.2,9.38,9.38c0,0,0,0,0,0v15.93c-5.09,0-9.21-4.12-9.21-9.21v-3.66
		c-1.15,2.71-2.98,5.09-5.3,6.9c-0.82,0.6-1.72,1.09-2.67,1.45c-1.78,0.73-3.75,0.92-5.64,0.54c-2.93-0.63-5.21-2.94-5.81-5.89
		c2.06,0.7,4.29-0.4,5-2.46c0.3-0.89,0.28-1.87-0.08-2.74c-0.27-0.73-0.82-1.32-1.52-1.65c-1.05-0.38-2.22-0.13-3.02,0.65
		c-0.81,0.73-1.36,1.71-1.57,2.78c-2.13-3.47-2.99-7.57-2.43-11.6c-2.11,1.55-3.06,4.6-3.4,7.85
		C290.14,257.24,289.83,254.33,290.87,251.76z"/>
	<path id="패스_4260" class="st32" d="M290.87,251.76c1.27-2.88,3.69-5.09,6.67-6.1c2.96-0.98,6.11-1.22,9.19-0.7
		c1.91,0.22,3.76,0.77,5.48,1.62c1.74,0.89,3.16,2.3,4.05,4.04l0.36-2.98c0.76,0.16,1.37,0.71,1.61,1.45
		c0.2,0.77-0.01,1.6-0.55,2.19h0.28c5.18,0,9.38,4.2,9.38,9.38c0,0,0,0,0,0v15.93c-5.09,0-9.21-4.12-9.21-9.21v-3.66
		c-1.15,2.71-2.98,5.09-5.3,6.9c-0.82,0.6-1.72,1.09-2.67,1.45c-1.78,0.73-3.75,0.92-5.64,0.54c-2.93-0.63-5.21-2.94-5.81-5.89
		c2.06,0.7,4.29-0.4,5-2.46c0.3-0.89,0.28-1.87-0.08-2.74c-0.27-0.73-0.82-1.32-1.52-1.65c-1.05-0.38-2.22-0.13-3.02,0.65
		c-0.81,0.73-1.36,1.71-1.57,2.78c-2.13-3.47-2.99-7.57-2.43-11.6c-2.11,1.55-3.06,4.6-3.4,7.85
		C290.14,257.24,289.83,254.33,290.87,251.76z"/>
	<path id="패스_4261" class="st13" d="M299.01,288.95l-8.16,5.91c-0.15,1.9-0.4,5.45-0.54,9.74c1.35-1.51,2.62-3.09,3.81-4.73
		C296.46,296.6,298.13,292.88,299.01,288.95z"/>
	<path id="패스_4262" class="st28" d="M279.22,295.72l-5.45,6.34c0,0-14.28-9.66-15.23-11.5c-0.83-5.04-1.72-6.23-3.26-7.63
		c-1.45-1.32-1.94,0.22-1.37,0.91c0.79,0.82,1.08,2,0.77,3.1c-4.74-4.53-8.63-6.12-9.9-5.1c-2.55,2.25-2.25,3.56,1.48,6.88
		c3.35,2.81,6.99,6.28,6.99,6.28l16.13,16.28c1.82,1.84,4.73,2.02,6.77,0.43l10.23-7.99L279.22,295.72z"/>
	<path id="패스_4263" class="st8" d="M299.19,277.59l-1.24,0.15c-4.1,0.5-7.83,2.62-10.34,5.9l-9.28,12.09
		c0.41,4.34,3.57,7.93,7.82,8.89l10.2-10.79C301.68,288.02,299.19,277.59,299.19,277.59z"/>
	<path id="패스_4264" class="st31" d="M299.19,277.59l-1.24,0.15c-4.1,0.5-7.83,2.62-10.34,5.9l-9.28,12.09
		c0.41,4.34,3.57,7.93,7.82,8.89l10.2-10.79C301.68,288.02,299.19,277.59,299.19,277.59z"/>
	<path id="패스_4265" class="st8" d="M305.04,328.7c3.08-10.5,6.22-19.83,19.4-25.64c4.65-2.05,7.13-1.32,8.3,0.49h0.01
		c-0.73-1.34-1.75-2.49-2.99-3.37v0.01c-1.38-1.08-3.72-1.24-7.48,0.41c-10.08,4.44-14.29,10.94-17.09,18.44
		c-0.86,2.31-1.59,4.72-2.32,7.19c-2.65,9.05-5.85,20.86-11.99,24.08c-2.1,1.12-10.5-3.23-16.28-7.84s-7-6.93-7.32-8.48v3.09
		c0,1.05,0.32,2.07,0.93,2.92c5.84,8.17,16.43,13,21.65,13.61C298.15,353.4,301.96,339.19,305.04,328.7z"/>
	<path id="패스_4266" class="st21" d="M305.04,328.7c3.08-10.5,6.22-19.83,19.4-25.64c4.65-2.05,7.13-1.32,8.3,0.49h0.01
		c-0.73-1.34-1.75-2.49-2.99-3.37v0.01c-1.38-1.08-3.72-1.24-7.48,0.41c-10.08,4.44-14.29,10.94-17.09,18.44
		c-0.86,2.31-1.59,4.72-2.32,7.19c-2.65,9.05-5.85,20.86-11.99,24.08c-2.1,1.12-10.5-3.23-16.28-7.84s-7-6.93-7.32-8.48v3.09
		c0,1.05,0.32,2.07,0.93,2.92c5.84,8.17,16.43,13,21.65,13.61C298.15,353.4,301.96,339.19,305.04,328.7z"/>
	<path id="패스_4267" class="st8" d="M333.63,307.14c0.05-1.26-0.26-2.5-0.89-3.59c-1.17-1.81-3.65-2.54-8.3-0.49
		c-13.18,5.81-16.33,15.14-19.4,25.64s-6.89,24.71-15.16,24.92c8.21,2.36,25.86-7.07,34.58-13.11c3-2.08,5.24-5.09,6.37-8.57
		C334.09,321.85,333.63,310.37,333.63,307.14z"/>
	<g id="그룹_4798">
		<g id="그룹_4795">
			<g id="그룹_4794">
				<path id="패스_4268" class="st14" d="M209.46,400.29c-0.62,1.46-2.05,2.42-3.63,2.45c-1.55,0-3.1-0.2-4.6-0.59
					c-3.41-0.62-5.31-0.01-8.72-0.09c-1.12,0.01-2.24-0.11-3.33-0.36c-1.1-0.25-2.09-0.84-2.84-1.68c-0.43-0.51-0.71-1.13-0.82-1.78
					c-0.14,1,0.16,2.02,0.82,2.78c0.75,0.84,1.75,1.42,2.84,1.68c1.09,0.25,2.21,0.37,3.33,0.36c3.41,0.08,5.3-0.53,8.72,0.09
					c1.5,0.39,3.05,0.59,4.6,0.59c1.59-0.03,3.01-0.99,3.63-2.45c0.15-0.51,0.19-1.05,0.12-1.57
					C209.56,399.91,209.52,400.1,209.46,400.29z"/>
				<path id="패스_4269" class="st4" d="M209.38,397.45c-0.21-1.04-0.42-2.07-0.63-3.1c-0.08-0.55-0.26-1.09-0.52-1.58
					c-0.28-0.5-0.81-0.8-1.38-0.79c-1.87-0.25-4.5-0.93-6.05,0.14c-2.43,1.67-4.02,2.54-6.97,2.42c-1.53-0.18-3.08-0.25-4.63-0.19
					c-1.58,0.09-2.97,1.06-3.59,2.52c-0.13,0.44-0.16,0.9-0.08,1.35c0.11,0.66,0.39,1.27,0.82,1.78c0.75,0.84,1.75,1.42,2.84,1.68
					c1.09,0.25,2.21,0.37,3.33,0.36c3.41,0.08,5.3-0.53,8.72,0.09c1.5,0.39,3.05,0.59,4.6,0.59c1.59-0.03,3.01-0.99,3.63-2.45
					c0.06-0.19,0.1-0.38,0.12-0.58C209.63,398.95,209.56,398.19,209.38,397.45z"/>
			</g>
			<path id="패스_4270" class="st28" d="M200.34,388.88l-0.13,4.04c-0.03,0.86,0.63,1.59,1.48,1.65c1.36,0.1,2.72,0.08,4.07-0.04
				c1.13-0.11,2.02-1.03,2.08-2.17l0.16-2.98L200.34,388.88z"/>
		</g>
		<g id="그룹_4796">
			<path id="패스_4271" class="st8" d="M200.26,370.29c0,5.63-0.59,19.6-0.59,19.6c5.14,3.3,8.89,0.86,8.89,0.86
				c0.49-8.99,4.94-17.59,4.94-26.39c-6.82-4.67-8.9-5.79-11.68-8.53C200.26,360.03,200.26,366.25,200.26,370.29z"/>
		</g>
		<g id="그룹_4797">
			<path id="패스_4272" class="st29" d="M200.26,370.29c0,5.63-0.59,19.6-0.59,19.6c5.14,3.3,8.89,0.86,8.89,0.86
				c0.49-8.99,4.94-17.59,4.94-26.39c-6.82-4.67-8.9-5.79-11.68-8.53C200.26,360.03,200.26,366.25,200.26,370.29z"/>
		</g>
	</g>
	<g id="그룹_4801">
		<g id="그룹_4800">
			<g id="그룹_4799">
				<path id="패스_4273" class="st14" d="M196,410.53c-0.67,1.57-2.2,2.59-3.9,2.62c-1.66,0-3.32-0.21-4.93-0.63
					c-3.66-0.66-5.7-0.01-9.35-0.1c-1.2,0.01-2.4-0.12-3.57-0.39c-1.18-0.27-2.24-0.9-3.05-1.8c-0.46-0.55-0.76-1.21-0.88-1.91
					c-0.15,1.08,0.17,2.16,0.88,2.98c0.81,0.9,1.87,1.53,3.05,1.8c1.17,0.27,2.37,0.4,3.57,0.39c3.65,0.09,5.69-0.57,9.35,0.1
					c1.61,0.42,3.27,0.63,4.93,0.63c1.7-0.03,3.23-1.06,3.9-2.62c0.16-0.55,0.2-1.12,0.13-1.69
					C196.1,410.12,196.06,410.33,196,410.53z"/>
				<path id="패스_4274" class="st4" d="M195.9,407.49c-0.22-1.11-0.45-2.22-0.67-3.33c-0.08-0.6-0.27-1.17-0.56-1.7
					c-0.3-0.53-0.87-0.86-1.48-0.85c-2.01-0.27-4.83-0.99-6.49,0.15c-2.61,1.8-4.31,2.72-7.48,2.6c-1.65-0.2-3.31-0.27-4.96-0.2
					c-1.69,0.09-3.19,1.14-3.85,2.7c-0.14,0.47-0.17,0.96-0.08,1.45c0.12,0.71,0.42,1.37,0.88,1.91c0.81,0.9,1.87,1.53,3.05,1.8
					c1.17,0.27,2.37,0.4,3.57,0.39c3.65,0.09,5.69-0.57,9.35,0.1c1.61,0.42,3.27,0.63,4.93,0.63c1.7-0.03,3.23-1.06,3.9-2.62
					c0.06-0.2,0.1-0.41,0.13-0.62C196.18,409.09,196.1,408.28,195.9,407.49z"/>
			</g>
			<path id="패스_4275" class="st28" d="M186.2,398.29l-0.14,4.34c-0.03,0.92,0.67,1.71,1.59,1.77c1.46,0.1,2.92,0.09,4.37-0.04
				c1.22-0.11,2.17-1.1,2.24-2.32l0.17-3.2L186.2,398.29z"/>
		</g>
		<path id="패스_4276" class="st8" d="M186.12,378.34c0,6.04-0.64,21.03-0.64,21.03c5.51,3.54,9.54,0.92,9.54,0.92
			c0.53-9.65,5.3-18.87,5.3-28.31c-7.31-5.02-9.55-6.21-12.53-9.15C186.13,367.34,186.12,374.01,186.12,378.34z"/>
		<path id="패스_4277" class="st23" d="M186.12,378.34c0,6.04-0.64,21.03-0.64,21.03c5.51,3.54,9.54,0.92,9.54,0.92
			c0.53-9.65,5.3-18.87,5.3-28.31c-7.31-5.02-9.55-6.21-12.53-9.15C186.13,367.34,186.12,374.01,186.12,378.34z"/>
		<path id="패스_4278" class="st10" d="M200.33,371.98c-2.63-1.8-4.6-3.11-6.19-4.19c0.38,5.64,1.83,11.15,4.27,16.24
			C199.56,380.12,200.2,376.07,200.33,371.98z"/>
	</g>
	<g id="그룹_4802">
		<path id="패스_4279" class="st14" d="M199.22,417.75c-0.35,0-0.64-0.28-0.64-0.64c0-0.17,0.06-0.32,0.18-0.44l23.16-24.05
			c0.24-0.25,0.65-0.26,0.9-0.02c0.25,0.24,0.26,0.65,0.02,0.9l-23.16,24.05C199.56,417.68,199.39,417.75,199.22,417.75z"/>
	</g>
	<path id="패스_4280" class="st8" d="M226.52,435.02v5.14c0,0.47,0.38,0.85,0.85,0.85c0.47,0,0.85-0.38,0.85-0.85v-5.14
		C227.68,435.27,227.06,435.27,226.52,435.02L226.52,435.02z"/>
	<path id="패스_4281" class="st5" d="M227.37,389.9c-0.47,0-0.85,0.38-0.85,0.85v44.27c0.54,0.24,1.16,0.24,1.7,0v-44.27
		C228.22,390.28,227.84,389.9,227.37,389.9C227.37,389.9,227.37,389.9,227.37,389.9z"/>
	<path id="패스_4282" class="st5" d="M212.74,384.03c-0.43-0.18-0.93,0.03-1.11,0.46l-13.07,32c0.4,0.45,1,0.67,1.6,0.58
		l13.04-31.93C213.38,384.7,213.18,384.21,212.74,384.03C212.74,384.03,212.74,384.03,212.74,384.03z"/>
	<path id="패스_4283" class="st8" d="M199.38,417.01c-0.32-0.1-0.6-0.28-0.82-0.53l-2.09,5.12c-0.18,0.43,0.03,0.93,0.46,1.11
		c0.1,0.04,0.21,0.06,0.32,0.06c0.34,0,0.65-0.21,0.79-0.53l2.12-5.18C199.9,417.1,199.64,417.08,199.38,417.01z"/>
	<g id="그룹_4805">
		<path id="패스_4284" class="st14" d="M255.51,417.75c0.35,0,0.64-0.29,0.64-0.64c0-0.16-0.06-0.32-0.18-0.44l-25.44-26.58
			c-0.24-0.25-0.65-0.26-0.9-0.02c-0.25,0.24-0.26,0.65-0.02,0.9l25.44,26.58C255.18,417.68,255.34,417.75,255.51,417.75z"/>
	</g>
	<path id="패스_4285" class="st5" d="M242,384.03c0.43-0.18,0.93,0.03,1.11,0.46l13.07,31.99c-0.4,0.45-1,0.67-1.6,0.58
		l-13.04-31.93C241.35,384.7,241.56,384.2,242,384.03C242,384.03,242,384.03,242,384.03z"/>
	<path id="패스_4286" class="st8" d="M255.35,417.01c0.32-0.1,0.6-0.28,0.82-0.53l2.09,5.12c0.18,0.43-0.03,0.93-0.46,1.11
		c-0.1,0.04-0.21,0.06-0.32,0.06c-0.34,0-0.65-0.21-0.79-0.53l-2.12-5.18C254.83,417.1,255.1,417.08,255.35,417.01z"/>
	<path id="패스_4287" class="st8" d="M204.57,382.48c5.78,4.61,14.18,8.96,16.28,7.84c6.13-3.22,9.34-15.03,11.99-24.08
		c0.73-2.47,1.46-4.88,2.32-7.2c-2.05-1.19-3.89-2.2-5.17-2.77c-5.32-2.37-32.95,12.43-32.73,17.71
		C197.57,375.55,198.79,377.87,204.57,382.48z"/>
	<path id="패스_4288" class="st19" d="M204.57,382.48c5.78,4.61,14.18,8.96,16.28,7.84c6.13-3.22,9.34-15.03,11.99-24.08
		c0.73-2.47,1.46-4.88,2.32-7.2c-2.05-1.19-3.89-2.2-5.17-2.77c-5.32-2.37-32.95,12.43-32.73,17.71
		C197.57,375.55,198.79,377.87,204.57,382.48z"/>
	<path id="패스_4289" class="st8" d="M251.45,359.81l-17.99-3.93c-12.65-4.08-23.32-7.77-28.99-3.82
		c-1.26,0.94-2.19,2.26-2.65,3.76c2.77,2.73,4.86,3.85,11.68,8.53c15.22,10.57,28.17,15.39,35.38,10.02S251.45,359.81,251.45,359.81
		z"/>
	<path id="패스_4290" class="st29" d="M251.45,359.81l-17.99-3.93c-12.65-4.08-23.32-7.77-28.99-3.82
		c-1.26,0.94-2.19,2.26-2.65,3.76c2.77,2.73,4.86,3.85,11.68,8.53c15.22,10.57,28.17,15.39,35.38,10.02S251.45,359.81,251.45,359.81
		z"/>
	<path id="패스_4291" class="st8" d="M241.04,367.11l-19.3-4.21c-13.57-4.38-25.02-8.34-31.1-4.1c-1.36,1-2.35,2.42-2.84,4.04
		c2.98,2.93,5.21,4.13,12.53,9.15c16.33,11.35,30.22,16.51,37.96,10.75S241.04,367.11,241.04,367.11z"/>
	<path id="패스_4292" class="st23" d="M241.04,367.11l-19.3-4.21c-13.57-4.38-25.02-8.34-31.1-4.1c-1.36,1-2.35,2.42-2.84,4.04
		c2.98,2.93,5.21,4.13,12.53,9.15c16.33,11.35,30.22,16.51,37.96,10.75S241.04,367.11,241.04,367.11z"/>
	<g id="그룹_4812">
		<g id="그룹_4808">
			<path id="패스_4293" class="st28" d="M252.85,342.81l1.75,3.68l-4.18,4.6l0.3,10.97l13.46-11.69c1.24-1.08,1.61-2.85,0.89-4.33
				l-4.11-8.54L252.85,342.81z"/>
			<path id="패스_4294" class="st26" d="M257,349.77c-1.05-0.88-1.88-2.01-2.4-3.28l-1.04,1.14
				C254.38,348.77,255.62,349.54,257,349.77z"/>
		</g>
		<path id="패스_4295" class="st5" d="M252.52,343.69c5.35-0.47,8.99-6.01,8.99-6.01c-4.78-9.79-8.96-20.69-17.31-18.09
			L252.52,343.69z"/>
		<path id="패스_4296" class="st5" d="M220.11,337.08v30.77c18.12,7.59,29.86,0.73,31.46-2.83c-0.84-12.53,2.13-27.18,1.9-33.4
			s-0.99-13.24-10.64-11.83l-10.26,1l-5.21,1.27L220.11,337.08z"/>
		<path id="패스_4297" class="st33" d="M220.11,337.08v30.77c18.12,7.59,29.86,0.73,31.46-2.83c-0.84-12.53,2.13-27.18,1.9-33.4
			s-0.99-13.24-10.64-11.83l-10.26,1l-5.21,1.27L220.11,337.08z"/>
		<g id="그룹_4810">
			<g id="그룹_4809">
				<path id="패스_4298" class="st28" d="M209.12,336.37l-3.69,3.85l-8.86-11.74c1.2-3.12,1.92-6.4,2.16-9.73
					c0.03-0.58-0.41-1.07-0.99-1.1c-0.02,0-0.04,0-0.06,0l0,0c-0.4,0-0.77,0.23-0.95,0.6l-1.64,3.45l0,0
					c-0.48-0.16-0.86-0.53-1.02-1l-0.32-0.91c-0.22-0.61-0.32-1.25-0.32-1.9v-2.27c-0.01-1.01-0.83-1.82-1.84-1.81
					c-0.3,0-0.6,0.08-0.86,0.22c-1.03,0.56-1.94,1.31-2.68,2.21c-0.71,0.87-1.1,1.95-1.09,3.07v3.07c0,0.79,0.14,1.57,0.41,2.31
					l1.6,4.4c0.15,0.4,0.33,0.79,0.55,1.15l11.43,19.16c1.54,2.58,4.88,3.42,7.46,1.88c0.29-0.17,0.57-0.38,0.82-0.6l7.28-6.46
					L209.12,336.37z"/>
				<path id="패스_4299" class="st26" d="M203.16,344.93c0.37-1.73,1.14-3.35,2.26-4.72l-1.02-1.35
					C203.64,340.29,202.56,343.05,203.16,344.93z"/>
			</g>
			<path id="패스_4300" class="st5" d="M208.21,336.39l10.4-10.23c2.31-2.28,5.32-3.72,8.55-4.1l0.19-0.02
				c4.4,9.64-1.42,14.35-1.42,14.35l-9.67,8.88C212.62,343.36,209.76,340.21,208.21,336.39z"/>
		</g>
		<g id="그룹_4811">
			<path id="패스_4301" class="st5" d="M226.46,296.83c-2.2-0.83-4.35-3.99-2.15-5.38c0.61-0.46,2.4,0.08,3.85,0
				c-1.26-1.14-1.57-2.51-0.94-2.94s2.33,1.19,5.4,0.89c3.07-0.3,13.66-3.72,14.99,4.02c0.55-0.98,1.8-1.32,2.78-0.77
				c0.12,0.07,0.23,0.15,0.34,0.24l-2.2,1.56c3.26,4.59,2.2,9.91-5.71,20.41c-1.91,2.31-5.25,2.79-7.73,1.11l-3.26-8.05l-3.19-3.87
				L226.46,296.83z"/>
			<path id="패스_4302" class="st26" d="M225.72,303.27l-2.13,3.7l2.33,0.86L225.72,303.27z"/>
			<path id="패스_4303" class="st28" d="M226.46,296.83c-1.41,5.12-1.62,10.49-0.61,15.7c0.11,0.9,0.45,1.75,0.98,2.48
				c0.7,0.75,1.67,1.2,2.7,1.24c1.02,0.04,2.04-0.06,3.03-0.29v4.81c3.65,0.86,7.4,1.2,10.26-1v-4.92c-2.06,0.66-4.25,0.8-6.37,0.4
				c-2.52-1.36-3.03-5.96-2.67-7.18c0.46,0.6,1.24,0.88,1.97,0.69c0.7-0.19,1.29-0.66,1.64-1.3c0.34-0.64,0.54-1.33,0.61-2.05
				c0.18-0.86,0.05-1.76-0.37-2.54c-0.66-0.88-1.8-1.27-2.85-0.96c-1.03,0.32-1.9,1.05-2.4,2.01c-0.16,0.3-0.31,0.6-0.42,0.92
				c-0.1,0.3-0.43,0.45-0.73,0.35c-0.21-0.07-0.36-0.27-0.38-0.49c-0.13-1.38,0.12-2.77,0.72-4.02c-0.84-0.09-1.6-0.55-2.06-1.26
				c-0.49-0.66-0.64-1.52-0.4-2.31C228.21,297.18,227.31,297.08,226.46,296.83z"/>
		</g>
	</g>
	<path id="패스_4304" class="st8" d="M235,368.7c3.07-10.5,6.22-19.83,19.4-25.64c4.65-2.05,7.13-1.32,8.3,0.49h0.01
		c-0.73-1.34-1.76-2.49-3-3.37v0.01c-1.38-1.08-3.72-1.24-7.48,0.41c-10.08,4.44-14.29,10.94-17.09,18.44
		c-0.86,2.31-1.59,4.72-2.32,7.2c-2.65,9.05-5.85,20.86-11.99,24.08c-2.1,1.12-10.5-3.23-16.28-7.84s-7-6.93-7.32-8.48v3.08
		c0,1.05,0.32,2.07,0.93,2.92c5.84,8.17,16.43,13,21.65,13.61C228.11,393.4,231.93,379.19,235,368.7z"/>
	<path id="패스_4305" class="st21" d="M235,368.7c3.07-10.5,6.22-19.83,19.4-25.64c4.65-2.05,7.13-1.32,8.3,0.49h0.01
		c-0.73-1.34-1.76-2.49-3-3.37v0.01c-1.38-1.08-3.72-1.24-7.48,0.41c-10.08,4.44-14.29,10.94-17.09,18.44
		c-0.86,2.31-1.59,4.72-2.32,7.2c-2.65,9.05-5.85,20.86-11.99,24.08c-2.1,1.12-10.5-3.23-16.28-7.84s-7-6.93-7.32-8.48v3.08
		c0,1.05,0.32,2.07,0.93,2.92c5.84,8.17,16.43,13,21.65,13.61C228.11,393.4,231.93,379.19,235,368.7z"/>
	<path id="패스_4306" class="st8" d="M263.59,347.14c0.05-1.26-0.26-2.5-0.89-3.59c-1.17-1.81-3.65-2.54-8.3-0.49
		c-13.18,5.8-16.33,15.14-19.4,25.64s-6.89,24.71-15.16,24.92c8.21,2.36,25.86-7.07,34.58-13.11c3-2.08,5.24-5.09,6.37-8.57
		C264.05,361.85,263.59,350.37,263.59,347.14z"/>
	<g id="그룹_4817">
		<g id="그룹_4815">
			<g id="그룹_4814">
				<path id="패스_4307" class="st14" d="M426.65,373.15c-0.62,1.46-2.05,2.42-3.63,2.45c-1.55,0-3.1-0.19-4.6-0.59
					c-3.42-0.62-5.31-0.01-8.72-0.09c-1.12,0.01-2.24-0.11-3.33-0.36c-1.09-0.25-2.08-0.84-2.84-1.67
					c-0.43-0.51-0.71-1.13-0.82-1.78c-0.14,1,0.16,2.02,0.82,2.78c0.75,0.84,1.75,1.42,2.84,1.68c1.09,0.25,2.21,0.37,3.33,0.36
					c3.4,0.08,5.3-0.53,8.72,0.09c1.5,0.39,3.05,0.59,4.6,0.59c1.59-0.03,3.01-0.99,3.63-2.45c0.15-0.51,0.19-1.05,0.12-1.57
					C426.76,372.78,426.71,372.97,426.65,373.15z"/>
				<path id="패스_4308" class="st4" d="M426.57,370.32c-0.21-1.04-0.42-2.07-0.63-3.1c-0.08-0.55-0.26-1.09-0.53-1.58
					c-0.28-0.5-0.81-0.8-1.38-0.79c-1.87-0.25-4.5-0.93-6.05,0.14c-2.43,1.67-4.02,2.54-6.97,2.42c-1.53-0.18-3.08-0.25-4.63-0.19
					c-1.58,0.09-2.97,1.06-3.59,2.52c-0.13,0.44-0.16,0.9-0.08,1.35c0.11,0.66,0.39,1.27,0.82,1.78c0.75,0.84,1.75,1.42,2.84,1.68
					c1.09,0.25,2.21,0.37,3.33,0.36c3.4,0.08,5.3-0.53,8.72,0.09c1.5,0.39,3.05,0.59,4.6,0.59c1.59-0.03,3.01-0.99,3.63-2.45
					c0.06-0.19,0.1-0.38,0.12-0.58C426.82,371.82,426.75,371.06,426.57,370.32z"/>
			</g>
			<path id="패스_4309" class="st28" d="M417.52,361.75l-0.13,4.04c-0.03,0.86,0.63,1.59,1.48,1.65c1.36,0.1,2.72,0.08,4.07-0.04
				c1.13-0.11,2.02-1.03,2.08-2.17l0.16-2.98L417.52,361.75z"/>
		</g>
		<g id="그룹_4816">
			<path id="패스_4310" class="st4" d="M417.44,343.16c0,5.63-0.59,19.6-0.59,19.6c5.14,3.29,8.89,0.86,8.89,0.86
				c0.49-8.99,4.94-17.59,4.94-26.39c-6.82-4.67-8.9-5.79-11.68-8.53C417.45,332.9,417.44,339.12,417.44,343.16z"/>
			<path id="패스_4311" class="st4" d="M430.69,337.23c-2.45-1.68-4.29-2.9-5.77-3.9c0.35,5.25,1.7,10.39,3.98,15.14
				C429.97,344.81,430.57,341.03,430.69,337.23z"/>
		</g>
	</g>
	<g id="그룹_4821">
		<g id="그룹_4819">
			<g id="그룹_4818">
				<path id="패스_4312" class="st14" d="M413.19,383.4c-0.67,1.57-2.2,2.59-3.9,2.62c-1.66,0-3.32-0.21-4.93-0.63
					c-3.66-0.66-5.7-0.01-9.36-0.1c-1.2,0.01-2.4-0.12-3.57-0.39c-1.18-0.27-2.24-0.9-3.05-1.8c-0.46-0.55-0.76-1.21-0.88-1.91
					c-0.15,1.07,0.17,2.16,0.88,2.98c0.81,0.9,1.87,1.53,3.05,1.8c1.17,0.27,2.37,0.4,3.57,0.39c3.65,0.09,5.69-0.57,9.36,0.1
					c1.61,0.42,3.27,0.63,4.93,0.63c1.7-0.03,3.23-1.06,3.9-2.62c0.16-0.55,0.2-1.12,0.13-1.69
					C413.29,382.99,413.25,383.19,413.19,383.4z"/>
				<path id="패스_4313" class="st4" d="M413.09,380.36c-0.23-1.11-0.45-2.22-0.67-3.33c-0.08-0.6-0.27-1.17-0.56-1.7
					c-0.3-0.53-0.87-0.86-1.48-0.85c-2.01-0.27-4.83-0.99-6.5,0.15c-2.61,1.8-4.31,2.72-7.48,2.6c-1.65-0.2-3.31-0.26-4.96-0.2
					c-1.69,0.09-3.19,1.14-3.85,2.7c-0.14,0.47-0.17,0.96-0.08,1.45c0.12,0.7,0.42,1.36,0.88,1.91c0.81,0.9,1.87,1.53,3.05,1.8
					c1.17,0.27,2.37,0.4,3.57,0.39c3.65,0.09,5.69-0.57,9.36,0.1c1.61,0.42,3.27,0.63,4.93,0.63c1.7-0.03,3.23-1.06,3.9-2.62
					c0.06-0.2,0.1-0.41,0.13-0.62C413.37,381.96,413.29,381.15,413.09,380.36z"/>
			</g>
			<path id="패스_4314" class="st28" d="M403.39,371.16l-0.14,4.34c-0.03,0.92,0.67,1.71,1.59,1.77c1.46,0.1,2.92,0.09,4.37-0.04
				c1.22-0.11,2.17-1.1,2.23-2.32l0.17-3.2L403.39,371.16z"/>
		</g>
		<g id="그룹_4820">
			<path id="패스_4315" class="st5" d="M403.31,351.21c0,6.04-0.64,21.03-0.64,21.03c5.51,3.54,9.54,0.92,9.54,0.92
				c0.53-9.65,5.3-18.87,5.3-28.31c-7.31-5.02-9.55-6.21-12.53-9.15C403.32,340.2,403.31,346.88,403.31,351.21z"/>
			<path id="패스_4316" class="st10" d="M417.52,344.85c-2.63-1.8-4.6-3.11-6.19-4.19c0.38,5.64,1.83,11.15,4.27,16.24
				C416.75,352.98,417.39,348.93,417.52,344.85z"/>
		</g>
	</g>
	<g id="그룹_4822">
		<path id="패스_4317" class="st4" d="M416.41,390.62c-0.35,0-0.64-0.29-0.64-0.64c0-0.16,0.06-0.32,0.18-0.44l23.16-24.05
			c0.24-0.25,0.65-0.26,0.9-0.02c0.25,0.24,0.26,0.65,0.02,0.9l-23.16,24.05C416.75,390.55,416.58,390.62,416.41,390.62z"/>
	</g>
	<path id="패스_4318" class="st8" d="M443.71,407.89v5.14c0,0.47,0.38,0.85,0.85,0.85s0.85-0.38,0.85-0.85v-5.14
		C444.87,408.13,444.25,408.13,443.71,407.89L443.71,407.89z"/>
	<path id="패스_4319" class="st5" d="M444.56,362.77c-0.47,0-0.85,0.38-0.85,0.85v44.27c0.54,0.24,1.16,0.24,1.7,0v-44.27
		C445.41,363.15,445.03,362.77,444.56,362.77C444.56,362.77,444.56,362.77,444.56,362.77z"/>
	<path id="패스_4320" class="st5" d="M429.93,356.9c-0.43-0.18-0.93,0.03-1.11,0.46l-13.07,31.99c0.4,0.45,1,0.67,1.6,0.58
		L430.39,358C430.57,357.57,430.36,357.07,429.93,356.9C429.93,356.9,429.93,356.9,429.93,356.9z"/>
	<path id="패스_4321" class="st8" d="M416.57,389.88c-0.32-0.1-0.6-0.28-0.83-0.53l-2.09,5.12c-0.18,0.43,0.03,0.93,0.46,1.11
		c0.1,0.04,0.21,0.06,0.32,0.06c0.34,0,0.65-0.21,0.79-0.53l2.12-5.18C417.09,389.97,416.83,389.95,416.57,389.88z"/>
	<g id="그룹_4825">
		<path id="패스_4322" class="st4" d="M472.7,390.62c0.35,0,0.64-0.29,0.64-0.64c0-0.16-0.06-0.32-0.18-0.44l-25.44-26.58
			c-0.24-0.25-0.65-0.26-0.9-0.02c-0.25,0.24-0.26,0.65-0.02,0.9l25.44,26.58C472.37,390.55,472.53,390.62,472.7,390.62z"/>
	</g>
	<path id="패스_4323" class="st5" d="M459.19,356.9c0.43-0.18,0.93,0.03,1.11,0.46l13.07,31.99c-0.4,0.45-1,0.67-1.6,0.58
		L458.72,358C458.54,357.57,458.75,357.07,459.19,356.9C459.18,356.9,459.19,356.9,459.19,356.9z"/>
	<path id="패스_4324" class="st8" d="M472.54,389.88c0.32-0.1,0.6-0.28,0.83-0.53l2.09,5.12c0.18,0.43-0.03,0.93-0.46,1.11
		c0,0,0,0,0,0c-0.1,0.04-0.21,0.06-0.32,0.06c-0.34,0-0.65-0.21-0.79-0.53l-2.12-5.18C472.02,389.97,472.29,389.95,472.54,389.88z"
		/>
	<path id="패스_4325" class="st8" d="M421.76,355.35c5.78,4.61,14.18,8.96,16.28,7.84c6.13-3.22,9.34-15.03,11.99-24.08
		c0.73-2.47,1.45-4.88,2.32-7.2c-2.05-1.19-3.89-2.2-5.17-2.77c-5.32-2.37-32.95,12.43-32.73,17.71
		C414.76,348.42,415.98,350.74,421.76,355.35z"/>
	<path id="패스_4326" class="st19" d="M421.76,355.35c5.78,4.61,14.18,8.96,16.28,7.84c6.13-3.22,9.34-15.03,11.99-24.08
		c0.73-2.47,1.45-4.88,2.32-7.2c-2.05-1.19-3.89-2.2-5.17-2.77c-5.32-2.37-32.95,12.43-32.73,17.71
		C414.76,348.42,415.98,350.74,421.76,355.35z"/>
	<path id="패스_4327" class="st4" d="M468.64,332.68l-17.99-3.92c-12.65-4.08-23.32-7.77-28.99-3.82
		c-1.26,0.94-2.19,2.26-2.65,3.76c2.77,2.73,4.86,3.85,11.68,8.53c15.22,10.58,28.17,15.39,35.38,10.02S468.64,332.68,468.64,332.68
		z"/>
	<path id="패스_4328" class="st5" d="M458.24,339.97l-19.3-4.21c-13.57-4.38-25.02-8.34-31.1-4.09c-1.36,1.01-2.35,2.42-2.84,4.04
		c2.98,2.93,5.21,4.13,12.53,9.15c16.33,11.35,30.22,16.51,37.96,10.75S458.24,339.97,458.24,339.97z"/>
	<g id="그룹_4832">
		<g id="그룹_4828">
			<path id="패스_4329" class="st28" d="M470.04,315.68l1.75,3.68l-4.18,4.59l0.3,10.97l13.46-11.69
				c1.24-1.08,1.61-2.85,0.89-4.33l-4.11-8.54L470.04,315.68z"/>
			<path id="패스_4330" class="st26" d="M474.19,322.64c-1.06-0.88-1.88-2.01-2.4-3.28l-1.04,1.14
				C471.57,321.64,472.81,322.41,474.19,322.64z"/>
		</g>
		<path id="패스_4331" class="st20" d="M469.71,316.56c5.35-0.47,8.99-6.01,8.99-6.01c-4.78-9.79-8.96-20.69-17.31-18.09
			L469.71,316.56z"/>
		<path id="패스_4332" class="st3" d="M437.3,309.95v30.77c18.12,7.59,29.86,0.73,31.45-2.83c-0.83-12.53,2.12-27.18,1.9-33.4
			s-0.99-13.24-10.64-11.83l-10.27,1l-5.21,1.27L437.3,309.95z"/>
		<g id="그룹_4830">
			<g id="그룹_4829">
				<path id="패스_4333" class="st28" d="M426.31,309.24l-3.7,3.85l-8.86-11.74c1.2-3.12,1.93-6.4,2.16-9.73
					c0.03-0.58-0.41-1.07-0.99-1.1c-0.02,0-0.04,0-0.06,0l0,0c-0.4,0-0.77,0.23-0.95,0.6l-1.64,3.45l0,0
					c-0.48-0.16-0.86-0.53-1.02-1l-0.32-0.91c-0.22-0.61-0.33-1.25-0.33-1.9v-2.27c-0.01-1.01-0.83-1.82-1.83-1.81
					c-0.31,0-0.6,0.08-0.87,0.23c-1.03,0.56-1.94,1.31-2.68,2.21c-0.71,0.87-1.1,1.95-1.09,3.07v3.07c0,0.79,0.14,1.57,0.41,2.31
					l1.6,4.4c0.15,0.4,0.33,0.79,0.55,1.15l11.44,19.16c1.54,2.58,4.88,3.42,7.46,1.88c0.29-0.17,0.57-0.38,0.82-0.6l7.28-6.46
					L426.31,309.24z"/>
				<path id="패스_4334" class="st26" d="M420.35,317.8c0.37-1.73,1.14-3.35,2.27-4.72l-1.02-1.35
					C420.83,313.15,419.75,315.92,420.35,317.8z"/>
			</g>
			<path id="패스_4335" class="st20" d="M425.4,309.26l10.4-10.23c2.31-2.28,5.32-3.72,8.55-4.1l0.19-0.02
				c4.4,9.64-1.42,14.35-1.42,14.35l-9.67,8.88C429.81,316.23,426.95,313.08,425.4,309.26z"/>
		</g>
		<g id="그룹_4831">
			<path id="패스_4336" class="st4" d="M464.8,266.29c0.55-0.98,1.8-1.32,2.78-0.77c0.12,0.07,0.23,0.15,0.34,0.24l-2.2,1.56
				c3.27,4.59,2.2,9.91-5.71,20.41c-1.91,2.31-5.25,2.79-7.73,1.11l-3.27-8.05l-3.19-3.87l-2.18-7.22c-1.47-0.78-2.62-2.05-3.23-3.6
				c-0.65-1.58-0.73-3.33-0.23-4.96c1.48,1.53,3.52,2.38,5.64,2.36c2.13-0.1,4.25-0.42,6.31-0.98c2.07-0.55,4.22-0.71,6.35-0.48
				C461.03,262.66,463.27,264.17,464.8,266.29z"/>
			<path id="패스_4337" class="st26" d="M442.91,276.14l-2.13,3.7l2.33,0.86L442.91,276.14z"/>
			<path id="패스_4338" class="st28" d="M443.65,269.7c-1.41,5.12-1.62,10.49-0.61,15.7c0.11,0.9,0.45,1.75,0.98,2.49
				c0.7,0.75,1.67,1.2,2.7,1.24c1.02,0.04,2.04-0.06,3.03-0.29v4.81c3.65,0.86,7.4,1.2,10.27-1v-4.92c-2.06,0.66-4.25,0.8-6.37,0.4
				c-2.52-1.36-3.03-5.96-2.67-7.18c0.46,0.6,1.23,0.88,1.97,0.69c0.7-0.19,1.29-0.66,1.64-1.3c0.34-0.64,0.54-1.33,0.61-2.05
				c0.18-0.86,0.05-1.76-0.37-2.54c-0.66-0.88-1.8-1.27-2.86-0.96c-1.03,0.32-1.9,1.05-2.4,2.01c-0.17,0.29-0.31,0.6-0.42,0.92
				c-0.1,0.3-0.43,0.45-0.73,0.35c-0.21-0.07-0.36-0.27-0.38-0.49c-0.13-1.38,0.12-2.77,0.72-4.02c-0.84-0.09-1.6-0.55-2.06-1.26
				c-0.49-0.66-0.64-1.52-0.4-2.31C445.4,270.05,444.5,269.95,443.65,269.7z"/>
		</g>
	</g>
	<path id="패스_4339" class="st8" d="M452.19,341.56c3.08-10.5,6.22-19.83,19.4-25.64c4.65-2.05,7.13-1.32,8.3,0.49h0.01
		c-0.73-1.34-1.76-2.49-3-3.37v0.01c-1.38-1.08-3.71-1.24-7.48,0.41c-10.08,4.44-14.29,10.94-17.09,18.44
		c-0.86,2.31-1.59,4.72-2.32,7.2c-2.65,9.05-5.85,20.86-11.99,24.08c-2.1,1.12-10.5-3.23-16.28-7.84s-7-6.93-7.32-8.48v3.09
		c0,1.05,0.32,2.07,0.93,2.92c5.83,8.17,16.43,13,21.65,13.61C445.3,366.27,449.12,352.06,452.19,341.56z"/>
	<path id="패스_4340" class="st21" d="M452.19,341.56c3.08-10.5,6.22-19.83,19.4-25.64c4.65-2.05,7.13-1.32,8.3,0.49h0.01
		c-0.73-1.34-1.76-2.49-3-3.37v0.01c-1.38-1.08-3.71-1.24-7.48,0.41c-10.08,4.44-14.29,10.94-17.09,18.44
		c-0.86,2.31-1.59,4.72-2.32,7.2c-2.65,9.05-5.85,20.86-11.99,24.08c-2.1,1.12-10.5-3.23-16.28-7.84s-7-6.93-7.32-8.48v3.09
		c0,1.05,0.32,2.07,0.93,2.92c5.83,8.17,16.43,13,21.65,13.61C445.3,366.27,449.12,352.06,452.19,341.56z"/>
	<path id="패스_4341" class="st8" d="M480.78,320c0.05-1.26-0.26-2.5-0.89-3.59c-1.17-1.81-3.65-2.54-8.3-0.49
		c-13.18,5.8-16.33,15.14-19.4,25.64s-6.89,24.71-15.16,24.92c8.21,2.36,25.86-7.07,34.58-13.1c3-2.08,5.24-5.09,6.37-8.57
		C481.24,334.72,480.78,323.24,480.78,320z"/>
	<path id="패스_4342" class="st8" d="M338.78,412.04c0.47-0.95,1.36-1.63,2.41-1.82c1.03-0.18,2.08-0.23,3.12-0.13
		c-4.49,2.48,1.6,4,6.86,3.77s9.84,0.67,10.04-3.67c0.59,0.28,2.17,3.79,1.59,6.82c-0.83,1.25-2.14,2.09-3.62,2.32
		c-1.47,0.21-2.96,0.14-4.4-0.22c-1.45-0.3-2.87-0.73-4.33-0.94c-1.85-0.26-3.74-0.18-5.6-0.4c-1.88-0.12-3.67-0.87-5.08-2.13
		C338.76,414.73,338.38,413.33,338.78,412.04z"/>
	<path id="패스_4343" class="st24" d="M338.78,412.04c0.47-0.95,1.36-1.63,2.41-1.82c1.03-0.18,2.08-0.23,3.12-0.13
		c-4.49,2.48,1.6,4,6.86,3.77s9.84,0.67,10.04-3.67c0.59,0.28,2.17,3.79,1.59,6.82c-0.83,1.25-2.14,2.09-3.62,2.32
		c-1.47,0.21-2.96,0.14-4.4-0.22c-1.45-0.3-2.87-0.73-4.33-0.94c-1.85-0.26-3.74-0.18-5.6-0.4c-1.88-0.12-3.67-0.87-5.08-2.13
		C338.76,414.73,338.38,413.33,338.78,412.04z"/>
	<path id="패스_4344" class="st26" d="M351.16,413.86c-5.26,0.24-11.34-1.29-6.86-3.77c3.01,0.12,6.23-0.58,9.24-0.58l0.54-5.02
		l7.7,0.59l-0.59,5.1C361,414.53,356.42,413.62,351.16,413.86z"/>
	<path id="패스_4345" class="st8" d="M366.54,375.33c1.58,5.93-1.72,21.34-4.41,30.98c0,0-5.71,1.18-8.55-0.95l-0.03-34.85
		c0-1.13,0.17-2.25,0.48-3.34L366.54,375.33z"/>
	<path id="패스_4346" class="st10" d="M366.54,375.33c1.58,5.93-1.72,21.34-4.41,30.98c0,0-5.71,1.18-8.55-0.95l-0.03-34.85
		c0-1.13,0.17-2.25,0.48-3.34L366.54,375.33z"/>
	<path id="패스_4347" class="st8" d="M349.03,413.04c0.3-0.05,0.49-0.08,0.49-0.08c2.69-9.64,5.99-25.05,4.41-30.98l-12.5-8.16
		c-0.32,1.08-0.48,2.21-0.48,3.34l0.03,34.85c0.13,0.09,0.26,0.17,0.39,0.25C343.76,413.71,347.67,413.26,349.03,413.04z"/>
	<path id="패스_4348" class="st10" d="M349.03,413.04c0.3-0.05,0.49-0.08,0.49-0.08c2.69-9.64,5.99-25.05,4.41-30.98l-12.5-8.16
		c-0.32,1.08-0.48,2.21-0.48,3.34l0.03,34.85c0.13,0.09,0.26,0.17,0.39,0.25C343.76,413.71,347.67,413.26,349.03,413.04z"/>
	<g id="그룹_4836">
		<path id="패스_4349" class="st8" d="M348.59,416.83c-0.2,4.35-4.78,3.44-10.04,3.67s-11.34-1.29-6.86-3.77
			c-1.04-0.1-2.09-0.06-3.12,0.12c-1.04,0.19-1.94,0.87-2.41,1.82c-0.4,1.29-0.01,2.68,0.99,3.59c1.4,1.26,3.19,2.01,5.08,2.13
			c1.86,0.22,3.74,0.14,5.6,0.4c1.46,0.21,2.89,0.63,4.33,0.94c1.44,0.36,2.93,0.44,4.4,0.22c1.48-0.22,2.8-1.07,3.62-2.32
			C350.76,420.62,349.18,417.11,348.59,416.83z"/>
		<path id="패스_4351" class="st28" d="M338.55,420.51c5.26-0.24,9.84,0.67,10.04-3.67l0.44-3.79c-1.36,0.22-5.27,0.67-7.67-0.78
			l-0.42,3.9c-3.01,0-6.23,0.7-9.24,0.58C327.21,419.22,333.29,420.74,338.55,420.51z"/>
	</g>
	<path id="패스_4352" class="st19" d="M350.54,388.22c-1.64-3.08-2.48-6.53-2.41-10.02l5.8,3.78c0.63,2.37,0.48,6.27-0.1,10.69
		C352.52,391.35,351.41,389.85,350.54,388.22z"/>
	<g id="그룹_4838">
		<path id="패스_4353" class="st14" d="M354.02,427.62c-0.35,0-0.64-0.29-0.64-0.64c0-0.16,0.06-0.32,0.18-0.44l23.16-24.05
			c0.23-0.26,0.64-0.29,0.9-0.05s0.29,0.64,0.05,0.9c-0.01,0.01-0.02,0.02-0.03,0.04l-23.17,24.05
			C354.35,427.54,354.19,427.61,354.02,427.62z"/>
	</g>
	<path id="패스_4354" class="st8" d="M381.32,444.89v5.14c0,0.47,0.38,0.85,0.85,0.85s0.85-0.38,0.85-0.85v-5.14
		C382.47,445.13,381.86,445.13,381.32,444.89z"/>
	<path id="패스_4355" class="st5" d="M382.16,399.77c-0.47,0-0.85,0.38-0.85,0.85v44.27c0.54,0.24,1.16,0.24,1.7,0v-44.27
		C383.02,400.15,382.64,399.77,382.16,399.77C382.17,399.77,382.16,399.77,382.16,399.77z"/>
	<path id="패스_4356" class="st5" d="M367.54,393.89c-0.43-0.18-0.93,0.03-1.11,0.46l-13.07,31.99c0.4,0.45,1,0.67,1.6,0.58
		l13.05-31.93C368.18,394.56,367.97,394.06,367.54,393.89C367.54,393.89,367.54,393.89,367.54,393.89z"/>
	<path id="패스_4357" class="st8" d="M354.18,426.87c-0.32-0.1-0.6-0.28-0.83-0.53l-2.09,5.12c-0.18,0.43,0.03,0.93,0.46,1.11
		c0.1,0.04,0.21,0.06,0.32,0.06c0.34,0,0.66-0.21,0.79-0.53l2.12-5.18C354.7,426.96,354.43,426.94,354.18,426.87z"/>
	<g id="그룹_4841">
		<path id="패스_4358" class="st14" d="M410.31,427.62c0.35,0,0.64-0.29,0.64-0.64c0-0.16-0.06-0.32-0.18-0.44l-25.44-26.58
			c-0.25-0.25-0.65-0.25-0.9,0c-0.24,0.24-0.25,0.63-0.02,0.88l25.44,26.58C409.97,427.55,410.14,427.62,410.31,427.62z"/>
	</g>
	<path id="패스_4359" class="st5" d="M396.79,393.89c0.43-0.18,0.93,0.03,1.11,0.46l13.07,31.99c-0.4,0.45-1,0.67-1.6,0.58
		l-13.05-31.93C396.15,394.56,396.36,394.07,396.79,393.89C396.79,393.89,396.79,393.89,396.79,393.89z"/>
	<path id="패스_4360" class="st8" d="M410.15,426.87c0.32-0.1,0.6-0.28,0.83-0.53l2.09,5.12c0.19,0.43,0,0.93-0.43,1.12
		c-0.43,0.19-0.93,0-1.12-0.43c-0.01-0.02-0.01-0.03-0.02-0.05l-2.12-5.18C409.63,426.96,409.89,426.94,410.15,426.87z"/>
	<path id="패스_4361" class="st8" d="M359.37,392.35c5.78,4.61,14.18,8.96,16.28,7.84c6.13-3.22,9.34-15.03,11.99-24.08
		c0.72-2.47,1.45-4.88,2.32-7.2c-2.05-1.19-3.89-2.2-5.17-2.77c-5.32-2.37-32.95,12.43-32.73,17.71
		C352.37,385.42,353.59,387.73,359.37,392.35z"/>
	<path id="패스_4362" class="st19" d="M359.37,392.35c5.78,4.61,14.18,8.96,16.28,7.84c6.13-3.22,9.34-15.03,11.99-24.08
		c0.72-2.47,1.45-4.88,2.32-7.2c-2.05-1.19-3.89-2.2-5.17-2.77c-5.32-2.37-32.95,12.43-32.73,17.71
		C352.37,385.42,353.59,387.73,359.37,392.35z"/>
	<path id="패스_4363" class="st8" d="M367.77,358.72l22.63,4.29l16.36,3.08c0,0,9.25,10.51,1.82,19.36s-23.08,2.77-42.04-10.11
		l-12.5-8.16C355.75,361.23,361.7,357.57,367.77,358.72z"/>
	<path id="패스_4364" class="st34" d="M367.77,358.72l22.63,4.29l16.36,3.08c0,0,9.25,10.51,1.82,19.36s-23.08,2.77-42.04-10.11
		l-12.5-8.16C355.75,361.23,361.7,357.57,367.77,358.72z"/>
	<path id="패스_4365" class="st8" d="M355.16,365.36l22.63,4.29l16.36,3.08c0,0,9.25,10.51,1.82,19.36s-23.08,2.77-42.04-10.12
		l-12.5-8.16C343.13,367.88,349.08,364.22,355.16,365.36z"/>
	<path id="패스_4366" class="st10" d="M355.16,365.36l22.63,4.29l16.36,3.08c0,0,9.25,10.51,1.82,19.36s-23.08,2.77-42.04-10.12
		l-12.5-8.16C343.13,367.88,349.08,364.22,355.16,365.36z"/>
	<g id="그룹_4845">
		<g id="그룹_4844">
			<path id="패스_4367" class="st28" d="M415.69,350.43l-3.42-7.11l0,0v-0.01l-0.38-0.79l0,0c-4.27-8.88-8.02-18.91-15.53-16.57
				l8.01,21.49l1.62,3.41l-3.86,4.25l0.28,10.16l12.46-10.82C416.01,353.44,416.35,351.8,415.69,350.43z"/>
			<path id="패스_4368" class="st13" d="M408.21,353.9c-0.98-0.82-1.74-1.86-2.23-3.04l-0.96,1.06
				C405.78,352.97,406.93,353.68,408.21,353.9z"/>
		</g>
	</g>
	<path id="패스_4369" class="st8" d="M378.24,330.32l19.31-4.69c5.69-0.55,8.14,5.69,8.06,11.46s-3.87,23.55-3.87,39.36
		c-10.35,8.85-23.71,0.71-26-1.98c-1.74-13.24,0-31.26,0-31.26L378.24,330.32z"/>
	<path id="패스_4370" class="st25" d="M378.24,330.32l19.31-4.69c5.69-0.55,8.14,5.69,8.06,11.46s-3.87,23.55-3.87,39.36
		c-10.35,8.85-23.71,0.71-26-1.98c-1.74-13.24,0-31.26,0-31.26L378.24,330.32z"/>
	<g id="그룹_4846">
		<path id="패스_4371" class="st26" d="M376.93,311.9l-2.13,3.7l2.33,0.86L376.93,311.9z"/>
		<path id="패스_4372" class="st28" d="M376.69,310.25c0.34-3.24,1.29-6.3,3.4-7.85c-0.56,4.03,0.3,8.13,2.43,11.6
			c0.21-1.07,0.76-2.05,1.57-2.78c0.8-0.77,1.97-1.02,3.02-0.64c0.7,0.33,1.25,0.93,1.52,1.65c0.81,2.02-0.16,4.31-2.17,5.12
			c-0.88,0.35-1.85,0.38-2.75,0.08c0.6,2.94,2.88,5.25,5.81,5.89c1.89,0.38,3.85,0.2,5.64-0.54l0.88,4.37
			c-3.56,3.79-9.63,1.24-9.63,1.24l-0.8-4.3c-6.99,0.42-7.65,0.3-8.42-3.56C376.55,317.15,376.38,313.69,376.69,310.25z"/>
		<path id="패스_4373" class="st5" d="M402.67,324.92c0.81-4.66-0.26-11.12-0.85-15.81c-0.21-2.05-0.69-4.07-1.43-6
			c-0.74-1.93-1.98-3.64-3.58-4.95c-1.71-1.26-3.72-2.05-5.83-2.29c-2.1-0.24-4.22-0.24-6.33-0.01c-1.53,0.08-3.05,0.36-4.51,0.83
			c-1.47,0.48-2.73,1.45-3.57,2.75c-2.24,3.77,0.4,7.6,3.48,9.8c1.73,5.21,2.06,10.77,0.95,16.15c-0.11,1.11-0.63,2.15-1.45,2.91
			C383.14,330.05,397.65,331.65,402.67,324.92z"/>
	</g>
	<path id="패스_4374" class="st13" d="M383.77,338.81l-8.16,5.91c-0.15,1.9-0.4,5.45-0.54,9.74c1.35-1.51,2.62-3.09,3.81-4.73
		C381.22,346.46,382.89,342.75,383.77,338.81z"/>
	<g id="그룹_4847">
		<path id="패스_4375" class="st28" d="M374.14,332.52l-15.62,19.41c0,0-14.29-9.66-15.23-11.5c-0.83-5.04-1.72-6.23-3.26-7.63
			c-1.45-1.32-1.94,0.23-1.37,0.91c0.79,0.82,1.09,2,0.77,3.1c-4.74-4.53-8.63-6.12-9.9-5.1c-2.55,2.25-2.25,3.56,1.48,6.88
			c3.35,2.82,6.99,6.28,6.99,6.28l16.04,16.19c2.82,2.84,7.41,2.87,10.25,0.05c0.1-0.1,0.2-0.2,0.29-0.31l18.54-20.62
			c2.18-2.43,1.98-6.17-0.45-8.35c-0.13-0.12-0.26-0.23-0.4-0.33l0,0C379.74,329.59,376.14,330.04,374.14,332.52z"/>
	</g>
	<path id="패스_4376" class="st8" d="M389.8,378.56c3.08-10.5,6.22-19.83,19.4-25.64c4.65-2.05,7.13-1.32,8.3,0.49h0.01
		c-0.73-1.34-1.76-2.49-3-3.37v0.01c-1.38-1.08-3.72-1.24-7.48,0.41c-10.08,4.44-14.29,10.94-17.09,18.44
		c-0.86,2.31-1.59,4.72-2.32,7.2c-2.65,9.05-5.86,20.86-11.99,24.08c-2.1,1.12-10.5-3.23-16.28-7.84s-7-6.93-7.32-8.48v3.09
		c0,1.05,0.32,2.07,0.93,2.92c5.83,8.17,16.43,13,21.65,13.61C382.91,403.27,386.72,389.06,389.8,378.56z"/>
	<path id="패스_4377" class="st21" d="M389.8,378.56c3.08-10.5,6.22-19.83,19.4-25.64c4.65-2.05,7.13-1.32,8.3,0.49h0.01
		c-0.73-1.34-1.76-2.49-3-3.37v0.01c-1.38-1.08-3.72-1.24-7.48,0.41c-10.08,4.44-14.29,10.94-17.09,18.44
		c-0.86,2.31-1.59,4.72-2.32,7.2c-2.65,9.05-5.86,20.86-11.99,24.08c-2.1,1.12-10.5-3.23-16.28-7.84s-7-6.93-7.32-8.48v3.09
		c0,1.05,0.32,2.07,0.93,2.92c5.83,8.17,16.43,13,21.65,13.61C382.91,403.27,386.72,389.06,389.8,378.56z"/>
	<path id="패스_4378" class="st8" d="M418.39,357c0.05-1.26-0.26-2.5-0.89-3.59c-1.17-1.81-3.65-2.54-8.3-0.49
		c-13.18,5.8-16.33,15.14-19.4,25.64s-6.89,24.71-15.16,24.92c8.21,2.36,25.86-7.07,34.58-13.1c3-2.08,5.24-5.09,6.37-8.57
		C418.85,371.72,418.39,360.23,418.39,357z"/>
	<g id="그룹_4854">
		<g id="그룹_4852">
			<g id="그룹_4851">
				<path id="패스_4379" class="st14" d="M293.73,449.83c-0.62,1.46-2.05,2.42-3.64,2.45c-1.55,0-3.1-0.19-4.6-0.59
					c-3.41-0.62-5.31-0.01-8.72-0.09c-1.12,0.01-2.24-0.11-3.33-0.36c-1.1-0.25-2.09-0.84-2.84-1.68c-0.43-0.51-0.71-1.13-0.82-1.78
					c-0.14,1,0.16,2.02,0.82,2.78c0.75,0.84,1.75,1.42,2.84,1.68c1.09,0.25,2.21,0.37,3.33,0.36c3.4,0.08,5.3-0.53,8.72,0.09
					c1.5,0.39,3.05,0.59,4.6,0.59c1.59-0.03,3.01-0.99,3.64-2.45c0.15-0.51,0.19-1.05,0.12-1.57
					C293.83,449.45,293.79,449.64,293.73,449.83z"/>
				<path id="패스_4380" class="st4" d="M293.64,447c-0.21-1.03-0.42-2.07-0.63-3.1c-0.08-0.55-0.26-1.09-0.53-1.58
					c-0.28-0.5-0.81-0.8-1.38-0.79c-1.87-0.25-4.5-0.92-6.05,0.14c-2.43,1.67-4.02,2.54-6.97,2.42c-1.53-0.18-3.08-0.25-4.63-0.19
					c-1.58,0.09-2.97,1.06-3.59,2.52c-0.13,0.44-0.16,0.9-0.08,1.35c0.11,0.66,0.39,1.27,0.82,1.78c0.75,0.84,1.75,1.42,2.84,1.68
					c1.09,0.25,2.21,0.37,3.33,0.36c3.4,0.08,5.3-0.53,8.72,0.09c1.5,0.39,3.05,0.59,4.6,0.59c1.59-0.03,3.01-0.99,3.64-2.45
					c0.06-0.19,0.1-0.38,0.12-0.58C293.9,448.5,293.83,447.73,293.64,447z"/>
			</g>
			<path id="패스_4381" class="st35" d="M284.6,438.42l-0.13,4.04c-0.03,0.86,0.63,1.59,1.48,1.65c1.36,0.1,2.72,0.08,4.07-0.04
				c1.13-0.11,2.02-1.03,2.08-2.17l0.16-2.98L284.6,438.42z"/>
		</g>
		<g id="그룹_4853">
			<path id="패스_4382" class="st14" d="M284.52,419.83c0,5.63-0.59,19.6-0.59,19.6c5.14,3.29,8.89,0.86,8.89,0.86
				c0.49-8.99,4.94-17.59,4.94-26.39c-6.82-4.67-8.9-5.79-11.68-8.53C284.53,409.57,284.52,415.79,284.52,419.83z"/>
			<path id="패스_4383" class="st14" d="M297.77,413.9c-2.45-1.68-4.29-2.9-5.77-3.9c0.35,5.25,1.7,10.39,3.98,15.14
				C297.05,421.49,297.65,417.71,297.77,413.9z"/>
		</g>
	</g>
	<g id="그룹_4858">
		<g id="그룹_4856">
			<g id="그룹_4855">
				<path id="패스_4384" class="st14" d="M280.27,460.07c-0.67,1.57-2.2,2.59-3.9,2.62c-1.66,0-3.32-0.21-4.93-0.63
					c-3.66-0.66-5.7-0.01-9.35-0.1c-1.2,0.01-2.4-0.12-3.57-0.39c-1.18-0.27-2.24-0.9-3.05-1.8c-0.46-0.55-0.76-1.21-0.88-1.91
					c-0.15,1.07,0.17,2.16,0.88,2.98c0.81,0.9,1.87,1.53,3.05,1.8c1.17,0.27,2.37,0.4,3.57,0.39c3.65,0.09,5.69-0.57,9.35,0.1
					c1.61,0.42,3.27,0.63,4.93,0.63c1.7-0.03,3.23-1.06,3.9-2.62c0.16-0.55,0.2-1.12,0.13-1.69
					C280.37,459.66,280.33,459.87,280.27,460.07z"/>
				<path id="패스_4385" class="st4" d="M280.17,457.03c-0.23-1.11-0.45-2.22-0.67-3.33c-0.08-0.59-0.27-1.17-0.56-1.69
					c-0.3-0.53-0.87-0.86-1.48-0.85c-2.01-0.27-4.83-0.99-6.49,0.15c-2.61,1.8-4.31,2.72-7.48,2.6c-1.65-0.2-3.31-0.26-4.96-0.2
					c-1.69,0.09-3.19,1.14-3.85,2.7c-0.14,0.47-0.17,0.96-0.09,1.45c0.12,0.7,0.42,1.36,0.88,1.91c0.81,0.9,1.87,1.53,3.05,1.8
					c1.17,0.27,2.37,0.4,3.57,0.39c3.65,0.09,5.69-0.57,9.35,0.1c1.61,0.42,3.27,0.63,4.93,0.63c1.7-0.03,3.23-1.06,3.9-2.62
					c0.06-0.2,0.1-0.41,0.13-0.62C280.45,458.64,280.37,457.82,280.17,457.03z"/>
			</g>
			<path id="패스_4386" class="st35" d="M270.47,447.83l-0.14,4.34c-0.03,0.92,0.67,1.71,1.59,1.77c1.46,0.1,2.92,0.09,4.37-0.04
				c1.22-0.11,2.17-1.1,2.23-2.32l0.17-3.2L270.47,447.83z"/>
		</g>
		<g id="그룹_4857">
			<path id="패스_4387" class="st14" d="M270.39,427.89c0,6.04-0.64,21.03-0.64,21.03c5.51,3.54,9.54,0.92,9.54,0.92
				c0.53-9.65,5.3-18.87,5.3-28.31c-7.31-5.02-9.55-6.21-12.53-9.15C270.4,416.88,270.39,423.55,270.39,427.89z"/>
			<path id="패스_4388" class="st10" d="M284.6,421.53c-2.63-1.81-4.6-3.11-6.19-4.19c0.38,5.64,1.83,11.15,4.27,16.24
				C283.82,429.66,284.47,425.61,284.6,421.53z"/>
		</g>
	</g>
	<g id="그룹_4859">
		<path id="패스_4389" class="st14" d="M283.49,467.29c-0.35,0-0.64-0.29-0.64-0.64c0-0.16,0.06-0.32,0.18-0.44l23.17-24.05
			c0.24-0.25,0.65-0.26,0.9-0.02c0.25,0.24,0.26,0.65,0.02,0.9l0,0l-23.17,24.05C283.82,467.22,283.66,467.29,283.49,467.29z"/>
	</g>
	<path id="패스_4390" class="st8" d="M310.79,484.57v5.14c0,0.47,0.38,0.85,0.85,0.85s0.85-0.38,0.85-0.85v-5.14
		C311.94,484.81,311.33,484.81,310.79,484.57L310.79,484.57z"/>
	<path id="패스_4391" class="st5" d="M311.64,439.45c-0.47,0-0.85,0.38-0.85,0.85v44.27c0.54,0.24,1.16,0.24,1.7,0v-44.27
		C312.49,439.83,312.11,439.45,311.64,439.45C311.64,439.45,311.64,439.45,311.64,439.45z"/>
	<path id="패스_4392" class="st5" d="M297,433.57c-0.43-0.18-0.93,0.03-1.11,0.46l-13.07,31.99c0.4,0.45,1,0.67,1.6,0.58
		l13.04-31.93C297.65,434.24,297.44,433.75,297,433.57C297,433.57,297,433.57,297,433.57z"/>
	<path id="패스_4393" class="st8" d="M283.65,466.55c-0.32-0.1-0.6-0.28-0.83-0.53l-2.09,5.12c-0.18,0.43,0.03,0.93,0.46,1.11
		c0.1,0.04,0.21,0.06,0.32,0.06c0.34,0,0.65-0.21,0.79-0.53l2.12-5.18C284.17,466.64,283.9,466.62,283.65,466.55z"/>
	<g id="그룹_4862">
		<path id="패스_4394" class="st14" d="M339.78,467.29c0.35,0,0.64-0.28,0.64-0.64c0-0.17-0.06-0.32-0.18-0.44l-25.44-26.58
			c-0.24-0.25-0.65-0.26-0.9-0.02c-0.25,0.24-0.26,0.65-0.02,0.9l25.44,26.58C339.44,467.22,339.61,467.29,339.78,467.29z"/>
	</g>
	<path id="패스_4395" class="st5" d="M326.26,433.57c0.43-0.18,0.93,0.03,1.11,0.46l13.07,31.99c-0.4,0.45-1,0.67-1.6,0.58
		l-13.04-31.93C325.62,434.24,325.83,433.75,326.26,433.57C326.26,433.57,326.26,433.57,326.26,433.57z"/>
	<path id="패스_4396" class="st8" d="M339.62,466.55c0.32-0.1,0.6-0.28,0.83-0.53l2.09,5.12c0.19,0.43,0,0.93-0.43,1.12
		c-0.43,0.19-0.93,0-1.12-0.43c-0.01-0.02-0.01-0.03-0.02-0.05l-2.12-5.18C339.1,466.64,339.36,466.62,339.62,466.55z"/>
	<path id="패스_4397" class="st8" d="M288.84,432.02c5.78,4.61,14.18,8.96,16.28,7.84c6.13-3.22,9.34-15.03,11.99-24.08
		c0.72-2.47,1.45-4.88,2.32-7.2c-2.05-1.19-3.89-2.2-5.17-2.77c-5.32-2.37-32.95,12.43-32.73,17.71
		C281.84,425.09,283.06,427.41,288.84,432.02z"/>
	<path id="패스_4398" class="st19" d="M288.84,432.02c5.78,4.61,14.18,8.96,16.28,7.84c6.13-3.22,9.34-15.03,11.99-24.08
		c0.72-2.47,1.45-4.88,2.32-7.2c-2.05-1.19-3.89-2.2-5.17-2.77c-5.32-2.37-32.95,12.43-32.73,17.71
		C281.84,425.09,283.06,427.41,288.84,432.02z"/>
	<path id="패스_4399" class="st14" d="M335.72,409.36l-17.99-3.93c-12.65-4.08-23.32-7.77-28.99-3.82
		c-1.26,0.94-2.19,2.26-2.65,3.76c2.77,2.73,4.86,3.85,11.68,8.53c15.22,10.57,28.17,15.39,35.38,10.02S335.72,409.36,335.72,409.36
		z"/>
	<path id="패스_4400" class="st14" d="M325.31,416.65l-19.3-4.21c-13.57-4.38-25.02-8.34-31.1-4.1c-1.36,1-2.35,2.42-2.84,4.04
		c2.98,2.93,5.21,4.13,12.53,9.15c16.33,11.35,30.22,16.51,37.96,10.75S325.31,416.65,325.31,416.65z"/>
	<g id="그룹_4867">
		<g id="그룹_4865">
			<path id="패스_4401" class="st35" d="M337.12,392.35l1.75,3.68l-4.17,4.59l0.3,10.97l13.46-11.69
				c1.24-1.08,1.61-2.85,0.89-4.33l-4.11-8.54L337.12,392.35z"/>
		</g>
		<path id="패스_4402" class="st5" d="M336.78,393.24c5.35-0.47,8.99-6.01,8.99-6.01c-4.78-9.79-8.96-20.69-17.31-18.09
			L336.78,393.24z"/>
		<path id="패스_4403" class="st5" d="M304.37,386.62v30.77c18.12,7.59,29.86,0.73,31.46-2.83c-0.84-12.53,2.12-27.18,1.9-33.4
			s-0.99-13.24-10.64-11.83l-10.26,1l-5.21,1.27L304.37,386.62z"/>
		<g id="그룹_4866">
			<path id="패스_4404" class="st14" d="M331.88,342.97c0.55-0.98,1.8-1.32,2.77-0.77c0.12,0.07,0.23,0.15,0.34,0.24l-2.2,1.56
				c3.26,4.59,2.2,9.91-5.71,20.41c-1.91,2.3-5.25,2.79-7.73,1.11l-3.27-8.05l-3.19-3.87l-2.18-7.22c-1.81-1.03-3.05-2.85-3.33-4.92
				c-0.16-2.07,1.08-4,3.03-4.71c1.72-0.34,3.5,0.01,4.95,0.99c1.43,0.97,2.99,1.75,4.62,2.32c1.39,0.27,2.81,0.31,4.21,0.14
				c1.4-0.17,2.82-0.11,4.2,0.2C329.77,340.77,331.47,341.62,331.88,342.97z"/>
			<path id="패스_4405" class="st36" d="M309.99,352.81l-2.13,3.7l2.33,0.86L309.99,352.81z"/>
			<path id="패스_4406" class="st35" d="M310.72,346.38c-1.41,5.12-1.62,10.49-0.61,15.7c0.11,0.9,0.45,1.75,0.98,2.48
				c0.7,0.75,1.67,1.2,2.7,1.24c1.02,0.04,2.04-0.06,3.03-0.29v4.81c3.65,0.86,7.4,1.2,10.26-1v-4.92c-2.06,0.66-4.25,0.8-6.37,0.4
				c-2.52-1.36-3.03-5.96-2.67-7.18c0.46,0.6,1.23,0.88,1.97,0.69c0.7-0.19,1.29-0.66,1.64-1.3c0.34-0.64,0.54-1.33,0.61-2.05
				c0.18-0.86,0.05-1.76-0.37-2.54c-0.66-0.88-1.8-1.27-2.86-0.96c-1.03,0.32-1.9,1.05-2.4,2.01c-0.17,0.29-0.31,0.6-0.42,0.92
				c-0.11,0.3-0.43,0.45-0.73,0.35c-0.21-0.07-0.36-0.27-0.38-0.49c-0.13-1.38,0.12-2.77,0.72-4.02c-0.84-0.09-1.6-0.55-2.06-1.26
				c-0.49-0.66-0.64-1.52-0.4-2.31C312.47,346.72,311.58,346.62,310.72,346.38z"/>
		</g>
		<path id="패스_4407" class="st19" d="M314.5,385.53l-1.2,11.14c-0.62,5.75-2.36,11.33-5.13,16.41l0,0l-4.56-5.45l5.87-17.58
			L314.5,385.53z"/>
		<path id="패스_4408" class="st35" d="M301,392.82l-2.21,14.8c0,0-10.07-1.77-14.85-2.05c-4.78-0.27-9.46,1.59-8.56,2.9
			c0.91,1.31,4.43,0.6,4.43,0.6c1.66,1.46,4.48,1.03,4.48,1.03l17.38,6.72c2.49,0.96,5.29-0.27,6.25-2.76
			c0.12-0.32,0.21-0.66,0.27-1l2.61-16.67L301,392.82z"/>
		<path id="패스_4409" class="st5" d="M299.48,394.12l2.88-12.64c1.08-4.72,4.61-8.5,9.25-9.89l0,0
			c4.4,9.64,3.28,12.22,3.28,12.22l-3.25,14.5C307.25,398.21,303,396.75,299.48,394.12z"/>
	</g>
	<path id="패스_4410" class="st8" d="M319.27,418.24c3.08-10.5,6.22-19.83,19.4-25.64c4.65-2.05,7.13-1.32,8.3,0.49h0.01
		c-0.73-1.34-1.76-2.49-3-3.37v0.01c-1.38-1.08-3.71-1.24-7.48,0.41c-10.07,4.43-14.28,10.93-17.08,18.44
		c-0.86,2.31-1.59,4.72-2.32,7.2c-2.65,9.05-5.86,20.86-11.99,24.08c-2.1,1.12-10.5-3.23-16.28-7.84s-7-6.93-7.32-8.48v3.09
		c0,1.05,0.32,2.07,0.93,2.92c5.84,8.17,16.43,13,21.66,13.61C312.38,442.95,316.19,428.74,319.27,418.24z"/>
	<path id="패스_4411" class="st21" d="M319.27,418.24c3.08-10.5,6.22-19.83,19.4-25.64c4.65-2.05,7.13-1.32,8.3,0.49h0.01
		c-0.73-1.34-1.76-2.49-3-3.37v0.01c-1.38-1.08-3.71-1.24-7.48,0.41c-10.07,4.43-14.28,10.93-17.08,18.44
		c-0.86,2.31-1.59,4.72-2.32,7.2c-2.65,9.05-5.86,20.86-11.99,24.08c-2.1,1.12-10.5-3.23-16.28-7.84s-7-6.93-7.32-8.48v3.09
		c0,1.05,0.32,2.07,0.93,2.92c5.84,8.17,16.43,13,21.66,13.61C312.38,442.95,316.19,428.74,319.27,418.24z"/>
	<path id="패스_4412" class="st8" d="M347.86,396.68c0.05-1.26-0.26-2.5-0.89-3.59c-1.17-1.81-3.65-2.54-8.3-0.49
		c-13.18,5.8-16.33,15.14-19.4,25.64s-6.89,24.71-15.16,24.92c8.21,2.36,25.86-7.07,34.58-13.11c3-2.08,5.24-5.09,6.37-8.57
		C348.32,411.4,347.86,399.91,347.86,396.68z"/>
	<g id="그룹_4869">
		<path id="패스_4413" class="st8" d="M193.6,135.56l26.34-15.11c2.31-1.32,7.77,0.47,7.77,4.18c0-0.95-0.77-1.71-1.71-1.71
			c-0.3,0-0.59,0.08-0.85,0.23l-26.34,15.11c-0.86,0.51-1.56,1.26-2,2.15l-5.11-2.9C192.14,136.69,192.8,136.02,193.6,135.56z"/>
		<path id="패스_4414" class="st8" d="M196.8,140.4c-0.37,0.71-0.57,1.5-0.58,2.31v15.13c0,0.95,0.77,1.71,1.71,1.71
			c0.3,0,0.59-0.08,0.85-0.23c-2.38,1.48-5.51,0.76-7-1.62c-0.48-0.77-0.75-1.65-0.77-2.56v-15.13c0-0.88,0.23-1.75,0.67-2.52
			L196.8,140.4z"/>
	</g>
	<path id="패스_4415" class="st25" d="M193.6,135.56l26.34-15.11c2.31-1.32,7.77,0.47,7.77,4.18c0-0.95-0.77-1.71-1.71-1.71
		c-0.3,0-0.59,0.08-0.85,0.23l-26.34,15.11c-0.86,0.51-1.56,1.26-2,2.15l-5.11-2.9C192.14,136.69,192.8,136.02,193.6,135.56z"/>
	<g id="그룹_4870">
		<path id="패스_4417" class="st37" d="M225.14,123.14l-26.34,15.11c-1.6,0.92-2.58,2.62-2.58,4.46v15.13
			c0,0.95,0.77,1.71,1.71,1.71c0.3,0,0.59-0.08,0.85-0.23l26.33-15.05c1.6-0.92,2.59-2.62,2.59-4.46v-15.19
			c0-0.95-0.77-1.71-1.71-1.71C225.69,122.91,225.4,122.99,225.14,123.14z"/>
		<path id="패스_4418" class="st37" d="M189.88,152.69l6.33,1.18v-8.12l-6.55,6.19c-0.17,0.17-0.18,0.44-0.02,0.61
			C189.7,152.63,189.79,152.67,189.88,152.69z"/>
	</g>
	<g id="그룹_4874">
		<g id="그룹_4871">
			<path id="패스_4419" class="st3" d="M220.6,134.07c-1.43,0.92-2.33,2.47-2.42,4.17c0.01,1.54,1.1,2.14,2.43,1.37
				c1.42-0.93,2.31-2.47,2.4-4.17C223.02,133.91,221.93,133.31,220.6,134.07z"/>
		</g>
		<g id="그룹_4872">
			<path id="패스_4420" class="st3" d="M212.04,139.02c-1.43,0.92-2.33,2.48-2.42,4.17c0,1.54,1.1,2.15,2.43,1.37
				c1.42-0.93,2.31-2.47,2.4-4.17C214.46,138.86,213.37,138.25,212.04,139.02z"/>
		</g>
		<g id="그룹_4873">
			<path id="패스_4421" class="st3" d="M203.48,143.96c-1.42,0.92-2.32,2.47-2.4,4.17c0,1.54,1.08,2.15,2.42,1.38
				c1.42-0.92,2.32-2.47,2.4-4.17C205.89,143.8,204.82,143.19,203.48,143.96z"/>
		</g>
	</g>
	<path id="패스_4422" class="st8" d="M196.21,145.75l-5.19-2.98l-6.54,6.26c-0.17,0.17-0.18,0.44-0.02,0.61
		c0.03,0.03,0.06,0.06,0.1,0.08l5.18,2.9L196.21,145.75z"/>
	<path id="패스_4424" class="st38" d="M284.74,215.27L284.74,215.27z"/>
	<path id="패스_4425" class="st3" d="M307.17,210.66c-1.43,0.92-2.33,2.48-2.42,4.17c0,1.54,1.1,2.15,2.43,1.37
		c1.42-0.93,2.31-2.47,2.4-4.17C309.59,210.5,308.5,209.9,307.17,210.66z"/>
	<path id="패스_4426" class="st3" d="M298.61,215.61c-1.43,0.92-2.33,2.47-2.42,4.17c0,1.54,1.1,2.15,2.43,1.37
		c1.42-0.92,2.31-2.47,2.4-4.16C301.02,215.45,299.93,214.84,298.61,215.61z"/>
	<path id="패스_4427" class="st3" d="M290.06,226.1c1.42-0.92,2.32-2.47,2.4-4.17c-0.01-1.54-1.08-2.15-2.42-1.38
		c-1.42,0.92-2.32,2.47-2.4,4.16C287.64,226.26,288.72,226.87,290.06,226.1z"/>
	<path id="패스_4428" class="st8" d="M306.5,197.04l-26.34,15.11c-1.59,0.92-2.57,2.62-2.58,4.46v15.13
		c0.07,2.8,2.4,5.02,5.2,4.95c0.91-0.02,1.79-0.29,2.56-0.77l4.58-2.62l0.41,0.67c0.02,0.02,0.04,0.05,0.07,0.06v0.01l0.05,0.03
		l0.01,0.01c0.75,0.5,2.08,1.21,2.38,1.36l-0.01-0.02c0.14,0.05,0.3-0.03,0.35-0.17l1.68-4.78l-3.51,2.01l0,0l20.32-11.61
		c1.6-0.91,2.59-2.62,2.59-4.46v-15.19C314.27,197.51,308.81,195.71,306.5,197.04z M290.06,226.1c-1.34,0.77-2.42,0.16-2.42-1.38
		c0.08-1.69,0.98-3.24,2.4-4.16c1.34-0.77,2.42-0.16,2.42,1.38C292.37,223.62,291.48,225.17,290.06,226.1z M298.62,221.15
		c-1.34,0.77-2.43,0.17-2.43-1.37c0.09-1.7,0.99-3.25,2.42-4.17c1.33-0.76,2.42-0.16,2.42,1.38
		C300.94,218.68,300.04,220.23,298.62,221.15L298.62,221.15z M307.19,216.21c-1.34,0.77-2.43,0.17-2.43-1.37
		c0.09-1.7,0.99-3.25,2.42-4.17c1.33-0.76,2.42-0.16,2.42,1.38C309.5,213.74,308.61,215.28,307.19,216.21L307.19,216.21z"/>
	<path id="패스_4429" class="st24" d="M290.34,233.97c0.02,0.02,0.04,0.05,0.07,0.06v0.01l0.05,0.03l0.01,0.01
		c0.75,0.5,2.08,1.21,2.38,1.36l-0.01-0.02c-0.07-0.02-0.13-0.06-0.17-0.12l-1.63-2.64l0.32-0.18l0,0l-1.44,0.82L290.34,233.97z"/>
	<path id="패스_4430" class="st25" d="M283.36,216.99c0.33-0.67,0.8-1.25,1.38-1.72l0,0c0.2-0.16,0.4-0.3,0.62-0.43l26.34-15.11
		c0.82-0.47,1.87-0.19,2.34,0.63c0.15,0.26,0.23,0.55,0.23,0.85c0-3.71-5.46-5.5-7.77-4.18l-26.34,15.11
		c-0.8,0.46-1.46,1.13-1.91,1.94L283.36,216.99z"/>
	<path id="패스_4431" class="st24" d="M282.78,234.43V219.3c0-0.2,0.01-0.41,0.04-0.61c0.08-0.59,0.27-1.17,0.54-1.7l-5.11-2.9
		c-0.44,0.77-0.66,1.63-0.67,2.52v15.13c0.07,2.8,2.4,5.02,5.2,4.95c0.91-0.02,1.79-0.29,2.56-0.77c-0.82,0.47-1.87,0.18-2.34-0.64
		C282.86,235.02,282.78,234.73,282.78,234.43z"/>
</g>
</svg>
