<svg xmlns="http://www.w3.org/2000/svg" xmlns:xlink="http://www.w3.org/1999/xlink" width="252.6" height="248.6" viewBox="0 0 252.6 248.6"><defs><style>.a{fill:#d1dbe1;}.b{fill:#e7ecf0;}.c{fill:#03c1b7;}.d{fill:#00958d;}.e{fill:#0a7c74;}.f{filter:url(#c);}.g{filter:url(#a);}</style><filter id="a" x="0" y="0" width="242.6" height="242.6" filterUnits="userSpaceOnUse"><feOffset dx="-5" dy="-3" input="SourceAlpha"/><feGaussianBlur stdDeviation="3" result="b"/><feFlood flood-color="#fff" flood-opacity="0.451"/><feComposite operator="in" in2="b"/><feComposite in="SourceGraphic"/></filter><filter id="c" x="10" y="6" width="242.6" height="242.6" filterUnits="userSpaceOnUse"><feOffset dx="5" dy="3" input="SourceAlpha"/><feGaussianBlur stdDeviation="3" result="d"/><feFlood flood-opacity="0.161"/><feComposite operator="in" in2="d"/><feComposite in="SourceGraphic"/></filter></defs><g transform="translate(-1012 -510)"><g transform="translate(307.986 14)"><g transform="translate(-414.987 -25)"><g class="g" transform="matrix(1, 0, 0, 1, 1119, 521)"><circle class="a" cx="112.3" cy="112.3" r="112.3" transform="translate(14 12)"/></g><g class="f" transform="matrix(1, 0, 0, 1, 1119, 521)"><circle class="b" cx="112.3" cy="112.3" r="112.3" transform="translate(14 12)"/></g></g></g><g transform="translate(590.673 335)"><g transform="translate(813.984 342.959)"><path class="c" d="M-273.9,28.644v-.48h0A3.852,3.852,0,0,1-273.9,28.644Z"/><path class="c" d="M-269.809,28.644v-.48h0A3.84,3.84,0,0,0-269.809,28.644Z"/><path class="d" d="M-310.852,24.344h1.212a3.88,3.88,0,0,1-3.88-3.88h0V-35.089h0a3.88,3.88,0,0,1,3.89-3.87h-1.212a3.88,3.88,0,0,0-3.89,3.87h0v55.55a3.88,3.88,0,0,0,3.877,3.883Z"/><path class="d" d="M-323.772,28.881v-57.26a3.569,3.569,0,0,1,2.991-3.328,3.615,3.615,0,0,0-.817-.058,3.581,3.581,0,0,0-3.386,3.386v57.26c0,4.29,4,7.76,8.91,7.76h1.212C-319.772,36.644-323.772,33.171-323.772,28.881Z"/><path class="d" d="M-264.112-26.256a12.731,12.731,0,0,1,12.68-12.7h-1.212a12.731,12.731,0,0,0-12.68,12.7v55.79a4.11,4.11,0,0,1,1.212-2.251Z"/><path class="d" d="M-263.032,31.261c1.68-1.81,5-3.05,8.92-3.05h-1.212c-3.92,0-7.24,1.24-8.92,3.05a3.862,3.862,0,0,0-1.14,2.62v2.76h1.212v-2.76A3.863,3.863,0,0,1-263.032,31.261Z"/><path class="d" d="M-215.812,21.361v-49.74a3.577,3.577,0,0,1,2.947-3.328,3.636,3.636,0,0,0-.4-.058,3.581,3.581,0,0,0-3.764,3.386v49.74c0,3.78-3.5,6.85-7.82,6.85h1.212C-219.312,28.211-215.812,25.144-215.812,21.361Z"/><path class="c" d="M-280.992-38.956h-28.64a3.88,3.88,0,0,0-3.89,3.87h0v55.55a3.88,3.88,0,0,0,3.88,3.88h31.32c3.792,0,7.083,1.189,8.788,2.934a4.1,4.1,0,0,1,1.212,2.256v-55.79A12.719,12.719,0,0,0-280.992-38.956Z"/><path class="c" d="M-269.432,31.261c-1.68-1.81-5-3.05-8.92-3.05H-308.8c-4.32,0-7.82-3.07-7.82-6.85v-49.74a3.581,3.581,0,0,0-3.764-3.386,3.569,3.569,0,0,0-.4.058,3.569,3.569,0,0,0-2.991,3.328v57.26c0,4.29,4,7.76,8.91,7.76h46.6v-2.76A3.886,3.886,0,0,0-269.432,31.261Z"/><path class="c" d="M-222.792-38.956h-28.64a12.731,12.731,0,0,0-12.68,12.7V27.283c1.7-1.748,4.993-2.939,8.788-2.939h32.542a3.88,3.88,0,0,0,3.88-3.88h0V-35.089h0A3.881,3.881,0,0,0-222.792-38.956Z"/><path class="c" d="M-212.052-31.765a3.607,3.607,0,0,0-.817.058,3.577,3.577,0,0,0-2.947,3.328v49.74c0,3.78-3.5,6.85-7.82,6.85h-30.48c-3.92,0-7.24,1.24-8.92,3.05a3.863,3.863,0,0,0-1.14,2.62v2.76h46.61c4.9,0,8.9-3.47,8.9-7.76v-57.26A3.582,3.582,0,0,0-212.052-31.765Z"/><path class="e" d="M-269.474,28.644v-.48h0A3.84,3.84,0,0,1-269.474,28.644Z"/><path class="e" d="M-265.384,28.644v-.48h0A3.84,3.84,0,0,0-265.384,28.644Z"/></g><g transform="translate(78.327 -140)"><g transform="translate(727.5 309.673)"><path class="d" d="M-259.09,79.787a17,17,0,0,0-17,17,27.073,27.073,0,0,0,2.9,11.26,10.7,10.7,0,0,0,9.63,6l8.97.05a10.7,10.7,0,0,0,9.63-6,27.012,27.012,0,0,0,2.87-11.31A17,17,0,0,0-259.09,79.787Z"/><path class="d" d="M-255.13,116.947h-7.89a5.161,5.161,0,0,0-5.15,5.15,5.159,5.159,0,0,0,5.15,5.15h7.89a5.159,5.159,0,0,0,5.15-5.15A5.161,5.161,0,0,0-255.13,116.947Z"/><path class="d" d="M-257.99,75.177h0a4.639,4.639,0,0,0,4.638-4.64V54.977a4.651,4.651,0,0,0-4.64-4.65,4.65,4.65,0,0,0-4.65,4.65v15.56A4.651,4.651,0,0,0-257.99,75.177Z"/><path class="d" d="M-293.65,66.7a4.65,4.65,0,0,0-6.57,0,4.65,4.65,0,0,0,0,6.57l11,11,.008.008h0a4.639,4.639,0,0,0,6.562-.008l.008-.008h0a4.641,4.641,0,0,0-.008-6.562Z"/><path class="d" d="M-298.29,103.487h-15.56a4.651,4.651,0,0,0-4.65,4.64v.01a4.65,4.65,0,0,0,4.65,4.65h15.56a4.65,4.65,0,0,0,4.64-4.66v0A4.64,4.64,0,0,0-298.29,103.487Z"/><path class="d" d="M-204.82,106.187h-15.56a4.65,4.65,0,0,0-4.65,4.65,4.651,4.651,0,0,0,4.65,4.64h15.56a4.64,4.64,0,0,0,4.64-4.64A4.651,4.651,0,0,0-204.82,106.187Z"/><path class="d" d="M-216.56,68.607a4.65,4.65,0,0,0-6.57,0l-11,11-.008.008h0a4.639,4.639,0,0,0,.008,6.562,4.65,4.65,0,0,0,6.57,0l11-11A4.652,4.652,0,0,0-216.56,68.607Z"/><path class="c" d="M-257.745,80.858a17,17,0,0,0-17,17,27.073,27.073,0,0,0,2.9,11.26,10.7,10.7,0,0,0,9.63,6l8.97.05a10.7,10.7,0,0,0,9.63-6,27.012,27.012,0,0,0,2.87-11.31A17,17,0,0,0-257.745,80.858Z"/><path class="c" d="M-253.785,118.018h-7.89a5.161,5.161,0,0,0-5.15,5.15,5.159,5.159,0,0,0,5.15,5.15h7.89a5.159,5.159,0,0,0,5.15-5.15A5.161,5.161,0,0,0-253.785,118.018Z"/><path class="c" d="M-256.645,76.248h0a4.639,4.639,0,0,0,4.638-4.64V56.048a4.651,4.651,0,0,0-4.64-4.65,4.65,4.65,0,0,0-4.65,4.65v15.56A4.651,4.651,0,0,0-256.645,76.248Z"/><path class="c" d="M-292.3,67.768a4.65,4.65,0,0,0-6.57,0,4.65,4.65,0,0,0,0,6.57l11,11,.008.008h0a4.64,4.64,0,0,0,6.562-.008l.008-.008h0a4.64,4.64,0,0,0-.008-6.562Z"/><path class="c" d="M-296.945,104.558h-15.56a4.651,4.651,0,0,0-4.65,4.64v.01a4.65,4.65,0,0,0,4.65,4.65h15.56a4.65,4.65,0,0,0,4.64-4.66v0A4.64,4.64,0,0,0-296.945,104.558Z"/><path class="c" d="M-203.475,107.258h-15.56a4.65,4.65,0,0,0-4.65,4.65,4.651,4.651,0,0,0,4.65,4.64h15.56a4.64,4.64,0,0,0,4.64-4.64A4.651,4.651,0,0,0-203.475,107.258Z"/><path class="c" d="M-215.215,69.678a4.65,4.65,0,0,0-6.57,0l-11,11-.008.008h0a4.639,4.639,0,0,0,.008,6.562,4.65,4.65,0,0,0,6.57,0l11-11A4.652,4.652,0,0,0-215.215,69.678Z"/></g></g></g></g></svg>