<svg id="레이어_1" data-name="레이어 1" xmlns="http://www.w3.org/2000/svg" viewBox="0 0 224.59 224.59"><defs><style>.cls-1{fill:#a7bbc7;}.cls-2{fill:#fff;}</style></defs><circle class="cls-1" cx="112.3" cy="112.3" r="112.3"/><path class="cls-2" d="M115.7,96.31a10.69,10.69,0,0,0,9.63-6A26.92,26.92,0,0,0,128.2,79a17,17,0,1,0-34,0A27.07,27.07,0,0,0,97.1,90.26a10.69,10.69,0,0,0,9.63,6Z"/><rect class="cls-2" x="102.12" y="99.16" width="18.19" height="10.3" rx="5.15"/><rect class="cls-2" x="107.65" y="32.54" width="9.29" height="24.85" rx="4.65"/><rect class="cls-2" x="74.21" y="45.27" width="9.29" height="24.85" rx="4.65" transform="translate(-17.7 72.66) rotate(-45)"/><rect class="cls-2" x="59.57" y="77.92" width="9.29" height="24.85" rx="4.65" transform="translate(-26.13 154.56) rotate(-90)"/><rect class="cls-2" x="153.03" y="80.62" width="9.29" height="24.85" rx="4.65" transform="translate(250.73 -64.63) rotate(90)"/><rect class="cls-2" x="140.3" y="47.18" width="9.29" height="24.85" rx="4.65" transform="translate(84.6 -85.03) rotate(45)"/><path class="cls-2" d="M96.44,112.3H67.8a3.88,3.88,0,0,0-3.89,3.88v55.55a3.88,3.88,0,0,0,3.89,3.88H99.11c5.27,0,9.59,2.29,10,5.19h0V125A12.73,12.73,0,0,0,96.44,112.3Z"/><path class="cls-2" d="M109.17,179.9v-.48h0A3.88,3.88,0,0,1,109.17,179.9Z"/><path class="cls-2" d="M108,182.52c-1.68-1.81-5-3.05-8.92-3.05H68.63c-4.32,0-7.82-3.07-7.82-6.85V122.88a3.58,3.58,0,0,0-7.15,0v57.26c0,4.29,4,7.76,8.91,7.76h46.6v-2.76A3.83,3.83,0,0,0,108,182.52Z"/><path class="cls-2" d="M126,112.3h28.64a3.88,3.88,0,0,1,3.89,3.88v55.55a3.88,3.88,0,0,1-3.89,3.88H123.32c-5.27,0-9.58,2.29-10,5.19h0V125A12.73,12.73,0,0,1,126,112.3Z"/><path class="cls-2" d="M113.26,179.9v-.48h0A3.88,3.88,0,0,0,113.26,179.9Z"/><path class="cls-2" d="M114.4,182.52c1.68-1.81,5-3.05,8.92-3.05H153.8c4.32,0,7.82-3.07,7.82-6.85V122.88a3.58,3.58,0,0,1,7.15,0v57.26c0,4.29-4,7.76-8.9,7.76H113.26v-2.76A3.87,3.87,0,0,1,114.4,182.52Z"/></svg>