<?xml version="1.0" encoding="utf-8"?>
<!-- Generator: Adobe Illustrator 25.2.3, SVG Export Plug-In . SVG Version: 6.00 Build 0)  -->
<svg version="1.1" id="레이어_1" xmlns="http://www.w3.org/2000/svg" xmlns:xlink="http://www.w3.org/1999/xlink" x="0px"
	 y="0px" viewBox="0 0 124.58 93.12" style="enable-background:new 0 0 124.58 93.12;" xml:space="preserve">
<style type="text/css">
	.st0{fill:#A7BBC7;}
</style>
<path id="패스_6407" class="st0" d="M62.5,0.01c16.66,0,33.33-0.03,49.99,0.01c8.34,0.02,12.02,3.55,12.04,11.8
	c0.07,23.33,0.06,46.65-0.01,69.98c-0.02,7.33-3.82,11.25-11.04,11.26c-34.16,0.07-68.31,0.07-102.47,0
	C3.73,93.05,0.06,89.2,0.04,81.79c-0.05-23.49-0.05-46.99,0-70.48C0.06,3.73,3.83,0.05,11.51,0.03C28.51-0.03,45.51,0.01,62.5,0.01z
	 M61.93,57.72c6.86,0.02,13.43-2.74,18.22-7.65c9.17-9.19,18.35-18.37,27.54-27.54c3.06-3.06,6.43-5.89,9.01-9.32
	c1.02-1.35,0.27-4.03,0.33-6.1c-1.95,0.09-3.98-0.13-5.8,0.39c-1.12,0.32-1.93,1.76-2.87,2.7c-10.95,10.94-21.9,21.89-32.85,32.83
	c-8.64,8.6-17.94,8.57-26.61-0.07C37.34,31.45,25.8,19.92,14.29,8.36c-2.04-2.05-4.24-3.66-6.85-1.12C4.86,9.75,6.27,12,8.36,14.09
	c12.26,12.22,24.47,24.5,36.76,36.68C49.6,55.2,55.63,57.7,61.93,57.72z"/>
</svg>
