<?xml version="1.0" encoding="utf-8"?>
<!-- Generator: Adobe Illustrator 25.2.3, SVG Export Plug-In . SVG Version: 6.00 Build 0)  -->
<svg version="1.1" id="레이어_1" xmlns="http://www.w3.org/2000/svg" xmlns:xlink="http://www.w3.org/1999/xlink" x="0px"
	 y="0px" viewBox="0 0 93.85 124.68" style="enable-background:new 0 0 93.85 124.68;" xml:space="preserve">
<style type="text/css">
	.st0{fill:#A7BBC7;}
</style>
<path id="패스_6408" class="st0" d="M46.73,0c18.43,0.81,32.61,8.62,41.24,24.84c8.51,16,7.77,32.23-2.18,47.36
	c-10.88,16.53-22.44,32.61-33.78,48.84c-3.38,4.84-6.79,4.85-10.15,0.02C30.44,104.68,18.78,88.46,7.85,71.77
	C-2.1,56.57-2.49,40.29,6.11,24.4C14.76,8.44,28.91,0.8,46.73,0z M47.16,62.49c8.73-0.11,15.73-7.26,15.67-15.99
	c-0.18-8.78-7.45-15.74-16.22-15.56c-8.7,0.18-15.63,7.32-15.56,16.02C31.23,55.69,38.44,62.62,47.16,62.49L47.16,62.49z"/>
</svg>
