<?xml version="1.0" encoding="utf-8"?>
<!-- Generator: Adobe Illustrator 25.2.3, SVG Export Plug-In . SVG Version: 6.00 Build 0)  -->
<svg version="1.1" id="레이어_1" xmlns="http://www.w3.org/2000/svg" xmlns:xlink="http://www.w3.org/1999/xlink" x="0px"
	 y="0px" viewBox="0 0 125.44 124.67" style="enable-background:new 0 0 125.44 124.67;" xml:space="preserve">
<style type="text/css">
	.st0{fill:#A7BBC7;}
</style>
<path id="패스_6393" class="st0" d="M27.98,0c4.03,1.9,6.11,5.09,7.27,9.41c1.94,7.22,4.29,14.34,6.76,21.41
	c1.52,4.35,0.73,7.79-2.68,10.77c-0.75,0.65-1.41,1.42-2.11,2.12c-7.69,7.72-7.73,7.75-1.54,16.56
	c9.13,12.98,20.69,24.06,34.05,32.62c3.17,2.05,5.32,2.1,8.16-0.76c12.52-12.58,8.08-11.17,25.11-6.02c4.62,1.4,9.21,2.88,13.8,4.36
	c8.18,2.63,11.11,11.07,6.37,18.25c-7.58,11.48-23.11,18.05-36.52,15.34c-20.89-4.23-37.45-16.04-52.28-30.55
	C19.18,78.64,6.78,61.92,1.74,40.72C1.2,38.47,0.59,36.24,0,34v-7C4.06,16.07,9.61,6.25,20,0C20,0,27.98,0,27.98,0z"/>
</svg>
