<svg xmlns="http://www.w3.org/2000/svg" xmlns:xlink="http://www.w3.org/1999/xlink" width="252.6" height="248.6" viewBox="0 0 252.6 248.6"><defs><style>.a{fill:#d1dbe1;}.b{fill:#e7ecf0;}.c{fill:#7f96a0;}.d{fill:#a7bbc7;}.e{filter:url(#c);}.f{filter:url(#a);}</style><filter id="a" x="0" y="0" width="242.6" height="242.6" filterUnits="userSpaceOnUse"><feOffset dx="-5" dy="-3" input="SourceAlpha"/><feGaussianBlur stdDeviation="3" result="b"/><feFlood flood-color="#fff" flood-opacity="0.451"/><feComposite operator="in" in2="b"/><feComposite in="SourceGraphic"/></filter><filter id="c" x="10" y="6" width="242.6" height="242.6" filterUnits="userSpaceOnUse"><feOffset dx="5" dy="3" input="SourceAlpha"/><feGaussianBlur stdDeviation="3" result="d"/><feFlood flood-opacity="0.161"/><feComposite operator="in" in2="d"/><feComposite in="SourceGraphic"/></filter></defs><g transform="translate(-1318 -508)"><g transform="translate(62.986 -2)"><g transform="translate(551 14)"><g transform="translate(-414.987 -25)"><g class="f" transform="matrix(1, 0, 0, 1, 1119, 521)"><circle class="a" cx="112.3" cy="112.3" r="112.3" transform="translate(14 12)"/></g><g class="e" transform="matrix(1, 0, 0, 1, 1119, 521)"><circle class="b" cx="112.3" cy="112.3" r="112.3" transform="translate(14 12)"/></g></g></g></g><g transform="translate(8 385.563)"><g transform="translate(1281.641 -104.9)"><path class="c" d="M108.061,382.6v-.2h-.43v.2h-.3v6.82h.43V382.6Z"/><path class="c" d="M76.547,396.48h.218l.082-.168c.774,0,1.548-.012,2.32-.02-.914.006-1.83.02-2.746.02l-.081.168h-.219l-.36.74,7.56,7.35.2-.219-7.335-7.131Z"/><path class="c" d="M88.8,382.549v-.2h-.426v.2h-.3v6.75H88.5v-6.75Z"/><path class="c" d="M93.037,365.509a1.179,1.179,0,0,1,.616-.611,1.793,1.793,0,0,1,.235-.149,1.766,1.766,0,0,1,.623-.189,1.756,1.756,0,0,0-1.047.189,1.7,1.7,0,0,0-.236.149,1.177,1.177,0,0,0-.617.611c-1.32,3.15-2.46,6.39-3.77,9.83h.426C90.577,371.9,91.717,368.659,93.037,365.509Z"/><path class="c" d="M92.947,406.169c-1.27-3.03-2.38-6.17-3.683-9.568h.375c-.026-.068-.049-.132-.075-.2h-.427l.076.2h-.376c1.3,3.4,2.414,6.538,3.684,9.568a1.661,1.661,0,0,0,.74.74,1.7,1.7,0,0,0,1.027.168,1.675,1.675,0,0,1-.6-.168A1.656,1.656,0,0,1,92.947,406.169Z"/><path class="c" d="M73.957,382.512v-.2h-.426v.2h-.3v6.84h.426v-6.84Z"/><path class="c" d="M83.173,368.189c.322-.21.657-.4.99-.6.027-.1.051-.2.078-.3-.513.278-1.008.583-1.494.9a21.224,21.224,0,0,0-6.966,7.17c1.488,0,2.688.051,3.814.037-1.007,0-2.083-.037-3.388-.037A21.206,21.206,0,0,1,83.173,368.189Z"/><path class="c" d="M107.091,375.389c.876.033,1.757.03,2.64.021-.74.005-1.48.007-2.214-.021a1.664,1.664,0,0,1-1.11-1c-.66-2.14-1.2-4.33-1.78-6.5l.56-.58.044.042.039-.036-.209-.2-.256.242-.044-.042-.56.58c.58,2.17,1.12,4.36,1.78,6.5A1.662,1.662,0,0,0,107.091,375.389Z"/><path class="c" d="M106.47,397.289a1.471,1.471,0,0,1,.5-.51,1.453,1.453,0,0,1,.917-.45c.378-.019.757-.028,1.136-.032-.521,0-1.042.006-1.562.032a2.573,2.573,0,0,0-1.417.96c-.68,2.28-1.25,4.6-1.86,6.9l.54.45.2-.192-.31-.258C105.22,401.889,105.79,399.569,106.47,397.289Z"/><path class="d" d="M115.141,389.219h-.3v.2h.43v-.2h.3V382.4h-.43Z"/><path class="d" d="M115.141,389.219V382.4h-7.08v.2h-.3v6.82h7.08v-.2Z"/><path class="d" d="M81.907,396.312c-.911-.032-1.825-.03-2.74-.02.773-.006,1.545-.007,2.314.02.34,0,.8.577.92,1,.64,2.15,1.18,4.33,1.76,6.5l-.54.56-.062-.06-.037.041.225.219.238-.26.062.06.54-.56c-.58-2.17-1.12-4.35-1.76-6.5C82.707,396.889,82.247,396.312,81.907,396.312Z"/><path class="d" d="M83.621,404.37l.54-.56c-.58-2.17-1.12-4.35-1.76-6.5-.12-.421-.58-1-.92-1-.769-.027-1.541-.026-2.314-.02s-1.546.02-2.32.02l-.082.168h-.218l-.36.74,7.335,7.131.037-.041Z"/><path class="d" d="M100.371,389.1h-.3v.2h.426v-.2h.3v-6.75h-.426Z"/><path class="d" d="M100.371,389.1v-6.75H88.8v.2h-.3v6.75h11.574v-.2Z"/><path class="d" d="M95.861,365.489c1.28,3.08,2.38,6.22,3.68,9.65h-.374l.074.2h.426c-.026-.068-.049-.133-.075-.2h.375c-1.3-3.43-2.4-6.57-3.68-9.65a1.77,1.77,0,0,0-1.776-.929A1.768,1.768,0,0,1,95.861,365.489Z"/><path class="d" d="M93.653,364.9a1.179,1.179,0,0,0-.616.611c-1.32,3.15-2.46,6.39-3.77,9.83h9.974l-.074-.2h.374c-1.3-3.43-2.4-6.57-3.68-9.65a1.348,1.348,0,0,0-1.973-.74A1.793,1.793,0,0,0,93.653,364.9Z"/><path class="d" d="M95.877,405.971a2.592,2.592,0,0,1-1.589,1.106,2.361,2.361,0,0,0,2.016-1.106c1.26-3.08,2.37-6.22,3.64-9.57h-.427C98.247,399.751,97.137,402.891,95.877,405.971Z"/><path class="d" d="M95.877,405.971c1.26-3.08,2.37-6.22,3.64-9.57H89.564c.026.068.049.132.075.2h-.375c1.3,3.4,2.413,6.538,3.683,9.568a1.656,1.656,0,0,0,.74.74,1.675,1.675,0,0,0,.6.168,2.592,2.592,0,0,0,1.589-1.106Z"/><path class="d" d="M80.841,389.149v.2h.426v-.2h.3v-6.837h-.426v6.837Z"/><path class="d" d="M80.841,389.149h.3v-6.837H73.957v.2h-.3v6.84h7.184Z"/><path class="d" d="M82.311,374.459a.919.919,0,0,1-.471.434,2.264,2.264,0,0,1-1.189.466c-.349.022-.7.032-1.056.037.5,0,1-.007,1.482-.037a2.261,2.261,0,0,0,1.188-.466.917.917,0,0,0,.472-.434c.7-2.27,1.26-4.59,1.93-7.17-.173.094-.335.2-.5.3C83.528,370.05,82.983,372.28,82.311,374.459Z"/><path class="d" d="M81.84,374.893a.919.919,0,0,0,.471-.434c.672-2.179,1.217-4.409,1.852-6.866-.333.2-.668.386-.99.6a21.206,21.206,0,0,0-6.966,7.17c1.305,0,2.381.037,3.388.037.357-.005.707-.015,1.056-.037A2.264,2.264,0,0,0,81.84,374.893Z"/><path class="d" d="M112.251,375.189h-.2l-.1.2c-.739,0-1.48.013-2.22.021.882-.007,1.765-.021,2.646-.021l.1-.2h.2l.37-.74-7.56-7.34-.217.206,7.351,7.134Z"/><path class="d" d="M105.187,367.309l-.56.58c.58,2.17,1.12,4.36,1.78,6.5a1.664,1.664,0,0,0,1.11,1c.734.028,1.474.026,2.214.021s1.481-.021,2.22-.021l.1-.2h.2l.37-.74-7.351-7.134-.039.036Z"/><path class="d" d="M109.023,396.3c1.054,0,2.111.032,3.168.032l.45.65-7.62,7.42-.028-.024-.073.072.23.192.268-.264.029.024,7.62-7.42-.45-.65C111.418,396.329,110.218,396.284,109.023,396.3Z"/><path class="d" d="M105.021,404.4l7.62-7.42-.45-.65c-1.057,0-2.114-.033-3.168-.032-.379,0-.758.013-1.136.032a1.453,1.453,0,0,0-.917.45,1.471,1.471,0,0,0-.5.51c-.68,2.28-1.25,4.6-1.86,6.9l.31.258.073-.072Z"/><path class="c" d="M68.268,418.613a7.12,7.12,0,0,1,3.818-.988q22.181,0,44.37-.07a6.709,6.709,0,0,0,3.715-1.256q26.373-21.242,52.615-42.654l1.82-1.46.016.027.033-.026c-.2-.34-.406-.671-.6-1.026l-.284.227-.016-.027-1.82,1.46q-26.242,21.414-52.615,42.654a6.709,6.709,0,0,1-3.715,1.256q-22.19.072-44.37.07a7.12,7.12,0,0,0-3.818.988,4.817,4.817,0,0,0-2.058,2.107c.255.333.507.668.765,1A4.818,4.818,0,0,1,68.268,418.613Z"/><path class="c" d="M178.566,435.185c2.262,0,3.872.322,4.974,1.108-1.053-1.394-2.892-1.933-5.825-1.933H78.589q.453.416.909.825Z"/><path class="c" d="M196.066,368.335a7,7,0,0,0,4.407-12.436,7,7,0,0,1-9.665,10.047A6.976,6.976,0,0,0,196.066,368.335Z"/><path class="c" d="M178.506,360.965A17.56,17.56,0,0,1,207.981,348.4a17.518,17.518,0,0,0-12.565-5.487h0a17.641,17.641,0,0,0-17.76,17.23v.17a17.516,17.516,0,0,0,5.691,13.1,17.514,17.514,0,0,1-4.84-12.279Z"/><path class="c" d="M175.076,321.375l.057.062.2-.2-.8-.872-.243.242-.057-.062-9.38,9.3,11.5,14.76c.037-.041.076-.08.115-.12L165.7,330.675Z"/><path class="c" d="M169.666,276.845l.05.05.237-.237-.838-.838-.25.25-.05-.05-44.29,44.28,19.39,19.39.013-.013-18.552-18.552Z"/><path class="c" d="M122.207,329.206l.05.05.234-.234-.835-.841-.25.25-.05-.05-9.35,9.37,14.31,14.3.013-.013-13.472-13.462Z"/><path class="c" d="M196.679,273.561c-2.705-2.606-5.33-5.3-7.843-8.086-2.76-3.1-2.99-6.81-1.56-10.55l.17.169c.041-.116.079-.233.123-.349l-.848-.845c-.047.123-.087.246-.13.369l-.17-.169c-1.43,3.74-1.2,7.45,1.56,10.55Q192.152,269.267,196.679,273.561Z"/><path class="c" d="M188.539,285.047l-8.723-8.732,4.72-4.3.034.034.242-.221-.837-.838-.256.234-.034-.034-4.72,4.3,9.56,9.57Z"/><path class="d" d="M197.64,384.264c-7.569.73-13.644-1.289-18.341-6.175a26.541,26.541,0,0,1-4.644-5.9l-.033.026-.016-.027-1.82,1.46q-26.242,21.413-52.615,42.654a6.709,6.709,0,0,1-3.715,1.256q-22.189.07-44.37.07a7.12,7.12,0,0,0-3.818.988,4.818,4.818,0,0,0-2.144,2.28q2.694,3.435,5.648,6.647c.254.277.511.551.768.825q46.648-.059,93.3,0a3.863,3.863,0,0,0,3.18-1.67q14.55-20.51,29.11-41c.3-.43.52-.92.89-1.58C198.549,384.179,198.1,384.22,197.64,384.264Z"/><path class="d" d="M183.54,436.293c-1.1-.786-2.712-1.108-4.974-1.108H79.5a112.642,112.642,0,0,0,18.15,13.292c.472.278.944.554,1.42.825l86.2.073v-.25h.3v-6.94C185.566,439.181,185,437.332,183.54,436.293Z"/><path class="d" d="M196.066,354.335a6.974,6.974,0,0,1,4.407,1.564,7,7,0,1,0-9.665,10.047,6.993,6.993,0,0,1,5.258-11.611Z"/><path class="d" d="M207.981,348.4a17.509,17.509,0,0,1,4.834,12.272v0a17.56,17.56,0,0,1-29.469,12.743A17.566,17.566,0,1,0,207.981,348.4Z"/><path class="d" d="M212.815,360.671v0a17.155,17.155,0,0,0-34.309.3v.17a17.156,17.156,0,1,0,34.309-.464Zm-24.6-.161a8.611,8.611,0,1,1,2.593,5.436A7,7,0,0,1,188.215,360.51Z"/><path class="d" d="M181.727,341.406a25.742,25.742,0,0,1,8.259-3.831l-.079-.085c.128-.036.251-.081.379-.115l-14.91-16.18-.047.047,14.106,15.308c-.128.034-.251.079-.379.115l.079.085a24.69,24.69,0,0,0-12.49,7.66l-.049-.063c-.045.049-.09.1-.136.143l.736.945c.081-.091.169-.173.251-.263l.049.063A25.761,25.761,0,0,1,181.727,341.406Z"/><path class="d" d="M176.645,344.41a24.69,24.69,0,0,1,12.49-7.66l-.079-.085c.128-.036.251-.081.379-.115l-14.106-15.308-.2.2-.057-.062-9.38,9.3L176.46,344.49c.046-.047.091-.094.136-.143Z"/><path class="d" d="M169.966,276.645l-.013.013,18.572,18.572-44.31,44.26-.05-.049-.237.236.838.838.25-.249.05.049,44.31-44.26Z"/><path class="c" d="M142.176,327.515a4,4,0,0,1,0-3.43,47.669,47.669,0,0,1,6.16-6.2c.058-.05.123-.091.185-.137a2.706,2.706,0,0,1,2.764.063,2.714,2.714,0,0,0-3.615-.888c-.062.046-.127.087-.185.137a47.667,47.667,0,0,0-6.16,6.2,4,4,0,0,0,0,3.43,2.766,2.766,0,0,0,1,1.081,1.884,1.884,0,0,1-.151-.261Z"/><path class="d" d="M144.215,339.49l44.31-44.26-18.572-18.572-.237.237-.05-.05-44.29,44.28,18.552,18.552.237-.236Zm-2.89-12.8a4,4,0,0,1,0-3.43,47.667,47.667,0,0,1,6.16-6.2c.058-.05.123-.091.185-.137a2.714,2.714,0,0,1,3.615.888,2.681,2.681,0,0,1,.881.864c.67,1.05,1.14,3.14.56,3.9a58.037,58.037,0,0,1-6.214,6.465,10.557,10.557,0,0,1-1.866.485,8.484,8.484,0,0,1-2.319-1.754A2.766,2.766,0,0,1,141.325,326.69Z"/><path class="d" d="M122.491,329.022l13.445,13.529-9.32,9.3-.05-.05-.237.237.838.838.25-.25.05.05,9.32-9.3-14.28-14.37Z"/><path class="d" d="M126.616,351.851l9.32-9.3-13.445-13.529-.234.234-.05-.05-9.35,9.37,13.472,13.462.237-.237Z"/><path class="d" d="M210.094,277.684l.067.066c-3.82,1.5-7.6,1.2-10.72-1.62q-1.395-1.266-2.762-2.569,1.788,1.723,3.617,3.394c3.12,2.82,6.9,3.12,10.72,1.62l-.067-.066c.123-.045.245-.085.367-.134l-23.74-23.65-.007.02,22.892,22.8C210.339,277.6,210.217,277.639,210.094,277.684Z"/><path class="d" d="M187.276,254.925c-1.43,3.74-1.2,7.45,1.56,10.55,2.513,2.784,5.138,5.48,7.843,8.086q1.368,1.3,2.762,2.569c3.12,2.82,6.9,3.12,10.72,1.62l-.067-.066c.123-.045.245-.086.367-.134l-22.892-22.8c-.044.116-.082.233-.123.349Z"/><path class="d" d="M188.815,284.86l-.034-.034-.242.221.837.838.256-.234.034.034,4.71-4.31-9.55-9.56-.014.013,8.713,8.722Z"/><path class="d" d="M184.536,272.015l-4.72,4.3,8.723,8.732.242-.221.034.034,4.71-4.31-8.713-8.722-.242.221Z"/></g></g></g></svg>