<?xml version="1.0" encoding="utf-8"?>
<!-- Generator: Adobe Illustrator 25.2.3, SVG Export Plug-In . SVG Version: 6.00 Build 0)  -->
<svg version="1.1" id="레이어_1" xmlns="http://www.w3.org/2000/svg" xmlns:xlink="http://www.w3.org/1999/xlink" x="0px"
	 y="0px" viewBox="0 0 580.74 530.45" style="enable-background:new 0 0 580.74 530.45;" xml:space="preserve">
<style type="text/css">
	.st0{fill:#F0F0F0;}
	.st1{fill:#E0E0E0;}
	.st2{fill:#A7BBC7;}
	.st3{opacity:0.2;}
	.st4{fill:#FFFFFF;}
	.st5{fill:#37474F;}
	.st6{fill:#263238;}
	.st7{fill:#455A64;}
	.st8{opacity:0.15;enable-background:new    ;}
	.st9{opacity:0.7;fill:#FFFFFF;enable-background:new    ;}
	.st10{opacity:0.8;fill:#455A64;enable-background:new    ;}
	.st11{fill:#EBEBEB;}
	.st12{opacity:0.3;enable-background:new    ;}
	.st13{opacity:0.4;enable-background:new    ;}
	.st14{opacity:0.5;enable-background:new    ;}
	.st15{fill:#FAFAFA;}
	.st16{opacity:0.8;fill:#FAFAFA;enable-background:new    ;}
	.st17{fill:#27DEBF;}
	.st18{opacity:0.3;fill:#A7BBC7;enable-background:new    ;}
	.st19{opacity:0.3;}
	.st20{opacity:0.1;enable-background:new    ;}
	.st21{opacity:0.3;fill:#FFFFFF;enable-background:new    ;}
	.st22{opacity:0.4;fill:#FFFFFF;enable-background:new    ;}
	.st23{fill:#FFA8A7;}
	.st24{fill:#F5F5F5;}
	.st25{fill:#F28F8F;}
</style>
<g id="그룹_5514" transform="translate(-19.146 -20.963)">
	<g id="Floor" transform="translate(0.877 0.364)">
		<ellipse id="Floor-2" class="st0" cx="257.98" cy="359.91" rx="231.54" ry="133.68"/>
	</g>
	<g id="Shadows">
		<path id="Shadow" class="st1" d="M332.08,395.15c-0.01-2.29-0.65-4.54-1.85-6.5l0,0c-0.24-0.42-0.51-0.82-0.79-1.22l-0.04-0.06
			c-0.27-0.37-0.56-0.73-0.87-1.07c-0.03-0.03-0.05-0.06-0.08-0.09c-0.29-0.32-0.61-0.62-0.94-0.91c-0.03-0.02-0.06-0.05-0.09-0.07
			c-0.32-0.28-0.67-0.53-1.03-0.76c-0.2-0.13-0.4-0.24-0.6-0.34c-0.09-0.05-0.18-0.08-0.27-0.12s-0.21-0.1-0.31-0.14
			c-0.15-0.06-0.3-0.1-0.44-0.14c-0.04-0.01-0.08-0.03-0.12-0.04c-0.17-0.04-0.34-0.08-0.51-0.1l-0.03-0.01
			c-0.65-0.1-1.32,0-1.91,0.29l0,0l-0.01,0.01l0,0c-5.29,2.65-35.77,22.05-49.8,30.79l-6.95,4.22c-0.21,0.12-0.38,0.29-0.51,0.49
			c-0.02,0.02-0.04,0.05-0.05,0.08c-0.06,0.1-0.11,0.2-0.16,0.3c-0.03,0.07-0.05,0.14-0.07,0.21c-0.03,0.09-0.06,0.17-0.08,0.27
			c-0.01,0.06-0.02,0.12-0.03,0.18c-0.32,0.17-0.71,0.39-1.15,0.63l-1.03,0.55c-2.39-2.27-5.06-4.25-7.93-5.88
			c-9.62-5.55-22.36-8.61-35.88-8.61s-26.26,3.06-35.88,8.61c-9.96,5.75-15.45,13.52-15.45,21.87s5.49,16.12,15.45,21.87
			c9.62,5.55,22.36,8.61,35.88,8.61s26.26-3.06,35.88-8.61c9.96-5.75,15.45-13.52,15.45-21.87c-0.04-3.84-1.17-7.58-3.26-10.8
			l0.92-0.5c0.58,0.4,1.32,0.47,1.97,0.19l0.04-0.02c4.76-2.62,51.16-22.4,60.65-27.48l0,0h0.01l0,0
			C331.29,398.4,332.01,397.07,332.08,395.15z M250.03,451.89c-8.3,4.79-19.49,7.43-31.49,7.43s-23.19-2.64-31.49-7.43
			c-7.13-4.12-11.06-9.19-11.06-14.27s3.93-10.16,11.06-14.27c8.3-4.79,19.49-7.43,31.49-7.43s23.19,2.64,31.49,7.43
			c7.13,4.12,11.06,9.19,11.06,14.27S257.16,447.77,250.03,451.89z"/>
		<path id="Shadow-2" class="st1" d="M339.16,277.68l-47.07-27.23c-2.72-1.38-5.94-1.38-8.66,0L44.35,388.48
			c-2.39,1.38-2.39,3.62,0,5l47.07,27.23c2.72,1.38,5.94,1.38,8.66,0l89.6-51.73l13.77,8.01c7.29,4.21,19.12,4.21,26.41,0
			l41.06-23.53c7.29-4.21,7.3-11.03,0-15.24l-13.76-8l82.01-47.54C341.55,281.3,341.55,279.06,339.16,277.68z"/>
		<ellipse id="Shadow-3" class="st1" cx="418.12" cy="379.93" rx="46.15" ry="26.65"/>
	</g>
	<g id="Plant">
		<g id="Plants">
			<g id="그룹_340">
				<g id="그룹_337">
					<path id="패스_844" class="st2" d="M444.34,349.85c0.01-6.25-1.24-17.76,4.05-28.56c3.83-7.82,10.69-15.43,17.06-14.67
						c5.94,0.7,6.48,9.83,0.8,16.08s-12.91,14.89-14.48,28.71l-4.09,10.25L444.34,349.85z"/>
				</g>
				<g id="그룹_338" class="st3">
					<path id="패스_845" d="M444.34,349.85c0.01-6.25-1.24-17.76,4.05-28.56c3.83-7.82,10.69-15.43,17.06-14.67
						c5.94,0.7,6.48,9.83,0.8,16.08s-12.91,14.89-14.48,28.71l-4.09,10.25L444.34,349.85z"/>
				</g>
				<g id="그룹_339">
					<path id="패스_846" class="st4" d="M446.46,354.23c0.21-0.04,0.37-0.23,0.36-0.45c-0.72-17.76,5.06-32.51,16.72-42.64
						c0.18-0.16,0.19-0.44,0.03-0.61c-0.16-0.17-0.42-0.19-0.59-0.04c-11.86,10.31-17.75,25.3-17.02,43.33
						c0.01,0.24,0.21,0.43,0.45,0.42C446.43,354.24,446.45,354.24,446.46,354.23z"/>
				</g>
			</g>
			<g id="그룹_342">
				<path id="패스_847" class="st2" d="M443.2,372.18c3.33,1.96,7.12,3.02,10.99,3.06c6.68,0.16,9.15-3.36,9.15-3.36
					s-3.4-5.79-7.35-7.02c4.14,0.36,8.2,1.42,11.98,3.14c0,0,4.01-0.48,4.78-6.79c0,0-2.86-3.35-11.07-4.27
					c3.83-1.24,7.89-1.59,11.88-1.02c0.55,0.14,1.72-8.05,1.91-11.78s-1.27-3.49-4.21-3.87s-12.66,0.44-14.23,2.24
					s-1.75,7.25-1.75,7.25s-2.1-2.79-2.06-5.54c-2.06-0.3-4.15,0.03-6.02,0.95c-3.04,1.54-4.02,2.77-4.17,5.1s-0.35,5.83,0.59,8.54
					c0,0-2.77-4.46-2.63-8.35c-1.1,1.89-2.04,3.87-2.83,5.91C436.87,359.78,438.42,368.01,443.2,372.18z"/>
				<g id="그룹_341">
					<path id="패스_848" class="st4" d="M443.32,372.6c0.14-0.04,0.25-0.15,0.3-0.29c3.8-11.67,21.71-27.03,28.55-29.34
						c0.23-0.08,0.35-0.32,0.27-0.55l0,0c-0.07-0.22-0.3-0.35-0.52-0.28c-0.01,0-0.02,0.01-0.03,0.01
						c-6.97,2.35-25.22,18.01-29.1,29.89c-0.07,0.23,0.05,0.47,0.28,0.55C443.15,372.62,443.24,372.62,443.32,372.6z"/>
				</g>
			</g>
		</g>
	</g>
	<g id="Device">
		<g id="Device-2">
			<g id="Monitor">
				<g id="그룹_344">
					<g id="그룹_343">
						<path id="패스_849" class="st5" d="M229.86,373.02l35.37-20.45c3.65-2.1,5.47-4.86,5.47-7.62s0.02-4.92,0.02-4.92
							l-33.29-18.89c-2.08-1.36-3.39-3.62-3.52-6.1v-43.61l-61.79,35.7v43.61c0.13,2.48,1.44,4.74,3.52,6.1l27.81,16.19
							C210.74,377.23,222.57,377.23,229.86,373.02z"/>
					</g>
					<path id="패스_850" class="st6" d="M186.96,358.46v4.9l-11.32-6.53c-2.08-1.36-3.38-3.62-3.52-6.1v-43.61l11.77-6.79
						c0.24,2.99,0.51,6.08,0.75,9.09l-8.25,4.78v34.08c0.13,2.48,1.43,4.75,3.52,6.1L186.96,358.46z"/>
					<path id="패스_851" class="st7" d="M176.38,348.28c0.13,2.48,1.44,4.74,3.52,6.1l23.54,13.72c7.29,4.21,19.12,4.21,26.41,0
						l35.39-20.45c7.29-4.21,7.3-11.03,0-15.24l-23.55-13.73c-2.08-1.36-3.39-3.62-3.52-6.1V278.5l-61.79,35.7L176.38,348.28z"/>
					<path id="패스_852" class="st8" d="M248.87,322.82L248.87,322.82l-7.17-4.15c-2.08-1.36-3.39-3.62-3.52-6.1V278.5
						l-61.79,35.7v34.08c0.13,2.48,1.44,4.74,3.52,6.1l7.05,4.07L248.87,322.82z"/>
					<path id="패스_853" class="st5" d="M270.71,340.03v4.92c0,2.77-1.83,5.51-5.47,7.62l-35.38,20.44
						c-3.88,2.07-8.21,3.15-12.6,3.13v-4.9c4.4,0.02,8.73-1.06,12.6-3.13l35.38-20.46C268.88,345.56,270.71,342.79,270.71,340.03z"
						/>
				</g>
				<path id="패스_854" class="st7" d="M77.18,395.33c2.71,1.31,5.87,1.25,8.53-0.16l238.95-137.95c2.6-1.69,4.23-4.53,4.4-7.62
					V40.45c-0.11-3-1.64-5.78-4.13-7.47c-2.71-1.31-5.87-1.25-8.53,0.16L77.45,171.09c-2.6,1.69-4.23,4.53-4.4,7.62v209.15
					C73.16,390.87,74.69,393.64,77.18,395.33z"/>
				<path id="패스_855" class="st5" d="M85.71,395.17l238.95-137.95c2.6-1.69,4.23-4.53,4.4-7.62V40.44c0-2.81-1.97-3.94-4.4-2.54
					L85.71,175.86c-2.6,1.69-4.23,4.53-4.4,7.62v209.15C81.31,395.43,83.28,396.58,85.71,395.17z"/>
				<path id="패스_856" class="st2" d="M89.56,365V186.22c0.1-1.86,1.08-3.56,2.64-4.57L318.15,51.19
					c1.46-0.84,2.64-0.16,2.64,1.53l0.01,178.78c-0.1,1.86-1.08,3.56-2.64,4.57L92.2,366.52C90.75,367.37,89.56,366.68,89.56,365z"
					/>
				<path id="패스_857" class="st9" d="M89.56,365V186.22c0.1-1.86,1.08-3.56,2.64-4.57L318.15,51.19
					c1.46-0.84,2.64-0.16,2.64,1.53l0.01,178.78c-0.1,1.86-1.08,3.56-2.64,4.57L92.2,366.52C90.75,367.37,89.56,366.68,89.56,365z"
					/>
				<path id="패스_858" class="st2" d="M204.73,317.73c-0.46,0.01-0.92-0.11-1.32-0.34c-1.02-0.69-1.58-1.88-1.46-3.11
					c0.15-3.09,1.78-5.92,4.38-7.59l0,0c1.27-1.06,3.16-0.89,4.23,0.38c0.57,0.68,0.81,1.57,0.65,2.44
					c-0.15,3.09-1.78,5.92-4.38,7.59C206.2,317.49,205.47,317.7,204.73,317.73z M208.42,307.06c-0.57,0.03-1.11,0.2-1.59,0.5l0,0
					c-2.29,1.5-3.73,3.99-3.88,6.72c-0.27,1.09,0.4,2.19,1.5,2.46c0.67,0.16,1.38-0.03,1.88-0.51c2.29-1.49,3.73-3.99,3.88-6.72
					c0.1-0.86-0.26-1.72-0.96-2.24C209,307.13,208.71,307.05,208.42,307.06L208.42,307.06z"/>
			</g>
		</g>
	</g>
	<g id="그룹_346">
		<g id="그룹_345">
			<path id="패스_859" class="st0" d="M360.05,84.84l-232.71,134.2v171.51c0,1.64,1.33,2.97,2.97,2.97c0.52,0,1.03-0.14,1.48-0.39
				l4.15-2.39l219.78-126.72c2.56-1.67,4.17-4.46,4.34-7.51L360.05,84.84L360.05,84.84z"/>
			<path id="패스_860" class="st1" d="M359.05,86.57V256.5c-0.17,2.69-1.59,5.15-3.84,6.65L135.43,389.87l-4.15,2.39
				c-0.29,0.17-0.63,0.26-0.97,0.27c-0.51,0-1.01-0.2-1.38-0.56c-0.39-0.37-0.6-0.88-0.6-1.42V219.61L359.05,86.57 M360.05,84.84
				l-232.71,134.2v171.51c0,1.64,1.33,2.98,2.98,2.98c0.52,0,1.03-0.14,1.47-0.4l4.15-2.39l219.78-126.72
				c2.56-1.67,4.17-4.46,4.34-7.51C360.05,256.5,360.05,84.84,360.05,84.84z"/>
		</g>
		<path id="패스_861" class="st10" d="M354.53,81.65L121.8,215.84l5.53,3.2l232.71-134.2L354.53,81.65z"/>
		<path id="패스_862" class="st11" d="M128.9,393.17c-0.96-0.52-1.55-1.53-1.56-2.62V219.03l-5.53-3.2L121.8,386.4
			c0,0.21,0.01,0.42,0.04,0.63c0.19,1.41,1.03,2.65,2.26,3.36l4.57,2.64L128.9,393.17L128.9,393.17z"/>
	</g>
	<g id="그룹_349">
		<g id="그룹_347">
			<path id="패스_863" class="st2" d="M121.8,215.91v-11.57c0.08-1.52,0.88-2.92,2.16-3.76L352.37,68.91
				c1.36-0.7,2.96-0.7,4.32-0.01l1.19,0.69c1.28,0.83,2.08,2.23,2.17,3.75v11.59L127.34,219.11L121.8,215.91z"/>
			<path id="패스_864" class="st12" d="M121.8,215.91v-11.57c0.08-1.52,0.88-2.92,2.16-3.76L352.37,68.91
				c1.36-0.7,2.96-0.7,4.32-0.01l1.19,0.69c1.28,0.83,2.08,2.23,2.17,3.75v11.59L127.34,219.11L121.8,215.91z"/>
			<path id="패스_865" class="st2" d="M127.34,207.54c0.08-1.52,0.88-2.92,2.16-3.76L357.89,72.1c1.19-0.7,2.16-0.14,2.16,1.24
				v11.59L127.34,219.11V207.54z"/>
			<path id="패스_866" class="st13" d="M127.34,207.54c0.08-1.52,0.88-2.92,2.16-3.76L357.89,72.1c1.19-0.7,2.16-0.14,2.16,1.24
				v11.59L127.34,219.11V207.54z"/>
			<path id="패스_867" class="st2" d="M127.97,205.4c-0.39,0.65-0.6,1.38-0.63,2.14v11.57l-5.53-3.19v-11.58
				c0.03-0.75,0.24-1.49,0.63-2.13L127.97,205.4z"/>
			<path id="패스_868" class="st14" d="M127.97,205.4c-0.39,0.65-0.6,1.38-0.63,2.14v11.57l-5.53-3.19v-11.58
				c0.03-0.75,0.24-1.49,0.63-2.13L127.97,205.4z"/>
		</g>
		<g id="그룹_348">
			<path id="패스_869" class="st15" d="M349.89,84.4c0,1.3,0.91,1.82,2.03,1.17c1.2-0.78,1.95-2.09,2.03-3.52
				c0-1.3-0.91-1.82-2.03-1.17C350.72,81.67,349.97,82.97,349.89,84.4z"/>
			<path id="패스_870" class="st15" d="M341.77,89.09c0,1.3,0.91,1.82,2.03,1.17c1.2-0.78,1.95-2.09,2.03-3.52
				c0-1.29-0.91-1.82-2.03-1.17C342.6,86.36,341.85,87.66,341.77,89.09z"/>
			<path id="패스_871" class="st15" d="M333.64,93.78c0,1.29,0.91,1.82,2.03,1.17c1.2-0.78,1.95-2.09,2.03-3.52
				c0-1.3-0.91-1.82-2.03-1.17C334.48,91.05,333.72,92.35,333.64,93.78z"/>
		</g>
	</g>
	<path id="패스_872" class="st15" d="M126.34,219.11v171.44c0,1.64,1.33,2.97,2.97,2.97c0.52,0,1.03-0.14,1.48-0.39l4.15-2.39
		l50.85-29.32V184.83L126.34,219.11L126.34,219.11z"/>
	<path id="패스_873" class="st15" d="M195.93,197.22v166.51l164.32-94.87v-166.5L195.93,197.22z"/>
	<path id="패스_874" class="st2" d="M173.18,204.95l-37.93,21.91c-0.75,0.49-1.22,1.31-1.27,2.2v3.95c0,0.81,0.57,1.14,1.27,0.73
		l37.93-21.91c0.75-0.49,1.22-1.31,1.27-2.2v-3.95C174.45,204.87,173.88,204.54,173.18,204.95z"/>
	<path id="패스_875" class="st16" d="M173.18,204.95l-37.93,21.91c-0.75,0.49-1.22,1.31-1.27,2.2v3.95c0,0.81,0.57,1.14,1.27,0.73
		l37.93-21.91c0.75-0.49,1.22-1.31,1.27-2.2v-3.95C174.45,204.87,173.88,204.54,173.18,204.95z"/>
	<path id="패스_876" class="st7" d="M181.62,206.51l-1.12-1.08c0.23-0.57,0.35-1.17,0.35-1.79c0.08-0.74-0.24-1.47-0.84-1.92
		c-0.43-0.23-0.95-0.21-1.36,0.06c-1.13,0.86-1.78,2.21-1.76,3.63c-0.08,0.74,0.24,1.47,0.84,1.92c0.18,0.11,0.39,0.16,0.6,0.16
		c0.27-0.01,0.53-0.08,0.76-0.22c0.41-0.26,0.75-0.6,0.99-1.02l0.92,0.88c0.08,0.08,0.19,0.12,0.3,0.12c0.12,0,0.23-0.05,0.32-0.13
		C181.8,206.96,181.8,206.68,181.62,206.51z M178.66,206.52c-0.14,0.11-0.32,0.13-0.48,0.06c-0.18-0.1-0.4-0.47-0.4-1.16
		c-0.02-1.11,0.46-2.16,1.32-2.87c0.1-0.06,0.21-0.09,0.32-0.1c0.06,0,0.11,0.01,0.16,0.04c0.18,0.1,0.4,0.47,0.4,1.16
		C180,204.76,179.52,205.82,178.66,206.52L178.66,206.52z"/>
	<g id="그룹_367">
		<g id="그룹_357">
			<g id="그룹_351">
				<path id="패스_877" class="st7" d="M134.91,245.33l-0.85,0.49c-0.05,0.03-0.09,0-0.09-0.07v-2.3c0-0.07,0.03-0.13,0.09-0.17
					l0.85-0.49c0.05-0.03,0.09,0,0.09,0.07v2.3C135,245.23,134.96,245.29,134.91,245.33z"/>
				<path id="패스_878" class="st7" d="M136.18,244.6l-0.85,0.49c-0.05,0.03-0.09,0-0.09-0.07v-2.3c0-0.07,0.03-0.13,0.09-0.17
					l0.85-0.49c0.05-0.03,0.09,0,0.09,0.07v2.3C136.27,244.49,136.23,244.56,136.18,244.6z"/>
				<path id="패스_879" class="st7" d="M137.46,243.86l-0.85,0.49c-0.05,0.03-0.09,0-0.09-0.07v-2.3c0-0.07,0.03-0.13,0.09-0.17
					l0.85-0.49c0.05-0.03,0.09,0,0.09,0.07v2.3C137.55,243.76,137.51,243.82,137.46,243.86z"/>
				<path id="패스_880" class="st7" d="M134.91,248.3l-0.85,0.49c-0.05,0.03-0.09,0-0.09-0.07v-2.3c0-0.07,0.03-0.13,0.09-0.17
					l0.85-0.49c0.05-0.03,0.09,0,0.09,0.07v2.3C135,248.2,134.96,248.26,134.91,248.3z"/>
				<path id="패스_881" class="st7" d="M136.18,247.57l-0.85,0.49c-0.05,0.03-0.09,0-0.09-0.07v-2.3c0-0.07,0.04-0.13,0.09-0.17
					l0.85-0.49c0.05-0.03,0.09,0,0.09,0.07v2.3C136.27,247.46,136.23,247.53,136.18,247.57z"/>
				<path id="패스_882" class="st7" d="M137.46,246.83l-0.85,0.49c-0.05,0.03-0.09,0-0.09-0.07v-2.3c0-0.07,0.03-0.13,0.09-0.17
					l0.85-0.49c0.05-0.03,0.09,0,0.09,0.07v2.3C137.55,246.73,137.51,246.79,137.46,246.83z"/>
			</g>
			<g id="그룹_354">
				<g id="그룹_352">
					<path id="패스_883" class="st7" d="M135.04,256.15l-1.05-0.64c-0.04-0.02-0.04-0.12,0-0.19l1.05-1.85
						c0.05-0.09,0.12-0.08,0.12,0.02v2.49C135.16,256.08,135.09,256.18,135.04,256.15z"/>
				</g>
				<g id="그룹_353">
					<path id="패스_884" class="st7" d="M134.6,254.74l1.38-0.8v0.66l-1.38,0.8c-0.12,0.07-0.21-0.02-0.21-0.21
						C134.39,255.01,134.46,254.85,134.6,254.74z"/>
					<path id="패스_885" class="st7" d="M136.24,253.79l0.47-0.27v0.65l-0.47,0.27V253.79z"/>
					<path id="패스_886" class="st7" d="M137.98,253.12v2.41c0,0.18-0.08,0.34-0.21,0.45c-0.12,0.07-0.21-0.02-0.21-0.21v-2.08
						l-0.58,0.34v-0.65l0.8-0.46C137.88,252.85,137.98,252.94,137.98,253.12z"/>
				</g>
			</g>
			<g id="그룹_355">
				<path id="패스_887" class="st7" d="M135.45,261.55c-1.08,0.99-1.62,2.44-1.45,3.9c0.17,1.26,0.92,1.21,1,1.79
					c0.01,0.06,0.05,0.09,0.1,0.06l0.93-0.53c0.06-0.04,0.09-0.1,0.1-0.17c0.1-0.77,1.05-1.7,1.06-3.57
					C137.18,261.6,136.39,260.9,135.45,261.55z"/>
				<path id="패스_888" class="st7" d="M136.01,268.28l-0.9,0.52c-0.06,0.04-0.11,0-0.11-0.08v-0.83c0-0.09,0.04-0.16,0.11-0.21
					l0.9-0.52c0.06-0.04,0.11,0,0.11,0.08v0.83C136.12,268.15,136.07,268.23,136.01,268.28z"/>
			</g>
			<path id="패스_889" class="st7" d="M135.67,242.1c-0.94,0.92-1.52,2.14-1.63,3.45c-0.09,0.64-0.01,1.29,0.24,1.89l-0.3,1.57
				c-0.03,0.13,0.05,0.2,0.12,0.12l0.91-0.99c0.48,0.11,0.98-0.04,1.32-0.39c0.94-0.92,1.52-2.14,1.63-3.46
				C138.16,242.09,137.01,240.99,135.67,242.1z M135.99,247.26c-0.84,0.48-1.51-0.17-1.51-1.46c-0.02-1.24,0.54-2.43,1.51-3.2
				c0.83-0.48,1.51,0.17,1.51,1.46C137.52,245.3,136.97,246.48,135.99,247.26z"/>
			<path id="패스_890" class="st7" d="M135.67,272.45c-0.94,0.92-1.52,2.14-1.63,3.45c-0.09,0.64-0.01,1.29,0.24,1.89l-0.3,1.57
				c-0.03,0.13,0.05,0.2,0.12,0.12l0.91-0.99c0.48,0.11,0.98-0.04,1.32-0.39c0.94-0.92,1.52-2.14,1.63-3.46
				C138.16,272.44,137.01,271.34,135.67,272.45z M135.99,277.6c-0.84,0.48-1.51-0.17-1.51-1.46c-0.02-1.24,0.54-2.43,1.51-3.2
				c0.83-0.48,1.51,0.17,1.51,1.46C137.52,275.65,136.97,276.83,135.99,277.6L135.99,277.6z"/>
			<g id="그룹_356">
				<path id="패스_891" class="st7" d="M136.94,283.57c0.01,0.66-0.28,1.28-0.8,1.69c-0.44,0.25-0.8-0.09-0.8-0.77
					c-0.01-0.66,0.28-1.28,0.8-1.69C136.59,282.55,136.94,282.89,136.94,283.57z"/>
				<path id="패스_892" class="st7" d="M138.32,283.81c0.01,0.44-0.19,0.85-0.53,1.12c-0.29,0.17-0.53-0.06-0.53-0.51
					c-0.01-0.44,0.19-0.85,0.53-1.13C138.08,283.13,138.32,283.36,138.32,283.81z"/>
				<path id="패스_893" class="st7" d="M137.09,288.41l-1.88,1.09v-2.39c0.01-0.52,0.26-1,0.68-1.3l0.52-0.3
					c0.38-0.22,0.68,0.01,0.68,0.52L137.09,288.41L137.09,288.41z"/>
				<path id="패스_894" class="st7" d="M137.87,285.21l-0.52,0.3v2.75l0.98-0.57v-2.14C138.33,285.22,138.12,285.06,137.87,285.21
					z"/>
				<path id="패스_895" class="st7" d="M133.98,286.32c0,0.45,0.24,0.68,0.53,0.51c0.34-0.27,0.54-0.69,0.53-1.13
					c0-0.45-0.24-0.68-0.53-0.51C134.17,285.46,133.97,285.88,133.98,286.32z"/>
				<path id="패스_896" class="st7" d="M134.42,287.2l0.52-0.3v2.75l-0.98,0.57v-2.14C133.97,287.73,134.14,287.4,134.42,287.2z"
					/>
			</g>
		</g>
		<g id="그룹_366">
			<path id="패스_897" class="st1" d="M143.19,239.94l22.21-12.82c0.6-0.35,1.08-0.1,1.08,0.55c-0.05,0.74-0.46,1.41-1.08,1.8
				l-22.21,12.82c-0.6,0.35-1.08,0.1-1.08-0.55C142.16,241,142.56,240.33,143.19,239.94z"/>
			<path id="패스_898" class="st1" d="M143.19,250.39l22.21-12.82c0.6-0.35,1.08-0.1,1.08,0.55c-0.05,0.74-0.46,1.41-1.08,1.8
				l-22.21,12.82c-0.6,0.35-1.08,0.1-1.08-0.55C142.16,251.45,142.56,250.78,143.19,250.39z"/>
			<path id="패스_899" class="st1" d="M143.19,260.84l22.21-12.82c0.6-0.35,1.08-0.1,1.08,0.55c-0.05,0.74-0.46,1.41-1.08,1.8
				l-22.21,12.82c-0.6,0.35-1.08,0.1-1.08-0.55C142.16,261.9,142.56,261.24,143.19,260.84z"/>
			<path id="패스_900" class="st1" d="M143.19,271.3l22.21-12.82c0.6-0.35,1.08-0.1,1.08,0.55c-0.05,0.74-0.46,1.41-1.08,1.8
				l-22.21,12.82c-0.6,0.35-1.08,0.1-1.08-0.55C142.16,272.36,142.56,271.69,143.19,271.3z"/>
			<path id="패스_901" class="st1" d="M143.19,281.75l22.21-12.82c0.6-0.35,1.08-0.1,1.08,0.55c-0.05,0.74-0.46,1.41-1.08,1.8
				l-22.21,12.82c-0.6,0.35-1.08,0.1-1.08-0.55C142.16,282.81,142.56,282.14,143.19,281.75z"/>
			<path id="패스_902" class="st7" d="M147.25,290.28l22.21-12.82c0.6-0.35,1.08-0.1,1.08,0.55c-0.05,0.74-0.46,1.41-1.08,1.8
				l-22.21,12.82c-0.6,0.35-1.08,0.1-1.08-0.55C146.22,291.34,146.62,290.68,147.25,290.28z"/>
			<path id="패스_903" class="st1" d="M147.25,297.34l22.21-12.82c0.6-0.35,1.08-0.1,1.08,0.55c-0.05,0.74-0.45,1.41-1.08,1.8
				l-22.21,12.82c-0.6,0.35-1.08,0.1-1.08-0.55C146.22,298.41,146.62,297.74,147.25,297.34z"/>
			<path id="패스_904" class="st1" d="M147.25,304.41l22.21-12.82c0.6-0.35,1.08-0.1,1.08,0.55c-0.05,0.74-0.45,1.41-1.08,1.8
				l-22.21,12.82c-0.6,0.35-1.08,0.1-1.08-0.55C146.22,305.47,146.62,304.8,147.25,304.41z"/>
			<path id="패스_905" class="st1" d="M151.58,308.89l22.2-12.82c0.6-0.35,1.08-0.1,1.08,0.55c-0.05,0.74-0.45,1.41-1.08,1.8
				l-22.2,12.82c-0.6,0.35-1.08,0.1-1.08-0.55C150.55,309.95,150.95,309.29,151.58,308.89z"/>
			<g id="그룹_358">
				<path id="패스_906" class="st7" d="M146.38,314.97l1.8-3.18c0.07-0.12,0.07-0.28,0-0.32l-1.8-1.1
					c-0.09-0.05-0.21,0.12-0.21,0.29v4.28C146.17,315.1,146.3,315.12,146.38,314.97z"/>
			</g>
			<path id="패스_907" class="st1" d="M151.58,315.93l22.2-12.82c0.6-0.35,1.08-0.1,1.08,0.55c-0.05,0.74-0.46,1.41-1.08,1.8
				l-22.2,12.82c-0.6,0.35-1.08,0.1-1.08-0.55C150.55,316.99,150.95,316.32,151.58,315.93z"/>
			<g id="그룹_359">
				<path id="패스_908" class="st7" d="M146.38,322.01l1.8-3.18c0.07-0.12,0.07-0.28,0-0.32l-1.8-1.1
					c-0.09-0.05-0.21,0.11-0.21,0.29v4.28C146.17,322.14,146.3,322.16,146.38,322.01z"/>
			</g>
			<path id="패스_909" class="st1" d="M151.58,322.97l22.2-12.82c0.6-0.35,1.08-0.1,1.08,0.55c-0.05,0.74-0.45,1.41-1.08,1.8
				l-22.2,12.82c-0.6,0.35-1.08,0.1-1.08-0.55C150.55,324.03,150.95,323.36,151.58,322.97z"/>
			<g id="그룹_360">
				<path id="패스_910" class="st7" d="M146.38,329.04l1.8-3.18c0.07-0.12,0.07-0.28,0-0.32l-1.8-1.1
					c-0.09-0.05-0.21,0.11-0.21,0.28V329C146.17,329.18,146.3,329.2,146.38,329.04z"/>
			</g>
			<path id="패스_911" class="st1" d="M151.58,330l22.2-12.82c0.6-0.35,1.08-0.1,1.08,0.55c-0.05,0.74-0.46,1.41-1.08,1.8
				l-22.2,12.82c-0.6,0.35-1.08,0.1-1.08-0.55C150.55,331.06,150.95,330.4,151.58,330z"/>
			<g id="그룹_361">
				<path id="패스_912" class="st7" d="M146.38,336.08l1.8-3.18c0.07-0.12,0.07-0.28,0-0.32l-1.8-1.1
					c-0.09-0.05-0.21,0.12-0.21,0.29v4.28C146.17,336.21,146.3,336.23,146.38,336.08z"/>
			</g>
			<path id="패스_913" class="st1" d="M151.58,337.04l22.2-12.82c0.6-0.35,1.08-0.1,1.08,0.55c-0.05,0.74-0.45,1.41-1.08,1.8
				l-22.2,12.82c-0.6,0.35-1.08,0.1-1.08-0.55C150.55,338.1,150.95,337.43,151.58,337.04z"/>
			<g id="그룹_362">
				<path id="패스_914" class="st7" d="M146.38,343.11l1.8-3.18c0.07-0.12,0.07-0.28,0-0.32l-1.8-1.1
					c-0.09-0.05-0.21,0.11-0.21,0.28v4.28C146.17,343.25,146.3,343.27,146.38,343.11z"/>
			</g>
			<path id="패스_915" class="st1" d="M151.58,344.08l22.2-12.82c0.6-0.35,1.08-0.1,1.08,0.55c-0.05,0.74-0.45,1.41-1.08,1.8
				l-22.2,12.82c-0.6,0.35-1.08,0.1-1.08-0.55C150.55,345.14,150.95,344.47,151.58,344.08z"/>
			<g id="그룹_363">
				<path id="패스_916" class="st7" d="M146.38,350.15l1.8-3.18c0.07-0.12,0.07-0.28,0-0.32l-1.8-1.1
					c-0.09-0.05-0.21,0.11-0.21,0.29v4.28C146.17,350.28,146.3,350.31,146.38,350.15z"/>
			</g>
			<path id="패스_917" class="st1" d="M151.58,351.11l22.2-12.82c0.6-0.35,1.08-0.1,1.08,0.55c-0.05,0.74-0.45,1.41-1.08,1.8
				l-22.2,12.82c-0.6,0.35-1.08,0.1-1.08-0.55C150.55,352.17,150.95,351.51,151.58,351.11z"/>
			<g id="그룹_364">
				<path id="패스_918" class="st7" d="M146.38,357.19l1.8-3.18c0.07-0.12,0.07-0.28,0-0.32l-1.8-1.1
					c-0.09-0.05-0.21,0.12-0.21,0.29v4.28C146.17,357.32,146.3,357.34,146.38,357.19z"/>
			</g>
			<path id="패스_919" class="st1" d="M151.58,358.15l22.2-12.82c0.6-0.35,1.08-0.1,1.08,0.55c-0.05,0.74-0.46,1.41-1.08,1.8
				l-22.2,12.82c-0.6,0.35-1.08,0.1-1.08-0.55C150.55,359.21,150.95,358.54,151.58,358.15z"/>
			<g id="그룹_365">
				<path id="패스_920" class="st7" d="M146.38,364.22l1.8-3.18c0.07-0.12,0.07-0.28,0-0.32l-1.8-1.1
					c-0.09-0.05-0.21,0.11-0.21,0.29v4.28C146.17,364.36,146.3,364.38,146.38,364.22z"/>
			</g>
		</g>
	</g>
	<path id="패스_921" class="st0" d="M196,210.56l72.99-42.14c0.64-0.42,1.04-1.11,1.08-1.88v-18.61c0-0.69-0.48-0.97-1.08-0.62
		L196,189.44c-0.64,0.42-1.04,1.11-1.08,1.88v18.62C194.91,210.62,195.4,210.9,196,210.56z"/>
	<g id="그룹_368">
		<path id="패스_922" class="st7" d="M202.36,197.43c0-0.02,0-0.03,0.01-0.04l0.48-2l-0.66,0.38c-0.01,0.01-0.03,0.01-0.04,0
			c-0.01-0.02-0.02-0.04-0.02-0.05v-0.36c0-0.03,0.01-0.05,0.02-0.08c0.01-0.02,0.02-0.04,0.04-0.05l1.06-0.61
			c0.01-0.01,0.03-0.01,0.04,0c0.01,0.02,0.02,0.03,0.02,0.05v0.32c-0.01,0.07-0.02,0.13-0.04,0.19l-0.48,2
			c-0.01,0.02-0.01,0.05-0.02,0.07c-0.01,0.02-0.02,0.04-0.04,0.05l-0.31,0.18c-0.01,0.01-0.03,0.01-0.04,0
			C202.36,197.46,202.36,197.44,202.36,197.43z"/>
		<path id="패스_923" class="st7" d="M204.13,194.06c0.08-0.06,0.18-0.09,0.29-0.09c0.08,0,0.15,0.03,0.2,0.09
			c0.06,0.06,0.1,0.14,0.12,0.23c0.03,0.11,0.04,0.22,0.04,0.33c0,0.1,0.01,0.2,0.01,0.3s0,0.21-0.01,0.3
			c0,0.13-0.02,0.25-0.04,0.38c-0.03,0.13-0.06,0.25-0.12,0.36c-0.05,0.11-0.12,0.22-0.2,0.32s-0.18,0.18-0.29,0.24
			c-0.09,0.06-0.18,0.09-0.29,0.09c-0.08,0-0.15-0.03-0.2-0.09c-0.06-0.06-0.1-0.14-0.12-0.23c-0.03-0.11-0.04-0.22-0.05-0.33
			c0-0.09,0-0.19,0-0.3s0-0.21,0-0.31c0.01-0.13,0.02-0.25,0.05-0.38c0.03-0.12,0.06-0.25,0.12-0.36c0.05-0.11,0.12-0.22,0.2-0.32
			C203.93,194.2,204.02,194.12,204.13,194.06z M204.37,195.44c0.01-0.2,0.01-0.39,0-0.57c0-0.05-0.01-0.1-0.02-0.15
			c-0.01-0.04-0.02-0.07-0.04-0.1c-0.02-0.02-0.04-0.04-0.07-0.04c-0.04,0-0.08,0.01-0.11,0.03c-0.04,0.02-0.08,0.06-0.11,0.09
			c-0.03,0.04-0.05,0.08-0.07,0.12c-0.02,0.05-0.03,0.1-0.04,0.15c-0.01,0.05-0.01,0.11-0.01,0.17c-0.01,0.19-0.01,0.38,0,0.57
			c0,0.05,0,0.1,0.01,0.15c0.01,0.04,0.02,0.07,0.04,0.1c0.02,0.02,0.04,0.04,0.07,0.04c0.04,0,0.08-0.01,0.11-0.03
			c0.04-0.03,0.08-0.06,0.11-0.1c0.03-0.04,0.05-0.08,0.07-0.12c0.02-0.05,0.03-0.1,0.04-0.15
			C204.36,195.55,204.37,195.49,204.37,195.44L204.37,195.44z"/>
		<path id="패스_924" class="st7" d="M205.67,193.68c0,0.09,0,0.18,0,0.26c0,0.07-0.01,0.13-0.02,0.2
			c-0.01,0.07-0.04,0.13-0.07,0.19c-0.03,0.06-0.06,0.12-0.11,0.17c-0.04,0.05-0.09,0.09-0.15,0.12c-0.04,0.03-0.1,0.05-0.15,0.05
			c-0.04,0-0.08-0.01-0.11-0.04s-0.05-0.07-0.06-0.12c-0.02-0.06-0.03-0.12-0.03-0.17c0-0.04,0-0.09,0-0.12s0-0.09,0-0.13
			c0-0.07,0.01-0.14,0.03-0.21c0.01-0.07,0.04-0.13,0.06-0.19c0.03-0.06,0.06-0.12,0.11-0.17c0.04-0.05,0.09-0.09,0.15-0.12
			c0.05-0.03,0.1-0.05,0.15-0.05c0.04,0,0.08,0.02,0.1,0.04c0.03,0.03,0.05,0.07,0.07,0.12
			C205.66,193.56,205.66,193.62,205.67,193.68z M206.22,192.95c0.01-0.02,0.02-0.05,0.03-0.07s0.03-0.03,0.05-0.04l0.18-0.1
			c0.02-0.01,0.03-0.01,0.04,0s0.02,0.03,0.01,0.04v0.02c0,0.01,0,0.02-0.01,0.02l-1.1,2.85c-0.01,0.02-0.02,0.05-0.03,0.07
			s-0.03,0.03-0.05,0.04l-0.18,0.1c-0.02,0.01-0.03,0.01-0.04,0s-0.02-0.03-0.01-0.04v-0.02c0-0.01,0-0.02,0.01-0.02L206.22,192.95z
			 M205.23,194.17c0,0.04,0.01,0.08,0.02,0.12c0.01,0.02,0.04,0.02,0.07,0.01c0.03-0.02,0.06-0.05,0.07-0.08
			c0.01-0.05,0.02-0.1,0.02-0.15c0-0.08,0-0.15,0-0.23c0-0.04-0.01-0.08-0.02-0.12c-0.01-0.02-0.03-0.02-0.07-0.01
			c-0.03,0.02-0.06,0.05-0.07,0.08c-0.01,0.05-0.02,0.1-0.02,0.15C205.22,194.02,205.22,194.1,205.23,194.17L205.23,194.17z
			 M206.7,194.27c0,0.09,0,0.18,0,0.26c0,0.07-0.01,0.13-0.03,0.2c-0.01,0.07-0.04,0.13-0.07,0.19c-0.03,0.06-0.06,0.12-0.11,0.17
			c-0.04,0.05-0.09,0.09-0.15,0.12c-0.05,0.03-0.1,0.05-0.15,0.05c-0.04,0-0.08-0.02-0.11-0.04c-0.03-0.03-0.05-0.07-0.07-0.12
			c-0.02-0.06-0.02-0.12-0.03-0.17c0-0.04-0.01-0.09-0.01-0.12s0-0.09,0.01-0.13c0-0.07,0.01-0.13,0.03-0.2
			c0.01-0.07,0.04-0.13,0.07-0.19c0.03-0.06,0.06-0.12,0.11-0.16c0.04-0.05,0.09-0.09,0.15-0.12c0.04-0.03,0.1-0.05,0.15-0.05
			c0.04,0,0.08,0.01,0.11,0.04s0.05,0.07,0.07,0.12C206.68,194.16,206.69,194.22,206.7,194.27L206.7,194.27z M206.26,194.77
			c0,0.04,0.01,0.08,0.02,0.12c0.01,0.02,0.03,0.02,0.07,0.01c0.03-0.02,0.06-0.05,0.07-0.08c0.01-0.05,0.02-0.1,0.02-0.15
			c0-0.08,0-0.15,0-0.23c0-0.04-0.01-0.08-0.02-0.12c-0.01-0.02-0.04-0.02-0.07-0.01c-0.03,0.02-0.06,0.05-0.07,0.08
			c-0.01,0.05-0.02,0.1-0.02,0.15C206.25,194.62,206.25,194.7,206.26,194.77L206.26,194.77z"/>
	</g>
	<path id="패스_925" class="st7" d="M202.35,191.69l-0.73-1.13c-0.84,1.45-1.42,3.02-1.73,4.67l1.18-0.09
		C201.3,193.93,201.73,192.76,202.35,191.69z"/>
	<path id="패스_926" class="st7" d="M204.42,189.46v-1.91c-1.17,0.76-2.13,1.79-2.8,3.02l0.73,1.13
		C202.84,190.79,203.55,190.02,204.42,189.46z"/>
	<path id="패스_927" class="st7" d="M200.89,196.91c0-0.6,0.06-1.19,0.17-1.77l-1.18,0.09c-0.15,0.79-0.23,1.59-0.23,2.4
		c-0.01,0.72,0.07,1.43,0.23,2.13l1.18-1.28C200.95,197.97,200.89,197.44,200.89,196.91z"/>
	<path id="패스_928" class="st2" d="M208.95,190c-0.18-1.09-0.81-2.06-1.73-2.67c-0.9-0.44-1.97-0.36-2.8,0.21v1.91
		c0.61-0.42,1.4-0.48,2.07-0.15c0.69,0.45,1.15,1.16,1.28,1.97c0.12,0.52,0.18,1.05,0.17,1.57c0,0.6-0.06,1.19-0.17,1.77
		c-0.23,1.21-0.66,2.38-1.28,3.45c-0.49,0.91-1.2,1.67-2.07,2.23c-0.61,0.42-1.4,0.48-2.07,0.15c-0.68-0.45-1.15-1.16-1.28-1.97
		l-1.18,1.28c0.18,1.09,0.81,2.06,1.73,2.67c0.9,0.44,1.97,0.36,2.8-0.21c1.17-0.76,2.13-1.79,2.8-3.02
		c0.84-1.45,1.42-3.02,1.73-4.67c0.15-0.79,0.23-1.59,0.23-2.4C209.19,191.41,209.11,190.7,208.95,190z"/>
	<path id="패스_929" class="st7" d="M216.31,184.75l22.21-12.82c0.6-0.35,1.08-0.1,1.08,0.55c-0.05,0.74-0.46,1.41-1.08,1.8
		l-22.21,12.82c-0.6,0.35-1.08,0.1-1.08-0.55C215.28,185.82,215.68,185.15,216.31,184.75z"/>
	<path id="패스_930" class="st1" d="M216.31,189.48l38.46-22.2c0.6-0.35,1.08-0.1,1.08,0.55c-0.05,0.74-0.46,1.41-1.08,1.8
		l-38.46,22.2c-0.6,0.35-1.08,0.1-1.08-0.55C215.28,190.54,215.68,189.87,216.31,189.48z"/>
	<path id="패스_931" class="st0" d="M275.2,164.82l72.99-42.14c0.64-0.42,1.04-1.11,1.08-1.88v-18.6c0-0.69-0.48-0.97-1.08-0.62
		l-72.99,42.13c-0.64,0.42-1.04,1.11-1.08,1.88v18.62C274.11,164.89,274.6,165.17,275.2,164.82z"/>
	<g id="그룹_372">
		<path id="패스_932" class="st7" d="M281.92,149.99c0-0.13,0.02-0.26,0.05-0.39c0.03-0.12,0.08-0.24,0.14-0.35
			c0.06-0.1,0.13-0.2,0.21-0.29c0.07-0.08,0.15-0.15,0.24-0.2c0.07-0.04,0.16-0.07,0.24-0.08c0.07-0.01,0.15,0.01,0.21,0.05
			c0.07,0.04,0.12,0.11,0.15,0.18c0.04,0.1,0.06,0.21,0.05,0.32c0,0.06,0,0.13-0.02,0.19c-0.01,0.06-0.02,0.12-0.04,0.18
			s-0.03,0.12-0.05,0.17s-0.04,0.11-0.06,0.16l-0.42,1.14c-0.01,0.02-0.02,0.04-0.02,0.06c-0.01,0.02-0.02,0.04-0.05,0.05l-0.35,0.2
			c-0.01,0.01-0.02,0.01-0.03,0s-0.01-0.03-0.01-0.05c0-0.01,0-0.02,0-0.03s0-0.01,0.01-0.02l0.29-0.78
			c-0.07,0.03-0.14,0.04-0.21,0.03c-0.06-0.01-0.13-0.03-0.17-0.07c-0.05-0.05-0.1-0.11-0.12-0.18
			C281.93,150.19,281.92,150.09,281.92,149.99z M282.81,149.47c0-0.04-0.01-0.08-0.02-0.11c-0.02-0.05-0.07-0.09-0.13-0.08
			c-0.03,0-0.06,0.01-0.09,0.03s-0.06,0.05-0.09,0.07c-0.03,0.03-0.05,0.07-0.08,0.11c-0.02,0.04-0.04,0.08-0.05,0.13
			c-0.01,0.04-0.02,0.09-0.02,0.14c0,0.04,0.01,0.08,0.02,0.11c0.01,0.03,0.03,0.05,0.05,0.07c0.02,0.01,0.05,0.02,0.08,0.02
			s0.06-0.01,0.09-0.03s0.06-0.04,0.09-0.07c0.06-0.07,0.11-0.15,0.13-0.23C282.8,149.57,282.81,149.52,282.81,149.47L282.81,149.47
			z"/>
		<path id="패스_933" class="st7" d="M284.06,147.9c0.08-0.06,0.18-0.09,0.29-0.09c0.08,0,0.15,0.03,0.2,0.09
			c0.06,0.06,0.1,0.14,0.12,0.23c0.03,0.11,0.04,0.22,0.05,0.33c0,0.1,0.01,0.2,0.01,0.3s0,0.21-0.01,0.3
			c-0.01,0.13-0.02,0.25-0.05,0.38s-0.06,0.25-0.12,0.36c-0.05,0.11-0.12,0.22-0.2,0.32c-0.08,0.1-0.18,0.18-0.29,0.24
			c-0.09,0.06-0.19,0.09-0.29,0.09c-0.08,0-0.15-0.03-0.2-0.09c-0.06-0.06-0.1-0.14-0.12-0.23c-0.03-0.11-0.04-0.22-0.05-0.33
			c0-0.09-0.01-0.19-0.01-0.3s0-0.21,0.01-0.31c0.01-0.13,0.02-0.25,0.05-0.38s0.06-0.25,0.12-0.36c0.05-0.11,0.12-0.22,0.2-0.32
			C283.85,148.04,283.95,147.96,284.06,147.9z M284.29,149.28c0.01-0.2,0.01-0.39,0-0.57c0-0.05-0.01-0.1-0.02-0.15
			c-0.01-0.04-0.02-0.07-0.04-0.1c-0.02-0.02-0.04-0.04-0.07-0.04c-0.04,0-0.08,0.01-0.11,0.03c-0.04,0.03-0.08,0.06-0.11,0.1
			c-0.03,0.04-0.05,0.08-0.07,0.12c-0.02,0.05-0.03,0.1-0.04,0.15c-0.01,0.05-0.01,0.11-0.02,0.17c-0.01,0.19-0.01,0.38,0,0.57
			c0,0.05,0.01,0.1,0.01,0.15c0.01,0.04,0.02,0.07,0.04,0.1c0.02,0.02,0.04,0.04,0.07,0.04c0.04,0,0.08-0.01,0.11-0.04
			c0.04-0.02,0.08-0.06,0.11-0.09c0.03-0.04,0.05-0.08,0.07-0.12c0.02-0.05,0.03-0.1,0.04-0.15
			C284.29,149.4,284.29,149.34,284.29,149.28L284.29,149.28z"/>
		<path id="패스_934" class="st7" d="M285.59,147.52c0,0.09,0,0.18,0,0.26c0,0.07-0.01,0.13-0.03,0.2
			c-0.01,0.07-0.04,0.13-0.06,0.19c-0.03,0.06-0.06,0.12-0.11,0.17c-0.04,0.05-0.09,0.09-0.15,0.12c-0.04,0.03-0.1,0.05-0.15,0.05
			c-0.04,0-0.08-0.01-0.11-0.04s-0.05-0.07-0.06-0.12c-0.02-0.06-0.03-0.12-0.03-0.17c0-0.04,0-0.09,0-0.12s0-0.09,0-0.13
			c0-0.07,0.01-0.14,0.03-0.21c0.01-0.07,0.04-0.13,0.06-0.19c0.03-0.06,0.06-0.12,0.11-0.17c0.04-0.05,0.09-0.09,0.15-0.12
			c0.05-0.03,0.1-0.05,0.15-0.05c0.04,0,0.08,0.01,0.11,0.04s0.05,0.07,0.07,0.12C285.58,147.4,285.59,147.46,285.59,147.52z
			 M286.15,146.8c0.01-0.02,0.02-0.05,0.03-0.07s0.03-0.03,0.05-0.04l0.18-0.1c0.01-0.01,0.03-0.01,0.04,0s0.02,0.03,0.02,0.04v0.02
			c0,0.01,0,0.02-0.01,0.02l-1.1,2.85c-0.01,0.02-0.02,0.05-0.03,0.07s-0.03,0.03-0.05,0.04l-0.18,0.1c-0.02,0.01-0.03,0.01-0.04,0
			s-0.02-0.03-0.02-0.04v-0.02c0-0.01,0-0.02,0.01-0.02L286.15,146.8z M285.15,148.01c0,0.04,0.01,0.08,0.02,0.12
			c0.01,0.02,0.04,0.02,0.07,0.01c0.03-0.02,0.06-0.05,0.07-0.08c0.01-0.05,0.02-0.1,0.02-0.15c0-0.08,0-0.15,0-0.23
			c0-0.04-0.01-0.08-0.02-0.12c-0.01-0.02-0.03-0.02-0.07-0.01c-0.03,0.02-0.06,0.05-0.07,0.08c-0.01,0.05-0.02,0.1-0.02,0.15
			C285.15,147.86,285.15,147.94,285.15,148.01z M286.62,148.12c0,0.09,0,0.18,0,0.26c0,0.07-0.01,0.13-0.03,0.2
			c-0.01,0.07-0.04,0.13-0.07,0.19s-0.06,0.12-0.11,0.17c-0.04,0.05-0.09,0.09-0.15,0.12c-0.04,0.03-0.1,0.05-0.15,0.05
			c-0.04,0-0.08-0.01-0.11-0.04s-0.05-0.07-0.06-0.12c-0.02-0.06-0.02-0.12-0.03-0.17c0-0.04-0.01-0.09-0.01-0.12s0-0.09,0.01-0.13
			c0-0.07,0.01-0.14,0.03-0.21c0.01-0.07,0.04-0.13,0.06-0.19c0.03-0.06,0.06-0.12,0.11-0.16c0.04-0.05,0.09-0.09,0.15-0.12
			c0.05-0.03,0.1-0.05,0.15-0.05c0.04,0,0.08,0.01,0.11,0.04s0.05,0.07,0.07,0.12C286.61,148,286.62,148.06,286.62,148.12
			L286.62,148.12z M286.18,148.62c0,0.04,0.01,0.08,0.02,0.12c0.01,0.02,0.03,0.02,0.07,0c0.03-0.02,0.06-0.05,0.07-0.08
			c0.01-0.05,0.02-0.1,0.02-0.15c0.01-0.08,0.01-0.15,0-0.23c0-0.04-0.01-0.08-0.02-0.12c-0.01-0.02-0.04-0.02-0.07-0.01
			c-0.03,0.02-0.06,0.05-0.07,0.08c-0.02,0.05-0.02,0.1-0.02,0.15C286.18,148.46,286.18,148.54,286.18,148.62L286.18,148.62z"/>
	</g>
	<path id="패스_935" class="st7" d="M284.28,143.34v-1.91c-1.17,0.76-2.13,1.79-2.8,3.02l0.73,1.13
		C282.7,144.67,283.41,143.9,284.28,143.34z"/>
	<path id="패스_936" class="st2" d="M288.81,143.88c-0.18-1.09-0.81-2.06-1.73-2.67c-0.9-0.44-1.97-0.36-2.8,0.21v1.91
		c0.61-0.42,1.4-0.48,2.07-0.15c0.69,0.45,1.15,1.16,1.28,1.97c0.12,0.52,0.18,1.05,0.17,1.57c0,0.6-0.06,1.19-0.17,1.77
		c-0.23,1.21-0.66,2.38-1.28,3.44c-0.49,0.91-1.2,1.68-2.07,2.24c-0.61,0.42-1.4,0.48-2.07,0.15c-0.68-0.45-1.15-1.16-1.28-1.97
		c-0.12-0.52-0.18-1.04-0.17-1.57c0-0.6,0.06-1.19,0.17-1.77c0.23-1.21,0.66-2.38,1.28-3.45l-0.73-1.13
		c-0.84,1.45-1.42,3.02-1.73,4.67c-0.15,0.79-0.23,1.59-0.23,2.4c-0.01,0.72,0.07,1.43,0.23,2.13c0.18,1.09,0.81,2.06,1.73,2.67
		c0.9,0.44,1.97,0.36,2.8-0.21c1.17-0.76,2.14-1.79,2.8-3.02l0,0c0.84-1.45,1.42-3.02,1.73-4.67c0.15-0.79,0.23-1.59,0.23-2.4
		C289.05,145.29,288.97,144.58,288.81,143.88z"/>
	<path id="패스_937" class="st7" d="M296.15,138.63l22.21-12.82c0.6-0.35,1.08-0.1,1.08,0.55c-0.05,0.74-0.46,1.41-1.08,1.8
		l-22.21,12.82c-0.6,0.35-1.08,0.1-1.08-0.55C295.12,139.69,295.52,139.02,296.15,138.63z"/>
	<path id="패스_938" class="st1" d="M296.15,143.36l38.46-22.2c0.6-0.35,1.08-0.1,1.08,0.55c-0.05,0.74-0.46,1.41-1.08,1.8
		l-38.46,22.2c-0.6,0.35-1.08,0.1-1.08-0.55C295.12,144.42,295.52,143.75,296.15,143.36z"/>
	<path id="패스_939" class="st7" d="M203.43,215.66l15.58-9.02c0.6-0.35,1.08-0.1,1.08,0.55c-0.05,0.74-0.46,1.41-1.08,1.8
		l-15.58,9.02c-0.6,0.35-1.08,0.1-1.08-0.55C202.4,216.72,202.8,216.05,203.43,215.66z"/>
	<path id="패스_940" class="st1" d="M348.73,137.6L348.73,137.6 M348.27,137.86v118.97c-0.04,0.4-0.25,0.77-0.58,1.01
		l-151.77,87.62V226.5c0.04-0.4,0.25-0.77,0.58-1.01l1.9-1.1c0.95-0.6,1.54-1.62,1.58-2.74v-6.87c0.04-0.4,0.25-0.77,0.58-1.01
		l21.79-12.58v6.4c-0.08,0.9,0.59,1.69,1.49,1.77c0.04,0,0.07,0.01,0.11,0.01c0.35-0.01,0.69-0.1,0.98-0.28L348.27,137.86
		 M222.81,200.92L222.81,200.92 M348.67,136.61c-0.17,0.01-0.34,0.06-0.48,0.15l-123.76,71.45c-0.15,0.09-0.31,0.14-0.48,0.15
		c-0.35,0-0.6-0.28-0.6-0.77v-6.88c0-0.49-0.24-0.77-0.6-0.77c-0.17,0.01-0.34,0.06-0.48,0.15l-22.21,12.82
		c-0.64,0.42-1.04,1.12-1.08,1.88v6.88c-0.04,0.76-0.44,1.46-1.08,1.88l-1.9,1.1c-0.64,0.42-1.04,1.11-1.08,1.88v119.44
		c0,0.49,0.24,0.77,0.6,0.77c0.17-0.01,0.34-0.06,0.48-0.15l152.19-87.87c0.64-0.42,1.04-1.11,1.08-1.88V137.38
		C349.27,136.89,349.03,136.6,348.67,136.61L348.67,136.61z"/>
	<g id="그룹_378">
		<path id="패스_941" class="st2" d="M204.7,231.69c-0.19,0-0.37-0.05-0.53-0.14c-0.38-0.25-0.6-0.68-0.57-1.13v-4.54
			c0.04-0.94,0.54-1.8,1.33-2.31l12.07-6.96c0.51-0.38,1.23-0.28,1.61,0.23c0.18,0.24,0.26,0.53,0.22,0.83v4.54
			c-0.04,0.94-0.54,1.8-1.33,2.31l-12.07,6.96C205.21,231.61,204.96,231.68,204.7,231.69z M205.43,224.44
			c-0.48,0.33-0.79,0.86-0.83,1.44v4.54c0,0.17,0.05,0.26,0.07,0.27s0.12,0.01,0.26-0.07l12.07-6.96c0.48-0.33,0.79-0.86,0.83-1.44
			v-4.53c0-0.17-0.05-0.26-0.07-0.27s-0.12-0.01-0.27,0.07L205.43,224.44z"/>
		<path id="패스_942" class="st2" d="M206.15,226.31l7.87-4.57c0.4-0.23,0.72-0.07,0.72,0.37c-0.04,0.49-0.3,0.94-0.72,1.2
			l-7.87,4.57c-0.4,0.23-0.72,0.07-0.72-0.37C205.47,227.02,205.73,226.57,206.15,226.31z"/>
		<g id="그룹_377">
			<path id="패스_943" class="st2" d="M215.85,221l0.65,0.93c0.02,0.04,0.07,0.01,0.1-0.06l0.65-1.68c0.03-0.08,0-0.16-0.05-0.13
				l-1.3,0.75C215.84,220.86,215.82,220.93,215.85,221z"/>
		</g>
	</g>
	<g id="그룹_379">
		<path id="패스_944" class="st2" d="M203.04,275.64c0.58-0.33,1.04-0.06,1.04,0.6c-0.04,0.73-0.43,1.41-1.04,1.81
			c-0.58,0.33-1.04,0.06-1.04-0.6C202.03,276.71,202.42,276.04,203.04,275.64z"/>
	</g>
	<g id="그룹_380">
		<path id="패스_945" class="st2" d="M211.16,266.26c0.58-0.33,1.04-0.06,1.04,0.6c-0.04,0.73-0.43,1.41-1.04,1.81
			c-0.58,0.33-1.04,0.06-1.04-0.6C210.16,267.33,210.55,266.66,211.16,266.26z"/>
	</g>
	<g id="그룹_381">
		<path id="패스_946" class="st2" d="M219.29,261.57c0.58-0.33,1.04-0.06,1.04,0.6c-0.04,0.73-0.43,1.41-1.04,1.81
			c-0.58,0.33-1.04,0.06-1.04-0.6C218.28,262.64,218.67,261.97,219.29,261.57z"/>
	</g>
	<g id="그룹_382">
		<path id="패스_947" class="st2" d="M227.41,258.93c0.58-0.33,1.04-0.06,1.04,0.6c-0.04,0.73-0.43,1.41-1.04,1.81
			c-0.58,0.33-1.04,0.06-1.04-0.6C226.41,260.01,226.79,259.34,227.41,258.93z"/>
	</g>
	<g id="그룹_383">
		<path id="패스_948" class="st2" d="M235.54,250.49c0.58-0.33,1.04-0.06,1.04,0.6c-0.04,0.74-0.43,1.41-1.04,1.81
			c-0.58,0.33-1.04,0.06-1.04-0.6C234.54,251.56,234.93,250.89,235.54,250.49z"/>
	</g>
	<g id="그룹_384">
		<path id="패스_949" class="st2" d="M243.66,247.49c0.58-0.33,1.04-0.06,1.04,0.6c-0.04,0.73-0.43,1.41-1.04,1.81
			c-0.58,0.33-1.04,0.06-1.04-0.6C242.65,248.57,243.04,247.9,243.66,247.49z"/>
	</g>
	<g id="그룹_385">
		<path id="패스_950" class="st2" d="M251.78,238.11c0.58-0.33,1.04-0.06,1.04,0.6c-0.04,0.73-0.43,1.41-1.04,1.81
			c-0.58,0.33-1.04,0.06-1.04-0.6C250.77,239.19,251.16,238.51,251.78,238.11z"/>
	</g>
	<g id="그룹_386">
		<path id="패스_951" class="st2" d="M259.91,235.77c0.58-0.33,1.04-0.06,1.04,0.6c-0.04,0.73-0.43,1.41-1.04,1.81
			c-0.58,0.33-1.04,0.06-1.04-0.6C258.9,236.84,259.29,236.17,259.91,235.77z"/>
	</g>
	<g id="그룹_387">
		<path id="패스_952" class="st2" d="M268.03,209.98c0.58-0.33,1.04-0.06,1.04,0.6c-0.04,0.73-0.43,1.41-1.04,1.81
			c-0.58,0.33-1.04,0.06-1.04-0.6C267.03,211.05,267.41,210.38,268.03,209.98z"/>
	</g>
	<g id="그룹_388">
		<path id="패스_953" class="st2" d="M276.15,224.04c0.58-0.33,1.04-0.06,1.04,0.6c-0.04,0.73-0.43,1.41-1.04,1.81
			c-0.58,0.33-1.04,0.06-1.04-0.6C275.15,225.12,275.54,224.44,276.15,224.04z"/>
	</g>
	<g id="그룹_389">
		<path id="패스_954" class="st2" d="M284.28,224.04c0.58-0.33,1.04-0.06,1.04,0.6c-0.04,0.73-0.43,1.41-1.04,1.81
			c-0.58,0.33-1.04,0.06-1.04-0.6C283.28,225.12,283.66,224.44,284.28,224.04z"/>
	</g>
	<g id="그룹_390">
		<path id="패스_955" class="st2" d="M292.4,224.04c0.58-0.33,1.04-0.06,1.04,0.6c-0.04,0.73-0.43,1.41-1.04,1.81
			c-0.58,0.33-1.04,0.06-1.04-0.6C291.4,225.12,291.79,224.44,292.4,224.04z"/>
	</g>
	<g id="그룹_391">
		<path id="패스_956" class="st2" d="M300.53,209.98c0.58-0.33,1.04-0.06,1.04,0.6c-0.04,0.73-0.43,1.41-1.04,1.81
			c-0.58,0.33-1.04,0.06-1.04-0.6C299.52,211.05,299.91,210.38,300.53,209.98z"/>
	</g>
	<g id="그룹_392">
		<path id="패스_957" class="st2" d="M308.65,207.28c0.58-0.33,1.04-0.06,1.04,0.6c-0.04,0.73-0.43,1.41-1.04,1.81
			c-0.58,0.33-1.04,0.06-1.04-0.6C307.65,208.35,308.03,207.68,308.65,207.28z"/>
	</g>
	<g id="그룹_393">
		<path id="패스_958" class="st2" d="M316.8,195.9c0.58-0.33,1.04-0.06,1.04,0.6c-0.04,0.73-0.43,1.41-1.04,1.81
			c-0.58,0.33-1.04,0.06-1.04-0.6C315.8,196.97,316.19,196.3,316.8,195.9z"/>
	</g>
	<g id="그룹_394">
		
			<ellipse id="타원_18" transform="matrix(0.5 -0.866 0.866 0.5 -8.2219 379.9485)" class="st2" cx="324.92" cy="197.09" rx="1.48" ry="0.85"/>
	</g>
	<g id="그룹_395">
		
			<ellipse id="타원_19" transform="matrix(0.5 -0.866 0.866 0.5 -4.1631 386.9844)" class="st2" cx="333.04" cy="197.1" rx="1.48" ry="0.85"/>
	</g>
	<g id="그룹_396">
		<path id="패스_959" class="st2" d="M341.15,191.21c0.58-0.33,1.04-0.06,1.04,0.6c-0.04,0.73-0.43,1.41-1.04,1.81
			c-0.58,0.33-1.04,0.06-1.04-0.6C340.14,192.28,340.53,191.61,341.15,191.21z"/>
	</g>
	<g id="그룹_398">
		<path id="패스_960" class="st2" d="M203.02,277.1c-0.14,0-0.25-0.11-0.25-0.25c0-0.06,0.02-0.12,0.06-0.16l8.2-9.43
			c0.02-0.02,0.04-0.04,0.06-0.05l8.07-4.66l8.11-2.63l8.08-8.4c0.03-0.03,0.06-0.05,0.09-0.06l8.07-2.97l8.08-9.33
			c0.03-0.04,0.07-0.06,0.12-0.08l7.99-2.31l8.08-25.67c0.03-0.09,0.11-0.16,0.21-0.17s0.19,0.04,0.24,0.12l8.05,13.95l8-0.01
			l7.96,0.01l8.05-13.95c0.03-0.05,0.08-0.09,0.14-0.11l8.05-2.67l8.08-11.31c0.05-0.06,0.12-0.1,0.2-0.1h16.18l8.07-4.66
			c0.12-0.07,0.27-0.03,0.34,0.09s0.03,0.27-0.09,0.34l0,0l-8.12,4.69c-0.04,0.02-0.08,0.03-0.12,0.03H316.9l-8.05,11.27
			c-0.03,0.04-0.07,0.08-0.12,0.09l-8.03,2.67l-8.08,13.99c-0.05,0.08-0.13,0.12-0.22,0.12l0,0l-8.1-0.01l-8.14,0.01l0,0
			c-0.09,0-0.17-0.05-0.22-0.12l-7.84-13.58l-7.95,25.26c-0.03,0.08-0.09,0.14-0.17,0.16l-8.05,2.32l-8.08,9.33
			c-0.03,0.03-0.06,0.06-0.1,0.07l-8.07,2.97l-8.08,8.4c-0.03,0.03-0.06,0.05-0.1,0.06l-8.12,2.63l-7.98,4.61l-8.18,9.4
			C203.16,277.08,203.09,277.11,203.02,277.1z"/>
	</g>
	<path id="패스_961" class="st1" d="M203.04,282.03c-0.28,0-0.5-0.22-0.5-0.5c0-0.18,0.09-0.34,0.25-0.43l138.11-79.74
		c0.24-0.14,0.55-0.05,0.68,0.19c0.14,0.24,0.05,0.54-0.18,0.68l-138.11,79.74C203.21,282.01,203.13,282.03,203.04,282.03z"/>
	<g id="그룹_420">
		<g id="그룹_418">
			<g id="그룹_400">
				<path id="패스_962" class="st17" d="M203.04,270.95c0.58-0.33,1.04-0.06,1.04,0.6c-0.04,0.73-0.43,1.41-1.04,1.81
					c-0.58,0.33-1.04,0.06-1.04-0.6C202.03,272.02,202.42,271.35,203.04,270.95z"/>
			</g>
			<g id="그룹_401">
				<path id="패스_963" class="st17" d="M211.16,256.88c0.58-0.33,1.04-0.06,1.04,0.6c-0.04,0.73-0.43,1.41-1.04,1.81
					c-0.58,0.33-1.04,0.06-1.04-0.6C210.16,257.95,210.55,257.28,211.16,256.88z"/>
			</g>
			<g id="그룹_402">
				
					<ellipse id="타원_20" transform="matrix(0.5 -0.866 0.866 0.5 -112.3236 318.097)" class="st17" cx="219.31" cy="256.32" rx="1.48" ry="0.85"/>
			</g>
			<g id="그룹_403">
				<path id="패스_964" class="st17" d="M227.41,238.11c0.58-0.33,1.04-0.06,1.04,0.6c-0.04,0.73-0.43,1.41-1.04,1.81
					c-0.58,0.33-1.04,0.06-1.04-0.6C226.41,239.19,226.79,238.51,227.41,238.11z"/>
			</g>
			<g id="그룹_404">
				<path id="패스_965" class="st17" d="M235.54,242.8c0.58-0.33,1.04-0.06,1.04,0.6c-0.04,0.73-0.43,1.41-1.04,1.81
					c-0.58,0.33-1.04,0.06-1.04-0.6C234.54,243.88,234.93,243.21,235.54,242.8z"/>
			</g>
			<g id="그룹_405">
				<path id="패스_966" class="st17" d="M243.66,240.46c0.58-0.33,1.04-0.06,1.04,0.6c-0.04,0.73-0.43,1.41-1.04,1.81
					c-0.58,0.33-1.04,0.06-1.04-0.6C242.66,241.53,243.04,240.86,243.66,240.46z"/>
			</g>
			<g id="그룹_406">
				<path id="패스_967" class="st17" d="M251.78,233.42c0.58-0.33,1.04-0.06,1.04,0.6c-0.04,0.73-0.43,1.41-1.04,1.81
					c-0.58,0.33-1.04,0.06-1.04-0.6C250.77,234.5,251.16,233.82,251.78,233.42z"/>
			</g>
			<g id="그룹_407">
				<path id="패스_968" class="st17" d="M259.91,224.04c0.58-0.33,1.04-0.06,1.04,0.6c-0.04,0.73-0.43,1.41-1.04,1.81
					c-0.58,0.33-1.04,0.06-1.04-0.6C258.9,225.11,259.29,224.44,259.91,224.04z"/>
			</g>
			<g id="그룹_408">
				<path id="패스_969" class="st17" d="M268.03,221.7c0.58-0.33,1.04-0.06,1.04,0.6c-0.04,0.73-0.43,1.41-1.04,1.81
					c-0.58,0.33-1.04,0.06-1.04-0.6C267.03,222.77,267.41,222.1,268.03,221.7z"/>
			</g>
			<g id="그룹_409">
				<path id="패스_970" class="st17" d="M276.15,214.66c0.58-0.33,1.04-0.06,1.04,0.6c-0.04,0.74-0.43,1.41-1.04,1.81
					c-0.58,0.33-1.04,0.06-1.04-0.6C275.15,215.74,275.54,215.06,276.15,214.66z"/>
			</g>
			<g id="그룹_410">
				<path id="패스_971" class="st17" d="M284.28,214.66c0.58-0.33,1.04-0.06,1.04,0.6c-0.04,0.74-0.43,1.41-1.04,1.81
					c-0.58,0.33-1.04,0.06-1.04-0.6C283.27,215.74,283.66,215.06,284.28,214.66z"/>
			</g>
			<g id="그룹_411">
				<path id="패스_972" class="st17" d="M292.4,195.9c0.58-0.33,1.04-0.06,1.04,0.6c-0.04,0.74-0.43,1.41-1.04,1.81
					c-0.58,0.33-1.04,0.06-1.04-0.6C291.4,196.97,291.79,196.3,292.4,195.9z"/>
			</g>
			<g id="그룹_412">
				<path id="패스_973" class="st17" d="M300.53,205.21c0.58-0.33,1.04-0.06,1.04,0.6c-0.04,0.73-0.43,1.41-1.04,1.81
					c-0.58,0.33-1.04,0.06-1.04-0.6C299.52,206.29,299.91,205.62,300.53,205.21z"/>
			</g>
			<g id="그룹_413">
				<path id="패스_974" class="st17" d="M308.65,195.9c0.58-0.33,1.04-0.06,1.04,0.6c-0.04,0.73-0.43,1.41-1.04,1.81
					c-0.58,0.33-1.04,0.06-1.04-0.6C307.65,196.97,308.03,196.3,308.65,195.9z"/>
			</g>
			<g id="그룹_414">
				<path id="패스_975" class="st17" d="M316.78,191.21c0.58-0.33,1.04-0.06,1.04,0.6c-0.04,0.73-0.43,1.41-1.04,1.81
					c-0.58,0.33-1.04,0.06-1.04-0.6C315.78,192.28,316.16,191.61,316.78,191.21z"/>
			</g>
			<g id="그룹_415">
				<path id="패스_976" class="st17" d="M324.9,191.21c0.58-0.33,1.04-0.06,1.04,0.6c-0.04,0.73-0.43,1.41-1.04,1.81
					c-0.58,0.33-1.04,0.06-1.04-0.6C323.89,192.28,324.28,191.61,324.9,191.21z"/>
			</g>
			<g id="그룹_416">
				<path id="패스_977" class="st17" d="M333.02,186.52c0.58-0.33,1.04-0.06,1.04,0.6c-0.04,0.73-0.43,1.41-1.04,1.81
					c-0.58,0.33-1.04,0.06-1.04-0.6C332.02,187.59,332.41,186.92,333.02,186.52z"/>
			</g>
			<g id="그룹_417">
				<path id="패스_978" class="st17" d="M341.15,186.52c0.58-0.33,1.04-0.06,1.04,0.6c-0.04,0.73-0.43,1.41-1.04,1.81
					c-0.58,0.33-1.04,0.06-1.04-0.6C340.14,187.59,340.53,186.92,341.15,186.52z"/>
			</g>
		</g>
		<g id="그룹_419">
			<path id="패스_979" class="st17" d="M203.04,272.4c-0.04,0-0.09-0.01-0.12-0.03c-0.12-0.07-0.16-0.22-0.09-0.34l0,0l8.18-14.1
				c0.03-0.06,0.09-0.1,0.16-0.12l7.95-1.7l8.07-16.9c0.06-0.12,0.21-0.18,0.33-0.12c0.01,0,0.01,0.01,0.02,0.01l8.04,4.64
				l7.96-2.31l8.07-6.99l8.11-9.36c0.03-0.04,0.07-0.06,0.12-0.08l8.07-2.33l8.08-7c0.05-0.04,0.1-0.06,0.16-0.06h7.96l8.06-18.61
				c0.03-0.08,0.11-0.13,0.19-0.15c0.09-0.01,0.17,0.02,0.23,0.08l7.93,9.16l7.93-9.16c0.02-0.02,0.04-0.04,0.06-0.05l8.15-4.71
				c0.04-0.02,0.08-0.03,0.12-0.03h8.06l8.04-4.64c0.04-0.02,0.08-0.03,0.12-0.03h8.12c0.14,0,0.25,0.11,0.25,0.25
				s-0.11,0.25-0.25,0.25h-8.06l-8.04,4.64c-0.04,0.02-0.08,0.03-0.12,0.03h-8.06l-8.06,4.65l-8.1,9.35
				c-0.1,0.1-0.26,0.11-0.37,0.01l-0.01-0.01l-7.86-9.08l-7.97,18.4c-0.04,0.09-0.13,0.15-0.23,0.15h-8.03l-8.05,6.97
				c-0.03,0.02-0.06,0.04-0.09,0.05l-8.05,2.32l-8.09,9.33l-8.14,7.05c-0.03,0.02-0.06,0.04-0.1,0.05l-8.12,2.35
				c-0.07,0.02-0.14,0.01-0.19-0.02l-7.9-4.56l-8.01,16.76c-0.03,0.07-0.1,0.12-0.17,0.14l-7.96,1.7l-8.11,14.01
				C203.21,272.35,203.13,272.4,203.04,272.4z"/>
		</g>
	</g>
	<g id="그룹_439">
		<g id="그룹_421">
			<path id="패스_980" class="st2" d="M203.04,270.95c0.58-0.33,1.04-0.06,1.04,0.6c-0.04,0.73-0.43,1.41-1.04,1.81
				c-0.58,0.33-1.04,0.06-1.04-0.6C202.03,272.02,202.42,271.35,203.04,270.95z"/>
		</g>
		<g id="그룹_422">
			<path id="패스_981" class="st2" d="M211.16,256.88c0.58-0.33,1.04-0.06,1.04,0.6c-0.04,0.73-0.43,1.41-1.04,1.81
				c-0.58,0.33-1.04,0.06-1.04-0.6C210.16,257.95,210.55,257.28,211.16,256.88z"/>
		</g>
		<g id="그룹_423">
			
				<ellipse id="타원_21" transform="matrix(0.5 -0.866 0.866 0.5 -112.3236 318.097)" class="st2" cx="219.31" cy="256.32" rx="1.48" ry="0.85"/>
		</g>
		<g id="그룹_424">
			<path id="패스_982" class="st2" d="M227.41,238.11c0.58-0.33,1.04-0.06,1.04,0.6c-0.04,0.73-0.43,1.41-1.04,1.81
				c-0.58,0.33-1.04,0.06-1.04-0.6C226.41,239.19,226.79,238.51,227.41,238.11z"/>
		</g>
		<g id="그룹_425">
			<path id="패스_983" class="st2" d="M235.54,242.8c0.58-0.33,1.04-0.06,1.04,0.6c-0.04,0.73-0.43,1.41-1.04,1.81
				c-0.58,0.33-1.04,0.06-1.04-0.6C234.54,243.88,234.93,243.21,235.54,242.8z"/>
		</g>
		<g id="그룹_426">
			<path id="패스_984" class="st2" d="M243.66,240.46c0.58-0.33,1.04-0.06,1.04,0.6c-0.04,0.73-0.43,1.41-1.04,1.81
				c-0.58,0.33-1.04,0.06-1.04-0.6C242.66,241.53,243.04,240.86,243.66,240.46z"/>
		</g>
		<g id="그룹_427">
			<path id="패스_985" class="st2" d="M251.78,233.42c0.58-0.33,1.04-0.06,1.04,0.6c-0.04,0.73-0.43,1.41-1.04,1.81
				c-0.58,0.33-1.04,0.06-1.04-0.6C250.77,234.5,251.16,233.82,251.78,233.42z"/>
		</g>
		<g id="그룹_428">
			<path id="패스_986" class="st2" d="M259.91,224.04c0.58-0.33,1.04-0.06,1.04,0.6c-0.04,0.73-0.43,1.41-1.04,1.81
				c-0.58,0.33-1.04,0.06-1.04-0.6C258.9,225.11,259.29,224.44,259.91,224.04z"/>
		</g>
		<g id="그룹_429">
			<path id="패스_987" class="st2" d="M268.03,221.7c0.58-0.33,1.04-0.06,1.04,0.6c-0.04,0.73-0.43,1.41-1.04,1.81
				c-0.58,0.33-1.04,0.06-1.04-0.6C267.03,222.77,267.41,222.1,268.03,221.7z"/>
		</g>
		<g id="그룹_430">
			<path id="패스_988" class="st2" d="M276.15,214.66c0.58-0.33,1.04-0.06,1.04,0.6c-0.04,0.74-0.43,1.41-1.04,1.81
				c-0.58,0.33-1.04,0.06-1.04-0.6C275.15,215.74,275.54,215.06,276.15,214.66z"/>
		</g>
		<g id="그룹_431">
			<path id="패스_989" class="st2" d="M284.28,214.66c0.58-0.33,1.04-0.06,1.04,0.6c-0.04,0.74-0.43,1.41-1.04,1.81
				c-0.58,0.33-1.04,0.06-1.04-0.6C283.27,215.74,283.66,215.06,284.28,214.66z"/>
		</g>
		<g id="그룹_432">
			<path id="패스_990" class="st2" d="M292.4,195.9c0.58-0.33,1.04-0.06,1.04,0.6c-0.04,0.74-0.43,1.41-1.04,1.81
				c-0.58,0.33-1.04,0.06-1.04-0.6C291.4,196.97,291.79,196.3,292.4,195.9z"/>
		</g>
		<g id="그룹_433">
			<path id="패스_991" class="st2" d="M300.53,205.21c0.58-0.33,1.04-0.06,1.04,0.6c-0.04,0.73-0.43,1.41-1.04,1.81
				c-0.58,0.33-1.04,0.06-1.04-0.6C299.52,206.29,299.91,205.62,300.53,205.21z"/>
		</g>
		<g id="그룹_434">
			<path id="패스_992" class="st2" d="M308.65,195.9c0.58-0.33,1.04-0.06,1.04,0.6c-0.04,0.73-0.43,1.41-1.04,1.81
				c-0.58,0.33-1.04,0.06-1.04-0.6C307.65,196.97,308.03,196.3,308.65,195.9z"/>
		</g>
		<g id="그룹_435">
			<path id="패스_993" class="st2" d="M316.78,191.21c0.58-0.33,1.04-0.06,1.04,0.6c-0.04,0.73-0.43,1.41-1.04,1.81
				c-0.58,0.33-1.04,0.06-1.04-0.6C315.78,192.28,316.16,191.61,316.78,191.21z"/>
		</g>
		<g id="그룹_436">
			<path id="패스_994" class="st2" d="M324.9,191.21c0.58-0.33,1.04-0.06,1.04,0.6c-0.04,0.73-0.43,1.41-1.04,1.81
				c-0.58,0.33-1.04,0.06-1.04-0.6C323.89,192.28,324.28,191.61,324.9,191.21z"/>
		</g>
		<g id="그룹_437">
			<path id="패스_995" class="st2" d="M333.02,186.52c0.58-0.33,1.04-0.06,1.04,0.6c-0.04,0.73-0.43,1.41-1.04,1.81
				c-0.58,0.33-1.04,0.06-1.04-0.6C332.02,187.59,332.41,186.92,333.02,186.52z"/>
		</g>
		<g id="그룹_438">
			<path id="패스_996" class="st2" d="M341.15,186.52c0.58-0.33,1.04-0.06,1.04,0.6c-0.04,0.73-0.43,1.41-1.04,1.81
				c-0.58,0.33-1.04,0.06-1.04-0.6C340.14,187.59,340.53,186.92,341.15,186.52z"/>
		</g>
	</g>
	<path id="패스_997" class="st2" d="M203.04,272.4c-0.04,0-0.09-0.01-0.12-0.03c-0.12-0.07-0.16-0.22-0.09-0.34l0,0l8.18-14.1
		c0.03-0.06,0.09-0.1,0.16-0.12l7.95-1.7l8.07-16.9c0.06-0.12,0.21-0.18,0.33-0.12c0.01,0,0.01,0.01,0.02,0.01l8.04,4.64l7.96-2.31
		l8.07-6.99l8.11-9.36c0.03-0.04,0.07-0.06,0.12-0.08l8.07-2.33l8.08-7c0.05-0.04,0.1-0.06,0.16-0.06h7.96l8.06-18.61
		c0.03-0.08,0.11-0.13,0.19-0.15c0.09-0.01,0.17,0.02,0.23,0.08l7.93,9.16l7.93-9.16c0.02-0.02,0.04-0.04,0.06-0.05l8.15-4.71
		c0.04-0.02,0.08-0.03,0.12-0.03h8.06l8.04-4.64c0.04-0.02,0.08-0.03,0.12-0.03h8.12c0.14,0,0.25,0.11,0.25,0.25
		s-0.11,0.25-0.25,0.25h-8.06l-8.04,4.64c-0.04,0.02-0.08,0.03-0.12,0.03h-8.06l-8.06,4.65l-8.1,9.35c-0.1,0.1-0.26,0.11-0.37,0.01
		l-0.01-0.01l-7.86-9.08l-7.97,18.4c-0.04,0.09-0.13,0.15-0.23,0.15h-8.03l-8.05,6.97c-0.03,0.02-0.06,0.04-0.09,0.05l-8.05,2.32
		l-8.09,9.33l-8.14,7.05c-0.03,0.02-0.06,0.04-0.1,0.05l-8.12,2.35c-0.07,0.02-0.14,0.01-0.19-0.02l-7.9-4.56l-8.01,16.76
		c-0.03,0.07-0.1,0.12-0.17,0.14l-7.96,1.7l-8.11,14.01C203.21,272.35,203.13,272.4,203.04,272.4z"/>
	<path id="패스_998" class="st1" d="M207.29,236.14l7.87-4.57c0.4-0.23,0.72-0.07,0.72,0.37c-0.04,0.49-0.3,0.94-0.72,1.2
		l-7.87,4.57c-0.4,0.23-0.72,0.07-0.72-0.37C206.61,236.85,206.88,236.4,207.29,236.14z"/>
	<g id="그룹_443">
		<path id="패스_999" class="st2" d="M203.04,238.11c0.58-0.33,1.04-0.06,1.04,0.6c-0.04,0.73-0.43,1.41-1.04,1.81
			c-0.58,0.33-1.04,0.06-1.04-0.6C202.03,239.19,202.42,238.52,203.04,238.11z"/>
		<path id="패스_1000" class="st18" d="M203.04,238.11c0.58-0.33,1.04-0.06,1.04,0.6c-0.04,0.73-0.43,1.41-1.04,1.81
			c-0.58,0.33-1.04,0.06-1.04-0.6C202.03,239.19,202.42,238.52,203.04,238.11z"/>
	</g>
	<path id="패스_1001" class="st1" d="M207.29,240.82l7.87-4.57c0.4-0.23,0.72-0.07,0.72,0.37c-0.04,0.49-0.3,0.94-0.72,1.2
		l-7.87,4.57c-0.4,0.23-0.72,0.07-0.72-0.37C206.61,241.53,206.88,241.08,207.29,240.82z"/>
	<g id="그룹_445">
		<path id="패스_1002" class="st2" d="M203.04,242.8c0.58-0.33,1.04-0.06,1.04,0.6c-0.04,0.73-0.43,1.41-1.04,1.81
			c-0.58,0.33-1.04,0.06-1.04-0.6C202.03,243.88,202.42,243.21,203.04,242.8z"/>
	</g>
	<g id="그룹_452">
		<g id="그룹_448">
			<path id="패스_1003" class="st2" d="M203.04,305.3c-0.14,0-0.25-0.11-0.25-0.25c0-0.07,0.03-0.13,0.07-0.17l4.12-4.24
				l4.05-0.51l4.09-5.28l4.09,0.56l3.97-3.59l4.06-2.43l4.14-5.73l4.11,1.29l3.95-3.53c0.1-0.09,0.26-0.08,0.35,0.02
				c0.09,0.1,0.08,0.26-0.02,0.35l-4.16,3.72l-4.03-1.27l-4.03,5.55l-4.06,2.43l-4.11,3.72l-4.03-0.55l-4.04,5.22l-4.08,0.52
				l-4,4.11C203.17,305.27,203.11,305.3,203.04,305.3z"/>
		</g>
		<g id="그룹_449">
			<path id="패스_1004" class="st7" d="M204.64,291.58c0.03-0.03,0.06-0.06,0.1-0.09c0.03-0.03,0.07-0.05,0.11-0.08
				c0.18-0.12,0.4-0.18,0.62-0.19c0.18,0,0.35,0.07,0.49,0.18c0.15,0.14,0.26,0.32,0.32,0.52c0.08,0.26,0.12,0.53,0.12,0.8
				c0,0.32-0.04,0.63-0.12,0.93c-0.07,0.31-0.18,0.6-0.32,0.89c-0.13,0.27-0.3,0.52-0.49,0.75c-0.17,0.21-0.38,0.39-0.62,0.52
				c-0.18,0.12-0.4,0.18-0.62,0.19c-0.18,0-0.35-0.07-0.49-0.19c-0.15-0.14-0.26-0.32-0.32-0.51c-0.08-0.26-0.12-0.53-0.12-0.8
				c0-0.17,0.01-0.35,0.04-0.52c0.02-0.16,0.06-0.33,0.1-0.49c0.04-0.16,0.09-0.32,0.14-0.47s0.1-0.3,0.15-0.44l1.08-3.08
				c0.02-0.04,0.04-0.09,0.07-0.15c0.02-0.06,0.06-0.11,0.12-0.14l0.34-0.2c0.03-0.02,0.06-0.02,0.08,0.01l0,0
				c0.03,0.04,0.04,0.08,0.03,0.12c0,0.03,0,0.05-0.01,0.08c-0.01,0.02-0.01,0.04-0.02,0.06L204.64,291.58z M203.88,294.18
				c0,0.16,0.02,0.33,0.07,0.48c0.04,0.12,0.1,0.24,0.19,0.33c0.08,0.08,0.19,0.13,0.31,0.13c0.14,0,0.29-0.04,0.41-0.12
				c0.16-0.09,0.29-0.21,0.41-0.35c0.12-0.15,0.22-0.31,0.31-0.48c0.08-0.18,0.15-0.36,0.19-0.55c0.04-0.18,0.07-0.37,0.07-0.56
				c0-0.16-0.02-0.33-0.07-0.48c-0.04-0.12-0.1-0.24-0.19-0.33c-0.08-0.08-0.19-0.13-0.31-0.13c-0.14,0-0.29,0.04-0.41,0.12
				c-0.16,0.09-0.29,0.21-0.41,0.35c-0.12,0.15-0.22,0.31-0.31,0.48c-0.08,0.18-0.15,0.36-0.19,0.55S203.88,294,203.88,294.18
				L203.88,294.18z"/>
			<path id="패스_1005" class="st7" d="M207.41,292.72c0.02,0.08,0.05,0.17,0.08,0.24c0.03,0.07,0.09,0.13,0.16,0.17
				c0.09,0.04,0.19,0.05,0.28,0.02c0.16-0.04,0.32-0.1,0.46-0.19c0.13-0.07,0.25-0.17,0.35-0.27c0.11-0.11,0.21-0.24,0.29-0.38
				c0.09-0.15,0.15-0.31,0.2-0.48c0.05-0.18,0.08-0.37,0.07-0.56c0.01-0.16-0.02-0.31-0.07-0.46c-0.03-0.09-0.1-0.17-0.19-0.22
				c-0.09-0.04-0.19-0.04-0.29-0.01c-0.13,0.04-0.25,0.09-0.36,0.15l-0.49,0.29c-0.03,0.03-0.08,0.02-0.11-0.01
				c-0.04-0.04-0.05-0.09-0.05-0.15v-0.33c0-0.06,0.01-0.12,0.03-0.17c0.02-0.06,0.04-0.11,0.06-0.16l1.07-2.39l-1.71,0.99
				c-0.03,0.03-0.08,0.02-0.11-0.01c-0.04-0.04-0.05-0.09-0.05-0.15v-0.33c0-0.07,0.02-0.14,0.05-0.2c0.02-0.06,0.06-0.11,0.11-0.14
				l2.34-1.35c0.03-0.03,0.08-0.02,0.11,0.01c0.03,0.04,0.05,0.09,0.05,0.15v0.33c0,0.06-0.01,0.12-0.03,0.18
				c-0.02,0.07-0.05,0.14-0.08,0.2l-1.05,2.36c0.17-0.1,0.35-0.16,0.54-0.17c0.15-0.01,0.3,0.04,0.42,0.13
				c0.13,0.11,0.22,0.26,0.27,0.43c0.07,0.23,0.11,0.47,0.1,0.72c0,0.31-0.04,0.61-0.12,0.91c-0.07,0.28-0.18,0.55-0.32,0.81
				c-0.13,0.24-0.29,0.46-0.47,0.66c-0.17,0.18-0.36,0.34-0.57,0.47s-0.44,0.22-0.69,0.25c-0.17,0.02-0.33-0.01-0.48-0.1
				c-0.13-0.09-0.23-0.21-0.28-0.36c-0.06-0.17-0.1-0.35-0.1-0.53c0-0.06,0.01-0.11,0.04-0.17c0.02-0.05,0.05-0.09,0.09-0.11
				l0.27-0.16c0.04-0.02,0.08-0.02,0.1,0C207.38,292.65,207.4,292.68,207.41,292.72z"/>
			<path id="패스_1006" class="st7" d="M210.94,290.68c0.02,0.08,0.05,0.17,0.08,0.25c0.03,0.07,0.09,0.13,0.16,0.17
				c0.09,0.04,0.19,0.04,0.28,0.02c0.16-0.04,0.32-0.1,0.46-0.19c0.13-0.07,0.25-0.16,0.35-0.27c0.11-0.11,0.21-0.24,0.29-0.38
				c0.09-0.15,0.15-0.31,0.2-0.48c0.05-0.18,0.08-0.37,0.07-0.56c0.01-0.16-0.02-0.31-0.07-0.46c-0.03-0.09-0.1-0.17-0.19-0.22
				c-0.09-0.04-0.19-0.04-0.29-0.01c-0.13,0.03-0.25,0.09-0.36,0.15l-0.49,0.29c-0.03,0.03-0.08,0.02-0.11-0.01
				c-0.04-0.04-0.05-0.09-0.05-0.15v-0.33c0-0.06,0.01-0.12,0.03-0.17c0.02-0.06,0.04-0.11,0.06-0.16l1.07-2.39l-1.71,0.99
				c-0.04,0.02-0.08,0.02-0.11-0.01c-0.03-0.04-0.05-0.09-0.05-0.15v-0.33c0-0.07,0.02-0.14,0.05-0.2c0.02-0.06,0.06-0.1,0.11-0.14
				l2.34-1.35c0.03-0.03,0.08-0.02,0.11,0.01c0.03,0.04,0.05,0.09,0.05,0.15v0.33c0,0.06-0.01,0.12-0.03,0.18
				c-0.02,0.07-0.05,0.14-0.08,0.2l-1.05,2.36c0.17-0.1,0.35-0.16,0.54-0.17c0.15-0.01,0.3,0.04,0.42,0.13
				c0.13,0.11,0.22,0.26,0.27,0.43c0.07,0.23,0.11,0.47,0.1,0.72c0,0.31-0.04,0.61-0.12,0.91c-0.08,0.28-0.18,0.55-0.32,0.8
				c-0.13,0.24-0.29,0.46-0.47,0.66c-0.17,0.19-0.36,0.34-0.57,0.47s-0.44,0.22-0.69,0.25c-0.17,0.02-0.33-0.01-0.48-0.1
				c-0.13-0.09-0.23-0.21-0.28-0.36c-0.06-0.17-0.1-0.35-0.1-0.53c0-0.06,0.01-0.11,0.04-0.17c0.02-0.05,0.05-0.09,0.09-0.11
				l0.27-0.16c0.04-0.02,0.08-0.02,0.1,0C210.92,290.6,210.94,290.64,210.94,290.68z"/>
		</g>
		<g id="그룹_450">
			<path id="패스_1007" class="st1" d="M203.77,308.53l35.1-20.34c0.4-0.23,0.72-0.07,0.72,0.36c-0.04,0.49-0.3,0.94-0.72,1.2
				l-35.1,20.34c-0.4,0.23-0.72,0.07-0.72-0.36C203.09,309.24,203.35,308.79,203.77,308.53z"/>
		</g>
		<g id="그룹_451">
			<path id="패스_1008" class="st1" d="M203.77,285.07l7.87-4.57c0.4-0.23,0.72-0.07,0.72,0.36c-0.04,0.49-0.3,0.94-0.72,1.2
				l-7.87,4.57c-0.4,0.23-0.72,0.07-0.72-0.36C203.09,285.77,203.35,285.33,203.77,285.07z"/>
		</g>
	</g>
	<g id="그룹_458">
		<g id="그룹_453">
			<path id="패스_1009" class="st2" d="M203.04,333.42c-0.06,0-0.13-0.02-0.17-0.07c-0.1-0.1-0.1-0.25-0.01-0.35l4.12-4.24
				l4.07-0.52l4.1-3.59l3.95-1.08l4.12-8.21l4.13,2.02l3.99-3.51l0.07-0.01l3.96-0.75l4-6.91c0.07-0.12,0.22-0.16,0.34-0.09
				s0.16,0.22,0.09,0.34l0,0l-4.11,7.11l-4.12,0.78l-4.14,3.64l-3.99-1.95l-4,7.97l-4.11,1.12l-4.08,3.6l-4.05,0.51l-4,4.11
				C203.17,333.4,203.11,333.42,203.04,333.42z"/>
		</g>
		<g id="그룹_454" class="st19">
			<path id="패스_1010" d="M203.04,333.42c-0.06,0-0.13-0.02-0.17-0.07c-0.1-0.1-0.1-0.25-0.01-0.35l4.12-4.24l4.07-0.52l4.1-3.59
				l3.95-1.08l4.12-8.21l4.13,2.02l3.99-3.51l0.07-0.01l3.96-0.75l4-6.91c0.07-0.12,0.22-0.16,0.34-0.09s0.16,0.22,0.09,0.34l0,0
				l-4.11,7.11l-4.12,0.78l-4.14,3.64l-3.99-1.95l-4,7.97l-4.11,1.12l-4.08,3.6l-4.05,0.51l-4,4.11
				C203.17,333.4,203.11,333.42,203.04,333.42z"/>
		</g>
		<g id="그룹_455">
			<path id="패스_1011" class="st7" d="M205.11,323.46c0,0.07-0.02,0.14-0.05,0.2c-0.02,0.06-0.06,0.11-0.11,0.14l-0.24,0.14
				c-0.03,0.03-0.08,0.02-0.11-0.01c-0.03-0.04-0.05-0.09-0.05-0.15v-5.04l-0.96,1.68c-0.02,0.06-0.06,0.1-0.12,0.12
				c-0.04,0.02-0.08,0-0.11-0.03l-0.14-0.2c-0.03-0.05-0.04-0.11-0.03-0.17c0.01-0.07,0.03-0.14,0.06-0.2l1.27-2.24
				c0.03-0.05,0.06-0.09,0.1-0.12c0.03-0.02,0.07-0.04,0.1-0.06l0.24-0.14c0.03-0.03,0.08-0.02,0.11,0.01
				c0.03,0.04,0.05,0.09,0.05,0.15L205.11,323.46z"/>
			<path id="패스_1012" class="st7" d="M207.71,318.84c0.11-0.21,0.2-0.43,0.27-0.66c0.06-0.23,0.09-0.48,0.09-0.72
				c0.02-0.25-0.04-0.49-0.18-0.7c-0.12-0.14-0.32-0.14-0.58,0.01c-0.13,0.08-0.25,0.18-0.35,0.29c-0.1,0.12-0.18,0.25-0.24,0.39
				c-0.07,0.15-0.12,0.3-0.15,0.46c-0.04,0.16-0.07,0.32-0.09,0.48c-0.01,0.07-0.03,0.13-0.06,0.19c-0.02,0.04-0.05,0.08-0.09,0.11
				l-0.27,0.16c-0.03,0.02-0.07,0.02-0.09-0.01c-0.03-0.03-0.04-0.08-0.04-0.12c0.01-0.25,0.04-0.5,0.1-0.74
				c0.06-0.27,0.16-0.54,0.27-0.79c0.12-0.26,0.26-0.5,0.44-0.72c0.16-0.21,0.36-0.39,0.59-0.52c0.17-0.11,0.37-0.17,0.58-0.18
				c0.16,0,0.31,0.07,0.42,0.18c0.12,0.13,0.21,0.3,0.25,0.48c0.06,0.23,0.09,0.47,0.09,0.71c0,0.18-0.01,0.37-0.03,0.55
				c-0.02,0.17-0.05,0.34-0.1,0.51c-0.05,0.18-0.11,0.35-0.18,0.52c-0.07,0.18-0.16,0.36-0.26,0.56l-1.32,2.67l1.82-1.05
				c0.03-0.03,0.08-0.02,0.11,0.01c0.04,0.04,0.05,0.09,0.05,0.15v0.33c0,0.07-0.02,0.14-0.05,0.2c-0.02,0.06-0.06,0.1-0.11,0.14
				l-2.56,1.48c-0.03,0.03-0.08,0.02-0.11-0.01c-0.04-0.04-0.05-0.09-0.05-0.15v-0.33c0-0.07,0.01-0.13,0.03-0.19
				c0.03-0.08,0.06-0.16,0.1-0.23L207.71,318.84z"/>
			<path id="패스_1013" class="st7" d="M212.41,315.52c0,0.27,0.01,0.53,0.01,0.77s0,0.5-0.01,0.78c0,0.35-0.04,0.7-0.1,1.05
				c-0.06,0.33-0.15,0.65-0.27,0.96c-0.12,0.29-0.27,0.56-0.47,0.8c-0.19,0.24-0.41,0.43-0.68,0.58c-0.2,0.14-0.43,0.21-0.67,0.2
				c-0.19-0.02-0.35-0.11-0.47-0.26c-0.14-0.19-0.23-0.41-0.28-0.64c-0.07-0.31-0.1-0.62-0.1-0.94c0-0.27-0.01-0.53-0.01-0.77
				s0-0.5,0.01-0.78c0-0.35,0.04-0.7,0.1-1.05c0.06-0.33,0.15-0.65,0.28-0.96c0.12-0.29,0.27-0.56,0.47-0.8
				c0.18-0.24,0.41-0.44,0.67-0.59c0.2-0.13,0.44-0.2,0.68-0.19c0.19,0.02,0.35,0.12,0.47,0.27c0.14,0.19,0.23,0.41,0.27,0.64
				C212.38,314.9,212.41,315.21,212.41,315.52z M209.94,318.5c-0.04,0.4,0.05,0.79,0.25,1.14c0.16,0.18,0.4,0.18,0.7,0
				c0.32-0.19,0.57-0.48,0.71-0.82c0.18-0.45,0.26-0.94,0.25-1.43c0-0.28,0.01-0.54,0.01-0.78s0-0.5-0.01-0.77
				c0.04-0.4-0.05-0.8-0.25-1.14c-0.16-0.18-0.4-0.19-0.71-0.01c-0.32,0.19-0.56,0.48-0.7,0.82c-0.18,0.46-0.26,0.94-0.25,1.43
				c0,0.28-0.01,0.54-0.01,0.78S209.94,318.22,209.94,318.5L209.94,318.5z"/>
		</g>
		<g id="그룹_456">
			<path id="패스_1014" class="st1" d="M203.77,336.65l35.1-20.34c0.4-0.23,0.72-0.07,0.72,0.36c-0.04,0.49-0.3,0.94-0.72,1.2
				l-35.1,20.34c-0.4,0.23-0.72,0.07-0.72-0.36C203.09,337.36,203.35,336.91,203.77,336.65z"/>
		</g>
		<g id="그룹_457">
			<path id="패스_1015" class="st1" d="M203.77,313.18l7.87-4.57c0.4-0.23,0.72-0.07,0.72,0.36c-0.04,0.49-0.3,0.94-0.72,1.2
				l-7.87,4.57c-0.4,0.23-0.72,0.07-0.72-0.37C203.09,313.89,203.35,313.45,203.77,313.18z"/>
		</g>
	</g>
	<g id="그룹_463">
		<g id="그룹_459">
			<path id="패스_1016" class="st2" d="M251.78,277.1c-0.14,0-0.25-0.11-0.25-0.25c0-0.08,0.03-0.15,0.09-0.2l4.06-3.24l4.09-4.67
				l4.15-0.6l3.96-0.89l4.1-4.84l4.04,0.71l4.05-6.41l4.11,0.07l3.98-3.56c0.1-0.09,0.26-0.08,0.35,0.02s0.08,0.26-0.02,0.35l0,0
				l-4.13,3.69l-4.03-0.07l-4.08,6.46l-4.09-0.72l-4.02,4.75l-4.14,0.93l-3.99,0.58l-4,4.57l-4.1,3.27
				C251.89,277.08,251.83,277.1,251.78,277.1z"/>
		</g>
		<g id="그룹_460">
			<path id="패스_1017" class="st7" d="M253.39,263.38c0.03-0.03,0.06-0.06,0.1-0.09c0.03-0.03,0.07-0.05,0.11-0.08
				c0.18-0.12,0.4-0.18,0.62-0.19c0.18,0,0.35,0.07,0.49,0.18c0.15,0.14,0.26,0.32,0.32,0.51c0.08,0.26,0.12,0.53,0.12,0.8
				c0,0.32-0.04,0.63-0.12,0.94c-0.07,0.31-0.18,0.6-0.32,0.89c-0.13,0.27-0.3,0.52-0.49,0.75c-0.17,0.21-0.38,0.39-0.62,0.52
				c-0.18,0.12-0.4,0.18-0.62,0.19c-0.18,0-0.35-0.07-0.49-0.19c-0.15-0.14-0.26-0.32-0.32-0.52c-0.08-0.26-0.12-0.53-0.12-0.8
				c0-0.17,0.01-0.35,0.04-0.52c0.02-0.16,0.06-0.33,0.1-0.49c0.04-0.16,0.09-0.32,0.14-0.47s0.1-0.3,0.15-0.44l1.08-3.08
				c0.02-0.04,0.04-0.09,0.07-0.15c0.02-0.06,0.06-0.11,0.12-0.14l0.34-0.2c0.02-0.02,0.06-0.02,0.08,0.01l0,0
				c0.03,0.04,0.04,0.08,0.03,0.12c0,0.03,0,0.05-0.01,0.08c-0.01,0.02-0.01,0.04-0.02,0.06L253.39,263.38z M252.63,265.98
				c0,0.16,0.02,0.33,0.07,0.48c0.04,0.12,0.1,0.24,0.19,0.33c0.08,0.08,0.19,0.12,0.3,0.13c0.14,0,0.29-0.04,0.41-0.12
				c0.16-0.09,0.29-0.21,0.41-0.35c0.12-0.15,0.22-0.31,0.31-0.48c0.08-0.18,0.15-0.36,0.19-0.55c0.04-0.18,0.07-0.37,0.07-0.56
				c0-0.16-0.02-0.33-0.07-0.48c-0.04-0.12-0.1-0.24-0.19-0.33c-0.08-0.08-0.19-0.13-0.31-0.13c-0.14,0-0.29,0.04-0.41,0.12
				c-0.16,0.09-0.29,0.21-0.41,0.35c-0.12,0.15-0.22,0.31-0.3,0.48c-0.08,0.18-0.15,0.36-0.19,0.55
				C252.65,265.61,252.63,265.8,252.63,265.98L252.63,265.98z"/>
			<path id="패스_1018" class="st7" d="M257.51,261.91c0.11-0.21,0.2-0.43,0.27-0.66c0.06-0.23,0.09-0.48,0.09-0.72
				c0.02-0.25-0.04-0.5-0.18-0.71c-0.12-0.14-0.32-0.14-0.58,0.01c-0.13,0.08-0.25,0.18-0.35,0.3s-0.18,0.25-0.24,0.39
				c-0.07,0.15-0.12,0.3-0.15,0.46c-0.04,0.16-0.07,0.32-0.09,0.48c-0.01,0.07-0.03,0.13-0.06,0.19c-0.02,0.04-0.05,0.08-0.09,0.11
				l-0.27,0.16c-0.03,0.02-0.07,0.02-0.09-0.01c-0.03-0.03-0.04-0.08-0.04-0.12c0.01-0.25,0.04-0.5,0.1-0.74
				c0.06-0.27,0.16-0.54,0.27-0.79c0.12-0.26,0.26-0.5,0.44-0.72c0.16-0.21,0.36-0.39,0.59-0.52c0.17-0.11,0.37-0.17,0.58-0.18
				c0.16,0,0.31,0.07,0.42,0.18c0.12,0.13,0.21,0.3,0.25,0.48c0.06,0.23,0.09,0.47,0.09,0.71c0,0.18-0.01,0.37-0.03,0.55
				c-0.02,0.17-0.05,0.34-0.1,0.51c-0.05,0.18-0.11,0.35-0.18,0.52c-0.07,0.17-0.16,0.36-0.26,0.56l-1.32,2.67l1.82-1.05
				c0.03-0.03,0.08-0.02,0.12,0.01c0.03,0.04,0.05,0.09,0.05,0.15v0.33c0,0.07-0.02,0.14-0.05,0.2c-0.02,0.06-0.06,0.11-0.12,0.14
				l-2.56,1.48c-0.03,0.03-0.08,0.02-0.11-0.01c-0.04-0.04-0.05-0.09-0.05-0.15v-0.33c0-0.06,0.01-0.13,0.03-0.19
				c0.03-0.08,0.06-0.16,0.1-0.23L257.51,261.91z"/>
			<path id="패스_1019" class="st7" d="M261.55,256.54c0.03-0.03,0.08-0.02,0.11,0.01c0.03,0.04,0.05,0.09,0.05,0.15v0.33
				c0,0.06-0.01,0.12-0.02,0.18c-0.01,0.07-0.03,0.14-0.05,0.22l-1.32,6.01c-0.02,0.06-0.04,0.13-0.06,0.19s-0.06,0.1-0.11,0.13
				l-0.27,0.16c-0.03,0.02-0.07,0.02-0.1-0.01c-0.03-0.04-0.05-0.08-0.04-0.13c0-0.01,0-0.03,0-0.04c0-0.03,0.01-0.05,0.02-0.08
				l1.32-6.02l-1.95,1.13c-0.03,0.03-0.08,0.02-0.11-0.01c-0.03-0.04-0.05-0.09-0.05-0.15v-0.33c0-0.07,0.02-0.14,0.05-0.2
				c0.02-0.06,0.06-0.1,0.11-0.14L261.55,256.54z"/>
		</g>
		<g id="그룹_461">
			<path id="패스_1020" class="st1" d="M252.52,280.33l35.1-20.34c0.4-0.23,0.72-0.07,0.72,0.37c-0.04,0.49-0.3,0.94-0.72,1.2
				l-35.1,20.34c-0.4,0.23-0.72,0.07-0.72-0.36C251.83,281.04,252.1,280.59,252.52,280.33z"/>
		</g>
		<g id="그룹_462">
			<path id="패스_1021" class="st1" d="M252.52,256.87l7.87-4.56c0.4-0.23,0.72-0.07,0.72,0.37c-0.03,0.49-0.3,0.94-0.72,1.2
				l-7.87,4.56c-0.4,0.23-0.72,0.07-0.72-0.36C251.83,257.57,252.1,257.13,252.52,256.87z"/>
		</g>
	</g>
	<g id="그룹_469">
		<g id="그룹_464">
			<path id="패스_1022" class="st2" d="M251.78,305.22c-0.14,0-0.25-0.11-0.25-0.25c0-0.05,0.01-0.09,0.04-0.13l4.15-6.81
				l4.17,0.77l3.93-1.07l4.06-4.96l4.04-1.02l4.11-7.32l4.2,1.22l3.95-0.75l4-3.56c0.1-0.09,0.26-0.08,0.35,0.02l0,0
				c0.09,0.1,0.08,0.26-0.02,0.35l0,0l-4.11,3.65l-0.07,0.01l-4.13,0.78l-3.93-1.14l-4.02,7.16l-4.09,1.03l-4.06,4.95l-0.08,0.02
				l-4.12,1.12l-0.06-0.01l-3.89-0.72L252,305.1C251.95,305.18,251.87,305.22,251.78,305.22z"/>
		</g>
		<g id="그룹_465" class="st19">
			<path id="패스_1023" d="M251.78,305.22c-0.14,0-0.25-0.11-0.25-0.25c0-0.05,0.01-0.09,0.04-0.13l4.15-6.81l4.17,0.77l3.93-1.07
				l4.06-4.96l4.04-1.02l4.11-7.32l4.2,1.22l3.95-0.75l4-3.56c0.1-0.09,0.26-0.08,0.35,0.02l0,0c0.09,0.1,0.08,0.26-0.02,0.35l0,0
				l-4.11,3.65l-0.07,0.01l-4.13,0.78l-3.93-1.14l-4.02,7.16l-4.09,1.03l-4.06,4.95l-0.08,0.02l-4.12,1.12l-0.06-0.01l-3.89-0.72
				L252,305.1C251.95,305.18,251.87,305.22,251.78,305.22z"/>
		</g>
		<g id="그룹_466">
			<path id="패스_1024" class="st7" d="M253.66,293.42c-0.03,0.02-0.05,0.04-0.08,0.06l-0.08,0.05c-0.17,0.1-0.36,0.16-0.55,0.18
				c-0.17,0.01-0.34-0.04-0.48-0.14c-0.16-0.13-0.27-0.29-0.34-0.48c-0.09-0.27-0.14-0.56-0.13-0.85c0-0.31,0.04-0.62,0.12-0.93
				c0.08-0.3,0.18-0.59,0.32-0.87c0.13-0.26,0.29-0.51,0.48-0.73c0.16-0.2,0.35-0.37,0.57-0.5c0.19-0.12,0.4-0.19,0.62-0.19
				c0.17,0,0.34,0.06,0.47,0.18c0.14,0.14,0.25,0.32,0.3,0.51c0.12,0.42,0.13,0.86,0.06,1.29c-0.03,0.17-0.07,0.35-0.12,0.52
				s-0.1,0.34-0.15,0.51s-0.11,0.32-0.15,0.46l-1.08,3.08c-0.02,0.04-0.04,0.09-0.07,0.15c-0.02,0.06-0.06,0.11-0.12,0.14l-0.34,0.2
				c-0.03,0.02-0.06,0.02-0.09-0.01l0,0c-0.02-0.04-0.03-0.08-0.03-0.12c0-0.03,0-0.05,0.01-0.08c0-0.02,0.01-0.04,0.02-0.06
				L253.66,293.42z M254.43,290.84c0-0.17-0.02-0.33-0.07-0.49c-0.03-0.12-0.1-0.23-0.19-0.32c-0.08-0.07-0.19-0.11-0.29-0.11
				c-0.13,0.01-0.26,0.05-0.37,0.12c-0.14,0.08-0.27,0.19-0.38,0.32c-0.12,0.14-0.21,0.29-0.29,0.45c-0.08,0.17-0.15,0.35-0.19,0.53
				c-0.04,0.19-0.07,0.38-0.07,0.57c0,0.17,0.02,0.33,0.07,0.49c0.03,0.12,0.1,0.23,0.19,0.31c0.08,0.07,0.18,0.11,0.29,0.11
				c0.13,0,0.26-0.04,0.38-0.12c0.14-0.08,0.27-0.19,0.37-0.32c0.12-0.14,0.22-0.29,0.29-0.45c0.08-0.17,0.15-0.35,0.19-0.53
				C254.41,291.23,254.43,291.03,254.43,290.84z"/>
			<path id="패스_1025" class="st7" d="M255.97,292.74c0.02,0.08,0.05,0.17,0.08,0.25c0.03,0.07,0.09,0.13,0.16,0.17
				c0.09,0.04,0.19,0.05,0.28,0.02c0.16-0.04,0.32-0.1,0.46-0.19c0.27-0.16,0.49-0.38,0.64-0.65c0.09-0.15,0.15-0.31,0.2-0.48
				c0.05-0.18,0.08-0.37,0.08-0.56c0.01-0.16-0.02-0.31-0.07-0.46c-0.03-0.09-0.1-0.17-0.19-0.22c-0.09-0.04-0.19-0.04-0.29-0.01
				c-0.13,0.03-0.25,0.09-0.36,0.15l-0.49,0.29c-0.03,0.03-0.08,0.02-0.11-0.01c-0.04-0.04-0.05-0.09-0.05-0.15v-0.33
				c0-0.06,0.01-0.12,0.03-0.17c0.02-0.06,0.04-0.11,0.06-0.16l1.07-2.39l-1.71,0.99c-0.03,0.03-0.08,0.02-0.11-0.01
				c-0.04-0.04-0.05-0.09-0.05-0.15v-0.33c0-0.07,0.02-0.14,0.05-0.2c0.02-0.06,0.06-0.11,0.11-0.14l2.34-1.35
				c0.03-0.03,0.08-0.02,0.11,0.01c0.03,0.04,0.05,0.09,0.05,0.15v0.33c0,0.06-0.01,0.12-0.03,0.18c-0.02,0.07-0.05,0.14-0.08,0.2
				l-1.05,2.36c0.17-0.1,0.35-0.16,0.54-0.17c0.15-0.01,0.3,0.04,0.42,0.13c0.13,0.11,0.23,0.26,0.27,0.43
				c0.07,0.23,0.11,0.47,0.1,0.72c0,0.31-0.04,0.61-0.12,0.91c-0.07,0.28-0.18,0.55-0.32,0.81c-0.13,0.24-0.29,0.46-0.47,0.66
				c-0.17,0.18-0.36,0.34-0.57,0.47c-0.21,0.13-0.44,0.22-0.69,0.25c-0.17,0.02-0.33-0.01-0.48-0.1c-0.13-0.09-0.23-0.21-0.28-0.36
				c-0.06-0.17-0.1-0.35-0.1-0.53c0-0.06,0.01-0.11,0.04-0.17c0.02-0.05,0.05-0.08,0.09-0.11l0.27-0.16c0.04-0.03,0.08-0.03,0.1,0
				C255.95,292.67,255.97,292.7,255.97,292.74z"/>
		</g>
		<g id="그룹_467">
			<path id="패스_1026" class="st1" d="M252.52,308.45l35.1-20.34c0.4-0.23,0.72-0.07,0.72,0.36c-0.04,0.49-0.3,0.94-0.72,1.2
				l-35.1,20.34c-0.4,0.23-0.72,0.07-0.72-0.36C251.83,309.16,252.1,308.71,252.52,308.45z"/>
		</g>
		<g id="그룹_468">
			<path id="패스_1027" class="st1" d="M252.52,284.98l7.87-4.56c0.4-0.23,0.72-0.07,0.72,0.36c-0.04,0.49-0.3,0.94-0.72,1.2
				l-7.87,4.57c-0.4,0.23-0.72,0.07-0.72-0.36C251.83,285.69,252.1,285.25,252.52,284.98z"/>
		</g>
	</g>
	<g id="그룹_481">
		<g id="그룹_475">
			<g id="그룹_473">
				<g id="그룹_472">
					<g id="그룹_471">
						<path id="패스_1028" class="st2" d="M304.59,231.46c1.37-0.95,3.14-1.08,4.63-0.35l-4.63,12.49V231.46z"/>
						<path id="패스_1029" class="st2" d="M299.96,236.46c1.1-2.03,2.69-3.75,4.63-5v12.14L299.96,236.46z"/>
						<path id="패스_1030" class="st2" d="M297.09,244.18c0.51-2.72,1.48-5.33,2.87-7.72l4.63,7.14L297.09,244.18z"/>
						<path id="패스_1031" class="st12" d="M299.96,236.46c-1.39,2.39-2.36,5-2.87,7.72l7.5-0.58v-12.14
							C302.65,232.71,301.06,234.43,299.96,236.46z"/>
						<path id="패스_1032" class="st2" d="M309.22,231.11c1.53,1,2.57,2.6,2.87,4.41l-7.5,8.08L309.22,231.11z"/>
						<path id="패스_1033" class="st2" d="M297.09,251.68c-0.27-1.16-0.4-2.34-0.39-3.53c0.01-1.33,0.14-2.66,0.39-3.97l7.5-0.58
							L297.09,251.68z"/>
						<path id="패스_1034" class="st2" d="M312.09,243.02c-0.51,2.72-1.48,5.33-2.87,7.72l-4.63-7.14L312.09,243.02z"/>
						<path id="패스_1035" class="st2" d="M304.59,255.74c-1.37,0.95-3.14,1.08-4.63,0.35l4.63-12.49V255.74z"/>
						<path id="패스_1036" class="st2" d="M297.09,251.68l7.5-8.08l-4.63,12.49C298.43,255.08,297.38,253.48,297.09,251.68z"/>
						<path id="패스_1037" class="st2" d="M312.09,235.52c0.27,1.16,0.4,2.34,0.39,3.53c-0.01,1.33-0.14,2.66-0.39,3.97l-7.5,0.58
							L312.09,235.52z"/>
						<path id="패스_1038" class="st2" d="M309.22,250.73c-1.1,2.03-2.69,3.75-4.63,5V243.6L309.22,250.73z"/>
					</g>
				</g>
			</g>
			<g id="그룹_474">
				<path id="패스_1039" class="st7" d="M300.66,261.93l7.87-4.57c0.4-0.23,0.72-0.07,0.72,0.37c-0.04,0.49-0.3,0.94-0.72,1.2
					l-7.87,4.57c-0.4,0.23-0.72,0.07-0.72-0.36C299.97,262.63,300.24,262.19,300.66,261.93z"/>
				<path id="패스_1040" class="st1" d="M298.92,267.63l11.34-6.58c0.4-0.23,0.72-0.07,0.72,0.37c-0.04,0.49-0.3,0.94-0.72,1.2
					l-11.34,6.58c-0.4,0.23-0.72,0.07-0.72-0.36C298.24,268.34,298.5,267.9,298.92,267.63z"/>
				<path id="패스_1041" class="st1" d="M298.92,272.33l11.34-6.58c0.4-0.23,0.72-0.07,0.72,0.36c-0.04,0.49-0.3,0.94-0.72,1.2
					l-11.34,6.58c-0.4,0.23-0.72,0.07-0.72-0.36C298.24,273.04,298.5,272.6,298.92,272.33z"/>
				<path id="패스_1042" class="st1" d="M298.92,277.04l11.34-6.58c0.4-0.23,0.72-0.07,0.72,0.36c-0.04,0.49-0.3,0.94-0.72,1.2
					l-11.34,6.58c-0.4,0.23-0.72,0.07-0.72-0.36C298.24,277.74,298.5,277.3,298.92,277.04z"/>
			</g>
		</g>
		<g id="그룹_480">
			<g id="그룹_478">
				<g id="그룹_477">
					<g id="그룹_476">
						<path id="패스_1043" class="st2" d="M333.02,214.98c1.37-0.95,3.14-1.08,4.63-0.35l-4.63,12.48V214.98z"/>
						<path id="패스_1044" class="st2" d="M328.39,219.98c1.1-2.03,2.69-3.75,4.63-5v12.14L328.39,219.98z"/>
						<path id="패스_1045" class="st2" d="M325.53,227.7c0.51-2.72,1.48-5.33,2.87-7.72l4.63,7.14L325.53,227.7z"/>
						<path id="패스_1046" class="st2" d="M337.65,214.63c1.53,1,2.57,2.6,2.87,4.4l-7.5,8.08L337.65,214.63z"/>
						<path id="패스_1047" class="st2" d="M325.53,235.2c-0.27-1.16-0.4-2.34-0.39-3.53c0.01-1.33,0.14-2.66,0.39-3.98l7.5-0.58
							L325.53,235.2z"/>
						<path id="패스_1048" class="st2" d="M340.52,226.54c-0.51,2.72-1.48,5.33-2.87,7.72l-4.63-7.14L340.52,226.54z"/>
						<path id="패스_1049" class="st2" d="M333.02,239.26c-1.37,0.95-3.14,1.08-4.63,0.35l4.63-12.49V239.26z"/>
						<path id="패스_1050" class="st2" d="M325.53,235.2l7.5-8.08l-4.63,12.49C326.86,238.6,325.82,237,325.53,235.2z"/>
						<path id="패스_1051" class="st18" d="M328.39,219.98c-1.39,2.39-2.36,5-2.87,7.72c-0.25,1.31-0.38,2.64-0.39,3.98
							c-0.01,1.19,0.12,2.37,0.39,3.53c0.29,1.81,1.33,3.41,2.87,4.41l4.63-12.49v-12.14C331.08,216.23,329.49,217.95,328.39,219.98
							z"/>
						<path id="패스_1052" class="st2" d="M340.52,219.04c0.27,1.16,0.4,2.34,0.39,3.53c-0.01,1.33-0.14,2.66-0.39,3.97l-7.5,0.58
							L340.52,219.04z"/>
						<path id="패스_1053" class="st2" d="M337.65,234.26c-1.1,2.03-2.69,3.75-4.63,5v-12.14L337.65,234.26z"/>
					</g>
				</g>
			</g>
			<g id="그룹_479">
				<path id="패스_1054" class="st7" d="M329.09,245.51l7.87-4.56c0.4-0.23,0.72-0.07,0.72,0.37c-0.04,0.49-0.3,0.94-0.72,1.2
					l-7.87,4.56c-0.4,0.23-0.72,0.07-0.72-0.37C328.4,246.22,328.67,245.77,329.09,245.51z"/>
				<path id="패스_1055" class="st1" d="M327.35,251.22l11.34-6.58c0.4-0.23,0.72-0.07,0.72,0.37c-0.04,0.49-0.3,0.94-0.72,1.2
					l-11.34,6.57c-0.4,0.23-0.72,0.07-0.72-0.37C326.67,251.92,326.94,251.48,327.35,251.22z"/>
				<path id="패스_1056" class="st1" d="M327.35,255.92l11.34-6.58c0.4-0.23,0.72-0.07,0.72,0.37c-0.04,0.49-0.3,0.94-0.72,1.2
					l-11.34,6.57c-0.4,0.23-0.72,0.07-0.72-0.37C326.67,256.62,326.94,256.18,327.35,255.92z"/>
				<path id="패스_1057" class="st1" d="M327.35,260.62l11.34-6.58c0.4-0.23,0.72-0.07,0.72,0.37c-0.04,0.49-0.3,0.94-0.72,1.2
					l-11.34,6.58c-0.4,0.23-0.72,0.07-0.72-0.37C326.67,261.33,326.94,260.88,327.35,260.62z"/>
			</g>
		</g>
	</g>
	<g id="Magnifying_Glass">
		<g id="Glass">
			<g id="그룹_485">
				<g id="그룹_484">
					<path id="패스_1058" class="st2" d="M332.87,377.75c-0.09-4.26-2.2-8.22-5.69-10.66c-1.61-1.01-3.1-1.15-4.21-0.58l0,0
						c-6.69,3.36-53.71,33.51-56.71,34.99l-0.04,0.02c-0.64,0.43-1.01,1.17-0.95,1.94c0.04,2.14,1.11,4.14,2.86,5.37
						c0.61,0.48,1.43,0.58,2.15,0.28l0.04-0.02c4.76-2.62,51.16-22.4,60.65-27.48l0,0h0.01l0,0
						C332.09,381,332.81,379.68,332.87,377.75z"/>
					<path id="패스_1059" class="st20" d="M331.02,371.25c-0.93-1.67-2.25-3.1-3.84-4.16c-1.61-1-3.09-1.15-4.2-0.59
						c-0.22,0.12-0.29,0.16-0.14,0.07c-6.11,3.12-41.1,25.45-52.87,32.7l-0.08,0.05l-0.48,0.29l-0.14,0.09l-0.27,0.16l-0.32,0.19
						l-0.02,0.01c-1.25,0.76-2.09,1.26-2.41,1.42l-0.04,0.02c-0.1,0.06-0.19,0.13-0.28,0.21c-0.45,0.46-0.7,1.08-0.68,1.73
						c0,0.23,0.01,0.45,0.03,0.67c0.01,0.09,0.03,0.17,0.04,0.26c0.02,0.14,0.05,0.27,0.08,0.41c0.03,0.11,0.05,0.22,0.09,0.33
						c0.04,0.13,0.08,0.26,0.13,0.39c0.03,0.1,0.07,0.19,0.1,0.29c0.01,0.02,0.01,0.03,0.02,0.05L331.02,371.25z"/>
					<path id="패스_1060" class="st2" d="M268.12,408.83c-1.75-1.23-2.81-3.21-2.85-5.35c0.07-1.93,1.45-2.67,3.09-1.65
						c1.75,1.23,2.81,3.21,2.85,5.35C271.14,409.11,269.76,409.85,268.12,408.83z"/>
				</g>
				<path id="패스_1061" class="st5" d="M254.07,410.12c0.03,1.64,0.85,3.17,2.19,4.11c0.47,0.36,1.09,0.45,1.63,0.22l0,0h0.01
					l0,0l11.37-6.05h0.01l0,0c0.49-0.33,0.77-0.89,0.73-1.48c-0.03-1.64-0.85-3.17-2.19-4.11c-0.47-0.36-1.09-0.45-1.64-0.22l0,0
					l-11.37,6.05l0,0C254.31,408.97,254.03,409.53,254.07,410.12z"/>
				<path id="패스_1062" class="st6" d="M254.81,408.64c-0.5,0.32-0.78,0.89-0.74,1.49c-0.01,0.6,0.11,1.2,0.34,1.75l14.67-7.82
					c-0.33-0.5-0.76-0.92-1.26-1.25c-0.47-0.36-1.09-0.45-1.64-0.22L254.81,408.64L254.81,408.64z"/>
			</g>
			<g id="그룹_487">
				<path id="패스_1063" class="st2" d="M268.66,420.22c0-7.29-4.82-14.58-14.45-20.14c-19.26-11.12-50.49-11.12-69.75,0
					c-9.63,5.56-14.45,12.85-14.45,20.14l0,0v13.42c0,7.29,4.82,14.58,14.45,20.14c19.26,11.12,50.49,11.12,69.75,0
					c9.63-5.56,14.45-12.85,14.45-20.14V420.22L268.66,420.22z M186.84,404.21c8.6-4.97,20.14-7.7,32.49-7.7s23.89,2.73,32.49,7.7
					c7.78,4.49,12.06,10.17,12.06,16.01s-4.28,11.51-12.06,16c-8.6,4.97-20.14,7.7-32.49,7.7s-23.89-2.73-32.49-7.7
					c-7.78-4.49-12.06-10.17-12.06-16S179.07,408.7,186.84,404.21L186.84,404.21z"/>
				<path id="패스_1064" class="st21" d="M184.46,440.35c19.26,11.12,50.49,11.12,69.75,0s19.26-29.15,0-40.27
					s-50.49-11.12-69.75,0S165.19,429.23,184.46,440.35z M174.78,420.22c0-5.83,4.28-11.52,12.06-16.01
					c8.6-4.97,20.14-7.7,32.49-7.7s23.89,2.73,32.49,7.7c7.78,4.49,12.06,10.17,12.06,16.01s-4.28,11.51-12.06,16
					c-8.6,4.97-20.14,7.7-32.49,7.7s-23.89-2.73-32.49-7.7C179.06,431.73,174.78,426.05,174.78,420.22z"/>
				<g id="그룹_486">
					<path id="패스_1065" class="st2" d="M174.78,420.22c0.03,2.37,0.69,4.69,1.93,6.72c1.96-3.39,5.4-6.56,10.14-9.29
						c8.6-4.97,20.14-7.71,32.49-7.71s23.89,2.74,32.48,7.71c4.74,2.73,8.18,5.9,10.15,9.29c1.23-2.03,1.89-4.35,1.92-6.72
						c0-5.83-4.28-11.52-12.07-16.01c-8.6-4.96-20.14-7.7-32.48-7.7s-23.9,2.74-32.49,7.7C179.06,408.7,174.78,414.39,174.78,420.22
						z"/>
					<path id="패스_1066" class="st20" d="M174.78,420.22c0.03,2.37,0.69,4.69,1.93,6.72c1.96-3.39,5.4-6.56,10.14-9.29
						c8.6-4.97,20.14-7.71,32.49-7.71s23.89,2.74,32.48,7.71c4.74,2.73,8.18,5.9,10.15,9.29c1.23-2.03,1.89-4.35,1.92-6.72
						c0-5.83-4.28-11.52-12.07-16.01c-8.6-4.96-20.14-7.7-32.48-7.7s-23.9,2.74-32.49,7.7C179.06,408.7,174.78,414.39,174.78,420.22
						z"/>
				</g>
				<path id="패스_1067" class="st22" d="M186.84,410.29c8.6-4.97,20.14-7.7,32.49-7.7s23.89,2.73,32.49,7.7
					c6.42,3.7,10.45,8.22,11.66,12.97c-1.22,4.74-5.25,9.26-11.66,12.96c-8.6,4.97-20.14,7.7-32.49,7.7s-23.89-2.73-32.49-7.7
					c-6.42-3.7-10.45-8.22-11.66-12.96C176.39,418.51,180.42,414,186.84,410.29z"/>
				<path id="패스_1068" class="st20" d="M207.71,447.9v13.41c-8.16-1.01-16.05-3.57-23.25-7.54
					c-9.63-5.56-14.45-12.85-14.45-20.14v-13.42c0-1.49,0.2-2.97,0.59-4.4h0.01c-2.34,8.67,2.28,17.85,13.85,24.54
					C191.66,444.32,199.55,446.88,207.71,447.9z"/>
			</g>
		</g>
	</g>
	<g id="그룹_494">
		<g id="그룹_488">
			<path id="패스_1069" class="st6" d="M442.79,365.94c0.58,0.24,0.71,1.36,0.75,3.59c0.03,1.69,0.33,4.64-1.66,5.19
				s-4.88,0.18-6.11-1.44c-1.54-2.02-2.57-3.79-4.77-6.27c-1.91-2.14-3.98-4.15-4.71-7.12c-0.65-2.68-0.03-3.82,1.8-4.55
				c2.52-1.01,6.37,2.56,8.31,3.15C438.08,359,442.21,365.7,442.79,365.94z"/>
		</g>
		<g id="그룹_489">
			<path id="패스_1070" class="st23" d="M442.84,363.88l-0.06,2.74c-2.12,1.29-4.79,1.31-6.92,0.03
				c-0.11-0.27-0.63-3.93-0.63-3.93L442.84,363.88z"/>
		</g>
		<g id="그룹_490">
			<path id="패스_1071" class="st6" d="M420.27,381.21c0.44,1.48,0.81,2.98,1.11,4.49c0.3,1.66,0.72,4.44,0.11,5.67
				s-2.89,1.98-6.39,1.88c-2.27-0.07-5.84,1.39-8.29,2.69c-2.53,1.34-7.75,1.78-10.39,1.41c-3.11-0.44-6.3-2.32-6.77-3.62
				s0.23-2.63,7.64-5.6c0.07-0.03,10.29-3.1,13.94-6.94L420.27,381.21z"/>
		</g>
		<g id="그룹_491">
			<path id="패스_1072" class="st23" d="M420.33,378.25c0,0-0.06,2.03-0.07,3.19s-1.43,2.86-4.97,2.65
				c-2.49-0.15-4.22-0.86-4.07-2.91l0.07-2.96L420.33,378.25z"/>
		</g>
		<g id="그룹_492">
			<path id="패스_1073" class="st5" d="M445.44,327.58c-0.5-4.86-1.47-9.66-2.91-14.33c0,0,1.25-12.28,1.99-23.93
				c0.79-12.59,1.52-19.07-0.95-37.24c0,0-38.59-3.47-39.64,11.08c-1.05,14.55,0.44,51.67,0.78,58.08s1.32,12.09,2.4,22.49
				c1.07,10.26,4.19,34.51,4.19,34.51c2.82,1.52,6.22,1.52,9.05,0.02c0,0,3.52-29.05,3.38-36.44c-0.11-5.47-0.92-10.91-2.43-16.17
				c0,0,1.04-11.99,1.96-22.42s1.75-15.43,2.01-19.97l0.88-0.41c0,0,0.49,18.04,0.82,24.45s1.22,12.57,2.8,24.49
				c1.37,10.35,5.66,32.26,5.66,32.26c4.59,2.61,7.42-0.16,7.42-0.16S446.49,336.56,445.44,327.58z"/>
		</g>
		<g id="그룹_493">
			<path id="패스_1074" class="st6" d="M425.25,283.25c0,0,9.97-4.64,15.01-8.91c0,0-4.73,6.35-10.81,9.08
				c0,0-2.64,22.34-2.62,21.89l-0.74-22.08L425.25,283.25z"/>
		</g>
	</g>
	<path id="패스_1075" class="st23" d="M418.34,200.22l1.5,13.32l12.58-0.63l-1.4-15.55L418.34,200.22z"/>
	<path id="패스_1076" class="st5" d="M437.17,205.32c4.68-0.22,7.06,0.49,9.17,4.53s2.93,16.11,3.66,22.34s0.92,10.62-1.65,11.26
		s-12.54,0.91-12.54,0.91L437.17,205.32z"/>
	<path id="패스_1077" class="st7" d="M445.07,212.23c-0.68-3.73-5.58-7.65-10.17-6.9c-1.07,0.17-2.11,0.35-3.11,0.53
		c-0.55,2.24-6.69,3.64-12.56,2.26c-1.77,0.46-7.59,1.55-9.06,2.04c-4.22,1.4-5.96,5.55-6.61,19.31c0,0,0.34,31.15,0.17,37.35
		c10.41,4.39,21.34,4.51,27.41,3.33c12.64-2.46,14.27-7.65,14.27-7.65l-1.88-14.25C443.52,248.25,446.61,220.66,445.07,212.23z"/>
	<path id="패스_1078" class="st5" d="M418.83,204.62l0.09,0.84c2.55,0.54,5.18,0.54,7.73,0c4.09-0.91,4.91-2.06,4.91-2.06
		l-0.09-0.95c0,0,1.02-0.38,1.55,1.19c0.23,0.62,0.43,1.26,0.59,1.91c0,0,0.47,2.86-4.33,4.32c-3.99,1.27-8.34,0.8-11.97-1.31
		l-1.89,0.4c0,0,1.63-3.76,2.12-4.52c0.23-0.43,0.69-0.68,1.18-0.65L418.83,204.62z"/>
	<path id="패스_1079" class="st7" d="M380.42,190.33l-24.95,13.02l12.4,33.9l23.28-13.04L380.42,190.33z"/>
	<path id="패스_1080" class="st24" d="M379.28,193.65l-20.94,10.93l10.97,29.14l19.53-10.94L379.28,193.65z"/>
	<path id="패스_1081" class="st8" d="M374.86,196.79l-0.4-1.04c-0.22-0.57-1.97-0.23-3.89,0.76l-3.69,1.9
		c-1.93,0.99-3.3,2.26-3.08,2.84l0.4,1.04L374.86,196.79z"/>
	<g id="그룹_495">
		<path id="패스_1082" class="st2" d="M374.45,192.65c-0.14-0.36-0.9-0.3-1.69,0.13l-1.44,0.78c0,0-0.89-2.24-4.21-0.69
			s-2.56,4.15-2.56,4.15l-1.53,0.85c-0.85,0.47-1.45,1.14-1.35,1.5l0.19,0.66l12.85-6.71C374.71,193.31,374.59,193,374.45,192.65z"
			/>
		<path id="패스_1083" class="st2" d="M373.07,194.15c-1.2,0.59-1.67,0.87-1.32,1.75c0.39,1.01,0.76,1.73,0.76,1.73l-5.68,2.97
			c0,0-0.47-1.28-0.68-1.78s-0.62-0.73-1.53-0.26l-0.34-0.36l8.97-4.57L373.07,194.15z"/>
		<path id="패스_1084" class="st12" d="M373.07,194.15c-1.2,0.59-1.67,0.87-1.32,1.75c0.39,1.01,0.76,1.73,0.76,1.73l-5.68,2.97
			c0,0-0.47-1.28-0.68-1.78s-0.62-0.73-1.53-0.26l-0.34-0.36l8.97-4.57L373.07,194.15z"/>
		<path id="패스_1085" class="st2" d="M375.1,196.85l-0.4-1.04c-0.22-0.57-1.97-0.23-3.89,0.76l-3.69,1.9
			c-1.93,0.99-3.3,2.26-3.08,2.84l0.4,1.04L375.1,196.85z"/>
	</g>
	<g id="그룹_498">
		<g id="그룹_497">
			<path id="패스_1086" class="st23" d="M410.16,210.16c-5.76,0.5-8.21,1.55-12.54,9.35c-4.69,8.46-13.71,23.78-14.86,25.71
				c-1.59,2.69-1.89,6.78-0.52,9.25c1.28,2.31,5.35,3.36,9.97-1.85c5.49-6.2,15.7-21.34,15.7-21.34S416.59,219.84,410.16,210.16z"/>
		</g>
	</g>
	<path id="패스_1087" class="st23" d="M384.63,256.25c-4.42-0.54-14.73-14.53-17.66-19.1c-2.32-3.71-5.35-6.92-8.93-9.43
		c-4.67-3.45-3.99-8.76-1.95-13.62c0.71-1.68,3.1-0.59,3.1-0.59l0.84,2.31l1.46,3.99c0.99,0.92,1.55,1.22,1.62,0.95
		c0.12-0.52-0.73-2.66-0.71-4.9c0.02-2.69,1.91-0.92,2.48,0.02c0.77,1.43,1.44,2.92,1.99,4.45c0.94,2.41,0.55,4.85,1.7,6.5
		s16.53,16.38,16.53,16.38L384.63,256.25z"/>
	<path id="패스_1088" class="st5" d="M411.27,209.86c-3.49-0.09-7.68,0.47-10.93,4.69s-16.25,27.17-16.25,27.17l-7.3-6.54
		c-2.85,1.8-4.86,4.65-5.61,7.93c1.99,3.14,4.2,6.14,6.61,8.97c3.08,3.38,6.52,5.73,9.34,4.69c2.82-1.04,5.7-3.27,11.77-11.73
		s12.7-18.43,12.7-18.43S415.79,216.86,411.27,209.86z"/>
	<g id="그룹_500">
		<path id="패스_1089" class="st25" d="M409.47,183.91c0,0-3.14,4.77-2.78,5.24s2.67,0.89,2.67,0.89L409.47,183.91z"/>
	</g>
	<g id="그룹_501">
		<path id="패스_1090" class="st6" d="M410.94,186.98c-2.07,0-3.74-1.68-3.74-3.74s1.68-3.74,3.74-3.74
			c2.07,0,3.74,1.68,3.74,3.74S413.01,186.97,410.94,186.98z M410.94,180.32c-1.61,0-2.91,1.3-2.91,2.91s1.3,2.91,2.91,2.91
			c1.61,0,2.91-1.3,2.91-2.91C413.85,181.63,412.55,180.32,410.94,180.32L410.94,180.32z"/>
	</g>
	<g id="그룹_502">
		<path id="패스_1091" class="st23" d="M418.19,170.73c-6.36,1.34-8.19,4.13-8.79,14.23c-0.62,10.55,0.45,13.87,1.84,15.29
			c0.94,0.96,6.14,1.13,8.76,0.41c3.28-0.9,10.7-3.54,14.18-8.84c4.09-6.24,5.16-14.71,0.79-18.18
			C428.81,168.75,420.78,170.18,418.19,170.73z"/>
	</g>
	<path id="패스_1092" class="st25" d="M418.42,200.96l-0.3-1.94c-2,1.07-4.25,1.58-6.52,1.48
		C412.82,201.09,415.98,201.26,418.42,200.96z"/>
	<path id="패스_1093" class="st6" d="M407.55,182.45l11.3,1.46l-0.46,0.79l-10.85-1.41L407.55,182.45z"/>
	<g id="그룹_507">
		<g id="그룹_504">
			<g id="그룹_503">
				<path id="패스_1094" class="st6" d="M408.32,174.8c0.48,0.07,0.97,0.04,1.43-0.09c-0.37,0.96-0.05,2.04,0.77,2.65
					c0.84,0.57,1.89,0.71,2.85,0.38c-0.35,0.59-0.46,1.29-0.31,1.96c0.39,1.48,1.77,2.48,3.29,2.38c0.07,1.48,0.08,2.92,1.66,3.6
					c0,0,1.01-3.9,4.29-3.41c3.31,0.49,3.76,4.71,1.67,7.27c-2.07,2.55-4.01,1.59-4.03,1.58c0.19,0.1,0.26,1.34,0.33,1.58
					c0.21,0.74,0.49,1.45,0.85,2.13c0.71,1.37,1.73,2.57,2.98,3.49c1.65,1.41,3.83,2.02,5.96,1.66c1.91-0.44,3.51-1.73,4.35-3.5
					c0.15-0.46,0.39-0.89,0.71-1.26c0.48-0.35,1.04-0.59,1.62-0.7c2.49-0.84,3.82-3.55,2.98-6.04c-0.08-0.23-0.18-0.46-0.29-0.68
					c2.34-0.59,3.75-2.97,3.16-5.3c-0.23-0.91-0.75-1.73-1.48-2.32c1.89-1.21,2.8-3.5,2.25-5.68c-0.54-1.77-1.96-3.14-3.76-3.6
					c-1.28-0.37-0.79-0.57-1.19-1.83c-0.75-2.43-3.33-3.8-5.76-3.05c-0.03,0.01-0.06,0.02-0.1,0.03c-0.33-1.65-1.56-2.97-3.17-3.41
					c-0.73-0.22-1.5-0.25-2.24-0.09c-0.53,0.14-1.61,0.63-1.81,1.13c-0.67-0.66-0.89-1.52-1.7-2.12c-2.13-1.59-5.15-1.16-6.75,0.97
					c-0.13,0.17-0.25,0.36-0.35,0.55c-1.15-1.22-2.76-1.9-4.44-1.87c-1.69,0.06-3.22,1-4.05,2.47c-0.79,1.51-0.57,3.34,0.55,4.62
					c-1.04,0.4-1.91,1.15-2.45,2.12c-0.57,1.07-0.44,2.39,0.35,3.32c0.31,0.43,0.74,0.75,1.24,0.92
					C407.91,174.73,408.11,174.77,408.32,174.8z"/>
			</g>
		</g>
		<g id="그룹_506">
			<g id="그룹_505">
				<path id="패스_1095" class="st6" d="M417.96,187.9l0.12-4.41c-1.22-0.03-2.23,0.93-2.27,2.15
					C415.77,186.86,416.74,187.87,417.96,187.9z"/>
			</g>
		</g>
	</g>
</g>
</svg>
