<?xml version="1.0" encoding="utf-8"?>
<!-- Generator: Adobe Illustrator 25.2.3, SVG Export Plug-In . SVG Version: 6.00 Build 0)  -->
<svg version="1.1" id="레이어_1" xmlns="http://www.w3.org/2000/svg" xmlns:xlink="http://www.w3.org/1999/xlink" x="0px"
	 y="0px" viewBox="0 0 224.6 224.6" style="enable-background:new 0 0 224.6 224.6;" xml:space="preserve">
<style type="text/css">
	.st0{clip-path:url(#SVGID_2_);}
	.st1{fill:#A7BBC7;}
	.st2{fill:#FFFFFF;}
</style>
<g>
	<defs>
		<circle id="SVGID_1_" cx="112.3" cy="112.3" r="112.3"/>
	</defs>
	<clipPath id="SVGID_2_">
		<use xlink:href="#SVGID_1_"  style="overflow:visible;"/>
	</clipPath>
	<g class="st0">
		<circle class="st1" cx="112.3" cy="112.3" r="112.3"/>
		<path class="st2" d="M124.5,134.6c5.3,9.7,13.2,13.6,24.1,12.1c-0.4,0.7-0.6,1.1-0.9,1.6c-9.7,13.7-19.4,27.3-29.1,41
			c-0.6,1-1.7,1.6-2.9,1.5c-31.3,0-62.7,0-94,0c-3.8,0-6.2-2.1-6.1-5.4s2.4-5.2,6.1-5.2c14.8,0,29.6,0,44.4-0.1
			c1.4,0,2.8-0.5,3.9-1.4c17.6-14.2,35.2-28.4,52.7-42.7L124.5,134.6z"/>
		<path class="st2" d="M5.1,211.7c0-3.1-0.1-6.1,0-9.1c0.2-2.6,2.3-4.7,4.9-4.8c0.6-0.1,1.3,0,2,0h116.2c5.2,0,7,1.7,7,7v6.9
			L5.1,211.7z"/>
		<path class="st2" d="M94.7,102.9L75.3,83.6l44.3-44.3L139,58.7L94.7,102.9z M94.3,92.2c1-0.3,1.6-0.2,2-0.6c2.3-2,4.4-4.2,6.3-6.6
			c0.6-0.8,0.1-2.8-0.6-3.9c-0.8-1.3-2.5-1.7-3.8-0.9c-0.1,0.1-0.2,0.2-0.3,0.3c-2.2,1.9-4.3,3.9-6.2,6.2c-0.5,1.1-0.5,2.3,0,3.4
			C92.2,91.1,93.6,91.6,94.3,92.2z"/>
		<path class="st2" d="M145.9,106.4c9.7,0.1,17.5,8.1,17.4,17.8s-8.1,17.5-17.8,17.4c-9.7-0.1-17.5-8.1-17.4-17.8c0-0.1,0-0.1,0-0.2
			C128.3,114,136.3,106.3,145.9,106.4z M145.7,131c3.9,0,7-3.1,7-7s-3.1-7-7-7s-7,3.1-7,7C138.7,127.8,141.8,131,145.7,131
			L145.7,131z"/>
		<path class="st2" d="M62.8,101l9.3-9.4L86.4,106l-9.3,9.3L62.8,101z"/>
		<path class="st2" d="M139.9,100c-5,1.3-9.4,4-12.8,7.9l-11.5-14.8l9.4-9.3L139.9,100z"/>
		<path class="st2" d="M137.2,17.4L160.9,41c-3.8,1.5-7.6,1.2-10.7-1.6c-4-3.6-7.8-7.5-11.5-11.5C136,24.8,135.8,21.1,137.2,17.4z"
			/>
		<path class="st2" d="M139.3,48.3l-9.6-9.6l4.7-4.3L144,44L139.3,48.3z"/>
		<path class="st2" d="M34.2,138.1h12v6.8h-12V138.1z"/>
		<path class="st2" d="M45.4,130.9H35c1.3-3.4,2.5-6.7,3.8-9.8c0.5-1.1,2.5-1,3,0.2C43,124.3,44.1,127.5,45.4,130.9z"/>
		<path class="st2" d="M35,152.2h10.4c-1.3,3.4-2.4,6.5-3.6,9.6c-0.4,0.8-1.5,1.2-2.3,0.7c-0.3-0.2-0.6-0.4-0.7-0.7
			C37.4,158.7,36.3,155.6,35,152.2z"/>
		<path class="st2" d="M27,138.1v6.8h-7.6v-6.8H27z"/>
		<path class="st2" d="M61,145h-7.5v-6.8H61V145z"/>
		<path class="st2" d="M30.1,123.1c-0.7,2.6-1.2,4.9-1.9,7.2c-0.1,0.4-0.9,0.7-1.4,0.7c-1.5,0.1-2.9,0-4.9,0
			C23.9,127.6,26.7,124.9,30.1,123.1z"/>
		<path class="st2" d="M50.9,122.9l7.6,7.3l-0.4,0.7c-1.6,0-3.2,0.1-4.9-0.1c-0.5-0.1-0.9-0.5-1.1-1c-0.7-2.1-1.2-4.3-1.8-6.5
			L50.9,122.9z"/>
		<path class="st2" d="M29.5,160.1l-7.6-7.3l0.4-0.7c1.7,0,3.4-0.1,5.1,0c0.3,0,0.8,0.6,0.9,1c0.6,2.1,1.2,4.3,1.8,6.5L29.5,160.1z"
			/>
		<path class="st2" d="M58.5,152.8l-7.6,7.4l-0.5-0.4c0.6-2.3,1.2-4.6,1.9-6.9c0.2-0.4,0.7-0.7,1.1-0.7c1.6-0.1,3.2,0,4.7,0
			L58.5,152.8z"/>
	</g>
</g>
</svg>
