<svg xmlns="http://www.w3.org/2000/svg" xmlns:xlink="http://www.w3.org/1999/xlink" width="252.6" height="248.6" viewBox="0 0 252.6 248.6"><defs><style>.a{fill:#d1dbe1;}.b{fill:#e7ecf0;}.c{fill:#1b85b4;}.d{fill:#28b4f2;}.e{filter:url(#c);}.f{filter:url(#a);}</style><filter id="a" x="0" y="0" width="242.6" height="242.6" filterUnits="userSpaceOnUse"><feOffset dx="-5" dy="-3" input="SourceAlpha"/><feGaussianBlur stdDeviation="3" result="b"/><feFlood flood-color="#fff" flood-opacity="0.451"/><feComposite operator="in" in2="b"/><feComposite in="SourceGraphic"/></filter><filter id="c" x="10" y="6" width="242.6" height="242.6" filterUnits="userSpaceOnUse"><feOffset dx="5" dy="3" input="SourceAlpha"/><feGaussianBlur stdDeviation="3" result="d"/><feFlood flood-opacity="0.161"/><feComposite operator="in" in2="d"/><feComposite in="SourceGraphic"/></filter></defs><g transform="translate(-704 -496)"><g transform="translate(-0.014)"><g transform="translate(-414.987 -25)"><g class="f" transform="matrix(1, 0, 0, 1, 1119, 521)"><circle class="a" cx="112.3" cy="112.3" r="112.3" transform="translate(14 12)"/></g><g class="e" transform="matrix(1, 0, 0, 1, 1119, 521)"><circle class="b" cx="112.3" cy="112.3" r="112.3" transform="translate(14 12)"/></g></g></g><g transform="translate(137 344.271)"><g transform="translate(950.708 118.085)"><path class="c" d="M-251.973,231.361h-12.5c-6.72-.08-9.37-2.51-9.63-9.31-.23-6.16-.08-12.33-.09-18.49,0-11.33-.15-22.66.08-34,.09-4.15-1.2-6.07-5.31-7.45-18.1-6.08-28.3-22.42-27-42.51,1-16.22,14.56-31.23,31.64-35,20.29-4.53,40.7,7.4,47.13,27.56,6.22,19.48-4,41.31-23,49.12-8.18,3.36-8.18,3.36-8.18,12.27v2.5c.07,8.56-1,8.75,8.16,8.7,5.15,0,8.42,2.88,8.62,7.1s-2.8,7.17-8,7.94c-9,1.34-8.79,1.351-8.89,10.76,0,4.07,1.19,5.77,5.4,5.55,4.82-.26,9.66-.15,14.49,0,5.86.17,9.69,3.48,9.54,8s-3.54,7.22-9.49,7.28C-243.313,231.4-247.643,231.351-251.973,231.361Zm-14.5-82.42c14.2.06,25.06-10.64,25.12-24.76a24.481,24.481,0,0,0-23.93-25h-.9c-14.37-.08-25,10.4-25,24.75S-280.823,148.891-266.473,148.941Z"/><path class="c" d="M-208.823,134.471c2.11.32,1.8,2.06,2,3.46.69,5.83,1.83,11.51,5.19,16.49a30.926,30.926,0,0,0,11.41,10.2c2.82,1.49,2.87,3.14.07,4.6-10.81,5.62-15.53,15-16.66,26.66-.13,1.38.26,3.52-1.87,3.4s-1.61-2.19-1.77-3.62c-1.22-11.41-5.74-20.75-16.4-26.28-3-1.52-3.26-3.28-.1-4.9,10.68-5.48,15.35-14.71,16.48-26.19C-210.373,136.861-210.723,135.191-208.823,134.471Z"/><path class="c" d="M-314.343,220.431c-1.54-.14-1.87-1.32-1.94-2.48-.51-7.91-4-13.91-11-17.8-2-1.119-1.83-2.7.11-3.82,6.72-3.88,10.37-9.63,10.86-17.39.08-1.17.32-2.55,1.72-2.68s1.7,1.321,1.93,2.44c.79,3.741,1.32,7.54,3.48,10.851a19.587,19.587,0,0,0,6.9,6.36c2.07,1.179,3.34,2.789.54,4.4-6.77,3.911-10.22,9.741-10.84,17.441C-312.723,218.831-312.823,220.191-314.343,220.431Z"/></g><g transform="translate(952.708 119.085)"><path class="d" d="M-251.973,231.361h-12.5c-6.72-.08-9.37-2.51-9.63-9.31-.23-6.16-.08-12.33-.09-18.49,0-11.33-.15-22.66.08-34,.09-4.15-1.2-6.07-5.31-7.45-18.1-6.08-28.3-22.42-27-42.51,1-16.22,14.56-31.23,31.64-35,20.29-4.53,40.7,7.4,47.13,27.56,6.22,19.48-4,41.31-23,49.12-8.18,3.36-8.18,3.36-8.18,12.27v2.5c.07,8.56-1,8.75,8.16,8.7,5.15,0,8.42,2.88,8.62,7.1s-2.8,7.17-8,7.94c-9,1.34-8.79,1.351-8.89,10.76,0,4.07,1.19,5.77,5.4,5.55,4.82-.26,9.66-.15,14.49,0,5.86.17,9.69,3.48,9.54,8s-3.54,7.22-9.49,7.28C-243.313,231.4-247.643,231.351-251.973,231.361Zm-14.5-82.42c14.2.06,25.06-10.64,25.12-24.76a24.481,24.481,0,0,0-23.93-25h-.9c-14.37-.08-25,10.4-25,24.75S-280.823,148.891-266.473,148.941Z"/><path class="d" d="M-208.823,134.471c2.11.32,1.8,2.06,2,3.46.69,5.83,1.83,11.51,5.19,16.49a30.926,30.926,0,0,0,11.41,10.2c2.82,1.49,2.87,3.14.07,4.6-10.81,5.62-15.53,15-16.66,26.66-.13,1.38.26,3.52-1.87,3.4s-1.61-2.19-1.77-3.62c-1.22-11.41-5.74-20.75-16.4-26.28-3-1.52-3.26-3.28-.1-4.9,10.68-5.48,15.35-14.71,16.48-26.19C-210.373,136.861-210.723,135.191-208.823,134.471Z"/><path class="d" d="M-314.343,220.431c-1.54-.14-1.87-1.32-1.94-2.48-.51-7.91-4-13.91-11-17.8-2-1.119-1.83-2.7.11-3.82,6.72-3.88,10.37-9.63,10.86-17.39.08-1.17.32-2.55,1.72-2.68s1.7,1.321,1.93,2.44c.79,3.741,1.32,7.54,3.48,10.851a19.587,19.587,0,0,0,6.9,6.36c2.07,1.179,3.34,2.789.54,4.4-6.77,3.911-10.22,9.741-10.84,17.441C-312.723,218.831-312.823,220.191-314.343,220.431Z"/></g></g></g></svg>