<svg id="레이어_1" data-name="레이어 1" xmlns="http://www.w3.org/2000/svg" viewBox="0 0 224.59 224.59"><defs><style>.cls-1{fill:#a7bbc7;}.cls-2{fill:#fff;}</style></defs><circle class="cls-1" cx="112.3" cy="112.3" r="112.3"/><path class="cls-2" d="M118.75,186.17c-4.17,0-8.33,0-12.5,0-6.72-.08-9.37-2.51-9.63-9.31-.23-6.16-.08-12.33-.09-18.49,0-11.33-.15-22.66.08-34,.09-4.15-1.2-6.07-5.31-7.45-18.1-6.08-28.28-22.42-27-42.51,1-16.22,14.56-31.23,31.64-35.05,20.29-4.53,40.7,7.4,47.13,27.56,6.22,19.48-4,41.31-23,49.12-8.18,3.36-8.18,3.36-8.18,12.27,0,.84,0,1.67,0,2.5.07,8.56-1,8.75,8.16,8.7,5.15,0,8.42,2.88,8.62,7.1s-2.8,7.17-8,7.94c-9,1.34-8.79,1.35-8.89,10.76,0,4.07,1.19,5.77,5.4,5.55,4.82-.26,9.66-.15,14.49,0,5.86.17,9.69,3.48,9.54,8s-3.54,7.22-9.49,7.28C127.41,186.21,123.08,186.16,118.75,186.17Zm-14.5-82.42c14.2.06,25.06-10.64,25.12-24.76a24.47,24.47,0,0,0-24.83-25c-14.37-.08-25,10.4-25,24.75S89.9,103.7,104.25,103.75Z"/><path class="cls-2" d="M161.9,89.28c2.11.32,1.8,2.06,2,3.46.69,5.83,1.83,11.51,5.19,16.49a30.85,30.85,0,0,0,11.41,10.2c2.82,1.49,2.87,3.14.07,4.6-10.81,5.62-15.53,15-16.66,26.66-.13,1.38.26,3.52-1.87,3.4-2-.11-1.61-2.19-1.77-3.62-1.22-11.41-5.74-20.75-16.4-26.28-3-1.52-3.26-3.28-.1-4.9,10.68-5.48,15.35-14.71,16.48-26.19C160.35,91.67,160,90,161.9,89.28Z"/><path class="cls-2" d="M56.38,175.24c-1.54-.14-1.87-1.32-1.94-2.48-.51-7.91-4-13.91-11-17.8-2-1.12-1.83-2.7.11-3.82,6.72-3.88,10.37-9.63,10.86-17.39.08-1.17.32-2.55,1.72-2.68s1.7,1.32,1.93,2.44c.79,3.74,1.32,7.54,3.48,10.85a19.58,19.58,0,0,0,6.9,6.36c2.07,1.18,3.34,2.79.54,4.4-6.77,3.91-10.22,9.74-10.84,17.44C58,173.64,57.9,175,56.38,175.24Z"/></svg>