<?xml version="1.0" encoding="utf-8"?>
<!-- Generator: Adobe Illustrator 25.2.3, SVG Export Plug-In . SVG Version: 6.00 Build 0)  -->
<svg version="1.1" id="레이어_1" xmlns="http://www.w3.org/2000/svg" xmlns:xlink="http://www.w3.org/1999/xlink" x="0px"
	 y="0px" viewBox="0 0 122.17 124.68" style="enable-background:new 0 0 122.17 124.68;" xml:space="preserve">
<style type="text/css">
	.st0{fill:url(#패스_6412_1_);}
	.st1{fill:#A7BBC7;}
	.st2{font-family:'ArialMT';}
	.st3{font-size:28.5125px;}
</style>
<linearGradient id="패스_6412_1_" gradientUnits="userSpaceOnUse" x1="-910.2932" y1="602.079" x2="-910.2932" y2="601.5986" gradientTransform="matrix(254.2972 0 0 -256.4134 231546.125 154382.6406)">
	<stop  offset="0" style="stop-color:#A7BBC7"/>
	<stop  offset="1" style="stop-color:#FFFFFF"/>
</linearGradient>
<path id="패스_6412" class="st0" d="M120.62,58.28C101.98,39.85,83.21,21.56,64.49,3.22c-1.17-1.14-2.29-1.72-3.4-1.73
	c-1.12,0-2.24,0.58-3.4,1.73C38.96,21.56,20.19,39.85,1.56,58.28c-1.07,1.06-1.9,3.47-1.41,4.65c0.49,1.17,2.74,2.08,4.31,2.24
	c3.34,0.33,15.62,0.1,19.34,0.1c0,18.33,0.14,35.79-0.09,53.25c-0.06,4.78,1.45,6.19,6.22,6.15c9.31-0.07,24.56-0.11,31.17-0.12
	c6.61,0.01,21.86,0.05,31.17,0.12c4.76,0.04,6.28-1.37,6.22-6.15c-0.24-17.46-0.09-34.92-0.09-53.25c3.72,0,16,0.23,19.34-0.1
	c1.57-0.16,3.83-1.07,4.31-2.24C122.52,61.75,121.68,59.34,120.62,58.28z"/>
<text transform="matrix(1 0 0 1 32.2964 103.5645)" class="st1 st2 st3">TOP</text>
</svg>
